<svg xmlns="http://www.w3.org/2000/svg" viewBox="0 0 420 80">
  <g id="Wordmarks">
    <g>
      <path d="M23.33008,9.32324H33.55469l21.602,50.76465H43.564L38.95557,48.7832H17.6416L13.0332,60.08789H1.728Zm11.665,29.667-6.69678-16.3457L21.602,38.99023Z" fill="#393938"/>
      <path d="M62.27979,7.52344H73.22461V60.08789H62.27979Z" fill="#393938"/>
      <path d="M85.31934,49.14258V30.85352h-4.6084V21.49219h4.6084V11.62793H96.26416v9.86426h9.07275v9.36133H96.26416V47.34277c0,2.52051,1.08008,3.74414,3.52832,3.74414a11.1288,11.1288,0,0,0,5.40039-1.36816v8.78516a16.1347,16.1347,0,0,1-8.64062,2.23242C89.85547,60.73633,85.31934,58.07129,85.31934,49.14258Z" fill="#393938"/>
      <path d="M111.09424,48.999v-.14453c0-8.42383,6.40869-12.3125,15.55322-12.3125a27.41764,27.41764,0,0,1,9.43311,1.584v-.64844c0-4.53613-2.8086-7.05664-8.28077-7.05664a28.39487,28.39487,0,0,0-10.65722,2.08887l-2.73633-8.35254a34.0407,34.0407,0,0,1,14.97754-3.09668c5.97656,0,10.29687,1.584,13.0332,4.32031,2.88037,2.87988,4.17627,7.12891,4.17627,12.31348V60.08789h-10.585V55.91113a14.83628,14.83628,0,0,1-11.665,4.89649C117.0708,60.80762,111.09424,56.63184,111.09424,48.999Zm25.12988-2.5205V44.53418a16.98305,16.98305,0,0,0-6.98437-1.43945c-4.68018,0-7.56055,1.87207-7.56055,5.32812v.14356c0,2.95312,2.44824,4.68066,5.97656,4.68066C132.76807,53.24707,136.22412,50.43945,136.22412,46.47852Z" fill="#393938"/>
      <path d="M156.23828,7.52344h11.521v9.7207h-11.521Zm.28809,13.96875h10.94482v38.5957H156.52637Z" fill="#393938"/>
      <path d="M177.76514,21.49219H188.71v7.77734c2.23242-5.3291,5.83252-8.78515,12.313-8.49707V32.22168h-.57568c-7.273,0-11.73731,4.39258-11.73731,13.60937V60.08789H177.76514Z" fill="#393938"/>
      <path d="M230.6123,9.68359h38.3794V19.76465h-27.29V30.49316h24.0498V40.57422h-24.0498V60.08789H230.6123Z" fill="#393938"/>
      <path d="M277.19531,7.52344h10.94483V60.08789H277.19531Z" fill="#393938"/>
      <path d="M298.14648,46.47852V21.49219h10.94483V43.02246c0,5.18457,2.44824,7.84863,6.62451,7.84863,4.17676,0,6.84082-2.66406,6.84082-7.84863V21.49219H333.502v38.5957H322.55664V54.61523c-2.52051,3.24024-5.76074,6.19239-11.30518,6.19239C302.9707,60.80762,298.14648,55.33594,298.14648,46.47852Z" fill="#393938"/>
      <path d="M359.49121,32.79785l7.27246-11.30566h11.44922L365.17969,40.3584l13.60937,19.72949h-11.7373L359.27539,48.0625,351.499,60.08789H340.0498L353.58691,40.502l-13.0332-19.00976H352.291Z" fill="#393938"/>
      <path d="M385.53125,13.14844H381.5625V10.47461h10.957v2.67383h-3.96875v10.6123h-3.01953Zm9.792-2.67383h3.19238l3.49415,5.60742,3.49414-5.60742h3.10547V23.76074H405.7627V14.78809l-3.667,5.82324h-.25879l-3.666-5.82324v8.97265h-2.84766Z" fill="#393938"/>
    </g>
  </g>
</svg>
