<?xml version="1.0" encoding="utf-8"?>
<!-- Generator: Adobe Illustrator 24.0.0, SVG Export Plug-In . SVG Version: 6.00 Build 0)  -->
<svg version="1.1" xmlns="http://www.w3.org/2000/svg" xmlns:xlink="http://www.w3.org/1999/xlink" x="0px" y="0px" width="440.3px"
	 height="325.13px" viewBox="0 0 440.3 325.13" enable-background="new 0 0 440.3 325.13" xml:space="preserve">
<g id="Shapes">
	<line fill="none" stroke="#000000" x1="74.85" y1="0" x2="74.85" y2="285"/>
	<line fill="none" stroke="#000000" x1="245.5" y1="0" x2="245.5" y2="285"/>
	<g id="Wrench_tool_x28_s_x29_">
	</g>
	<g id="user2">
	</g>
	<g id="user2_1_">
	</g>
	<g id="user2_4_">
	</g>
	<g id="user2_3_">
	</g>
	<g id="user2_2_">
	</g>
	<g id="Internet_2">
	</g>
	<g id="Enterprise">
	</g>
	<g id="Tunnel__x28_stackable_x29_">
	</g>
	<g id="New_Symbol">
	</g>
	<g id="New_Symbol_1">
	</g>
	<g id="Files">
	</g>
	<g id="BlobBlock">
	</g>
	<g id="E_x5F_Enterprise">
	</g>
	<g id="E_x5F_AD_FS">
	</g>
	<g id="C_x5F_Azure_Active_Directory">
	</g>
	<g id="Layer_22">
	</g>
	<g>
		<polygon fill="#808080" points="145.5,281 143,281 143,280 144.5,280 144.5,278.5 145.5,278.5 		"/>
		<path fill="#808080" d="M140.97,281h-4.06v-1h4.06V281z M134.88,281h-4.06v-1h4.06V281z M128.79,281h-4.06v-1h4.06V281z
			 M122.7,281h-4.06v-1h4.06V281z M116.61,281h-4.06v-1h4.06V281z M110.52,281h-4.06v-1h4.06V281z M104.43,281h-4.06v-1h4.06V281z
			 M98.34,281h-4.06v-1h4.06V281z M92.25,281h-4.06v-1h4.06V281z M86.16,281H82.1v-1h4.06V281z M80.07,281h-4.06v-1h4.06V281z
			 M73.99,281h-4.06v-1h4.06V281z M67.9,281h-4.06v-1h4.06V281z M61.81,281h-4.06v-1h4.06V281z M55.72,281h-4.06v-1h4.06V281z
			 M49.63,281h-4.06v-1h4.06V281z M43.54,281h-4.06v-1h4.06V281z M37.45,281h-4.06v-1h4.06V281z M31.36,281H27.3v-1h4.06V281z
			 M25.27,281h-4.06v-1h4.06V281z M19.18,281h-4.06v-1h4.06V281z M13.09,281H9.03v-1h4.06V281z"/>
		<polygon fill="#808080" points="7,281 4.5,281 4.5,278.5 5.5,278.5 5.5,280 7,280 		"/>
		<path fill="#808080" d="M5.5,276.5h-1v-4h1V276.5z M5.5,270.5h-1v-4h1V270.5z M5.5,264.5h-1v-4h1V264.5z M5.5,258.5h-1v-4h1V258.5
			z M5.5,252.5h-1v-4h1V252.5z M5.5,246.5h-1v-4h1V246.5z M5.5,240.5h-1v-4h1V240.5z M5.5,234.5h-1v-4h1V234.5z M5.5,228.5h-1v-4h1
			V228.5z M5.5,222.5h-1v-4h1V222.5z M5.5,216.5h-1v-4h1V216.5z M5.5,210.5h-1v-4h1V210.5z M5.5,204.5h-1v-4h1V204.5z M5.5,198.5h-1
			v-4h1V198.5z M5.5,192.5h-1v-4h1V192.5z M5.5,186.5h-1v-4h1V186.5z M5.5,180.5h-1v-4h1V180.5z M5.5,174.5h-1v-4h1V174.5z
			 M5.5,168.5h-1v-4h1V168.5z M5.5,162.5h-1v-4h1V162.5z M5.5,156.5h-1v-4h1V156.5z M5.5,150.5h-1v-4h1V150.5z M5.5,144.5h-1v-4h1
			V144.5z M5.5,138.5h-1v-4h1V138.5z M5.5,132.5h-1v-4h1V132.5z M5.5,126.5h-1v-4h1V126.5z M5.5,120.5h-1v-4h1V120.5z M5.5,114.5h-1
			v-4h1V114.5z M5.5,108.5h-1v-4h1V108.5z M5.5,102.5h-1v-4h1V102.5z M5.5,96.5h-1v-4h1V96.5z M5.5,90.5h-1v-4h1V90.5z M5.5,84.5h-1
			v-4h1V84.5z M5.5,78.5h-1v-4h1V78.5z"/>
		<polygon fill="#808080" points="5.5,72.5 4.5,72.5 4.5,70 7,70 7,71 5.5,71 		"/>
		<path fill="#808080" d="M140.97,71h-4.06v-1h4.06V71z M134.88,71h-4.06v-1h4.06V71z M128.79,71h-4.06v-1h4.06V71z M122.7,71h-4.06
			v-1h4.06V71z M116.61,71h-4.06v-1h4.06V71z M110.52,71h-4.06v-1h4.06V71z M104.43,71h-4.06v-1h4.06V71z M98.34,71h-4.06v-1h4.06
			V71z M92.25,71h-4.06v-1h4.06V71z M86.16,71H82.1v-1h4.06V71z M80.07,71h-4.06v-1h4.06V71z M73.98,71h-4.06v-1h4.06V71z M67.9,71
			h-4.06v-1h4.06V71z M61.81,71h-4.06v-1h4.06V71z M55.72,71h-4.06v-1h4.06V71z M49.63,71h-4.06v-1h4.06V71z M43.54,71h-4.06v-1
			h4.06V71z M37.45,71h-4.06v-1h4.06V71z M31.36,71H27.3v-1h4.06V71z M25.27,71h-4.06v-1h4.06V71z M19.18,71h-4.06v-1h4.06V71z
			 M13.09,71H9.03v-1h4.06V71z"/>
		<polygon fill="#808080" points="145.5,72.5 144.5,72.5 144.5,71 143,71 143,70 145.5,70 		"/>
		<path fill="#808080" d="M145.5,276.5h-1v-4h1V276.5z M145.5,270.5h-1v-4h1V270.5z M145.5,264.5h-1v-4h1V264.5z M145.5,258.5h-1v-4
			h1V258.5z M145.5,252.5h-1v-4h1V252.5z M145.5,246.5h-1v-4h1V246.5z M145.5,240.5h-1v-4h1V240.5z M145.5,234.5h-1v-4h1V234.5z
			 M145.5,228.5h-1v-4h1V228.5z M145.5,222.5h-1v-4h1V222.5z M145.5,216.5h-1v-4h1V216.5z M145.5,210.5h-1v-4h1V210.5z M145.5,204.5
			h-1v-4h1V204.5z M145.5,198.5h-1v-4h1V198.5z M145.5,192.5h-1v-4h1V192.5z M145.5,186.5h-1v-4h1V186.5z M145.5,180.5h-1v-4h1
			V180.5z M145.5,174.5h-1v-4h1V174.5z M145.5,168.5h-1v-4h1V168.5z M145.5,162.5h-1v-4h1V162.5z M145.5,156.5h-1v-4h1V156.5z
			 M145.5,150.5h-1v-4h1V150.5z M145.5,144.5h-1v-4h1V144.5z M145.5,138.5h-1v-4h1V138.5z M145.5,132.5h-1v-4h1V132.5z M145.5,126.5
			h-1v-4h1V126.5z M145.5,120.5h-1v-4h1V120.5z M145.5,114.5h-1v-4h1V114.5z M145.5,108.5h-1v-4h1V108.5z M145.5,102.5h-1v-4h1
			V102.5z M145.5,96.5h-1v-4h1V96.5z M145.5,90.5h-1v-4h1V90.5z M145.5,84.5h-1v-4h1V84.5z M145.5,78.5h-1v-4h1V78.5z"/>
	</g>
	<g>
		<rect x="55.5" y="10" fill="#FBFBFC" width="215" height="35"/>
		<rect x="55.5" y="10" fill="#D5DCE9" width="215" height="35"/>
		<rect x="55.5" y="10" fill="none" stroke="#2E5291" stroke-width="0.5" width="215" height="35"/>
	</g>
	<g>
		<rect x="9.78" y="109.94" fill="#FBFBFC" width="130.12" height="35.06"/>
		<rect x="9.78" y="109.94" fill="#D5DCE9" width="130.12" height="35.06"/>
		<rect x="9.78" y="109.94" fill="none" stroke="#2E5291" stroke-width="0.5" width="130.12" height="35.06"/>
	</g>
	<g>
		<rect x="9.78" y="155" fill="#FBFBFC" width="130.12" height="35"/>
		<rect x="9.78" y="155" fill="#D5DCE9" width="130.12" height="35"/>
		<rect x="9.78" y="155" fill="none" stroke="#2E5291" stroke-width="0.5" width="130.12" height="35"/>
	</g>
	<g>
		<rect x="9.78" y="75" fill="#FBFBFC" width="130.12" height="25.54"/>
		<rect x="9.78" y="75" fill="#D5DCE9" width="130.12" height="25.54"/>
		<rect x="9.78" y="75" fill="none" stroke="#2E5291" stroke-width="0.5" width="130.12" height="25.54"/>
	</g>
	<g>
		<polygon fill="#808080" points="316.5,281 314,281 314,280 315.5,280 315.5,278.5 316.5,278.5 		"/>
		<path fill="#808080" d="M311.97,281h-4.06v-1h4.06V281z M305.88,281h-4.06v-1h4.06V281z M299.79,281h-4.06v-1h4.06V281z
			 M293.7,281h-4.06v-1h4.06V281z M287.61,281h-4.06v-1h4.06V281z M281.52,281h-4.06v-1h4.06V281z M275.43,281h-4.06v-1h4.06V281z
			 M269.34,281h-4.06v-1h4.06V281z M263.25,281h-4.06v-1h4.06V281z M257.16,281h-4.06v-1h4.06V281z M251.07,281h-4.06v-1h4.06V281z
			 M244.99,281h-4.06v-1h4.06V281z M238.9,281h-4.06v-1h4.06V281z M232.81,281h-4.06v-1h4.06V281z M226.72,281h-4.06v-1h4.06V281z
			 M220.63,281h-4.06v-1h4.06V281z M214.54,281h-4.06v-1h4.06V281z M208.45,281h-4.06v-1h4.06V281z M202.36,281h-4.06v-1h4.06V281z
			 M196.27,281h-4.06v-1h4.06V281z M190.18,281h-4.06v-1h4.06V281z M184.09,281h-4.06v-1h4.06V281z"/>
		<polygon fill="#808080" points="178,281 175.5,281 175.5,278.5 176.5,278.5 176.5,280 178,280 		"/>
		<path fill="#808080" d="M176.5,276.5h-1v-4h1V276.5z M176.5,270.5h-1v-4h1V270.5z M176.5,264.5h-1v-4h1V264.5z M176.5,258.5h-1v-4
			h1V258.5z M176.5,252.5h-1v-4h1V252.5z M176.5,246.5h-1v-4h1V246.5z M176.5,240.5h-1v-4h1V240.5z M176.5,234.5h-1v-4h1V234.5z
			 M176.5,228.5h-1v-4h1V228.5z M176.5,222.5h-1v-4h1V222.5z M176.5,216.5h-1v-4h1V216.5z M176.5,210.5h-1v-4h1V210.5z M176.5,204.5
			h-1v-4h1V204.5z M176.5,198.5h-1v-4h1V198.5z M176.5,192.5h-1v-4h1V192.5z M176.5,186.5h-1v-4h1V186.5z M176.5,180.5h-1v-4h1
			V180.5z M176.5,174.5h-1v-4h1V174.5z M176.5,168.5h-1v-4h1V168.5z M176.5,162.5h-1v-4h1V162.5z M176.5,156.5h-1v-4h1V156.5z
			 M176.5,150.5h-1v-4h1V150.5z M176.5,144.5h-1v-4h1V144.5z M176.5,138.5h-1v-4h1V138.5z M176.5,132.5h-1v-4h1V132.5z M176.5,126.5
			h-1v-4h1V126.5z M176.5,120.5h-1v-4h1V120.5z M176.5,114.5h-1v-4h1V114.5z M176.5,108.5h-1v-4h1V108.5z M176.5,102.5h-1v-4h1
			V102.5z M176.5,96.5h-1v-4h1V96.5z M176.5,90.5h-1v-4h1V90.5z M176.5,84.5h-1v-4h1V84.5z M176.5,78.5h-1v-4h1V78.5z"/>
		<polygon fill="#808080" points="176.5,72.5 175.5,72.5 175.5,70 178,70 178,71 176.5,71 		"/>
		<path fill="#808080" d="M311.97,71h-4.06v-1h4.06V71z M305.88,71h-4.06v-1h4.06V71z M299.79,71h-4.06v-1h4.06V71z M293.7,71h-4.06
			v-1h4.06V71z M287.61,71h-4.06v-1h4.06V71z M281.52,71h-4.06v-1h4.06V71z M275.43,71h-4.06v-1h4.06V71z M269.34,71h-4.06v-1h4.06
			V71z M263.25,71h-4.06v-1h4.06V71z M257.16,71h-4.06v-1h4.06V71z M251.07,71h-4.06v-1h4.06V71z M244.98,71h-4.06v-1h4.06V71z
			 M238.9,71h-4.06v-1h4.06V71z M232.81,71h-4.06v-1h4.06V71z M226.72,71h-4.06v-1h4.06V71z M220.63,71h-4.06v-1h4.06V71z
			 M214.54,71h-4.06v-1h4.06V71z M208.45,71h-4.06v-1h4.06V71z M202.36,71h-4.06v-1h4.06V71z M196.27,71h-4.06v-1h4.06V71z
			 M190.18,71h-4.06v-1h4.06V71z M184.09,71h-4.06v-1h4.06V71z"/>
		<polygon fill="#808080" points="316.5,72.5 315.5,72.5 315.5,71 314,71 314,70 316.5,70 		"/>
		<path fill="#808080" d="M316.5,276.5h-1v-4h1V276.5z M316.5,270.5h-1v-4h1V270.5z M316.5,264.5h-1v-4h1V264.5z M316.5,258.5h-1v-4
			h1V258.5z M316.5,252.5h-1v-4h1V252.5z M316.5,246.5h-1v-4h1V246.5z M316.5,240.5h-1v-4h1V240.5z M316.5,234.5h-1v-4h1V234.5z
			 M316.5,228.5h-1v-4h1V228.5z M316.5,222.5h-1v-4h1V222.5z M316.5,216.5h-1v-4h1V216.5z M316.5,210.5h-1v-4h1V210.5z M316.5,204.5
			h-1v-4h1V204.5z M316.5,198.5h-1v-4h1V198.5z M316.5,192.5h-1v-4h1V192.5z M316.5,186.5h-1v-4h1V186.5z M316.5,180.5h-1v-4h1
			V180.5z M316.5,174.5h-1v-4h1V174.5z M316.5,168.5h-1v-4h1V168.5z M316.5,162.5h-1v-4h1V162.5z M316.5,156.5h-1v-4h1V156.5z
			 M316.5,150.5h-1v-4h1V150.5z M316.5,144.5h-1v-4h1V144.5z M316.5,138.5h-1v-4h1V138.5z M316.5,132.5h-1v-4h1V132.5z M316.5,126.5
			h-1v-4h1V126.5z M316.5,120.5h-1v-4h1V120.5z M316.5,114.5h-1v-4h1V114.5z M316.5,108.5h-1v-4h1V108.5z M316.5,102.5h-1v-4h1
			V102.5z M316.5,96.5h-1v-4h1V96.5z M316.5,90.5h-1v-4h1V90.5z M316.5,84.5h-1v-4h1V84.5z M316.5,78.5h-1v-4h1V78.5z"/>
	</g>
	<g>
		<rect x="180.44" y="75" fill="#FBFBFC" width="130.12" height="25.54"/>
		<rect x="180.44" y="75" fill="#D5DCE9" width="130.12" height="25.54"/>
		<rect x="180.44" y="75" fill="none" stroke="#2E5291" stroke-width="0.5" width="130.12" height="25.54"/>
	</g>
	<g>
		<rect x="180.44" y="110" fill="#FBFBFC" width="130.12" height="25.54"/>
		<rect x="180.44" y="110" fill="#D5DCE9" width="130.12" height="25.54"/>
		<rect x="180.44" y="110" fill="none" stroke="#2E5291" stroke-width="0.5" width="130.12" height="25.54"/>
	</g>
	<g>
		<rect x="85.38" y="191" fill="#272525" width="1.25" height="4"/>
		<rect x="85.38" y="196.08" fill="#272525" width="1.25" height="4.33"/>
		<polygon fill="#272525" points="90,206.13 85.38,206.13 85.38,201.5 86.63,201.5 86.63,204.88 90,204.88 		"/>
		<path fill="#272525" d="M220,206.13h-8v-1.25h8V206.13z M210,206.13h-8v-1.25h8V206.13z M200,206.13h-8v-1.25h8V206.13z
			 M190,206.13h-8v-1.25h8V206.13z M180,206.13h-8v-1.25h8V206.13z M170,206.13h-8v-1.25h8V206.13z M160,206.13h-8v-1.25h8V206.13z
			 M150,206.13h-8v-1.25h8V206.13z M140,206.13h-8v-1.25h8V206.13z M130,206.13h-8v-1.25h8V206.13z M120,206.13h-8v-1.25h8V206.13z
			 M110,206.13h-8v-1.25h8V206.13z M100,206.13h-8v-1.25h8V206.13z"/>
		<polygon fill="#272525" points="226.63,209.5 225.38,209.5 225.38,206.13 222,206.13 222,204.88 226.63,204.88 		"/>
		<path fill="#272525" d="M226.63,279.99h-1.25v-8.06h1.25V279.99z M226.63,269.92h-1.25v-8.06h1.25V269.92z M226.63,259.85h-1.25
			v-8.06h1.25V259.85z M226.63,249.78h-1.25v-8.06h1.25V249.78z M226.63,239.71h-1.25v-8.06h1.25V239.71z M226.63,229.64h-1.25
			v-8.06h1.25V229.64z M226.63,219.57h-1.25v-8.06h1.25V219.57z"/>
		<rect x="225.38" y="282" fill="#272525" width="1.25" height="4"/>
	</g>
	<polyline fill="none" stroke="#B2B2B2" stroke-miterlimit="10" points="277.35,5 290.47,5 290.47,50 277.35,50 	"/>
	<line fill="none" stroke="#B2B2B2" stroke-miterlimit="10" x1="302.72" y1="27.5" x2="290.72" y2="27.5"/>
	<polyline fill="none" stroke="#B2B2B2" stroke-miterlimit="10" points="325.5,70 338.62,70 338.62,280 325.5,280 	"/>
	<line fill="none" stroke="#B2B2B2" stroke-miterlimit="10" x1="350.87" y1="177.5" x2="338.87" y2="177.5"/>
	<polyline fill="none" stroke="#B2B2B2" stroke-miterlimit="10" points="150.5,285 150.5,295 0.5,295 0.5,285 	"/>
	<line fill="none" stroke="#B2B2B2" stroke-miterlimit="10" x1="75.5" y1="307.24" x2="75.5" y2="295.24"/>
	<polyline fill="none" stroke="#B2B2B2" stroke-miterlimit="10" points="320.5,285 320.5,295 170.5,295 170.5,285 	"/>
	<line fill="none" stroke="#B2B2B2" stroke-miterlimit="10" x1="245.5" y1="307.24" x2="245.5" y2="295.24"/>
	<g>
		<rect x="180.44" y="214.46" fill="#FBFBFC" width="130.12" height="25.54"/>
		<rect x="180.44" y="214.46" fill="#D5DCE9" width="130.12" height="25.54"/>
		<rect x="180.44" y="214.46" fill="none" stroke="#2E5291" stroke-width="0.5" width="130.12" height="25.54"/>
	</g>
	<g>
		<rect x="180.44" y="249.46" fill="#FBFBFC" width="130.12" height="25.54"/>
		<rect x="180.44" y="249.46" fill="#D5DCE9" width="130.12" height="25.54"/>
		<rect x="180.44" y="249.46" fill="none" stroke="#2E5291" stroke-width="0.5" width="130.12" height="25.54"/>
	</g>
</g>
<g id="Text">
	<g id="Windows_Server_New">
	</g>
	<g>
		<rect x="22.07" y="113.72" fill="none" width="105.55" height="31.28"/>
		<path fill="#1E1E1E" d="M43.2,123.92h-0.98v-3.83h-4.35v3.83h-0.98v-8.4h0.98v3.69h4.35v-3.69h0.98V123.92z"/>
		<path fill="#1E1E1E" d="M50.1,121.16h-4.24c0.02,0.67,0.2,1.18,0.54,1.55s0.82,0.54,1.42,0.54c0.68,0,1.3-0.22,1.86-0.67v0.9
			c-0.53,0.38-1.22,0.57-2.09,0.57c-0.85,0-1.51-0.27-2-0.82s-0.73-1.31-0.73-2.3c0-0.93,0.26-1.69,0.79-2.28s1.19-0.88,1.97-0.88
			s1.39,0.25,1.82,0.76s0.64,1.21,0.64,2.12V121.16z M49.12,120.35c0-0.55-0.14-0.99-0.4-1.29s-0.63-0.46-1.1-0.46
			c-0.45,0-0.84,0.16-1.15,0.49s-0.51,0.75-0.59,1.27H49.12z"/>
		<path fill="#1E1E1E" d="M55.85,123.92h-0.96v-0.94h-0.02c-0.42,0.72-1.03,1.08-1.85,1.08c-0.6,0-1.07-0.16-1.4-0.47
			s-0.51-0.74-0.51-1.26c0-1.12,0.66-1.77,1.98-1.96l1.8-0.25c0-1.02-0.41-1.53-1.24-1.53c-0.72,0-1.38,0.25-1.96,0.74v-0.98
			c0.59-0.38,1.27-0.56,2.04-0.56c1.41,0,2.12,0.75,2.12,2.24V123.92z M54.89,120.89l-1.45,0.2c-0.45,0.06-0.78,0.17-1.01,0.33
			s-0.34,0.44-0.34,0.84c0,0.29,0.1,0.53,0.31,0.72s0.49,0.28,0.83,0.28c0.48,0,0.87-0.17,1.18-0.5s0.47-0.76,0.47-1.27V120.89z"/>
		<path fill="#1E1E1E" d="M58.62,123.92h-0.96v-8.88h0.96V123.92z"/>
		<path fill="#1E1E1E" d="M68.97,123.44c0,2.2-1.05,3.3-3.16,3.3c-0.74,0-1.39-0.14-1.95-0.42v-0.96c0.68,0.38,1.32,0.56,1.93,0.56
			c1.48,0,2.21-0.79,2.21-2.36v-0.66h-0.02c-0.46,0.77-1.14,1.15-2.06,1.15c-0.75,0-1.35-0.27-1.8-0.8s-0.68-1.25-0.68-2.15
			c0-1.02,0.25-1.83,0.74-2.43s1.16-0.9,2.01-0.9c0.81,0,1.41,0.32,1.8,0.97h0.02v-0.83h0.96V123.44z M68.01,121.21v-0.88
			c0-0.48-0.16-0.88-0.48-1.22s-0.72-0.51-1.2-0.51c-0.59,0-1.06,0.22-1.39,0.65s-0.5,1.04-0.5,1.81c0,0.67,0.16,1.2,0.48,1.6
			s0.75,0.6,1.28,0.6c0.54,0,0.98-0.19,1.32-0.57S68.01,121.81,68.01,121.21z"/>
		<path fill="#1E1E1E" d="M75.74,121.16H71.5c0.02,0.67,0.2,1.18,0.54,1.55s0.82,0.54,1.42,0.54c0.68,0,1.3-0.22,1.86-0.67v0.9
			c-0.53,0.38-1.22,0.57-2.09,0.57c-0.85,0-1.51-0.27-2-0.82s-0.73-1.31-0.73-2.3c0-0.93,0.26-1.69,0.79-2.28s1.19-0.88,1.97-0.88
			s1.39,0.25,1.82,0.76s0.64,1.21,0.64,2.12V121.16z M74.76,120.35c0-0.55-0.14-0.99-0.4-1.29s-0.63-0.46-1.1-0.46
			c-0.45,0-0.84,0.16-1.15,0.49s-0.51,0.75-0.59,1.27H74.76z"/>
		<path fill="#1E1E1E" d="M79.7,124.06c-0.89,0-1.59-0.28-2.12-0.84s-0.79-1.3-0.79-2.23c0-1.01,0.28-1.79,0.83-2.36
			s1.29-0.85,2.23-0.85c0.89,0,1.59,0.28,2.09,0.83s0.75,1.31,0.75,2.29c0,0.96-0.27,1.72-0.81,2.3S80.61,124.06,79.7,124.06z
			 M79.77,118.59c-0.62,0-1.11,0.21-1.46,0.63s-0.54,1-0.54,1.74c0,0.71,0.18,1.27,0.54,1.68s0.85,0.62,1.46,0.62
			c0.62,0,1.1-0.2,1.43-0.6s0.5-0.97,0.5-1.72c0-0.75-0.17-1.33-0.5-1.73S80.39,118.59,79.77,118.59z"/>
		<path fill="#1E1E1E" d="M92.74,123.92h-0.96v-3.45c0-0.66-0.1-1.14-0.31-1.44s-0.55-0.45-1.03-0.45c-0.41,0-0.76,0.19-1.05,0.56
			s-0.43,0.82-0.43,1.35v3.42H88v-3.56c0-1.18-0.46-1.77-1.37-1.77c-0.42,0-0.77,0.18-1.04,0.53s-0.41,0.81-0.41,1.38v3.42h-0.96v-6
			h0.96v0.95h0.02c0.43-0.73,1.05-1.09,1.86-1.09c0.41,0,0.77,0.11,1.07,0.34s0.51,0.53,0.63,0.9c0.45-0.83,1.11-1.24,1.99-1.24
			c1.32,0,1.98,0.81,1.98,2.44V123.92z"/>
		<path fill="#1E1E1E" d="M99.38,121.16h-4.24c0.02,0.67,0.2,1.18,0.54,1.55s0.82,0.54,1.42,0.54c0.68,0,1.3-0.22,1.86-0.67v0.9
			c-0.53,0.38-1.22,0.57-2.09,0.57c-0.85,0-1.51-0.27-2-0.82s-0.73-1.31-0.73-2.3c0-0.93,0.26-1.69,0.79-2.28s1.19-0.88,1.97-0.88
			s1.39,0.25,1.82,0.76s0.64,1.21,0.64,2.12V121.16z M98.4,120.35c0-0.55-0.14-0.99-0.4-1.29s-0.63-0.46-1.1-0.46
			c-0.45,0-0.84,0.16-1.15,0.49s-0.51,0.75-0.59,1.27H98.4z"/>
		<path fill="#1E1E1E" d="M103.62,123.86c-0.23,0.13-0.53,0.19-0.9,0.19c-1.05,0-1.58-0.59-1.58-1.76v-3.55h-1.03v-0.82h1.03v-1.46
			l0.96-0.31v1.78h1.51v0.82h-1.51v3.38c0,0.4,0.07,0.69,0.21,0.86s0.36,0.26,0.68,0.26c0.24,0,0.45-0.07,0.63-0.2V123.86z"/>
		<path fill="#1E1E1E" d="M108.03,118.9c-0.17-0.13-0.41-0.19-0.73-0.19c-0.41,0-0.75,0.19-1.03,0.58s-0.41,0.91-0.41,1.58v3.06
			h-0.96v-6h0.96v1.24h0.02c0.14-0.42,0.35-0.75,0.63-0.99s0.6-0.35,0.94-0.35c0.25,0,0.44,0.03,0.57,0.08V118.9z"/>
		<path fill="#1E1E1E" d="M113.85,117.92l-2.76,6.96c-0.49,1.24-1.18,1.86-2.07,1.86c-0.25,0-0.46-0.03-0.63-0.08v-0.86
			c0.21,0.07,0.4,0.11,0.57,0.11c0.48,0,0.85-0.29,1.09-0.87l0.48-1.14l-2.34-5.99h1.07l1.62,4.62c0.02,0.06,0.06,0.21,0.12,0.46
			h0.04c0.02-0.09,0.06-0.24,0.12-0.45l1.71-4.63H113.85z"/>
		<path fill="#1E1E1E" d="M44.78,137.12h-0.96v-0.94h-0.02c-0.42,0.72-1.03,1.08-1.85,1.08c-0.6,0-1.07-0.16-1.4-0.47
			s-0.51-0.74-0.51-1.26c0-1.12,0.66-1.77,1.98-1.96l1.8-0.25c0-1.02-0.41-1.53-1.24-1.53c-0.72,0-1.38,0.25-1.96,0.74v-0.98
			c0.59-0.38,1.27-0.56,2.04-0.56c1.41,0,2.12,0.75,2.12,2.24V137.12z M43.82,134.09l-1.45,0.2c-0.45,0.06-0.78,0.17-1.01,0.33
			s-0.34,0.44-0.34,0.84c0,0.29,0.1,0.53,0.31,0.72s0.49,0.28,0.83,0.28c0.48,0,0.87-0.17,1.18-0.5s0.47-0.76,0.47-1.27V134.09z"/>
		<path fill="#1E1E1E" d="M51.44,137.12h-0.96v-0.95h-0.02c-0.4,0.73-1.02,1.09-1.85,1.09c-1.43,0-2.14-0.85-2.14-2.55v-3.59h0.96
			v3.43c0,1.27,0.48,1.9,1.45,1.9c0.47,0,0.85-0.17,1.16-0.52s0.45-0.8,0.45-1.36v-3.46h0.96V137.12z"/>
		<path fill="#1E1E1E" d="M56.16,137.06c-0.23,0.13-0.53,0.19-0.9,0.19c-1.05,0-1.58-0.59-1.58-1.76v-3.55h-1.03v-0.82h1.03v-1.46
			l0.96-0.31v1.78h1.51v0.82h-1.51v3.38c0,0.4,0.07,0.69,0.21,0.86s0.36,0.26,0.68,0.26c0.24,0,0.45-0.07,0.63-0.2V137.06z"/>
		<path fill="#1E1E1E" d="M59.95,137.26c-0.89,0-1.59-0.28-2.12-0.84s-0.79-1.3-0.79-2.23c0-1.01,0.28-1.79,0.83-2.36
			s1.29-0.85,2.23-0.85c0.89,0,1.59,0.28,2.09,0.83s0.75,1.31,0.75,2.29c0,0.96-0.27,1.72-0.81,2.3S60.86,137.26,59.95,137.26z
			 M60.02,131.79c-0.62,0-1.11,0.21-1.46,0.63s-0.54,1-0.54,1.74c0,0.71,0.18,1.27,0.54,1.68s0.85,0.62,1.46,0.62
			c0.62,0,1.1-0.2,1.43-0.6s0.5-0.97,0.5-1.72c0-0.75-0.17-1.33-0.5-1.73S60.64,131.79,60.02,131.79z"/>
		<path fill="#1E1E1E" d="M73,137.12h-0.96v-3.45c0-0.66-0.1-1.14-0.31-1.44s-0.55-0.45-1.03-0.45c-0.41,0-0.76,0.19-1.05,0.56
			s-0.43,0.82-0.43,1.35v3.42h-0.96v-3.56c0-1.18-0.46-1.77-1.37-1.77c-0.42,0-0.77,0.18-1.04,0.53s-0.41,0.81-0.41,1.38v3.42h-0.96
			v-6h0.96v0.95h0.02c0.43-0.73,1.05-1.09,1.86-1.09c0.41,0,0.77,0.11,1.07,0.34s0.51,0.53,0.63,0.9c0.45-0.83,1.11-1.24,1.99-1.24
			c1.32,0,1.98,0.81,1.98,2.44V137.12z"/>
		<path fill="#1E1E1E" d="M79.11,137.12h-0.96v-0.94h-0.02c-0.42,0.72-1.03,1.08-1.85,1.08c-0.6,0-1.07-0.16-1.4-0.47
			s-0.51-0.74-0.51-1.26c0-1.12,0.66-1.77,1.98-1.96l1.8-0.25c0-1.02-0.41-1.53-1.24-1.53c-0.72,0-1.38,0.25-1.96,0.74v-0.98
			c0.59-0.38,1.27-0.56,2.04-0.56c1.41,0,2.12,0.75,2.12,2.24V137.12z M78.15,134.09l-1.45,0.2c-0.45,0.06-0.78,0.17-1.01,0.33
			s-0.34,0.44-0.34,0.84c0,0.29,0.1,0.53,0.31,0.72s0.49,0.28,0.83,0.28c0.48,0,0.87-0.17,1.18-0.5s0.47-0.76,0.47-1.27V134.09z"/>
		<path fill="#1E1E1E" d="M83.7,137.06c-0.23,0.13-0.53,0.19-0.9,0.19c-1.05,0-1.58-0.59-1.58-1.76v-3.55H80.2v-0.82h1.03v-1.46
			l0.96-0.31v1.78h1.51v0.82h-1.51v3.38c0,0.4,0.07,0.69,0.21,0.86s0.36,0.26,0.68,0.26c0.24,0,0.45-0.07,0.63-0.2V137.06z"/>
		<path fill="#1E1E1E" d="M85.48,129.6c-0.17,0-0.32-0.06-0.44-0.18s-0.18-0.27-0.18-0.45s0.06-0.33,0.18-0.45s0.27-0.18,0.44-0.18
			c0.18,0,0.33,0.06,0.45,0.18s0.18,0.27,0.18,0.45c0,0.17-0.06,0.32-0.18,0.44S85.65,129.6,85.48,129.6z M85.94,137.12h-0.96v-6
			h0.96V137.12z"/>
		<path fill="#1E1E1E" d="M91.98,136.85c-0.46,0.28-1.01,0.42-1.64,0.42c-0.86,0-1.55-0.28-2.07-0.83s-0.79-1.28-0.79-2.17
			c0-0.99,0.28-1.78,0.85-2.38s1.32-0.9,2.27-0.9c0.53,0,0.99,0.1,1.39,0.29v0.98c-0.45-0.31-0.92-0.47-1.43-0.47
			c-0.61,0-1.12,0.22-1.51,0.66s-0.59,1.02-0.59,1.73c0,0.7,0.18,1.26,0.55,1.66s0.86,0.61,1.49,0.61c0.52,0,1.02-0.17,1.48-0.52
			V136.85z"/>
		<path fill="#1E1E1E" d="M97.73,137.12h-0.96v-0.94h-0.02c-0.42,0.72-1.03,1.08-1.85,1.08c-0.6,0-1.07-0.16-1.4-0.47
			s-0.51-0.74-0.51-1.26c0-1.12,0.66-1.77,1.98-1.96l1.8-0.25c0-1.02-0.41-1.53-1.24-1.53c-0.72,0-1.38,0.25-1.96,0.74v-0.98
			c0.59-0.38,1.27-0.56,2.04-0.56c1.41,0,2.12,0.75,2.12,2.24V137.12z M96.77,134.09l-1.45,0.2c-0.45,0.06-0.78,0.17-1.01,0.33
			s-0.34,0.44-0.34,0.84c0,0.29,0.1,0.53,0.31,0.72s0.49,0.28,0.83,0.28c0.48,0,0.87-0.17,1.18-0.5s0.47-0.76,0.47-1.27V134.09z"/>
		<path fill="#1E1E1E" d="M100.5,137.12h-0.96v-8.88h0.96V137.12z"/>
		<path fill="#1E1E1E" d="M103.41,137.12h-0.96v-8.88h0.96V137.12z"/>
		<path fill="#1E1E1E" d="M110.13,131.12l-2.76,6.96c-0.49,1.24-1.18,1.86-2.07,1.86c-0.25,0-0.46-0.03-0.63-0.08v-0.86
			c0.21,0.07,0.4,0.11,0.57,0.11c0.48,0,0.85-0.29,1.09-0.87l0.48-1.14l-2.34-5.99h1.07l1.62,4.62c0.02,0.06,0.06,0.21,0.12,0.46
			h0.04c0.02-0.09,0.06-0.24,0.12-0.45l1.71-4.63H110.13z"/>
	</g>
	<g>
		<rect x="22.07" y="159.78" fill="none" width="105.55" height="31.28"/>
		<path fill="#1E1E1E" d="M27.37,169.65v-1.16c0.13,0.12,0.29,0.22,0.48,0.32s0.38,0.17,0.59,0.24s0.41,0.11,0.62,0.15
			s0.4,0.05,0.57,0.05c0.61,0,1.06-0.11,1.36-0.34s0.45-0.55,0.45-0.97c0-0.23-0.05-0.42-0.15-0.59s-0.24-0.32-0.41-0.46
			s-0.38-0.27-0.62-0.4s-0.5-0.26-0.78-0.4c-0.29-0.15-0.57-0.3-0.82-0.45s-0.47-0.32-0.66-0.5s-0.33-0.39-0.44-0.62
			s-0.16-0.5-0.16-0.82c0-0.38,0.08-0.72,0.25-1s0.39-0.52,0.66-0.7s0.58-0.32,0.93-0.41s0.71-0.13,1.07-0.13
			c0.83,0,1.43,0.1,1.81,0.3v1.11c-0.5-0.34-1.13-0.52-1.91-0.52c-0.21,0-0.43,0.02-0.64,0.07s-0.41,0.12-0.57,0.22
			s-0.3,0.23-0.41,0.39s-0.16,0.36-0.16,0.59c0,0.21,0.04,0.4,0.12,0.56s0.2,0.3,0.35,0.43s0.35,0.25,0.57,0.38s0.48,0.25,0.78,0.4
			c0.3,0.15,0.59,0.3,0.86,0.47s0.51,0.35,0.71,0.54s0.36,0.42,0.48,0.66s0.18,0.52,0.18,0.83c0,0.41-0.08,0.76-0.24,1.05
			s-0.38,0.52-0.66,0.7s-0.59,0.31-0.95,0.39s-0.74,0.12-1.14,0.12c-0.13,0-0.3-0.01-0.49-0.03s-0.39-0.05-0.6-0.09
			s-0.4-0.09-0.58-0.15S27.48,169.72,27.37,169.65z"/>
		<path fill="#1E1E1E" d="M34.5,162.46c-0.17,0-0.32-0.06-0.44-0.18s-0.18-0.27-0.18-0.45s0.06-0.33,0.18-0.45s0.27-0.18,0.44-0.18
			c0.18,0,0.33,0.06,0.45,0.18s0.18,0.27,0.18,0.45c0,0.17-0.06,0.32-0.18,0.44S34.68,162.46,34.5,162.46z M34.97,169.98h-0.96v-6
			h0.96V169.98z"/>
		<path fill="#1E1E1E" d="M45.44,169.98h-0.96v-3.45c0-0.66-0.1-1.14-0.31-1.44s-0.55-0.45-1.03-0.45c-0.41,0-0.76,0.19-1.05,0.56
			s-0.43,0.82-0.43,1.35v3.42H40.7v-3.56c0-1.18-0.46-1.77-1.37-1.77c-0.42,0-0.77,0.18-1.04,0.53s-0.41,0.81-0.41,1.38v3.42h-0.96
			v-6h0.96v0.95h0.02c0.43-0.73,1.05-1.09,1.86-1.09c0.41,0,0.77,0.11,1.07,0.34s0.51,0.53,0.63,0.9c0.45-0.83,1.11-1.24,1.99-1.24
			c1.32,0,1.98,0.81,1.98,2.44V169.98z"/>
		<path fill="#1E1E1E" d="M48.24,169.12h-0.02v3.63h-0.96v-8.76h0.96v1.05h0.02c0.47-0.8,1.16-1.2,2.07-1.2
			c0.77,0,1.38,0.27,1.81,0.81s0.65,1.26,0.65,2.16c0,1-0.24,1.81-0.73,2.41s-1.16,0.91-2,0.91
			C49.26,170.13,48.66,169.79,48.24,169.12z M48.22,166.7v0.84c0,0.5,0.16,0.92,0.48,1.26s0.73,0.52,1.23,0.52
			c0.58,0,1.04-0.22,1.37-0.67s0.5-1.06,0.5-1.86c0-0.67-0.15-1.19-0.46-1.57s-0.73-0.57-1.25-0.57c-0.56,0-1.01,0.19-1.35,0.58
			S48.22,166.11,48.22,166.7z"/>
		<path fill="#1E1E1E" d="M55.27,169.98h-0.96v-8.88h0.96V169.98z"/>
		<path fill="#1E1E1E" d="M57.71,162.46c-0.17,0-0.32-0.06-0.44-0.18s-0.18-0.27-0.18-0.45s0.06-0.33,0.18-0.45s0.27-0.18,0.44-0.18
			c0.18,0,0.33,0.06,0.45,0.18s0.18,0.27,0.18,0.45c0,0.17-0.06,0.32-0.18,0.44S57.88,162.46,57.71,162.46z M58.18,169.98h-0.96v-6
			h0.96V169.98z"/>
		<path fill="#1E1E1E" d="M63.09,161.95c-0.19-0.11-0.4-0.16-0.64-0.16c-0.67,0-1.01,0.42-1.01,1.27v0.93h1.41v0.82h-1.41v5.18
			h-0.96v-5.18h-1.03v-0.82h1.03v-0.97c0-0.63,0.18-1.13,0.54-1.49s0.82-0.55,1.36-0.55c0.29,0,0.53,0.04,0.7,0.11V161.95z"/>
		<path fill="#1E1E1E" d="M68.65,163.98l-2.76,6.96c-0.49,1.24-1.18,1.86-2.07,1.86c-0.25,0-0.46-0.03-0.63-0.08v-0.86
			c0.21,0.07,0.4,0.11,0.57,0.11c0.48,0,0.85-0.29,1.09-0.87l0.48-1.14l-2.34-5.99h1.07l1.62,4.62c0.02,0.06,0.06,0.21,0.12,0.46
			h0.04c0.02-0.09,0.06-0.24,0.12-0.45l1.71-4.63H68.65z"/>
		<path fill="#1E1E1E" d="M78.09,169.5c0,2.2-1.05,3.3-3.16,3.3c-0.74,0-1.39-0.14-1.95-0.42v-0.96c0.68,0.38,1.32,0.56,1.93,0.56
			c1.48,0,2.21-0.79,2.21-2.36v-0.66h-0.02c-0.46,0.77-1.14,1.15-2.06,1.15c-0.75,0-1.35-0.27-1.8-0.8s-0.68-1.25-0.68-2.15
			c0-1.02,0.25-1.83,0.74-2.43s1.16-0.9,2.01-0.9c0.81,0,1.41,0.32,1.8,0.97h0.02v-0.83h0.96V169.5z M77.13,167.27v-0.88
			c0-0.48-0.16-0.88-0.48-1.22s-0.72-0.51-1.2-0.51c-0.59,0-1.06,0.22-1.39,0.65s-0.5,1.04-0.5,1.81c0,0.67,0.16,1.2,0.48,1.6
			s0.75,0.6,1.28,0.6c0.54,0,0.98-0.19,1.32-0.57S77.13,167.87,77.13,167.27z"/>
		<path fill="#1E1E1E" d="M84.86,167.23h-4.24c0.02,0.67,0.2,1.18,0.54,1.55s0.82,0.54,1.42,0.54c0.68,0,1.3-0.22,1.86-0.67v0.9
			c-0.53,0.38-1.22,0.57-2.09,0.57c-0.85,0-1.51-0.27-2-0.82s-0.73-1.31-0.73-2.3c0-0.93,0.26-1.69,0.79-2.28s1.19-0.88,1.97-0.88
			s1.39,0.25,1.82,0.76s0.64,1.21,0.64,2.12V167.23z M83.88,166.41c0-0.55-0.14-0.99-0.4-1.29s-0.63-0.46-1.1-0.46
			c-0.45,0-0.84,0.16-1.15,0.49s-0.51,0.75-0.59,1.27H83.88z"/>
		<path fill="#1E1E1E" d="M88.82,170.13c-0.89,0-1.59-0.28-2.12-0.84s-0.79-1.3-0.79-2.23c0-1.01,0.28-1.79,0.83-2.36
			s1.29-0.85,2.23-0.85c0.89,0,1.59,0.28,2.09,0.83s0.75,1.31,0.75,2.29c0,0.96-0.27,1.72-0.81,2.3S89.73,170.13,88.82,170.13z
			 M88.89,164.65c-0.62,0-1.11,0.21-1.46,0.63s-0.54,1-0.54,1.74c0,0.71,0.18,1.27,0.54,1.68s0.85,0.62,1.46,0.62
			c0.62,0,1.1-0.2,1.43-0.6s0.5-0.97,0.5-1.72c0-0.75-0.17-1.33-0.5-1.73S89.51,164.65,88.89,164.65z"/>
		<path fill="#1E1E1E" d="M101.86,169.98h-0.96v-3.45c0-0.66-0.1-1.14-0.31-1.44s-0.55-0.45-1.03-0.45c-0.41,0-0.76,0.19-1.05,0.56
			s-0.43,0.82-0.43,1.35v3.42h-0.96v-3.56c0-1.18-0.46-1.77-1.37-1.77c-0.42,0-0.77,0.18-1.04,0.53s-0.41,0.81-0.41,1.38v3.42h-0.96
			v-6h0.96v0.95h0.02c0.43-0.73,1.05-1.09,1.86-1.09c0.41,0,0.77,0.11,1.07,0.34s0.51,0.53,0.63,0.9c0.45-0.83,1.11-1.24,1.99-1.24
			c1.32,0,1.98,0.81,1.98,2.44V169.98z"/>
		<path fill="#1E1E1E" d="M108.5,167.23h-4.24c0.02,0.67,0.2,1.18,0.54,1.55s0.82,0.54,1.42,0.54c0.68,0,1.3-0.22,1.86-0.67v0.9
			c-0.53,0.38-1.22,0.57-2.09,0.57c-0.85,0-1.51-0.27-2-0.82s-0.73-1.31-0.73-2.3c0-0.93,0.26-1.69,0.79-2.28s1.19-0.88,1.97-0.88
			s1.39,0.25,1.82,0.76s0.64,1.21,0.64,2.12V167.23z M107.52,166.41c0-0.55-0.14-0.99-0.4-1.29s-0.63-0.46-1.1-0.46
			c-0.45,0-0.84,0.16-1.15,0.49s-0.51,0.75-0.59,1.27H107.52z"/>
		<path fill="#1E1E1E" d="M112.74,169.93c-0.23,0.13-0.53,0.19-0.9,0.19c-1.05,0-1.58-0.59-1.58-1.76v-3.55h-1.03v-0.82h1.03v-1.46
			l0.96-0.31v1.78h1.51v0.82h-1.51v3.38c0,0.4,0.07,0.69,0.21,0.86s0.36,0.26,0.68,0.26c0.24,0,0.45-0.07,0.63-0.2V169.93z"/>
		<path fill="#1E1E1E" d="M117.15,164.96c-0.17-0.13-0.41-0.19-0.73-0.19c-0.41,0-0.75,0.19-1.03,0.58s-0.41,0.91-0.41,1.58v3.06
			h-0.96v-6h0.96v1.24h0.02c0.14-0.42,0.35-0.75,0.63-0.99s0.6-0.35,0.94-0.35c0.25,0,0.44,0.03,0.57,0.08V164.96z"/>
		<path fill="#1E1E1E" d="M122.97,163.98l-2.76,6.96c-0.49,1.24-1.18,1.86-2.07,1.86c-0.25,0-0.46-0.03-0.63-0.08v-0.86
			c0.21,0.07,0.4,0.11,0.57,0.11c0.48,0,0.85-0.29,1.09-0.87l0.48-1.14l-2.34-5.99h1.07l1.62,4.62c0.02,0.06,0.06,0.21,0.12,0.46
			h0.04c0.02-0.09,0.06-0.24,0.12-0.45l1.71-4.63H122.97z"/>
		<path fill="#1E1E1E" d="M44.78,183.19h-0.96v-0.94h-0.02c-0.42,0.72-1.03,1.08-1.85,1.08c-0.6,0-1.07-0.16-1.4-0.47
			s-0.51-0.74-0.51-1.26c0-1.12,0.66-1.77,1.98-1.96l1.8-0.25c0-1.02-0.41-1.53-1.24-1.53c-0.72,0-1.38,0.25-1.96,0.74v-0.98
			c0.59-0.38,1.27-0.56,2.04-0.56c1.41,0,2.12,0.75,2.12,2.24V183.19z M43.82,180.15l-1.45,0.2c-0.45,0.06-0.78,0.17-1.01,0.33
			s-0.34,0.44-0.34,0.84c0,0.29,0.1,0.53,0.31,0.72s0.49,0.28,0.83,0.28c0.48,0,0.87-0.17,1.18-0.5s0.47-0.76,0.47-1.27V180.15z"/>
		<path fill="#1E1E1E" d="M51.44,183.19h-0.96v-0.95h-0.02c-0.4,0.73-1.02,1.09-1.85,1.09c-1.43,0-2.14-0.85-2.14-2.55v-3.59h0.96
			v3.43c0,1.27,0.48,1.9,1.45,1.9c0.47,0,0.85-0.17,1.16-0.52s0.45-0.8,0.45-1.36v-3.46h0.96V183.19z"/>
		<path fill="#1E1E1E" d="M56.16,183.13c-0.23,0.13-0.53,0.19-0.9,0.19c-1.05,0-1.58-0.59-1.58-1.76v-3.55h-1.03v-0.82h1.03v-1.46
			l0.96-0.31v1.78h1.51v0.82h-1.51v3.38c0,0.4,0.07,0.69,0.21,0.86s0.36,0.26,0.68,0.26c0.24,0,0.45-0.07,0.63-0.2V183.13z"/>
		<path fill="#1E1E1E" d="M59.95,183.33c-0.89,0-1.59-0.28-2.12-0.84s-0.79-1.3-0.79-2.23c0-1.01,0.28-1.79,0.83-2.36
			s1.29-0.85,2.23-0.85c0.89,0,1.59,0.28,2.09,0.83s0.75,1.31,0.75,2.29c0,0.96-0.27,1.72-0.81,2.3S60.86,183.33,59.95,183.33z
			 M60.02,177.85c-0.62,0-1.11,0.21-1.46,0.63s-0.54,1-0.54,1.74c0,0.71,0.18,1.27,0.54,1.68s0.85,0.62,1.46,0.62
			c0.62,0,1.1-0.2,1.43-0.6s0.5-0.97,0.5-1.72c0-0.75-0.17-1.33-0.5-1.73S60.64,177.85,60.02,177.85z"/>
		<path fill="#1E1E1E" d="M73,183.19h-0.96v-3.45c0-0.66-0.1-1.14-0.31-1.44s-0.55-0.45-1.03-0.45c-0.41,0-0.76,0.19-1.05,0.56
			s-0.43,0.82-0.43,1.35v3.42h-0.96v-3.56c0-1.18-0.46-1.77-1.37-1.77c-0.42,0-0.77,0.18-1.04,0.53s-0.41,0.81-0.41,1.38v3.42h-0.96
			v-6h0.96v0.95h0.02c0.43-0.73,1.05-1.09,1.86-1.09c0.41,0,0.77,0.11,1.07,0.34s0.51,0.53,0.63,0.9c0.45-0.83,1.11-1.24,1.99-1.24
			c1.32,0,1.98,0.81,1.98,2.44V183.19z"/>
		<path fill="#1E1E1E" d="M79.11,183.19h-0.96v-0.94h-0.02c-0.42,0.72-1.03,1.08-1.85,1.08c-0.6,0-1.07-0.16-1.4-0.47
			s-0.51-0.74-0.51-1.26c0-1.12,0.66-1.77,1.98-1.96l1.8-0.25c0-1.02-0.41-1.53-1.24-1.53c-0.72,0-1.38,0.25-1.96,0.74v-0.98
			c0.59-0.38,1.27-0.56,2.04-0.56c1.41,0,2.12,0.75,2.12,2.24V183.19z M78.15,180.15l-1.45,0.2c-0.45,0.06-0.78,0.17-1.01,0.33
			s-0.34,0.44-0.34,0.84c0,0.29,0.1,0.53,0.31,0.72s0.49,0.28,0.83,0.28c0.48,0,0.87-0.17,1.18-0.5s0.47-0.76,0.47-1.27V180.15z"/>
		<path fill="#1E1E1E" d="M83.7,183.13c-0.23,0.13-0.53,0.19-0.9,0.19c-1.05,0-1.58-0.59-1.58-1.76v-3.55H80.2v-0.82h1.03v-1.46
			l0.96-0.31v1.78h1.51v0.82h-1.51v3.38c0,0.4,0.07,0.69,0.21,0.86s0.36,0.26,0.68,0.26c0.24,0,0.45-0.07,0.63-0.2V183.13z"/>
		<path fill="#1E1E1E" d="M85.48,175.66c-0.17,0-0.32-0.06-0.44-0.18s-0.18-0.27-0.18-0.45s0.06-0.33,0.18-0.45s0.27-0.18,0.44-0.18
			c0.18,0,0.33,0.06,0.45,0.18s0.18,0.27,0.18,0.45c0,0.17-0.06,0.32-0.18,0.44S85.65,175.66,85.48,175.66z M85.94,183.19h-0.96v-6
			h0.96V183.19z"/>
		<path fill="#1E1E1E" d="M91.98,182.91c-0.46,0.28-1.01,0.42-1.64,0.42c-0.86,0-1.55-0.28-2.07-0.83s-0.79-1.28-0.79-2.17
			c0-0.99,0.28-1.78,0.85-2.38s1.32-0.9,2.27-0.9c0.53,0,0.99,0.1,1.39,0.29v0.98c-0.45-0.31-0.92-0.47-1.43-0.47
			c-0.61,0-1.12,0.22-1.51,0.66s-0.59,1.02-0.59,1.73c0,0.7,0.18,1.26,0.55,1.66s0.86,0.61,1.49,0.61c0.52,0,1.02-0.17,1.48-0.52
			V182.91z"/>
		<path fill="#1E1E1E" d="M97.73,183.19h-0.96v-0.94h-0.02c-0.42,0.72-1.03,1.08-1.85,1.08c-0.6,0-1.07-0.16-1.4-0.47
			s-0.51-0.74-0.51-1.26c0-1.12,0.66-1.77,1.98-1.96l1.8-0.25c0-1.02-0.41-1.53-1.24-1.53c-0.72,0-1.38,0.25-1.96,0.74v-0.98
			c0.59-0.38,1.27-0.56,2.04-0.56c1.41,0,2.12,0.75,2.12,2.24V183.19z M96.77,180.15l-1.45,0.2c-0.45,0.06-0.78,0.17-1.01,0.33
			s-0.34,0.44-0.34,0.84c0,0.29,0.1,0.53,0.31,0.72s0.49,0.28,0.83,0.28c0.48,0,0.87-0.17,1.18-0.5s0.47-0.76,0.47-1.27V180.15z"/>
		<path fill="#1E1E1E" d="M100.5,183.19h-0.96v-8.88h0.96V183.19z"/>
		<path fill="#1E1E1E" d="M103.41,183.19h-0.96v-8.88h0.96V183.19z"/>
		<path fill="#1E1E1E" d="M110.13,177.19l-2.76,6.96c-0.49,1.24-1.18,1.86-2.07,1.86c-0.25,0-0.46-0.03-0.63-0.08v-0.86
			c0.21,0.07,0.4,0.11,0.57,0.11c0.48,0,0.85-0.29,1.09-0.87l0.48-1.14l-2.34-5.99h1.07l1.62,4.62c0.02,0.06,0.06,0.21,0.12,0.46
			h0.04c0.02-0.09,0.06-0.24,0.12-0.45l1.71-4.63H110.13z"/>
	</g>
	<g>
		<rect x="65.38" y="15.21" fill="none" width="196.2" height="26.83"/>
		<path fill="#1E1E1E" d="M73.65,25.41h-0.98v-8.4h0.98V25.41z"/>
		<path fill="#1E1E1E" d="M84.25,25.41h-0.96v-3.45c0-0.66-0.1-1.14-0.31-1.44s-0.55-0.45-1.03-0.45c-0.41,0-0.76,0.19-1.05,0.56
			s-0.43,0.82-0.43,1.35v3.42h-0.96v-3.56c0-1.18-0.46-1.77-1.37-1.77c-0.42,0-0.77,0.18-1.04,0.53s-0.41,0.81-0.41,1.38v3.42h-0.96
			v-6h0.96v0.95h0.02c0.43-0.73,1.05-1.09,1.86-1.09c0.41,0,0.77,0.11,1.07,0.34s0.51,0.53,0.63,0.9c0.45-0.83,1.11-1.24,1.99-1.24
			c1.32,0,1.98,0.81,1.98,2.44V25.41z"/>
		<path fill="#1E1E1E" d="M87.05,24.54h-0.02v3.63h-0.96v-8.76h0.96v1.05h0.02c0.47-0.8,1.16-1.2,2.07-1.2
			c0.77,0,1.38,0.27,1.81,0.81s0.65,1.26,0.65,2.16c0,1-0.24,1.81-0.73,2.41s-1.16,0.91-2,0.91C88.07,25.55,87.47,25.22,87.05,24.54
			z M87.02,22.12v0.84c0,0.5,0.16,0.92,0.48,1.26s0.73,0.52,1.23,0.52c0.58,0,1.04-0.22,1.37-0.67s0.5-1.06,0.5-1.86
			c0-0.67-0.15-1.19-0.46-1.57s-0.73-0.57-1.25-0.57c-0.56,0-1.01,0.19-1.35,0.58S87.02,21.54,87.02,22.12z"/>
		<path fill="#1E1E1E" d="M95.63,25.55c-0.89,0-1.59-0.28-2.12-0.84s-0.79-1.3-0.79-2.23c0-1.01,0.28-1.79,0.83-2.36
			s1.29-0.85,2.23-0.85c0.89,0,1.59,0.28,2.09,0.83s0.75,1.31,0.75,2.29c0,0.96-0.27,1.72-0.81,2.3S96.54,25.55,95.63,25.55z
			 M95.7,20.08c-0.62,0-1.11,0.21-1.46,0.63s-0.54,1-0.54,1.74c0,0.71,0.18,1.27,0.54,1.68s0.85,0.62,1.46,0.62
			c0.62,0,1.1-0.2,1.43-0.6s0.5-0.97,0.5-1.72c0-0.75-0.17-1.33-0.5-1.73S96.32,20.08,95.7,20.08z"/>
		<path fill="#1E1E1E" d="M103.28,20.38c-0.17-0.13-0.41-0.19-0.73-0.19c-0.41,0-0.75,0.19-1.03,0.58s-0.41,0.91-0.41,1.58v3.06
			h-0.96v-6h0.96v1.24h0.02c0.14-0.42,0.35-0.75,0.63-0.99s0.6-0.35,0.94-0.35c0.25,0,0.44,0.03,0.57,0.08V20.38z"/>
		<path fill="#1E1E1E" d="M107.1,25.35c-0.23,0.13-0.53,0.19-0.9,0.19c-1.05,0-1.58-0.59-1.58-1.76v-3.55h-1.03v-0.82h1.03v-1.46
			l0.96-0.31v1.78h1.51v0.82h-1.51v3.38c0,0.4,0.07,0.69,0.21,0.86s0.36,0.26,0.68,0.26c0.24,0,0.45-0.07,0.63-0.2V25.35z"/>
		<path fill="#1E1E1E" d="M116.79,24.93c0,2.2-1.05,3.3-3.16,3.3c-0.74,0-1.39-0.14-1.95-0.42v-0.96c0.68,0.38,1.32,0.56,1.93,0.56
			c1.48,0,2.21-0.79,2.21-2.36V24.4h-0.02c-0.46,0.77-1.14,1.15-2.06,1.15c-0.75,0-1.35-0.27-1.8-0.8s-0.68-1.25-0.68-2.15
			c0-1.02,0.25-1.83,0.74-2.43s1.16-0.9,2.01-0.9c0.81,0,1.41,0.32,1.8,0.97h0.02v-0.83h0.96V24.93z M115.83,22.7v-0.88
			c0-0.48-0.16-0.88-0.48-1.22s-0.72-0.51-1.2-0.51c-0.59,0-1.06,0.22-1.39,0.65s-0.5,1.04-0.5,1.81c0,0.67,0.16,1.2,0.48,1.6
			s0.75,0.6,1.28,0.6c0.54,0,0.98-0.19,1.32-0.57S115.83,23.3,115.83,22.7z"/>
		<path fill="#1E1E1E" d="M123.56,22.65h-4.24c0.02,0.67,0.2,1.18,0.54,1.55s0.82,0.54,1.42,0.54c0.68,0,1.3-0.22,1.86-0.67v0.9
			c-0.53,0.38-1.22,0.57-2.09,0.57c-0.85,0-1.51-0.27-2-0.82s-0.73-1.31-0.73-2.3c0-0.93,0.26-1.69,0.79-2.28s1.19-0.88,1.97-0.88
			s1.39,0.25,1.82,0.76s0.64,1.21,0.64,2.12V22.65z M122.58,21.84c0-0.55-0.14-0.99-0.4-1.29s-0.63-0.46-1.1-0.46
			c-0.45,0-0.84,0.16-1.15,0.49s-0.51,0.75-0.59,1.27H122.58z"/>
		<path fill="#1E1E1E" d="M127.52,25.55c-0.89,0-1.59-0.28-2.12-0.84s-0.79-1.3-0.79-2.23c0-1.01,0.28-1.79,0.83-2.36
			s1.29-0.85,2.23-0.85c0.89,0,1.59,0.28,2.09,0.83s0.75,1.31,0.75,2.29c0,0.96-0.27,1.72-0.81,2.3S128.43,25.55,127.52,25.55z
			 M127.59,20.08c-0.62,0-1.11,0.21-1.46,0.63s-0.54,1-0.54,1.74c0,0.71,0.18,1.27,0.54,1.68s0.85,0.62,1.46,0.62
			c0.62,0,1.1-0.2,1.43-0.6s0.5-0.97,0.5-1.72c0-0.75-0.17-1.33-0.5-1.73S128.21,20.08,127.59,20.08z"/>
		<path fill="#1E1E1E" d="M140.57,25.41h-0.96v-3.45c0-0.66-0.1-1.14-0.31-1.44s-0.55-0.45-1.03-0.45c-0.41,0-0.76,0.19-1.05,0.56
			s-0.43,0.82-0.43,1.35v3.42h-0.96v-3.56c0-1.18-0.46-1.77-1.37-1.77c-0.42,0-0.77,0.18-1.04,0.53s-0.41,0.81-0.41,1.38v3.42h-0.96
			v-6h0.96v0.95h0.02c0.43-0.73,1.05-1.09,1.86-1.09c0.41,0,0.77,0.11,1.07,0.34s0.51,0.53,0.63,0.9c0.45-0.83,1.11-1.24,1.99-1.24
			c1.32,0,1.98,0.81,1.98,2.44V25.41z"/>
		<path fill="#1E1E1E" d="M147.21,22.65h-4.24c0.02,0.67,0.2,1.18,0.54,1.55s0.82,0.54,1.42,0.54c0.68,0,1.3-0.22,1.86-0.67v0.9
			c-0.53,0.38-1.22,0.57-2.09,0.57c-0.85,0-1.51-0.27-2-0.82s-0.73-1.31-0.73-2.3c0-0.93,0.26-1.69,0.79-2.28s1.19-0.88,1.97-0.88
			s1.39,0.25,1.82,0.76s0.64,1.21,0.64,2.12V22.65z M146.22,21.84c0-0.55-0.14-0.99-0.4-1.29s-0.63-0.46-1.1-0.46
			c-0.45,0-0.84,0.16-1.15,0.49s-0.51,0.75-0.59,1.27H146.22z"/>
		<path fill="#1E1E1E" d="M151.44,25.35c-0.23,0.13-0.53,0.19-0.9,0.19c-1.05,0-1.58-0.59-1.58-1.76v-3.55h-1.03v-0.82h1.03v-1.46
			l0.96-0.31v1.78h1.51v0.82h-1.51v3.38c0,0.4,0.07,0.69,0.21,0.86s0.36,0.26,0.68,0.26c0.24,0,0.45-0.07,0.63-0.2V25.35z"/>
		<path fill="#1E1E1E" d="M155.85,20.38c-0.17-0.13-0.41-0.19-0.73-0.19c-0.41,0-0.75,0.19-1.03,0.58s-0.41,0.91-0.41,1.58v3.06
			h-0.96v-6h0.96v1.24h0.02c0.14-0.42,0.35-0.75,0.63-0.99s0.6-0.35,0.94-0.35c0.25,0,0.44,0.03,0.57,0.08V20.38z"/>
		<path fill="#1E1E1E" d="M161.67,19.41l-2.76,6.96c-0.49,1.24-1.18,1.86-2.07,1.86c-0.25,0-0.46-0.03-0.63-0.08V27.3
			c0.21,0.07,0.4,0.11,0.57,0.11c0.48,0,0.85-0.29,1.09-0.87l0.48-1.14l-2.34-5.99h1.07l1.62,4.62c0.02,0.06,0.06,0.21,0.12,0.46
			h0.04c0.02-0.09,0.06-0.24,0.12-0.45l1.71-4.63H161.67z"/>
		<path fill="#1E1E1E" d="M168.96,17.37c-0.19-0.11-0.4-0.16-0.64-0.16c-0.67,0-1.01,0.42-1.01,1.27v0.93h1.41v0.82h-1.41v5.18
			h-0.96v-5.18h-1.03v-0.82h1.03v-0.97c0-0.63,0.18-1.13,0.54-1.49s0.82-0.55,1.36-0.55c0.29,0,0.53,0.04,0.7,0.11V17.37z"/>
		<path fill="#1E1E1E" d="M172.88,20.38c-0.17-0.13-0.41-0.19-0.73-0.19c-0.41,0-0.75,0.19-1.03,0.58s-0.41,0.91-0.41,1.58v3.06
			h-0.96v-6h0.96v1.24h0.02c0.14-0.42,0.35-0.75,0.63-0.99s0.6-0.35,0.94-0.35c0.25,0,0.44,0.03,0.57,0.08V20.38z"/>
		<path fill="#1E1E1E" d="M176.43,25.55c-0.89,0-1.59-0.28-2.12-0.84s-0.79-1.3-0.79-2.23c0-1.01,0.28-1.79,0.83-2.36
			s1.29-0.85,2.23-0.85c0.89,0,1.59,0.28,2.09,0.83s0.75,1.31,0.75,2.29c0,0.96-0.27,1.72-0.81,2.3S177.34,25.55,176.43,25.55z
			 M176.5,20.08c-0.62,0-1.11,0.21-1.46,0.63s-0.54,1-0.54,1.74c0,0.71,0.18,1.27,0.54,1.68s0.85,0.62,1.46,0.62
			c0.62,0,1.1-0.2,1.43-0.6s0.5-0.97,0.5-1.72c0-0.75-0.17-1.33-0.5-1.73S177.12,20.08,176.5,20.08z"/>
		<path fill="#1E1E1E" d="M189.47,25.41h-0.96v-3.45c0-0.66-0.1-1.14-0.31-1.44s-0.55-0.45-1.03-0.45c-0.41,0-0.76,0.19-1.05,0.56
			s-0.43,0.82-0.43,1.35v3.42h-0.96v-3.56c0-1.18-0.46-1.77-1.37-1.77c-0.42,0-0.77,0.18-1.04,0.53s-0.41,0.81-0.41,1.38v3.42h-0.96
			v-6h0.96v0.95h0.02c0.43-0.73,1.05-1.09,1.86-1.09c0.41,0,0.77,0.11,1.07,0.34s0.51,0.53,0.63,0.9c0.45-0.83,1.11-1.24,1.99-1.24
			c1.32,0,1.98,0.81,1.98,2.44V25.41z"/>
		<path fill="#1E1E1E" d="M195.69,25.41h-0.98v-8.4h0.98V25.41z"/>
		<path fill="#1E1E1E" d="M206.46,25.41h-0.98v-5.64c0-0.45,0.03-0.99,0.08-1.63h-0.02c-0.09,0.38-0.18,0.65-0.25,0.81l-2.87,6.46
			h-0.48L199.07,19c-0.08-0.19-0.17-0.47-0.25-0.86h-0.02c0.03,0.34,0.05,0.88,0.05,1.65v5.63h-0.95v-8.4h1.3l2.58,5.86
			c0.2,0.45,0.33,0.79,0.39,1.01h0.04c0.17-0.46,0.3-0.8,0.4-1.03l2.63-5.84h1.23V25.41z"/>
		<path fill="#1E1E1E" d="M209.65,22.24v3.18h-0.98v-8.4h2.31c0.9,0,1.59,0.22,2.09,0.66s0.74,1.05,0.74,1.85s-0.27,1.45-0.82,1.96
			s-1.29,0.76-2.22,0.76H209.65z M209.65,17.9v3.45h1.03c0.68,0,1.2-0.16,1.56-0.47s0.54-0.75,0.54-1.32c0-1.11-0.66-1.66-1.97-1.66
			H209.65z"/>
		<path fill="#1E1E1E" d="M218.78,25.55c-1.19,0-2.15-0.39-2.86-1.18s-1.08-1.81-1.08-3.06c0-1.35,0.37-2.43,1.1-3.23
			s1.72-1.21,2.98-1.21c1.16,0,2.09,0.39,2.8,1.17s1.06,1.8,1.06,3.06c0,1.37-0.36,2.46-1.09,3.25S220,25.55,218.78,25.55z
			 M218.85,17.76c-0.88,0-1.6,0.32-2.15,0.96s-0.83,1.47-0.83,2.51s0.27,1.87,0.81,2.5s1.24,0.95,2.1,0.95c0.92,0,1.65-0.3,2.18-0.9
			s0.8-1.44,0.8-2.53c0-1.11-0.26-1.97-0.77-2.57S219.75,17.76,218.85,17.76z"/>
		<path fill="#1E1E1E" d="M230.46,25.41h-1.17l-1.41-2.36c-0.13-0.22-0.25-0.41-0.38-0.56s-0.25-0.28-0.37-0.38
			s-0.26-0.17-0.41-0.21s-0.31-0.07-0.5-0.07h-0.81v3.57h-0.98v-8.4h2.51c0.37,0,0.71,0.05,1.02,0.14s0.58,0.23,0.81,0.42
			s0.41,0.42,0.54,0.7s0.19,0.61,0.19,0.98c0,0.29-0.04,0.56-0.13,0.81s-0.21,0.46-0.38,0.65s-0.36,0.35-0.59,0.49
			s-0.49,0.24-0.77,0.31v0.02c0.14,0.06,0.26,0.13,0.37,0.21s0.2,0.17,0.3,0.28s0.19,0.23,0.28,0.37s0.19,0.3,0.31,0.48
			L230.46,25.41z M225.42,17.9v3.05h1.34c0.25,0,0.47-0.04,0.68-0.11s0.39-0.18,0.54-0.32s0.27-0.31,0.36-0.51s0.13-0.43,0.13-0.68
			c0-0.45-0.15-0.8-0.44-1.05s-0.71-0.38-1.26-0.38H225.42z"/>
		<path fill="#1E1E1E" d="M236.04,17.9h-2.43v7.51h-0.98V17.9h-2.42v-0.89h5.83V17.9z"/>
		<path fill="#1E1E1E" d="M243.49,17.37c-0.19-0.11-0.4-0.16-0.64-0.16c-0.67,0-1.01,0.42-1.01,1.27v0.93h1.41v0.82h-1.41v5.18
			h-0.96v-5.18h-1.03v-0.82h1.03v-0.97c0-0.63,0.18-1.13,0.54-1.49s0.82-0.55,1.36-0.55c0.29,0,0.53,0.04,0.7,0.11V17.37z"/>
		<path fill="#1E1E1E" d="M244.77,17.89c-0.17,0-0.32-0.06-0.44-0.18s-0.18-0.27-0.18-0.45s0.06-0.33,0.18-0.45s0.27-0.18,0.44-0.18
			c0.18,0,0.33,0.06,0.45,0.18s0.18,0.27,0.18,0.45c0,0.17-0.06,0.32-0.18,0.44S244.95,17.89,244.77,17.89z M245.24,25.41h-0.96v-6
			h0.96V25.41z"/>
		<path fill="#1E1E1E" d="M248.14,25.41h-0.96v-8.88h0.96V25.41z"/>
		<path fill="#1E1E1E" d="M254.91,22.65h-4.24c0.02,0.67,0.2,1.18,0.54,1.55s0.82,0.54,1.42,0.54c0.68,0,1.3-0.22,1.86-0.67v0.9
			c-0.53,0.38-1.22,0.57-2.09,0.57c-0.85,0-1.51-0.27-2-0.82s-0.73-1.31-0.73-2.3c0-0.93,0.26-1.69,0.79-2.28s1.19-0.88,1.97-0.88
			s1.39,0.25,1.82,0.76s0.64,1.21,0.64,2.12V22.65z M253.93,21.84c0-0.55-0.14-0.99-0.4-1.29s-0.63-0.46-1.1-0.46
			c-0.45,0-0.84,0.16-1.15,0.49s-0.51,0.75-0.59,1.27H253.93z"/>
		<path fill="#1E1E1E" d="M96.06,38.74c-0.18,0-0.33-0.06-0.46-0.19s-0.19-0.28-0.19-0.46s0.06-0.33,0.19-0.47s0.28-0.2,0.46-0.2
			c0.18,0,0.34,0.07,0.47,0.2s0.19,0.29,0.19,0.47s-0.06,0.33-0.19,0.46S96.24,38.74,96.06,38.74z"/>
		<path fill="#1E1E1E" d="M98.66,38.74c-0.18,0-0.33-0.06-0.46-0.19s-0.19-0.28-0.19-0.46s0.06-0.33,0.19-0.47s0.28-0.2,0.46-0.2
			c0.18,0,0.34,0.07,0.47,0.2s0.19,0.29,0.19,0.47s-0.06,0.33-0.19,0.46S98.84,38.74,98.66,38.74z"/>
		<path fill="#1E1E1E" d="M101.26,38.74c-0.18,0-0.33-0.06-0.46-0.19s-0.19-0.28-0.19-0.46s0.06-0.33,0.19-0.47s0.28-0.2,0.46-0.2
			c0.18,0,0.34,0.07,0.47,0.2s0.19,0.29,0.19,0.47s-0.06,0.33-0.19,0.46S101.44,38.74,101.26,38.74z"/>
		<path fill="#1E1E1E" d="M114.37,32.61l-1.8,6h-1l-1.24-4.29c-0.05-0.16-0.08-0.35-0.09-0.56h-0.02c-0.01,0.14-0.05,0.32-0.12,0.54
			l-1.34,4.31h-0.96l-1.82-6h1.01l1.24,4.51c0.04,0.14,0.07,0.32,0.08,0.54h0.05c0.01-0.17,0.05-0.36,0.11-0.55l1.38-4.5h0.88
			l1.24,4.52c0.04,0.14,0.07,0.32,0.09,0.54h0.05c0.01-0.15,0.04-0.33,0.1-0.54l1.22-4.52H114.37z"/>
		<path fill="#1E1E1E" d="M115.98,31.09c-0.17,0-0.32-0.06-0.44-0.18s-0.18-0.27-0.18-0.45s0.06-0.33,0.18-0.45s0.27-0.18,0.44-0.18
			c0.18,0,0.33,0.06,0.45,0.18s0.18,0.27,0.18,0.45c0,0.17-0.06,0.32-0.18,0.44S116.15,31.09,115.98,31.09z M116.45,38.61h-0.96v-6
			h0.96V38.61z"/>
		<path fill="#1E1E1E" d="M121.17,38.55c-0.23,0.13-0.53,0.19-0.9,0.19c-1.05,0-1.58-0.59-1.58-1.76v-3.55h-1.03v-0.82h1.03v-1.46
			l0.96-0.31v1.78h1.51v0.82h-1.51v3.38c0,0.4,0.07,0.69,0.21,0.86s0.36,0.26,0.68,0.26c0.24,0,0.45-0.07,0.63-0.2V38.55z"/>
		<path fill="#1E1E1E" d="M127.44,38.61h-0.96v-3.46c0-1.25-0.46-1.88-1.39-1.88c-0.47,0-0.86,0.18-1.18,0.54s-0.48,0.83-0.48,1.39
			v3.4h-0.96v-8.88h0.96v3.88h0.02c0.46-0.76,1.12-1.14,1.97-1.14c1.35,0,2.03,0.81,2.03,2.44V38.61z"/>
		<path fill="#1E1E1E" d="M136.63,38.34c-0.46,0.28-1.01,0.42-1.64,0.42c-0.86,0-1.55-0.28-2.07-0.83s-0.79-1.28-0.79-2.17
			c0-0.99,0.28-1.78,0.85-2.38s1.32-0.9,2.27-0.9c0.53,0,0.99,0.1,1.39,0.29v0.98c-0.45-0.31-0.92-0.47-1.43-0.47
			c-0.61,0-1.12,0.22-1.51,0.66s-0.59,1.02-0.59,1.73c0,0.7,0.18,1.26,0.55,1.66s0.86,0.61,1.49,0.61c0.52,0,1.02-0.17,1.48-0.52
			V38.34z"/>
		<path fill="#1E1E1E" d="M140.59,38.75c-0.89,0-1.59-0.28-2.12-0.84s-0.79-1.3-0.79-2.23c0-1.01,0.28-1.79,0.83-2.36
			s1.29-0.85,2.23-0.85c0.89,0,1.59,0.28,2.09,0.83s0.75,1.31,0.75,2.29c0,0.96-0.27,1.72-0.81,2.3S141.5,38.75,140.59,38.75z
			 M140.66,33.28c-0.62,0-1.11,0.21-1.46,0.63s-0.54,1-0.54,1.74c0,0.71,0.18,1.27,0.54,1.68s0.85,0.62,1.46,0.62
			c0.62,0,1.1-0.2,1.43-0.6s0.5-0.97,0.5-1.72c0-0.75-0.17-1.33-0.5-1.73S141.28,33.28,140.66,33.28z"/>
		<path fill="#1E1E1E" d="M150.09,38.61h-0.96v-3.42c0-1.27-0.46-1.91-1.39-1.91c-0.48,0-0.88,0.18-1.19,0.54s-0.47,0.82-0.47,1.37
			v3.42h-0.96v-6h0.96v1h0.02c0.45-0.76,1.11-1.14,1.97-1.14c0.66,0,1.16,0.21,1.51,0.64s0.52,1.04,0.52,1.84V38.61z"/>
		<path fill="#1E1E1E" d="M156.62,32.61l-2.39,6h-0.94l-2.27-6h1.05l1.52,4.36c0.11,0.32,0.18,0.6,0.21,0.84h0.02
			c0.04-0.3,0.1-0.57,0.19-0.81l1.59-4.38H156.62z"/>
		<path fill="#1E1E1E" d="M162.47,35.85h-4.24c0.02,0.67,0.2,1.18,0.54,1.55s0.82,0.54,1.42,0.54c0.68,0,1.3-0.22,1.86-0.67v0.9
			c-0.53,0.38-1.22,0.57-2.09,0.57c-0.85,0-1.51-0.27-2-0.82s-0.73-1.31-0.73-2.3c0-0.93,0.26-1.69,0.79-2.28s1.19-0.88,1.97-0.88
			s1.39,0.25,1.82,0.76s0.64,1.21,0.64,2.12V35.85z M161.49,35.04c0-0.55-0.14-0.99-0.4-1.29s-0.63-0.46-1.1-0.46
			c-0.45,0-0.84,0.16-1.15,0.49s-0.51,0.75-0.59,1.27H161.49z"/>
		<path fill="#1E1E1E" d="M167.05,33.58c-0.17-0.13-0.41-0.19-0.73-0.19c-0.41,0-0.75,0.19-1.03,0.58s-0.41,0.91-0.41,1.58v3.06
			h-0.96v-6h0.96v1.24h0.02c0.14-0.42,0.35-0.75,0.63-0.99s0.6-0.35,0.94-0.35c0.25,0,0.44,0.03,0.57,0.08V33.58z"/>
		<path fill="#1E1E1E" d="M167.73,38.39v-1.03c0.52,0.39,1.1,0.58,1.73,0.58c0.84,0,1.27-0.28,1.27-0.84c0-0.16-0.04-0.3-0.11-0.41
			s-0.17-0.21-0.29-0.3s-0.27-0.16-0.43-0.23s-0.34-0.14-0.54-0.21c-0.27-0.11-0.5-0.21-0.7-0.32s-0.37-0.23-0.5-0.36
			s-0.24-0.29-0.3-0.46s-0.1-0.37-0.1-0.6c0-0.28,0.06-0.53,0.19-0.75s0.3-0.4,0.52-0.54s0.46-0.26,0.74-0.33s0.56-0.11,0.85-0.11
			c0.52,0,0.98,0.09,1.39,0.27v0.97c-0.44-0.29-0.95-0.43-1.52-0.43c-0.18,0-0.34,0.02-0.49,0.06s-0.27,0.1-0.37,0.17
			s-0.18,0.16-0.24,0.27s-0.08,0.22-0.08,0.34c0,0.16,0.03,0.29,0.08,0.39s0.14,0.2,0.25,0.28s0.24,0.16,0.4,0.22
			s0.33,0.14,0.53,0.22c0.27,0.1,0.5,0.21,0.71,0.31s0.39,0.23,0.54,0.36s0.26,0.29,0.34,0.47s0.12,0.38,0.12,0.63
			c0,0.3-0.07,0.55-0.2,0.77s-0.31,0.4-0.52,0.54s-0.47,0.25-0.76,0.32s-0.58,0.11-0.9,0.11C168.72,38.75,168.19,38.63,167.73,38.39
			z"/>
		<path fill="#1E1E1E" d="M173.68,31.09c-0.17,0-0.32-0.06-0.44-0.18s-0.18-0.27-0.18-0.45s0.06-0.33,0.18-0.45s0.27-0.18,0.44-0.18
			c0.18,0,0.33,0.06,0.45,0.18s0.18,0.27,0.18,0.45c0,0.17-0.06,0.32-0.18,0.44S173.86,31.09,173.68,31.09z M174.15,38.61h-0.96v-6
			h0.96V38.61z"/>
		<path fill="#1E1E1E" d="M178.6,38.75c-0.89,0-1.59-0.28-2.12-0.84s-0.79-1.3-0.79-2.23c0-1.01,0.28-1.79,0.83-2.36
			s1.29-0.85,2.23-0.85c0.89,0,1.59,0.28,2.09,0.83s0.75,1.31,0.75,2.29c0,0.96-0.27,1.72-0.81,2.3S179.51,38.75,178.6,38.75z
			 M178.67,33.28c-0.62,0-1.11,0.21-1.46,0.63s-0.54,1-0.54,1.74c0,0.71,0.18,1.27,0.54,1.68s0.85,0.62,1.46,0.62
			c0.62,0,1.1-0.2,1.43-0.6s0.5-0.97,0.5-1.72c0-0.75-0.17-1.33-0.5-1.73S179.29,33.28,178.67,33.28z"/>
		<path fill="#1E1E1E" d="M188.11,38.61h-0.96v-3.42c0-1.27-0.46-1.91-1.39-1.91c-0.48,0-0.88,0.18-1.19,0.54s-0.47,0.82-0.47,1.37
			v3.42h-0.96v-6h0.96v1h0.02c0.45-0.76,1.11-1.14,1.97-1.14c0.66,0,1.16,0.21,1.51,0.64s0.52,1.04,0.52,1.84V38.61z"/>
		<path fill="#1E1E1E" d="M195.71,38.75c-0.89,0-1.59-0.28-2.12-0.84s-0.79-1.3-0.79-2.23c0-1.01,0.28-1.79,0.83-2.36
			s1.29-0.85,2.23-0.85c0.89,0,1.59,0.28,2.09,0.83s0.75,1.31,0.75,2.29c0,0.96-0.27,1.72-0.81,2.3S196.62,38.75,195.71,38.75z
			 M195.78,33.28c-0.62,0-1.11,0.21-1.46,0.63s-0.54,1-0.54,1.74c0,0.71,0.18,1.27,0.54,1.68s0.85,0.62,1.46,0.62
			c0.62,0,1.1-0.2,1.43-0.6s0.5-0.97,0.5-1.72c0-0.75-0.17-1.33-0.5-1.73S196.4,33.28,195.78,33.28z"/>
		<path fill="#1E1E1E" d="M201.22,37.74h-0.02v3.63h-0.96v-8.76h0.96v1.05h0.02c0.47-0.8,1.16-1.2,2.07-1.2
			c0.77,0,1.38,0.27,1.81,0.81s0.65,1.26,0.65,2.16c0,1-0.24,1.81-0.73,2.41s-1.16,0.91-2,0.91
			C202.24,38.75,201.64,38.42,201.22,37.74z M201.2,35.32v0.84c0,0.5,0.16,0.92,0.48,1.26s0.73,0.52,1.23,0.52
			c0.58,0,1.04-0.22,1.37-0.67s0.5-1.06,0.5-1.86c0-0.67-0.15-1.19-0.46-1.57s-0.73-0.57-1.25-0.57c-0.56,0-1.01,0.19-1.35,0.58
			S201.2,34.74,201.2,35.32z"/>
		<path fill="#1E1E1E" d="M210.07,38.55c-0.23,0.13-0.53,0.19-0.9,0.19c-1.05,0-1.58-0.59-1.58-1.76v-3.55h-1.03v-0.82h1.03v-1.46
			l0.96-0.31v1.78h1.51v0.82h-1.51v3.38c0,0.4,0.07,0.69,0.21,0.86s0.36,0.26,0.68,0.26c0.24,0,0.45-0.07,0.63-0.2V38.55z"/>
		<path fill="#1E1E1E" d="M211.85,31.09c-0.17,0-0.32-0.06-0.44-0.18s-0.18-0.27-0.18-0.45s0.06-0.33,0.18-0.45s0.27-0.18,0.44-0.18
			c0.18,0,0.33,0.06,0.45,0.18s0.18,0.27,0.18,0.45c0,0.17-0.06,0.32-0.18,0.44S212.02,31.09,211.85,31.09z M212.32,38.61h-0.96v-6
			h0.96V38.61z"/>
		<path fill="#1E1E1E" d="M216.77,38.75c-0.89,0-1.59-0.28-2.12-0.84s-0.79-1.3-0.79-2.23c0-1.01,0.28-1.79,0.83-2.36
			s1.29-0.85,2.23-0.85c0.89,0,1.59,0.28,2.09,0.83s0.75,1.31,0.75,2.29c0,0.96-0.27,1.72-0.81,2.3S217.68,38.75,216.77,38.75z
			 M216.84,33.28c-0.62,0-1.11,0.21-1.46,0.63s-0.54,1-0.54,1.74c0,0.71,0.18,1.27,0.54,1.68s0.85,0.62,1.46,0.62
			c0.62,0,1.1-0.2,1.43-0.6s0.5-0.97,0.5-1.72c0-0.75-0.17-1.33-0.5-1.73S217.46,33.28,216.84,33.28z"/>
		<path fill="#1E1E1E" d="M226.27,38.61h-0.96v-3.42c0-1.27-0.46-1.91-1.39-1.91c-0.48,0-0.88,0.18-1.19,0.54s-0.47,0.82-0.47,1.37
			v3.42h-0.96v-6h0.96v1h0.02c0.45-0.76,1.11-1.14,1.97-1.14c0.66,0,1.16,0.21,1.51,0.64s0.52,1.04,0.52,1.84V38.61z"/>
		<path fill="#1E1E1E" d="M227.72,38.39v-1.03c0.52,0.39,1.1,0.58,1.73,0.58c0.84,0,1.27-0.28,1.27-0.84c0-0.16-0.04-0.3-0.11-0.41
			s-0.17-0.21-0.29-0.3s-0.27-0.16-0.43-0.23s-0.34-0.14-0.54-0.21c-0.27-0.11-0.5-0.21-0.7-0.32s-0.37-0.23-0.5-0.36
			s-0.24-0.29-0.3-0.46s-0.1-0.37-0.1-0.6c0-0.28,0.06-0.53,0.19-0.75s0.3-0.4,0.52-0.54s0.46-0.26,0.74-0.33s0.56-0.11,0.85-0.11
			c0.52,0,0.98,0.09,1.39,0.27v0.97c-0.44-0.29-0.95-0.43-1.52-0.43c-0.18,0-0.34,0.02-0.49,0.06s-0.27,0.1-0.37,0.17
			s-0.18,0.16-0.24,0.27s-0.08,0.22-0.08,0.34c0,0.16,0.03,0.29,0.08,0.39s0.14,0.2,0.25,0.28s0.24,0.16,0.4,0.22
			s0.33,0.14,0.53,0.22c0.27,0.1,0.5,0.21,0.71,0.31s0.39,0.23,0.54,0.36s0.26,0.29,0.34,0.47s0.12,0.38,0.12,0.63
			c0,0.3-0.07,0.55-0.2,0.77s-0.31,0.4-0.52,0.54s-0.47,0.25-0.76,0.32s-0.58,0.11-0.9,0.11C228.71,38.75,228.17,38.63,227.72,38.39
			z"/>
	</g>
	<g>
		<path fill="#1E1E1E" d="M38.51,91.76c-0.62,0.33-1.39,0.49-2.32,0.49c-1.2,0-2.15-0.38-2.87-1.15s-1.08-1.78-1.08-3.03
			c0-1.34,0.4-2.43,1.21-3.26s1.83-1.24,3.08-1.24c0.8,0,1.46,0.12,1.98,0.35v1.05c-0.6-0.34-1.27-0.5-1.99-0.5
			c-0.96,0-1.75,0.32-2.35,0.97s-0.9,1.51-0.9,2.58c0,1.02,0.28,1.84,0.84,2.45s1.3,0.91,2.21,0.91c0.84,0,1.57-0.19,2.19-0.56
			V91.76z"/>
		<path fill="#1E1E1E" d="M45.07,92.11h-0.96v-3.46c0-1.25-0.46-1.88-1.39-1.88c-0.47,0-0.86,0.18-1.18,0.54s-0.48,0.83-0.48,1.39
			v3.4h-0.96v-8.88h0.96v3.88h0.02c0.46-0.76,1.12-1.14,1.97-1.14c1.35,0,2.03,0.81,2.03,2.44V92.11z"/>
		<path fill="#1E1E1E" d="M51.7,89.35h-4.24c0.02,0.67,0.2,1.18,0.54,1.55s0.82,0.54,1.42,0.54c0.68,0,1.3-0.22,1.86-0.67v0.9
			c-0.53,0.38-1.22,0.57-2.09,0.57c-0.85,0-1.51-0.27-2-0.82s-0.73-1.31-0.73-2.3c0-0.93,0.26-1.69,0.79-2.28s1.19-0.88,1.97-0.88
			s1.39,0.25,1.82,0.76s0.64,1.21,0.64,2.12V89.35z M50.72,88.54c0-0.55-0.14-0.99-0.4-1.29s-0.63-0.46-1.1-0.46
			c-0.45,0-0.84,0.16-1.15,0.49s-0.51,0.75-0.59,1.27H50.72z"/>
		<path fill="#1E1E1E" d="M57.25,91.83c-0.46,0.28-1.01,0.42-1.64,0.42c-0.86,0-1.55-0.28-2.07-0.83s-0.79-1.28-0.79-2.17
			c0-0.99,0.28-1.78,0.85-2.38s1.32-0.9,2.27-0.9c0.53,0,0.99,0.1,1.39,0.29v0.98c-0.45-0.31-0.92-0.47-1.43-0.47
			c-0.61,0-1.12,0.22-1.51,0.66s-0.59,1.02-0.59,1.73c0,0.7,0.18,1.26,0.55,1.66s0.86,0.61,1.49,0.61c0.52,0,1.02-0.17,1.48-0.52
			V91.83z"/>
		<path fill="#1E1E1E" d="M63.68,92.11h-1.35l-2.65-2.88h-0.02v2.88H58.7v-8.88h0.96v5.63h0.02l2.52-2.75h1.26L60.68,89L63.68,92.11
			z"/>
		<path fill="#1E1E1E" d="M73.07,91.63c0,2.2-1.05,3.3-3.16,3.3c-0.74,0-1.39-0.14-1.95-0.42v-0.96c0.68,0.38,1.32,0.56,1.93,0.56
			c1.48,0,2.21-0.79,2.21-2.36V91.1h-0.02c-0.46,0.77-1.14,1.15-2.06,1.15c-0.75,0-1.35-0.27-1.8-0.8s-0.68-1.25-0.68-2.15
			c0-1.02,0.25-1.83,0.74-2.43s1.16-0.9,2.01-0.9c0.81,0,1.41,0.32,1.8,0.97h0.02v-0.83h0.96V91.63z M72.11,89.4v-0.88
			c0-0.48-0.16-0.88-0.48-1.22s-0.72-0.51-1.2-0.51c-0.59,0-1.06,0.22-1.39,0.65s-0.5,1.04-0.5,1.81c0,0.67,0.16,1.2,0.48,1.6
			s0.75,0.6,1.28,0.6c0.54,0,0.98-0.19,1.32-0.57S72.11,89.99,72.11,89.4z"/>
		<path fill="#1E1E1E" d="M79.84,89.35H75.6c0.02,0.67,0.2,1.18,0.54,1.55s0.82,0.54,1.42,0.54c0.68,0,1.3-0.22,1.86-0.67v0.9
			c-0.53,0.38-1.22,0.57-2.09,0.57c-0.85,0-1.51-0.27-2-0.82s-0.73-1.31-0.73-2.3c0-0.93,0.26-1.69,0.79-2.28s1.19-0.88,1.97-0.88
			s1.39,0.25,1.82,0.76s0.64,1.21,0.64,2.12V89.35z M78.85,88.54c0-0.55-0.14-0.99-0.4-1.29s-0.63-0.46-1.1-0.46
			c-0.45,0-0.84,0.16-1.15,0.49s-0.51,0.75-0.59,1.27H78.85z"/>
		<path fill="#1E1E1E" d="M83.8,92.25c-0.89,0-1.59-0.28-2.12-0.84s-0.79-1.3-0.79-2.23c0-1.01,0.28-1.79,0.83-2.36
			s1.29-0.85,2.23-0.85c0.89,0,1.59,0.28,2.09,0.83s0.75,1.31,0.75,2.29c0,0.96-0.27,1.72-0.81,2.3S84.71,92.25,83.8,92.25z
			 M83.87,86.78c-0.62,0-1.11,0.21-1.46,0.63s-0.54,1-0.54,1.74c0,0.71,0.18,1.27,0.54,1.68s0.85,0.62,1.46,0.62
			c0.62,0,1.1-0.2,1.43-0.6s0.5-0.97,0.5-1.72c0-0.75-0.17-1.33-0.5-1.73S84.49,86.78,83.87,86.78z"/>
		<path fill="#1E1E1E" d="M96.84,92.11h-0.96v-3.45c0-0.66-0.1-1.14-0.31-1.44s-0.55-0.45-1.03-0.45c-0.41,0-0.76,0.19-1.05,0.56
			s-0.43,0.82-0.43,1.35v3.42H92.1v-3.56c0-1.18-0.46-1.77-1.37-1.77c-0.42,0-0.77,0.18-1.04,0.53s-0.41,0.81-0.41,1.38v3.42h-0.96
			v-6h0.96v0.95h0.02c0.43-0.73,1.05-1.09,1.86-1.09c0.41,0,0.77,0.11,1.07,0.34s0.51,0.53,0.63,0.9c0.45-0.83,1.11-1.24,1.99-1.24
			c1.32,0,1.98,0.81,1.98,2.44V92.11z"/>
		<path fill="#1E1E1E" d="M103.48,89.35h-4.24c0.02,0.67,0.2,1.18,0.54,1.55s0.82,0.54,1.42,0.54c0.68,0,1.3-0.22,1.86-0.67v0.9
			c-0.53,0.38-1.22,0.57-2.09,0.57c-0.85,0-1.51-0.27-2-0.82s-0.73-1.31-0.73-2.3c0-0.93,0.26-1.69,0.79-2.28s1.19-0.88,1.97-0.88
			s1.39,0.25,1.82,0.76s0.64,1.21,0.64,2.12V89.35z M102.5,88.54c0-0.55-0.14-0.99-0.4-1.29s-0.63-0.46-1.1-0.46
			c-0.45,0-0.84,0.16-1.15,0.49s-0.51,0.75-0.59,1.27H102.5z"/>
		<path fill="#1E1E1E" d="M107.72,92.05c-0.23,0.13-0.53,0.19-0.9,0.19c-1.05,0-1.58-0.59-1.58-1.76v-3.55h-1.03v-0.82h1.03v-1.46
			l0.96-0.31v1.78h1.51v0.82h-1.51v3.38c0,0.4,0.07,0.69,0.21,0.86s0.36,0.26,0.68,0.26c0.24,0,0.45-0.07,0.63-0.2V92.05z"/>
		<path fill="#1E1E1E" d="M112.13,87.08c-0.17-0.13-0.41-0.19-0.73-0.19c-0.41,0-0.75,0.19-1.03,0.58s-0.41,0.91-0.41,1.58v3.06H109
			v-6h0.96v1.24h0.02c0.14-0.42,0.35-0.75,0.63-0.99s0.6-0.35,0.94-0.35c0.25,0,0.44,0.03,0.57,0.08V87.08z"/>
		<path fill="#1E1E1E" d="M117.95,86.11l-2.76,6.96c-0.49,1.24-1.18,1.86-2.07,1.86c-0.25,0-0.46-0.03-0.63-0.08V94
			c0.21,0.07,0.4,0.11,0.57,0.11c0.48,0,0.85-0.29,1.09-0.87l0.48-1.14l-2.34-5.99h1.07l1.62,4.62c0.02,0.06,0.06,0.21,0.12,0.46
			h0.04c0.02-0.09,0.06-0.24,0.12-0.45l1.71-4.63H117.95z"/>
	</g>
	<g>
		<path fill="#1E1E1E" d="M207.9,91.77v-1.16c0.13,0.12,0.29,0.22,0.48,0.32s0.38,0.17,0.59,0.24s0.41,0.11,0.62,0.15
			s0.4,0.05,0.57,0.05c0.61,0,1.06-0.11,1.36-0.34s0.45-0.55,0.45-0.97c0-0.23-0.05-0.42-0.15-0.59s-0.24-0.32-0.41-0.46
			s-0.38-0.27-0.62-0.4s-0.5-0.26-0.78-0.4c-0.29-0.15-0.57-0.3-0.82-0.45s-0.47-0.32-0.66-0.5s-0.33-0.39-0.44-0.62
			s-0.16-0.5-0.16-0.82c0-0.38,0.08-0.72,0.25-1s0.39-0.52,0.66-0.7s0.58-0.32,0.93-0.41s0.71-0.13,1.07-0.13
			c0.83,0,1.43,0.1,1.81,0.3v1.11c-0.5-0.34-1.13-0.52-1.91-0.52c-0.21,0-0.43,0.02-0.64,0.07s-0.41,0.12-0.57,0.22
			s-0.3,0.23-0.41,0.39s-0.16,0.36-0.16,0.59c0,0.21,0.04,0.4,0.12,0.56s0.2,0.3,0.35,0.43s0.35,0.25,0.57,0.38s0.48,0.25,0.78,0.4
			c0.3,0.15,0.59,0.3,0.86,0.47s0.51,0.35,0.71,0.54s0.36,0.42,0.48,0.66s0.18,0.52,0.18,0.83c0,0.41-0.08,0.76-0.24,1.05
			s-0.38,0.52-0.66,0.7s-0.59,0.31-0.95,0.39s-0.74,0.12-1.14,0.12c-0.13,0-0.3-0.01-0.49-0.03s-0.39-0.05-0.6-0.09
			s-0.4-0.09-0.58-0.15S208.01,91.84,207.9,91.77z"/>
		<path fill="#1E1E1E" d="M219.36,89.35h-4.24c0.02,0.67,0.2,1.18,0.54,1.55s0.82,0.54,1.42,0.54c0.68,0,1.3-0.22,1.86-0.67v0.9
			c-0.53,0.38-1.22,0.57-2.09,0.57c-0.85,0-1.51-0.27-2-0.82s-0.73-1.31-0.73-2.3c0-0.93,0.26-1.69,0.79-2.28s1.19-0.88,1.97-0.88
			s1.39,0.25,1.82,0.76s0.64,1.21,0.64,2.12V89.35z M218.37,88.54c0-0.55-0.14-0.99-0.4-1.29s-0.63-0.46-1.1-0.46
			c-0.45,0-0.84,0.16-1.15,0.49s-0.51,0.75-0.59,1.27H218.37z"/>
		<path fill="#1E1E1E" d="M225.11,92.11h-0.96v-0.94h-0.02c-0.42,0.72-1.03,1.08-1.85,1.08c-0.6,0-1.07-0.16-1.4-0.47
			s-0.51-0.74-0.51-1.26c0-1.12,0.66-1.77,1.98-1.96l1.8-0.25c0-1.02-0.41-1.53-1.24-1.53c-0.72,0-1.38,0.25-1.96,0.74v-0.98
			c0.59-0.38,1.27-0.56,2.04-0.56c1.41,0,2.12,0.75,2.12,2.24V92.11z M224.15,89.07l-1.45,0.2c-0.45,0.06-0.78,0.17-1.01,0.33
			s-0.34,0.44-0.34,0.84c0,0.29,0.1,0.53,0.31,0.72s0.49,0.28,0.83,0.28c0.48,0,0.87-0.17,1.18-0.5s0.47-0.76,0.47-1.27V89.07z"/>
		<path fill="#1E1E1E" d="M230.05,87.08c-0.17-0.13-0.41-0.19-0.73-0.19c-0.41,0-0.75,0.19-1.03,0.58s-0.41,0.91-0.41,1.58v3.06
			h-0.96v-6h0.96v1.24h0.02c0.14-0.42,0.35-0.75,0.63-0.99s0.6-0.35,0.94-0.35c0.25,0,0.44,0.03,0.57,0.08V87.08z"/>
		<path fill="#1E1E1E" d="M235.18,91.83c-0.46,0.28-1.01,0.42-1.64,0.42c-0.86,0-1.55-0.28-2.07-0.83s-0.79-1.28-0.79-2.17
			c0-0.99,0.28-1.78,0.85-2.38s1.32-0.9,2.27-0.9c0.53,0,0.99,0.1,1.39,0.29v0.98c-0.45-0.31-0.92-0.47-1.43-0.47
			c-0.61,0-1.12,0.22-1.51,0.66s-0.59,1.02-0.59,1.73c0,0.7,0.18,1.26,0.55,1.66s0.86,0.61,1.49,0.61c0.52,0,1.02-0.17,1.48-0.52
			V91.83z"/>
		<path fill="#1E1E1E" d="M241.61,92.11h-0.96v-3.46c0-1.25-0.46-1.88-1.39-1.88c-0.47,0-0.86,0.18-1.18,0.54s-0.48,0.83-0.48,1.39
			v3.4h-0.96v-8.88h0.96v3.88h0.02c0.46-0.76,1.12-1.14,1.97-1.14c1.35,0,2.03,0.81,2.03,2.44V92.11z"/>
		<path fill="#1E1E1E" d="M251.83,92.11h-0.96v-1.02h-0.02c-0.45,0.77-1.13,1.16-2.06,1.16c-0.75,0-1.36-0.27-1.81-0.81
			s-0.68-1.27-0.68-2.19c0-0.99,0.25-1.79,0.75-2.38s1.17-0.9,2-0.9c0.82,0,1.42,0.32,1.8,0.97h0.02v-3.71h0.96V92.11z M250.87,89.4
			v-0.88c0-0.48-0.16-0.89-0.48-1.23s-0.73-0.5-1.22-0.5c-0.59,0-1.05,0.21-1.38,0.64s-0.5,1.02-0.5,1.78
			c0,0.69,0.16,1.24,0.48,1.64s0.75,0.6,1.3,0.6c0.54,0,0.97-0.19,1.3-0.58S250.87,89.99,250.87,89.4z"/>
		<path fill="#1E1E1E" d="M258.6,89.35h-4.24c0.02,0.67,0.2,1.18,0.54,1.55s0.82,0.54,1.42,0.54c0.68,0,1.3-0.22,1.86-0.67v0.9
			c-0.53,0.38-1.22,0.57-2.09,0.57c-0.85,0-1.51-0.27-2-0.82s-0.73-1.31-0.73-2.3c0-0.93,0.26-1.69,0.79-2.28s1.19-0.88,1.97-0.88
			s1.39,0.25,1.82,0.76s0.64,1.21,0.64,2.12V89.35z M257.61,88.54c0-0.55-0.14-0.99-0.4-1.29s-0.63-0.46-1.1-0.46
			c-0.45,0-0.84,0.16-1.15,0.49s-0.51,0.75-0.59,1.27H257.61z"/>
		<path fill="#1E1E1E" d="M263.02,84.07c-0.19-0.11-0.4-0.16-0.64-0.16c-0.67,0-1.01,0.42-1.01,1.27v0.93h1.41v0.82h-1.41v5.18
			h-0.96v-5.18h-1.03v-0.82h1.03v-0.97c0-0.63,0.18-1.13,0.54-1.49s0.82-0.55,1.36-0.55c0.29,0,0.53,0.04,0.7,0.11V84.07z"/>
		<path fill="#1E1E1E" d="M268.63,89.35h-4.24c0.02,0.67,0.2,1.18,0.54,1.55s0.82,0.54,1.42,0.54c0.68,0,1.3-0.22,1.86-0.67v0.9
			c-0.53,0.38-1.22,0.57-2.09,0.57c-0.85,0-1.51-0.27-2-0.82s-0.73-1.31-0.73-2.3c0-0.93,0.26-1.69,0.79-2.28s1.19-0.88,1.97-0.88
			s1.39,0.25,1.82,0.76s0.64,1.21,0.64,2.12V89.35z M267.65,88.54c0-0.55-0.14-0.99-0.4-1.29s-0.63-0.46-1.1-0.46
			c-0.45,0-0.84,0.16-1.15,0.49s-0.51,0.75-0.59,1.27H267.65z"/>
		<path fill="#1E1E1E" d="M274.17,91.83c-0.46,0.28-1.01,0.42-1.64,0.42c-0.86,0-1.55-0.28-2.07-0.83s-0.79-1.28-0.79-2.17
			c0-0.99,0.28-1.78,0.85-2.38s1.32-0.9,2.27-0.9c0.53,0,0.99,0.1,1.39,0.29v0.98c-0.45-0.31-0.92-0.47-1.43-0.47
			c-0.61,0-1.12,0.22-1.51,0.66s-0.59,1.02-0.59,1.73c0,0.7,0.18,1.26,0.55,1.66s0.86,0.61,1.49,0.61c0.52,0,1.02-0.17,1.48-0.52
			V91.83z"/>
		<path fill="#1E1E1E" d="M278.41,92.05c-0.23,0.13-0.53,0.19-0.9,0.19c-1.05,0-1.58-0.59-1.58-1.76v-3.55h-1.03v-0.82h1.03v-1.46
			l0.96-0.31v1.78h1.51v0.82h-1.51v3.38c0,0.4,0.07,0.69,0.21,0.86s0.36,0.26,0.68,0.26c0.24,0,0.45-0.07,0.63-0.2V92.05z"/>
		<path fill="#1E1E1E" d="M279.33,91.89v-1.03c0.52,0.39,1.1,0.58,1.73,0.58c0.84,0,1.27-0.28,1.27-0.84c0-0.16-0.04-0.3-0.11-0.41
			s-0.17-0.21-0.29-0.3s-0.27-0.16-0.43-0.23s-0.34-0.14-0.54-0.21c-0.27-0.11-0.5-0.21-0.7-0.32s-0.37-0.23-0.5-0.36
			s-0.24-0.29-0.3-0.46s-0.1-0.37-0.1-0.6c0-0.28,0.06-0.53,0.19-0.75s0.3-0.4,0.52-0.54s0.46-0.26,0.74-0.33s0.56-0.11,0.85-0.11
			c0.52,0,0.98,0.09,1.39,0.27v0.97c-0.44-0.29-0.95-0.43-1.52-0.43c-0.18,0-0.34,0.02-0.49,0.06s-0.27,0.1-0.37,0.17
			s-0.18,0.16-0.24,0.27s-0.08,0.22-0.08,0.34c0,0.16,0.03,0.29,0.08,0.39s0.14,0.2,0.25,0.28s0.24,0.16,0.4,0.22
			s0.33,0.14,0.53,0.22c0.27,0.1,0.5,0.21,0.71,0.31s0.39,0.23,0.54,0.36s0.26,0.29,0.34,0.47s0.12,0.38,0.12,0.63
			c0,0.3-0.07,0.55-0.2,0.77s-0.31,0.4-0.52,0.54s-0.47,0.25-0.76,0.32s-0.58,0.11-0.9,0.11C280.32,92.25,279.78,92.13,279.33,91.89
			z"/>
	</g>
	<g>
		<path fill="#1E1E1E" d="M232.09,126.76c-0.62,0.33-1.39,0.49-2.32,0.49c-1.2,0-2.15-0.38-2.87-1.15s-1.08-1.78-1.08-3.03
			c0-1.34,0.4-2.43,1.21-3.26s1.83-1.24,3.08-1.24c0.8,0,1.46,0.12,1.98,0.35v1.05c-0.6-0.34-1.27-0.5-1.99-0.5
			c-0.96,0-1.75,0.32-2.35,0.97s-0.9,1.51-0.9,2.58c0,1.02,0.28,1.84,0.84,2.45s1.3,0.91,2.21,0.91c0.84,0,1.57-0.19,2.19-0.56
			V126.76z"/>
		<path fill="#1E1E1E" d="M238.53,127.11h-0.96v-0.95h-0.02c-0.4,0.73-1.02,1.09-1.85,1.09c-1.43,0-2.14-0.85-2.14-2.55v-3.59h0.96
			v3.43c0,1.27,0.48,1.9,1.45,1.9c0.47,0,0.85-0.17,1.16-0.52s0.45-0.8,0.45-1.36v-3.46h0.96V127.11z"/>
		<path fill="#1E1E1E" d="M243.25,127.05c-0.23,0.13-0.53,0.19-0.9,0.19c-1.05,0-1.58-0.59-1.58-1.76v-3.55h-1.03v-0.82h1.03v-1.46
			l0.96-0.31v1.78h1.51v0.82h-1.51v3.38c0,0.4,0.07,0.69,0.21,0.86s0.36,0.26,0.68,0.26c0.24,0,0.45-0.07,0.63-0.2V127.05z"/>
		<path fill="#1E1E1E" d="M248.78,127.11h-0.96v-8.88h0.96V127.11z"/>
		<path fill="#1E1E1E" d="M251.22,119.59c-0.17,0-0.32-0.06-0.44-0.18s-0.18-0.27-0.18-0.45s0.06-0.33,0.18-0.45
			s0.27-0.18,0.44-0.18c0.18,0,0.33,0.06,0.45,0.18s0.18,0.27,0.18,0.45c0,0.17-0.06,0.32-0.18,0.44S251.39,119.59,251.22,119.59z
			 M251.69,127.11h-0.96v-6h0.96V127.11z"/>
		<path fill="#1E1E1E" d="M258.61,127.11h-0.96v-3.42c0-1.27-0.46-1.91-1.39-1.91c-0.48,0-0.88,0.18-1.19,0.54s-0.47,0.82-0.47,1.37
			v3.42h-0.96v-6h0.96v1h0.02c0.45-0.76,1.11-1.14,1.97-1.14c0.66,0,1.16,0.21,1.51,0.64s0.52,1.04,0.52,1.84V127.11z"/>
		<path fill="#1E1E1E" d="M265.25,124.35h-4.24c0.02,0.67,0.2,1.18,0.54,1.55s0.82,0.54,1.42,0.54c0.68,0,1.3-0.22,1.86-0.67v0.9
			c-0.53,0.38-1.22,0.57-2.09,0.57c-0.85,0-1.51-0.27-2-0.82s-0.73-1.31-0.73-2.3c0-0.93,0.26-1.69,0.79-2.28s1.19-0.88,1.97-0.88
			s1.39,0.25,1.82,0.76s0.64,1.21,0.64,2.12V124.35z M264.26,123.54c0-0.55-0.14-0.99-0.4-1.29s-0.63-0.46-1.1-0.46
			c-0.45,0-0.84,0.16-1.15,0.49s-0.51,0.75-0.59,1.27H264.26z"/>
	</g>
	<g>
		<path fill="#1E1E1E" d="M222.08,231.57h-4.45v-8.4h4.27v0.89h-3.28v2.79h3.04v0.88h-3.04v2.94h3.47V231.57z"/>
		<path fill="#1E1E1E" d="M227.95,225.57l-2.02,3.04l1.98,2.96h-1.12l-1.18-1.95c-0.07-0.12-0.16-0.27-0.26-0.46h-0.02
			c-0.02,0.04-0.11,0.19-0.28,0.46l-1.2,1.95h-1.11l2.04-2.94l-1.96-3.06h1.12l1.16,2.05c0.09,0.15,0.17,0.31,0.25,0.47h0.02
			l1.5-2.52H227.95z"/>
		<path fill="#1E1E1E" d="M231.86,231.51c-0.23,0.13-0.53,0.19-0.9,0.19c-1.05,0-1.58-0.59-1.58-1.76v-3.55h-1.03v-0.82h1.03v-1.46
			l0.96-0.31v1.78h1.51v0.82h-1.51v3.38c0,0.4,0.07,0.69,0.21,0.86s0.36,0.26,0.68,0.26c0.24,0,0.45-0.07,0.63-0.2V231.51z"/>
		<path fill="#1E1E1E" d="M237.97,228.81h-4.24c0.02,0.67,0.2,1.18,0.54,1.55s0.82,0.54,1.42,0.54c0.68,0,1.3-0.22,1.86-0.67v0.9
			c-0.53,0.38-1.22,0.57-2.09,0.57c-0.85,0-1.51-0.27-2-0.82s-0.73-1.31-0.73-2.3c0-0.93,0.26-1.69,0.79-2.28s1.19-0.88,1.97-0.88
			s1.39,0.25,1.82,0.76s0.64,1.21,0.64,2.12V228.81z M236.98,228c0-0.55-0.14-0.99-0.4-1.29s-0.63-0.46-1.1-0.46
			c-0.45,0-0.84,0.16-1.15,0.49s-0.51,0.75-0.59,1.27H236.98z"/>
		<path fill="#1E1E1E" d="M244.4,231.57h-0.96v-3.42c0-1.27-0.46-1.91-1.39-1.91c-0.48,0-0.88,0.18-1.19,0.54s-0.47,0.82-0.47,1.37
			v3.42h-0.96v-6h0.96v1h0.02c0.45-0.76,1.11-1.14,1.97-1.14c0.66,0,1.16,0.21,1.51,0.64s0.52,1.04,0.52,1.84V231.57z"/>
		<path fill="#1E1E1E" d="M251.33,231.57h-0.96v-1.02h-0.02c-0.45,0.77-1.13,1.16-2.06,1.16c-0.75,0-1.36-0.27-1.81-0.81
			s-0.68-1.27-0.68-2.19c0-0.99,0.25-1.79,0.75-2.38s1.17-0.9,2-0.9c0.82,0,1.42,0.32,1.8,0.97h0.02v-3.71h0.96V231.57z
			 M250.37,228.86v-0.88c0-0.48-0.16-0.89-0.48-1.23s-0.73-0.5-1.22-0.5c-0.59,0-1.05,0.21-1.38,0.64s-0.5,1.02-0.5,1.78
			c0,0.69,0.16,1.24,0.48,1.64s0.75,0.6,1.3,0.6c0.54,0,0.97-0.19,1.3-0.58S250.37,229.45,250.37,228.86z"/>
		<path fill="#1E1E1E" d="M257.53,231.57h-0.96v-8.88h0.96V231.57z"/>
		<path fill="#1E1E1E" d="M259.96,224.05c-0.17,0-0.32-0.06-0.44-0.18s-0.18-0.27-0.18-0.45s0.06-0.33,0.18-0.45
			s0.27-0.18,0.44-0.18c0.18,0,0.33,0.06,0.45,0.18s0.18,0.27,0.18,0.45c0,0.17-0.06,0.32-0.18,0.44S260.14,224.05,259.96,224.05z
			 M260.43,231.57h-0.96v-6h0.96V231.57z"/>
		<path fill="#1E1E1E" d="M267.36,231.57h-0.96v-3.42c0-1.27-0.46-1.91-1.39-1.91c-0.48,0-0.88,0.18-1.19,0.54s-0.47,0.82-0.47,1.37
			v3.42h-0.96v-6h0.96v1h0.02c0.45-0.76,1.11-1.14,1.97-1.14c0.66,0,1.16,0.21,1.51,0.64s0.52,1.04,0.52,1.84V231.57z"/>
		<path fill="#1E1E1E" d="M273.99,228.81h-4.24c0.02,0.67,0.2,1.18,0.54,1.55s0.82,0.54,1.42,0.54c0.68,0,1.3-0.22,1.86-0.67v0.9
			c-0.53,0.38-1.22,0.57-2.09,0.57c-0.85,0-1.51-0.27-2-0.82s-0.73-1.31-0.73-2.3c0-0.93,0.26-1.69,0.79-2.28s1.19-0.88,1.97-0.88
			s1.39,0.25,1.82,0.76s0.64,1.21,0.64,2.12V228.81z M273.01,228c0-0.55-0.14-0.99-0.4-1.29s-0.63-0.46-1.1-0.46
			c-0.45,0-0.84,0.16-1.15,0.49s-0.51,0.75-0.59,1.27H273.01z"/>
	</g>
	<g>
		<path fill="#1E1E1E" d="M224.26,266.57h-0.98v-5.64c0-0.45,0.03-0.99,0.08-1.63h-0.02c-0.09,0.38-0.18,0.65-0.25,0.81l-2.87,6.46
			h-0.48l-2.87-6.41c-0.08-0.19-0.17-0.47-0.25-0.86h-0.02c0.03,0.34,0.05,0.88,0.05,1.65v5.63h-0.95v-8.4h1.3l2.58,5.86
			c0.2,0.45,0.33,0.79,0.39,1.01h0.04c0.17-0.46,0.3-0.8,0.4-1.03l2.63-5.84h1.23V266.57z"/>
		<path fill="#1E1E1E" d="M231.16,263.81h-4.24c0.02,0.67,0.2,1.18,0.54,1.55s0.82,0.54,1.42,0.54c0.68,0,1.3-0.22,1.86-0.67v0.9
			c-0.53,0.38-1.22,0.57-2.09,0.57c-0.85,0-1.51-0.27-2-0.82s-0.73-1.31-0.73-2.3c0-0.93,0.26-1.69,0.79-2.28s1.19-0.88,1.97-0.88
			s1.39,0.25,1.82,0.76s0.64,1.21,0.64,2.12V263.81z M230.17,263c0-0.55-0.14-0.99-0.4-1.29s-0.63-0.46-1.1-0.46
			c-0.45,0-0.84,0.16-1.15,0.49s-0.51,0.75-0.59,1.27H230.17z"/>
		<path fill="#1E1E1E" d="M235.74,261.54c-0.17-0.13-0.41-0.19-0.73-0.19c-0.41,0-0.75,0.19-1.03,0.58s-0.41,0.91-0.41,1.58v3.06
			h-0.96v-6h0.96v1.24h0.02c0.14-0.42,0.35-0.75,0.63-0.99s0.6-0.35,0.94-0.35c0.25,0,0.44,0.03,0.57,0.08V261.54z"/>
		<path fill="#1E1E1E" d="M241.91,266.09c0,2.2-1.05,3.3-3.16,3.3c-0.74,0-1.39-0.14-1.95-0.42v-0.96c0.68,0.38,1.32,0.56,1.93,0.56
			c1.48,0,2.21-0.79,2.21-2.36v-0.66h-0.02c-0.46,0.77-1.14,1.15-2.06,1.15c-0.75,0-1.35-0.27-1.8-0.8s-0.68-1.25-0.68-2.15
			c0-1.02,0.25-1.83,0.74-2.43s1.16-0.9,2.01-0.9c0.81,0,1.41,0.32,1.8,0.97h0.02v-0.83h0.96V266.09z M240.94,263.86v-0.88
			c0-0.48-0.16-0.88-0.48-1.22s-0.72-0.51-1.2-0.51c-0.59,0-1.06,0.22-1.39,0.65s-0.5,1.04-0.5,1.81c0,0.67,0.16,1.2,0.48,1.6
			s0.75,0.6,1.28,0.6c0.54,0,0.98-0.19,1.32-0.57S240.94,264.45,240.94,263.86z"/>
		<path fill="#1E1E1E" d="M248.67,263.81h-4.24c0.02,0.67,0.2,1.18,0.54,1.55s0.82,0.54,1.42,0.54c0.68,0,1.3-0.22,1.86-0.67v0.9
			c-0.53,0.38-1.22,0.57-2.09,0.57c-0.85,0-1.51-0.27-2-0.82s-0.73-1.31-0.73-2.3c0-0.93,0.26-1.69,0.79-2.28s1.19-0.88,1.97-0.88
			s1.39,0.25,1.82,0.76s0.64,1.21,0.64,2.12V263.81z M247.69,263c0-0.55-0.14-0.99-0.4-1.29s-0.63-0.46-1.1-0.46
			c-0.45,0-0.84,0.16-1.15,0.49s-0.51,0.75-0.59,1.27H247.69z"/>
		<path fill="#1E1E1E" d="M254.37,266.57h-0.96v-8.88h0.96V266.57z"/>
		<path fill="#1E1E1E" d="M256.81,259.05c-0.17,0-0.32-0.06-0.44-0.18s-0.18-0.27-0.18-0.45s0.06-0.33,0.18-0.45
			s0.27-0.18,0.44-0.18c0.18,0,0.33,0.06,0.45,0.18s0.18,0.27,0.18,0.45c0,0.17-0.06,0.32-0.18,0.44S256.99,259.05,256.81,259.05z
			 M257.28,266.57h-0.96v-6h0.96V266.57z"/>
		<path fill="#1E1E1E" d="M264.21,266.57h-0.96v-3.42c0-1.27-0.46-1.91-1.39-1.91c-0.48,0-0.88,0.18-1.19,0.54s-0.47,0.82-0.47,1.37
			v3.42h-0.96v-6h0.96v1h0.02c0.45-0.76,1.11-1.14,1.97-1.14c0.66,0,1.16,0.21,1.51,0.64s0.52,1.04,0.52,1.84V266.57z"/>
		<path fill="#1E1E1E" d="M270.84,263.81h-4.24c0.02,0.67,0.2,1.18,0.54,1.55s0.82,0.54,1.42,0.54c0.68,0,1.3-0.22,1.86-0.67v0.9
			c-0.53,0.38-1.22,0.57-2.09,0.57c-0.85,0-1.51-0.27-2-0.82s-0.73-1.31-0.73-2.3c0-0.93,0.26-1.69,0.79-2.28s1.19-0.88,1.97-0.88
			s1.39,0.25,1.82,0.76s0.64,1.21,0.64,2.12V263.81z M269.85,263c0-0.55-0.14-0.99-0.4-1.29s-0.63-0.46-1.1-0.46
			c-0.45,0-0.84,0.16-1.15,0.49s-0.51,0.75-0.59,1.27H269.85z"/>
		<path fill="#1E1E1E" d="M271.93,266.35v-1.03c0.52,0.39,1.1,0.58,1.73,0.58c0.84,0,1.27-0.28,1.27-0.84c0-0.16-0.04-0.3-0.11-0.41
			s-0.17-0.21-0.29-0.3s-0.27-0.16-0.43-0.23s-0.34-0.14-0.54-0.21c-0.27-0.11-0.5-0.21-0.7-0.32s-0.37-0.23-0.5-0.36
			s-0.24-0.29-0.3-0.46s-0.1-0.37-0.1-0.6c0-0.28,0.06-0.53,0.19-0.75s0.3-0.4,0.52-0.54s0.46-0.26,0.74-0.33s0.56-0.11,0.85-0.11
			c0.52,0,0.98,0.09,1.39,0.27v0.97c-0.44-0.29-0.95-0.43-1.52-0.43c-0.18,0-0.34,0.02-0.49,0.06s-0.27,0.1-0.37,0.17
			s-0.18,0.16-0.24,0.27s-0.08,0.22-0.08,0.34c0,0.16,0.03,0.29,0.08,0.39s0.14,0.2,0.25,0.28s0.24,0.16,0.4,0.22
			s0.33,0.14,0.53,0.22c0.27,0.1,0.5,0.21,0.71,0.31s0.39,0.23,0.54,0.36s0.26,0.29,0.34,0.47s0.12,0.38,0.12,0.63
			c0,0.3-0.07,0.55-0.2,0.77s-0.31,0.4-0.52,0.54s-0.47,0.25-0.76,0.32s-0.58,0.11-0.9,0.11
			C272.92,266.71,272.38,266.59,271.93,266.35z"/>
	</g>
	<g>
		<path fill="#1E1E1E" d="M312.88,29.56c-0.84,0.48-1.78,0.71-2.81,0.71c-1.2,0-2.17-0.39-2.91-1.16s-1.11-1.8-1.11-3.07
			c0-1.3,0.41-2.37,1.23-3.2s1.86-1.25,3.13-1.25c0.91,0,1.68,0.15,2.3,0.45v1.09c-0.68-0.43-1.48-0.64-2.41-0.64
			c-0.94,0-1.71,0.32-2.31,0.97s-0.9,1.49-0.9,2.52c0,1.06,0.28,1.9,0.84,2.5s1.32,0.91,2.27,0.91c0.66,0,1.22-0.13,1.71-0.39v-2.36
			h-1.84v-0.89h2.82V29.56z"/>
		<path fill="#1E1E1E" d="M319.53,27.37h-4.24c0.02,0.67,0.2,1.18,0.54,1.55s0.82,0.54,1.42,0.54c0.68,0,1.3-0.22,1.86-0.67v0.9
			c-0.53,0.38-1.22,0.57-2.09,0.57c-0.85,0-1.51-0.27-2-0.82s-0.73-1.31-0.73-2.3c0-0.93,0.26-1.69,0.79-2.28s1.19-0.88,1.97-0.88
			s1.39,0.25,1.82,0.76s0.64,1.21,0.64,2.12V27.37z M318.54,26.56c0-0.55-0.14-0.99-0.4-1.29s-0.63-0.46-1.1-0.46
			c-0.45,0-0.84,0.16-1.15,0.49s-0.51,0.75-0.59,1.27H318.54z"/>
		<path fill="#1E1E1E" d="M323.49,30.27c-0.89,0-1.59-0.28-2.12-0.84s-0.79-1.3-0.79-2.23c0-1.01,0.28-1.79,0.83-2.36
			s1.29-0.85,2.23-0.85c0.89,0,1.59,0.28,2.09,0.83s0.75,1.31,0.75,2.29c0,0.96-0.27,1.72-0.81,2.3S324.4,30.27,323.49,30.27z
			 M323.56,24.8c-0.62,0-1.11,0.21-1.46,0.63s-0.54,1-0.54,1.74c0,0.71,0.18,1.27,0.54,1.68s0.85,0.62,1.46,0.62
			c0.62,0,1.1-0.2,1.43-0.6s0.5-0.97,0.5-1.72c0-0.75-0.17-1.33-0.5-1.73S324.18,24.8,323.56,24.8z"/>
		<path fill="#1E1E1E" d="M336.53,30.13h-0.96v-3.45c0-0.66-0.1-1.14-0.31-1.44s-0.55-0.45-1.03-0.45c-0.41,0-0.76,0.19-1.05,0.56
			s-0.43,0.82-0.43,1.35v3.42h-0.96v-3.56c0-1.18-0.46-1.77-1.37-1.77c-0.42,0-0.77,0.18-1.04,0.53s-0.41,0.81-0.41,1.38v3.42h-0.96
			v-6h0.96v0.95H329c0.43-0.73,1.05-1.09,1.86-1.09c0.41,0,0.77,0.11,1.07,0.34s0.51,0.53,0.63,0.9c0.45-0.83,1.11-1.24,1.99-1.24
			c1.32,0,1.98,0.81,1.98,2.44V30.13z"/>
		<path fill="#1E1E1E" d="M343.17,27.37h-4.24c0.02,0.67,0.2,1.18,0.54,1.55s0.82,0.54,1.42,0.54c0.68,0,1.3-0.22,1.86-0.67v0.9
			c-0.53,0.38-1.22,0.57-2.09,0.57c-0.85,0-1.51-0.27-2-0.82s-0.73-1.31-0.73-2.3c0-0.93,0.26-1.69,0.79-2.28s1.19-0.88,1.97-0.88
			s1.39,0.25,1.82,0.76s0.64,1.21,0.64,2.12V27.37z M342.19,26.56c0-0.55-0.14-0.99-0.4-1.29s-0.63-0.46-1.1-0.46
			c-0.45,0-0.84,0.16-1.15,0.49s-0.51,0.75-0.59,1.27H342.19z"/>
		<path fill="#1E1E1E" d="M347.41,30.08c-0.23,0.13-0.53,0.19-0.9,0.19c-1.05,0-1.58-0.59-1.58-1.76v-3.55h-1.03v-0.82h1.03v-1.46
			l0.96-0.31v1.78h1.51v0.82h-1.51v3.38c0,0.4,0.07,0.69,0.21,0.86s0.36,0.26,0.68,0.26c0.24,0,0.45-0.07,0.63-0.2V30.08z"/>
		<path fill="#1E1E1E" d="M351.82,25.11c-0.17-0.13-0.41-0.19-0.73-0.19c-0.41,0-0.75,0.19-1.03,0.58s-0.41,0.91-0.41,1.58v3.06
			h-0.96v-6h0.96v1.24h0.02c0.14-0.42,0.35-0.75,0.63-0.99s0.6-0.35,0.94-0.35c0.25,0,0.44,0.03,0.57,0.08V25.11z"/>
		<path fill="#1E1E1E" d="M357.64,24.13l-2.76,6.96c-0.49,1.24-1.18,1.86-2.07,1.86c-0.25,0-0.46-0.03-0.63-0.08v-0.86
			c0.21,0.07,0.4,0.11,0.57,0.11c0.48,0,0.85-0.29,1.09-0.87l0.48-1.14l-2.34-5.99h1.07l1.62,4.62c0.02,0.06,0.06,0.21,0.12,0.46
			h0.04c0.02-0.09,0.06-0.24,0.12-0.45l1.71-4.63H357.64z"/>
	</g>
	<g>
		<rect x="355.5" y="165" fill="none" width="81.85" height="30.07"/>
		<path fill="#1E1E1E" d="M362.92,175.2h-0.98v-3.83h-4.35v3.83h-0.98v-8.4h0.98v3.69h4.35v-3.69h0.98V175.2z"/>
		<path fill="#1E1E1E" d="M369.81,172.44h-4.24c0.02,0.67,0.2,1.18,0.54,1.55s0.82,0.54,1.42,0.54c0.68,0,1.3-0.22,1.86-0.67v0.9
			c-0.53,0.38-1.22,0.57-2.09,0.57c-0.85,0-1.51-0.27-2-0.82s-0.73-1.31-0.73-2.3c0-0.93,0.26-1.69,0.79-2.28s1.19-0.88,1.97-0.88
			s1.39,0.25,1.82,0.76s0.64,1.21,0.64,2.12V172.44z M368.83,171.63c0-0.55-0.14-0.99-0.4-1.29s-0.63-0.46-1.1-0.46
			c-0.45,0-0.84,0.16-1.15,0.49s-0.51,0.75-0.59,1.27H368.83z"/>
		<path fill="#1E1E1E" d="M375.56,175.2h-0.96v-0.94h-0.02c-0.42,0.72-1.03,1.08-1.85,1.08c-0.6,0-1.07-0.16-1.4-0.47
			s-0.51-0.74-0.51-1.26c0-1.12,0.66-1.77,1.98-1.96l1.8-0.25c0-1.02-0.41-1.53-1.24-1.53c-0.72,0-1.38,0.25-1.96,0.74v-0.98
			c0.59-0.38,1.27-0.56,2.04-0.56c1.41,0,2.12,0.75,2.12,2.24V175.2z M374.6,172.17l-1.45,0.2c-0.45,0.06-0.78,0.17-1.01,0.33
			s-0.34,0.44-0.34,0.84c0,0.29,0.1,0.53,0.31,0.72s0.49,0.28,0.83,0.28c0.48,0,0.87-0.17,1.18-0.5s0.47-0.76,0.47-1.27V172.17z"/>
		<path fill="#1E1E1E" d="M378.33,175.2h-0.96v-8.88h0.96V175.2z"/>
		<path fill="#1E1E1E" d="M380.77,167.68c-0.17,0-0.32-0.06-0.44-0.18s-0.18-0.27-0.18-0.45s0.06-0.33,0.18-0.45
			s0.27-0.18,0.44-0.18c0.18,0,0.33,0.06,0.45,0.18s0.18,0.27,0.18,0.45c0,0.17-0.06,0.32-0.18,0.44S380.95,167.68,380.77,167.68z
			 M381.24,175.2h-0.96v-6h0.96V175.2z"/>
		<path fill="#1E1E1E" d="M388.17,175.2h-0.96v-3.42c0-1.27-0.46-1.91-1.39-1.91c-0.48,0-0.88,0.18-1.19,0.54s-0.47,0.82-0.47,1.37
			v3.42h-0.96v-6h0.96v1h0.02c0.45-0.76,1.11-1.14,1.97-1.14c0.66,0,1.16,0.21,1.51,0.64s0.52,1.04,0.52,1.84V175.2z"/>
		<path fill="#1E1E1E" d="M395.1,174.72c0,2.2-1.05,3.3-3.16,3.3c-0.74,0-1.39-0.14-1.95-0.42v-0.96c0.68,0.38,1.32,0.56,1.93,0.56
			c1.48,0,2.21-0.79,2.21-2.36v-0.66h-0.02c-0.46,0.77-1.14,1.15-2.06,1.15c-0.75,0-1.35-0.27-1.8-0.8s-0.68-1.25-0.68-2.15
			c0-1.02,0.25-1.83,0.74-2.43s1.16-0.9,2.01-0.9c0.81,0,1.41,0.32,1.8,0.97h0.02v-0.83h0.96V174.72z M394.14,172.49v-0.88
			c0-0.48-0.16-0.88-0.48-1.22s-0.72-0.51-1.2-0.51c-0.59,0-1.06,0.22-1.39,0.65s-0.5,1.04-0.5,1.81c0,0.67,0.16,1.2,0.48,1.6
			s0.75,0.6,1.28,0.6c0.54,0,0.98-0.19,1.32-0.57S394.14,173.09,394.14,172.49z"/>
		<path fill="#1E1E1E" d="M402.84,175.34c-0.89,0-1.59-0.28-2.12-0.84s-0.79-1.3-0.79-2.23c0-1.01,0.28-1.79,0.83-2.36
			s1.29-0.85,2.23-0.85c0.89,0,1.59,0.28,2.09,0.83s0.75,1.31,0.75,2.29c0,0.96-0.27,1.72-0.81,2.3S403.75,175.34,402.84,175.34z
			 M402.91,169.87c-0.62,0-1.11,0.21-1.46,0.63s-0.54,1-0.54,1.74c0,0.71,0.18,1.27,0.54,1.68s0.85,0.62,1.46,0.62
			c0.62,0,1.1-0.2,1.43-0.6s0.5-0.97,0.5-1.72c0-0.75-0.17-1.33-0.5-1.73S403.53,169.87,402.91,169.87z"/>
		<path fill="#1E1E1E" d="M410.33,167.16c-0.19-0.11-0.4-0.16-0.64-0.16c-0.67,0-1.01,0.42-1.01,1.27v0.93h1.41v0.82h-1.41v5.18
			h-0.96v-5.18h-1.03v-0.82h1.03v-0.97c0-0.63,0.18-1.13,0.54-1.49s0.82-0.55,1.36-0.55c0.29,0,0.53,0.04,0.7,0.11V167.16z"/>
		<path fill="#1E1E1E" d="M420.25,174.85c-0.62,0.33-1.39,0.49-2.32,0.49c-1.2,0-2.15-0.38-2.87-1.15s-1.08-1.78-1.08-3.03
			c0-1.34,0.4-2.43,1.21-3.26s1.83-1.24,3.08-1.24c0.8,0,1.46,0.12,1.98,0.35v1.05c-0.6-0.34-1.27-0.5-1.99-0.5
			c-0.96,0-1.75,0.32-2.35,0.97s-0.9,1.51-0.9,2.58c0,1.02,0.28,1.84,0.84,2.45s1.3,0.91,2.21,0.91c0.84,0,1.57-0.19,2.19-0.56
			V174.85z"/>
		<path fill="#1E1E1E" d="M428.47,175.2h-1.09l-0.89-2.36h-3.56l-0.84,2.36h-1.1l3.22-8.4h1.02L428.47,175.2z M426.16,171.96
			l-1.32-3.58c-0.04-0.12-0.09-0.3-0.13-0.56h-0.02c-0.04,0.24-0.08,0.43-0.13,0.56l-1.31,3.58H426.16z"/>
		<path fill="#1E1E1E" d="M429.7,175.2v-8.4h2.32c2.96,0,4.44,1.37,4.44,4.1c0,1.3-0.41,2.34-1.23,3.13s-1.92,1.18-3.3,1.18H429.7z
			 M430.69,167.69v6.62h1.25c1.1,0,1.96-0.29,2.57-0.88s0.92-1.43,0.92-2.51c0-2.15-1.14-3.23-3.43-3.23H430.69z"/>
		<path fill="#1E1E1E" d="M361.59,187.92c0,2.2-1.05,3.3-3.16,3.3c-0.74,0-1.39-0.14-1.95-0.42v-0.96c0.68,0.38,1.32,0.56,1.93,0.56
			c1.48,0,2.21-0.79,2.21-2.36v-0.66h-0.02c-0.46,0.77-1.14,1.15-2.06,1.15c-0.75,0-1.35-0.27-1.8-0.8s-0.68-1.25-0.68-2.15
			c0-1.02,0.25-1.83,0.74-2.43s1.16-0.9,2.01-0.9c0.81,0,1.41,0.32,1.8,0.97h0.02v-0.83h0.96V187.92z M360.63,185.69v-0.88
			c0-0.48-0.16-0.88-0.48-1.22s-0.72-0.51-1.2-0.51c-0.59,0-1.06,0.22-1.39,0.65s-0.5,1.04-0.5,1.81c0,0.67,0.16,1.2,0.48,1.6
			s0.75,0.6,1.28,0.6c0.54,0,0.98-0.19,1.32-0.57S360.63,186.29,360.63,185.69z"/>
		<path fill="#1E1E1E" d="M368.36,185.64h-4.24c0.02,0.67,0.2,1.18,0.54,1.55s0.82,0.54,1.42,0.54c0.68,0,1.3-0.22,1.86-0.67v0.9
			c-0.53,0.38-1.22,0.57-2.09,0.57c-0.85,0-1.51-0.27-2-0.82s-0.73-1.31-0.73-2.3c0-0.93,0.26-1.69,0.79-2.28s1.19-0.88,1.97-0.88
			s1.39,0.25,1.82,0.76s0.64,1.21,0.64,2.12V185.64z M367.38,184.83c0-0.55-0.14-0.99-0.4-1.29s-0.63-0.46-1.1-0.46
			c-0.45,0-0.84,0.16-1.15,0.49s-0.51,0.75-0.59,1.27H367.38z"/>
		<path fill="#1E1E1E" d="M372.32,188.54c-0.89,0-1.59-0.28-2.12-0.84s-0.79-1.3-0.79-2.23c0-1.01,0.28-1.79,0.83-2.36
			s1.29-0.85,2.23-0.85c0.89,0,1.59,0.28,2.09,0.83s0.75,1.31,0.75,2.29c0,0.96-0.27,1.72-0.81,2.3S373.23,188.54,372.32,188.54z
			 M372.39,183.07c-0.62,0-1.11,0.21-1.46,0.63s-0.54,1-0.54,1.74c0,0.71,0.18,1.27,0.54,1.68s0.85,0.62,1.46,0.62
			c0.62,0,1.1-0.2,1.43-0.6s0.5-0.97,0.5-1.72c0-0.75-0.17-1.33-0.5-1.73S373.01,183.07,372.39,183.07z"/>
		<path fill="#1E1E1E" d="M385.37,188.4h-0.96v-3.45c0-0.66-0.1-1.14-0.31-1.44s-0.55-0.45-1.03-0.45c-0.41,0-0.76,0.19-1.05,0.56
			s-0.43,0.82-0.43,1.35v3.42h-0.96v-3.56c0-1.18-0.46-1.77-1.37-1.77c-0.42,0-0.77,0.18-1.04,0.53s-0.41,0.81-0.41,1.38v3.42h-0.96
			v-6h0.96v0.95h0.02c0.43-0.73,1.05-1.09,1.86-1.09c0.41,0,0.77,0.11,1.07,0.34s0.51,0.53,0.63,0.9c0.45-0.83,1.11-1.24,1.99-1.24
			c1.32,0,1.98,0.81,1.98,2.44V188.4z"/>
		<path fill="#1E1E1E" d="M392,185.64h-4.24c0.02,0.67,0.2,1.18,0.54,1.55s0.82,0.54,1.42,0.54c0.68,0,1.3-0.22,1.86-0.67v0.9
			c-0.53,0.38-1.22,0.57-2.09,0.57c-0.85,0-1.51-0.27-2-0.82s-0.73-1.31-0.73-2.3c0-0.93,0.26-1.69,0.79-2.28s1.19-0.88,1.97-0.88
			s1.39,0.25,1.82,0.76s0.64,1.21,0.64,2.12V185.64z M391.02,184.83c0-0.55-0.14-0.99-0.4-1.29s-0.63-0.46-1.1-0.46
			c-0.45,0-0.84,0.16-1.15,0.49s-0.51,0.75-0.59,1.27H391.02z"/>
		<path fill="#1E1E1E" d="M396.24,188.34c-0.23,0.13-0.53,0.19-0.9,0.19c-1.05,0-1.58-0.59-1.58-1.76v-3.55h-1.03v-0.82h1.03v-1.46
			l0.96-0.31v1.78h1.51v0.82h-1.51v3.38c0,0.4,0.07,0.69,0.21,0.86s0.36,0.26,0.68,0.26c0.24,0,0.45-0.07,0.63-0.2V188.34z"/>
		<path fill="#1E1E1E" d="M400.65,183.37c-0.17-0.13-0.41-0.19-0.73-0.19c-0.41,0-0.75,0.19-1.03,0.58s-0.41,0.91-0.41,1.58v3.06
			h-0.96v-6h0.96v1.24h0.02c0.14-0.42,0.35-0.75,0.63-0.99s0.6-0.35,0.94-0.35c0.25,0,0.44,0.03,0.57,0.08V183.37z"/>
		<path fill="#1E1E1E" d="M406.47,182.4l-2.76,6.96c-0.49,1.24-1.18,1.86-2.07,1.86c-0.25,0-0.46-0.03-0.63-0.08v-0.86
			c0.21,0.07,0.4,0.11,0.57,0.11c0.48,0,0.85-0.29,1.09-0.87l0.48-1.14l-2.34-5.99h1.07l1.62,4.62c0.02,0.06,0.06,0.21,0.12,0.46
			h0.04c0.02-0.09,0.06-0.24,0.12-0.45l1.71-4.63H406.47z"/>
	</g>
	<g>
		<path fill="#1E1E1E" d="M222.57,320.2h-0.98v-5.64c0-0.45,0.03-0.99,0.08-1.63h-0.02c-0.09,0.38-0.18,0.65-0.25,0.81l-2.87,6.46
			h-0.48l-2.87-6.41c-0.08-0.19-0.17-0.47-0.25-0.86h-0.02c0.03,0.34,0.05,0.88,0.05,1.65v5.63H214v-8.4h1.3l2.58,5.86
			c0.2,0.45,0.33,0.79,0.39,1.01h0.04c0.17-0.46,0.3-0.8,0.4-1.03l2.63-5.84h1.23V320.2z"/>
		<path fill="#1E1E1E" d="M228.95,320.2h-0.96v-0.94h-0.02c-0.42,0.72-1.03,1.08-1.85,1.08c-0.6,0-1.07-0.16-1.4-0.47
			s-0.51-0.74-0.51-1.26c0-1.12,0.66-1.77,1.98-1.96l1.8-0.25c0-1.02-0.41-1.53-1.24-1.53c-0.72,0-1.38,0.25-1.96,0.74v-0.98
			c0.59-0.38,1.27-0.56,2.04-0.56c1.41,0,2.12,0.75,2.12,2.24V320.2z M227.98,317.17l-1.45,0.2c-0.45,0.06-0.78,0.17-1.01,0.33
			s-0.34,0.44-0.34,0.84c0,0.29,0.1,0.53,0.31,0.72s0.49,0.28,0.83,0.28c0.48,0,0.87-0.17,1.18-0.5s0.47-0.76,0.47-1.27V317.17z"/>
		<path fill="#1E1E1E" d="M235.74,320.2h-0.96v-3.42c0-1.27-0.46-1.91-1.39-1.91c-0.48,0-0.88,0.18-1.19,0.54s-0.47,0.82-0.47,1.37
			v3.42h-0.96v-6h0.96v1h0.02c0.45-0.76,1.11-1.14,1.97-1.14c0.66,0,1.16,0.21,1.51,0.64s0.52,1.04,0.52,1.84V320.2z"/>
		<path fill="#1E1E1E" d="M242.4,320.2h-0.96v-0.95h-0.02c-0.4,0.73-1.02,1.09-1.85,1.09c-1.43,0-2.14-0.85-2.14-2.55v-3.59h0.96
			v3.43c0,1.27,0.48,1.9,1.45,1.9c0.47,0,0.85-0.17,1.16-0.52s0.45-0.8,0.45-1.36v-3.46h0.96V320.2z"/>
		<path fill="#1E1E1E" d="M248.63,320.2h-0.96v-0.94h-0.02c-0.42,0.72-1.03,1.08-1.85,1.08c-0.6,0-1.07-0.16-1.4-0.47
			s-0.51-0.74-0.51-1.26c0-1.12,0.66-1.77,1.98-1.96l1.8-0.25c0-1.02-0.41-1.53-1.24-1.53c-0.72,0-1.38,0.25-1.96,0.74v-0.98
			c0.59-0.38,1.27-0.56,2.04-0.56c1.41,0,2.12,0.75,2.12,2.24V320.2z M247.67,317.17l-1.45,0.2c-0.45,0.06-0.78,0.17-1.01,0.33
			s-0.34,0.44-0.34,0.84c0,0.29,0.1,0.53,0.31,0.72s0.49,0.28,0.83,0.28c0.48,0,0.87-0.17,1.18-0.5s0.47-0.76,0.47-1.27V317.17z"/>
		<path fill="#1E1E1E" d="M251.4,320.2h-0.96v-8.88h0.96V320.2z"/>
		<path fill="#1E1E1E" d="M264.2,314.2l-1.8,6h-1l-1.24-4.29c-0.05-0.16-0.08-0.35-0.09-0.56h-0.02c-0.01,0.14-0.05,0.32-0.12,0.54
			l-1.34,4.31h-0.96l-1.82-6h1.01l1.24,4.51c0.04,0.14,0.07,0.32,0.08,0.54h0.05c0.01-0.17,0.05-0.36,0.11-0.55l1.38-4.5h0.88
			l1.24,4.52c0.04,0.14,0.07,0.32,0.09,0.54h0.05c0.01-0.15,0.04-0.33,0.1-0.54l1.22-4.52H264.2z"/>
		<path fill="#1E1E1E" d="M269.6,320.2h-0.96v-0.94h-0.02c-0.42,0.72-1.03,1.08-1.85,1.08c-0.6,0-1.07-0.16-1.4-0.47
			s-0.51-0.74-0.51-1.26c0-1.12,0.66-1.77,1.98-1.96l1.8-0.25c0-1.02-0.41-1.53-1.24-1.53c-0.72,0-1.38,0.25-1.96,0.74v-0.98
			c0.59-0.38,1.27-0.56,2.04-0.56c1.41,0,2.12,0.75,2.12,2.24V320.2z M268.64,317.17l-1.45,0.2c-0.45,0.06-0.78,0.17-1.01,0.33
			s-0.34,0.44-0.34,0.84c0,0.29,0.1,0.53,0.31,0.72s0.49,0.28,0.83,0.28c0.48,0,0.87-0.17,1.18-0.5s0.47-0.76,0.47-1.27V317.17z"/>
		<path fill="#1E1E1E" d="M276.19,314.2l-2.76,6.96c-0.49,1.24-1.18,1.86-2.07,1.86c-0.25,0-0.46-0.03-0.63-0.08v-0.86
			c0.21,0.07,0.4,0.11,0.57,0.11c0.48,0,0.85-0.29,1.09-0.87l0.48-1.14l-2.34-5.99h1.07l1.62,4.62c0.02,0.06,0.06,0.21,0.12,0.46
			h0.04c0.02-0.09,0.06-0.24,0.12-0.45l1.71-4.63H276.19z"/>
	</g>
	<g>
		<path fill="#1E1E1E" d="M43.88,320.2h-1.09l-0.89-2.36h-3.56l-0.84,2.36h-1.1l3.22-8.4h1.02L43.88,320.2z M41.57,316.96
			l-1.32-3.58c-0.04-0.12-0.09-0.3-0.13-0.56H40.1c-0.04,0.24-0.08,0.43-0.13,0.56l-1.31,3.58H41.57z"/>
		<path fill="#1E1E1E" d="M49.84,320.2h-0.96v-0.95h-0.02c-0.4,0.73-1.02,1.09-1.85,1.09c-1.43,0-2.14-0.85-2.14-2.55v-3.59h0.96
			v3.43c0,1.27,0.48,1.9,1.45,1.9c0.47,0,0.85-0.17,1.16-0.52s0.45-0.8,0.45-1.36v-3.46h0.96V320.2z"/>
		<path fill="#1E1E1E" d="M54.56,320.14c-0.23,0.13-0.53,0.19-0.9,0.19c-1.05,0-1.58-0.59-1.58-1.76v-3.55h-1.03v-0.82h1.03v-1.46
			l0.96-0.31v1.78h1.51v0.82h-1.51v3.38c0,0.4,0.07,0.69,0.21,0.86s0.36,0.26,0.68,0.26c0.24,0,0.45-0.07,0.63-0.2V320.14z"/>
		<path fill="#1E1E1E" d="M58.35,320.34c-0.89,0-1.59-0.28-2.12-0.84s-0.79-1.3-0.79-2.23c0-1.01,0.28-1.79,0.83-2.36
			s1.29-0.85,2.23-0.85c0.89,0,1.59,0.28,2.09,0.83s0.75,1.31,0.75,2.29c0,0.96-0.27,1.72-0.81,2.3S59.26,320.34,58.35,320.34z
			 M58.42,314.87c-0.62,0-1.11,0.21-1.46,0.63s-0.54,1-0.54,1.74c0,0.71,0.18,1.27,0.54,1.68s0.85,0.62,1.46,0.62
			c0.62,0,1.1-0.2,1.43-0.6s0.5-0.97,0.5-1.72c0-0.75-0.17-1.33-0.5-1.73S59.04,314.87,58.42,314.87z"/>
		<path fill="#1E1E1E" d="M71.39,320.2h-0.96v-3.45c0-0.66-0.1-1.14-0.31-1.44s-0.55-0.45-1.03-0.45c-0.41,0-0.76,0.19-1.05,0.56
			s-0.43,0.82-0.43,1.35v3.42h-0.96v-3.56c0-1.18-0.46-1.77-1.37-1.77c-0.42,0-0.77,0.18-1.04,0.53s-0.41,0.81-0.41,1.38v3.42h-0.96
			v-6h0.96v0.95h0.02c0.43-0.73,1.05-1.09,1.86-1.09c0.41,0,0.77,0.11,1.07,0.34s0.51,0.53,0.63,0.9c0.45-0.83,1.11-1.24,1.99-1.24
			c1.32,0,1.98,0.81,1.98,2.44V320.2z"/>
		<path fill="#1E1E1E" d="M77.5,320.2h-0.96v-0.94h-0.02c-0.42,0.72-1.03,1.08-1.85,1.08c-0.6,0-1.07-0.16-1.4-0.47
			s-0.51-0.74-0.51-1.26c0-1.12,0.66-1.77,1.98-1.96l1.8-0.25c0-1.02-0.41-1.53-1.24-1.53c-0.72,0-1.38,0.25-1.96,0.74v-0.98
			c0.59-0.38,1.27-0.56,2.04-0.56c1.41,0,2.12,0.75,2.12,2.24V320.2z M76.54,317.17l-1.45,0.2c-0.45,0.06-0.78,0.17-1.01,0.33
			s-0.34,0.44-0.34,0.84c0,0.29,0.1,0.53,0.31,0.72s0.49,0.28,0.83,0.28c0.48,0,0.87-0.17,1.18-0.5s0.47-0.76,0.47-1.27V317.17z"/>
		<path fill="#1E1E1E" d="M82.1,320.14c-0.23,0.13-0.53,0.19-0.9,0.19c-1.05,0-1.58-0.59-1.58-1.76v-3.55h-1.03v-0.82h1.03v-1.46
			l0.96-0.31v1.78h1.51v0.82h-1.51v3.38c0,0.4,0.07,0.69,0.21,0.86s0.36,0.26,0.68,0.26c0.24,0,0.45-0.07,0.63-0.2V320.14z"/>
		<path fill="#1E1E1E" d="M83.87,312.68c-0.17,0-0.32-0.06-0.44-0.18s-0.18-0.27-0.18-0.45s0.06-0.33,0.18-0.45s0.27-0.18,0.44-0.18
			c0.18,0,0.33,0.06,0.45,0.18s0.18,0.27,0.18,0.45c0,0.17-0.06,0.32-0.18,0.44S84.05,312.68,83.87,312.68z M84.34,320.2h-0.96v-6
			h0.96V320.2z"/>
		<path fill="#1E1E1E" d="M90.38,319.93c-0.46,0.28-1.01,0.42-1.64,0.42c-0.86,0-1.55-0.28-2.07-0.83s-0.79-1.28-0.79-2.17
			c0-0.99,0.28-1.78,0.85-2.38s1.32-0.9,2.27-0.9c0.53,0,0.99,0.1,1.39,0.29v0.98c-0.45-0.31-0.92-0.47-1.43-0.47
			c-0.61,0-1.12,0.22-1.51,0.66s-0.59,1.02-0.59,1.73c0,0.7,0.18,1.26,0.55,1.66s0.86,0.61,1.49,0.61c0.52,0,1.02-0.17,1.48-0.52
			V319.93z"/>
		<path fill="#1E1E1E" d="M102.68,314.2l-1.8,6h-1l-1.24-4.29c-0.05-0.16-0.08-0.35-0.09-0.56h-0.02c-0.01,0.14-0.05,0.32-0.12,0.54
			l-1.34,4.31H96.1l-1.82-6h1.01l1.24,4.51c0.04,0.14,0.07,0.32,0.08,0.54h0.05c0.01-0.17,0.05-0.36,0.11-0.55l1.38-4.5h0.88
			l1.24,4.52c0.04,0.14,0.07,0.32,0.09,0.54h0.05c0.01-0.15,0.04-0.33,0.1-0.54l1.22-4.52H102.68z"/>
		<path fill="#1E1E1E" d="M108.08,320.2h-0.96v-0.94h-0.02c-0.42,0.72-1.03,1.08-1.85,1.08c-0.6,0-1.07-0.16-1.4-0.47
			s-0.51-0.74-0.51-1.26c0-1.12,0.66-1.77,1.98-1.96l1.8-0.25c0-1.02-0.41-1.53-1.24-1.53c-0.72,0-1.38,0.25-1.96,0.74v-0.98
			c0.59-0.38,1.27-0.56,2.04-0.56c1.41,0,2.12,0.75,2.12,2.24V320.2z M107.12,317.17l-1.45,0.2c-0.45,0.06-0.78,0.17-1.01,0.33
			s-0.34,0.44-0.34,0.84c0,0.29,0.1,0.53,0.31,0.72s0.49,0.28,0.83,0.28c0.48,0,0.87-0.17,1.18-0.5s0.47-0.76,0.47-1.27V317.17z"/>
		<path fill="#1E1E1E" d="M114.67,314.2l-2.76,6.96c-0.49,1.24-1.18,1.86-2.07,1.86c-0.25,0-0.46-0.03-0.63-0.08v-0.86
			c0.21,0.07,0.4,0.11,0.57,0.11c0.48,0,0.85-0.29,1.09-0.87l0.48-1.14L109,314.2h1.07l1.62,4.62c0.02,0.06,0.06,0.21,0.12,0.46
			h0.04c0.02-0.09,0.06-0.24,0.12-0.45l1.71-4.63H114.67z"/>
	</g>
</g>
<g id="writer_source">
	<g>
	</g>
	<g>
	</g>
	<g>
	</g>
	<g>
	</g>
	<g>
	</g>
	<g>
	</g>
	<g>
	</g>
	<g>
	</g>
	<g>
	</g>
	<g>
	</g>
	<g>
	</g>
	<g>
	</g>
	<g>
	</g>
	<g>
	</g>
	<g>
	</g>
	<g>
	</g>
	<g>
	</g>
	<g>
	</g>
	<g>
	</g>
</g>
</svg>
