<?xml version="1.0" encoding="utf-8"?>
<!-- Generator: Adobe Illustrator 23.0.3, SVG Export Plug-In . SVG Version: 6.00 Build 0)  -->
<svg version="1.1" xmlns="http://www.w3.org/2000/svg" xmlns:xlink="http://www.w3.org/1999/xlink" x="0px" y="0px" width="424px"
	 height="273px" viewBox="0 0 424 273" enable-background="new 0 0 424 273" xml:space="preserve">
<g id="Shapes">
	<g>
		<rect x="0.5" y="0.5" fill="#FFFFFF" width="423" height="272"/>
		<rect x="0.5" y="0.5" opacity="0.2" fill="#E5E5E5" width="423" height="272"/>
		<rect x="0.5" y="0.5" opacity="0.1" fill="none" stroke="#231F20" stroke-miterlimit="10" width="423" height="272"/>
	</g>
	<g>
		<rect x="24.01" y="53" fill="#FFFFFF" stroke="#E5E5E5" stroke-miterlimit="10" width="358.59" height="184.22"/>
		<line fill="#FFFFFF" stroke="#E5E5E5" stroke-miterlimit="10" x1="24.01" y1="206.52" x2="382.59" y2="206.52"/>
		<line fill="#FFFFFF" stroke="#E5E5E5" stroke-miterlimit="10" x1="24.01" y1="175.82" x2="382.59" y2="175.82"/>
		<line fill="#FFFFFF" stroke="#E5E5E5" stroke-miterlimit="10" x1="24.01" y1="145.11" x2="382.59" y2="145.11"/>
		<line fill="#FFFFFF" stroke="#E5E5E5" stroke-miterlimit="10" x1="24.01" y1="114.41" x2="382.59" y2="114.41"/>
		<line fill="#FFFFFF" stroke="#E5E5E5" stroke-miterlimit="10" x1="24.01" y1="83.7" x2="382.59" y2="83.7"/>
		<line fill="#FFFFFF" stroke="#E5E5E5" stroke-miterlimit="10" x1="352.71" y1="53" x2="352.71" y2="237.22"/>
		<line fill="#FFFFFF" stroke="#E5E5E5" stroke-miterlimit="10" x1="322.83" y1="53" x2="322.83" y2="237.22"/>
		<line fill="#FFFFFF" stroke="#E5E5E5" stroke-miterlimit="10" x1="292.95" y1="53" x2="292.95" y2="237.22"/>
		<line fill="#FFFFFF" stroke="#E5E5E5" stroke-miterlimit="10" x1="263.07" y1="53" x2="263.07" y2="237.22"/>
		<line fill="#FFFFFF" stroke="#E5E5E5" stroke-miterlimit="10" x1="233.18" y1="53" x2="233.18" y2="237.22"/>
		<line fill="#FFFFFF" stroke="#E5E5E5" stroke-miterlimit="10" x1="203.3" y1="53" x2="203.3" y2="237.22"/>
		<line fill="#FFFFFF" stroke="#E5E5E5" stroke-miterlimit="10" x1="173.42" y1="53" x2="173.42" y2="237.22"/>
		<line fill="#FFFFFF" stroke="#E5E5E5" stroke-miterlimit="10" x1="143.54" y1="53" x2="143.54" y2="237.22"/>
		<line fill="#FFFFFF" stroke="#E5E5E5" stroke-miterlimit="10" x1="113.65" y1="53" x2="113.65" y2="237.22"/>
		<line fill="#FFFFFF" stroke="#E5E5E5" stroke-miterlimit="10" x1="83.77" y1="53" x2="83.77" y2="237.22"/>
		<line fill="#FFFFFF" stroke="#E5E5E5" stroke-miterlimit="10" x1="53.89" y1="53" x2="53.89" y2="237.22"/>
	</g>
	<g id="Wrench_tool_x28_s_x29_">
	</g>
	<g id="user2">
	</g>
	<g id="user2_1_">
	</g>
	<g id="user2_4_">
	</g>
	<g id="user2_3_">
	</g>
	<g id="user2_2_">
	</g>
	<g id="Internet_2">
	</g>
	<g id="Enterprise">
	</g>
	<g id="Tunnel__x28_stackable_x29_">
	</g>
	<g id="New_Symbol">
	</g>
	<g id="New_Symbol_1">
	</g>
	<g id="Files">
	</g>
	<g id="BlobBlock">
	</g>
	<g id="E_x5F_Enterprise">
	</g>
	<g id="E_x5F_AD_FS">
	</g>
	<g id="C_x5F_Azure_Active_Directory">
	</g>
	<g id="Layer_22">
	</g>
	<line fill="none" stroke="#1E1E1E" stroke-miterlimit="10" x1="203.2" y1="198.47" x2="203.2" y2="225.47"/>
	<line fill="none" stroke="#1E1E1E" stroke-miterlimit="10" x1="292.96" y1="198.47" x2="292.96" y2="225.47"/>
	<g>
		<path opacity="0.25" fill="#2E5291" d="M196.04,199.77c4.88-0.64,9.17-1.73,12.27-3.52c10.76-6.19,13.85-18.87,16.73-30.94
			c5.91-24.77,10.43-41.05,15.77-65.32c0.76-3.46,2.47-10.71,5.83-11.84c4.93-1.66,7.54,7.73,8.87,12.75
			c4.36,16.5,7.58,33.68,11.94,50.18c3.54,13.39,6.23,29.79,15.27,40.29c5.36,6.22,12.42,7.57,20.8,7.75L196.04,199.77z"/>
		<path fill="none" stroke="#2E5291" stroke-width="2" stroke-linecap="round" stroke-linejoin="round" stroke-miterlimit="10" d="
			M25.71,227.98c33.97-19.75,86.63-27.65,130.35-27.91c13.19-0.08,40.83,2.76,52.26-3.81c10.76-6.19,13.85-18.87,16.73-30.94
			c5.91-24.77,9.74-40.96,15.77-65.32c0.85-3.44,2.47-10.71,5.83-11.84c4.93-1.66,7.54,7.73,8.87,12.75
			c4.36,16.5,7.58,33.68,11.94,50.18c3.54,13.39,6.23,29.79,15.27,40.29c9.04,10.49,22.91,7.11,39.79,7.69h60.19"/>
	</g>
	<g>
		<rect x="247.03" y="230" fill="#272525" width="1.25" height="4"/>
		<path fill="#272525" d="M248.28,227.94h-1.25v-8.24h1.25V227.94z M248.28,217.64h-1.25v-8.24h1.25V217.64z M248.28,207.33h-1.25
			v-8.24h1.25V207.33z M248.28,197.03h-1.25v-8.24h1.25V197.03z M248.28,186.73h-1.25v-8.24h1.25V186.73z M248.28,176.42h-1.25
			v-8.24h1.25V176.42z M248.28,166.12h-1.25v-8.24h1.25V166.12z M248.28,155.82h-1.25v-8.24h1.25V155.82z M248.28,145.52h-1.25
			v-8.24h1.25V145.52z M248.28,135.21h-1.25v-8.24h1.25V135.21z M248.28,124.91h-1.25v-8.24h1.25V124.91z M248.28,114.61h-1.25
			v-8.24h1.25V114.61z M248.28,104.3h-1.25v-8.24h1.25V104.3z"/>
		<rect x="247.03" y="90" fill="#272525" width="1.25" height="4"/>
	</g>
	<rect x="35.63" y="171.19" fill="#EAEEF4" width="50.13" height="22.43"/>
	<path fill="#7D7C7C" d="M27.01,224.16l-1.08-0.64l0.89-1.49l1.08,0.64L27.01,224.16z M28.92,220.95l-1.07-0.64l1.02-1.72l1.07,0.64
		L28.92,220.95z M30.96,217.51l-1.07-0.64l1.02-1.72l1.07,0.64L30.96,217.51z M33,214.07l-1.07-0.64l1.02-1.72l1.07,0.64L33,214.07z
		 M35.05,210.63L33.97,210l1.02-1.72l1.07,0.64L35.05,210.63z M37.09,207.19l-1.07-0.64l1.02-1.72l1.07,0.64L37.09,207.19z
		 M39.13,203.76l-1.07-0.64l1.02-1.72l1.07,0.64L39.13,203.76z M41.18,200.32l-1.07-0.64l1.02-1.72l1.07,0.64L41.18,200.32z
		 M43.22,196.88l-1.07-0.64l1.02-1.72l1.07,0.64L43.22,196.88z"/>
	<rect x="339.31" y="158.81" fill="#EAEEF4" width="50.13" height="22.43"/>
	<rect x="251.1" y="200.7" fill="#EAEEF4" width="15.06" height="14.14"/>
	<path fill="#7D7C7C" d="M380.75,198.03l-1.02-1.72l1.08-0.63l1.02,1.72L380.75,198.03z M378.72,194.59l-1.02-1.72l1.08-0.63
		l1.02,1.72L378.72,194.59z M376.68,191.14l-1.02-1.72l1.08-0.63l1.02,1.72L376.68,191.14z M374.65,187.7l-1.02-1.72l1.08-0.63
		l1.02,1.72L374.65,187.7z M372.62,184.25l-1.02-1.72l1.08-0.63l1.02,1.72L372.62,184.25z"/>
	<g>
		<g>
			
				<line fill="none" stroke="#000000" stroke-linecap="round" stroke-linejoin="round" x1="212.36" y1="215.5" x2="283.64" y2="215.5"/>
			<g>
				<polygon points="214.34,218.41 203.5,215.5 214.34,212.59 				"/>
			</g>
			<g>
				<polygon points="281.66,218.41 292.5,215.5 281.66,212.59 				"/>
			</g>
		</g>
	</g>
</g>
<g id="arrows">
	<g>
		<g>
			<polyline fill="none" stroke="#000000" stroke-linecap="round" stroke-linejoin="round" points="395.64,237.22 24.1,237.22 
				24.1,43.76 			"/>
			<g>
				<polygon points="393.66,234.32 404.5,237.22 393.66,240.13 				"/>
			</g>
			<g>
				<polygon points="27.01,45.74 24.1,34.9 21.2,45.74 				"/>
			</g>
		</g>
	</g>
	<circle fill="#FFFFFF" stroke="#808184" stroke-miterlimit="10" cx="24.6" cy="228.63" r="3.5"/>
	<circle fill="#FFFFFF" stroke="#808184" stroke-miterlimit="10" cx="382.76" cy="199.18" r="3.5"/>
	<circle fill="#FFFFFF" stroke="#808184" stroke-miterlimit="10" cx="247.65" cy="237.09" r="3.5"/>
</g>
<g id="Text">
	<g id="Windows_Server_New">
	</g>
	<g>
		<g>
			<path fill="#1E1E1E" d="M43.78,187.75h-1.17c0.17-0.52,0.25-1.32,0.25-2.38v-3.86c0-1.09,0.31-1.9,0.92-2.42s1.29-0.79,2.04-0.79
				c0.81,0,1.46,0.28,1.95,0.83s0.74,1.28,0.74,2.18c0,0.98-0.31,1.83-0.92,2.55s-1.31,1.08-2.09,1.08c-0.53,0-1.03-0.17-1.51-0.51
				v0.9C43.99,186.29,43.92,187.09,43.78,187.75z M43.99,182.85c0,0.55,0.15,0.97,0.44,1.26s0.66,0.43,1.11,0.43
				c0.53,0,0.98-0.23,1.34-0.69s0.54-1.06,0.54-1.81c0-0.95-0.24-1.71-0.73-2.26s-1.03-0.83-1.63-0.83c-0.41,0-0.68,0.13-0.84,0.38
				s-0.23,0.66-0.23,1.23V182.85z"/>
			<path fill="#1E1E1E" d="M49.74,184.16c0-0.83,0.13-1.55,0.38-2.15c0.25-0.6,0.58-1.05,1-1.34c0.32-0.23,0.66-0.35,1-0.35
				c0.56,0,1.06,0.28,1.5,0.85c0.56,0.71,0.83,1.66,0.83,2.87c0,0.85-0.12,1.56-0.37,2.15s-0.55,1.02-0.93,1.29
				c-0.38,0.27-0.74,0.4-1.09,0.4c-0.69,0-1.27-0.41-1.73-1.23C49.93,185.96,49.74,185.13,49.74,184.16z M50.79,184.29
				c0,1,0.12,1.82,0.37,2.45c0.2,0.53,0.51,0.8,0.91,0.8c0.19,0,0.39-0.09,0.6-0.26c0.21-0.17,0.37-0.46,0.47-0.87
				c0.16-0.62,0.25-1.48,0.25-2.6c0-0.83-0.09-1.52-0.26-2.08c-0.13-0.41-0.3-0.7-0.5-0.88c-0.15-0.12-0.32-0.18-0.53-0.18
				c-0.24,0-0.46,0.11-0.65,0.33c-0.26,0.3-0.43,0.76-0.53,1.4S50.79,183.67,50.79,184.29z"/>
			<path fill="#1E1E1E" d="M66.57,175.27l0.21,3.15h-0.21c-0.28-0.94-0.69-1.62-1.21-2.04s-1.15-0.62-1.89-0.62
				c-0.62,0-1.17,0.16-1.67,0.47s-0.89,0.81-1.17,1.49s-0.43,1.53-0.43,2.55c0,0.84,0.13,1.57,0.4,2.18s0.67,1.09,1.21,1.42
				s1.16,0.49,1.85,0.49c0.6,0,1.13-0.13,1.59-0.39s0.97-0.77,1.52-1.53l0.21,0.14c-0.46,0.82-1.01,1.43-1.63,1.81
				s-1.36,0.57-2.21,0.57c-1.54,0-2.73-0.57-3.57-1.71c-0.63-0.85-0.94-1.85-0.94-2.99c0-0.93,0.21-1.77,0.62-2.55
				s0.99-1.38,1.71-1.8s1.52-0.64,2.38-0.64c0.67,0,1.33,0.16,1.98,0.49c0.19,0.1,0.33,0.15,0.41,0.15c0.12,0,0.23-0.04,0.32-0.13
				c0.12-0.12,0.2-0.29,0.25-0.51H66.57z"/>
			<path fill="#1E1E1E" d="M70.08,184.34v2.12c0,0.46,0.05,0.74,0.15,0.85c0.14,0.16,0.34,0.24,0.62,0.24h0.28v0.2h-3.12v-0.2h0.27
				c0.31,0,0.53-0.1,0.66-0.3c0.07-0.11,0.11-0.37,0.11-0.79v-4.71c0-0.46-0.05-0.74-0.15-0.85c-0.14-0.16-0.35-0.24-0.62-0.24
				h-0.27v-0.2h2.67c0.65,0,1.17,0.07,1.54,0.2c0.38,0.13,0.69,0.36,0.95,0.68s0.39,0.7,0.39,1.13c0,0.59-0.2,1.08-0.59,1.45
				c-0.39,0.37-0.95,0.56-1.66,0.56c-0.18,0-0.37-0.01-0.57-0.04S70.32,184.39,70.08,184.34z M70.08,184.04
				c0.19,0.04,0.36,0.06,0.5,0.08s0.27,0.03,0.38,0.03c0.37,0,0.69-0.14,0.96-0.43c0.27-0.29,0.41-0.66,0.41-1.12
				c0-0.31-0.06-0.61-0.19-0.88c-0.13-0.27-0.31-0.47-0.55-0.61c-0.24-0.13-0.5-0.2-0.81-0.2c-0.18,0-0.42,0.03-0.7,0.1V184.04z"/>
			<path fill="#1E1E1E" d="M77.35,187.05c-0.5,0.39-0.82,0.62-0.95,0.68c-0.19,0.09-0.4,0.13-0.62,0.13c-0.34,0-0.62-0.12-0.84-0.35
				c-0.22-0.23-0.33-0.54-0.33-0.92c0-0.24,0.05-0.45,0.16-0.62c0.15-0.24,0.4-0.47,0.77-0.69c0.36-0.21,0.97-0.48,1.81-0.78v-0.19
				c0-0.49-0.08-0.83-0.23-1.01c-0.16-0.18-0.38-0.27-0.68-0.27c-0.23,0-0.4,0.06-0.54,0.18c-0.14,0.12-0.2,0.26-0.2,0.42l0.01,0.31
				c0,0.16-0.04,0.29-0.13,0.38c-0.08,0.09-0.19,0.13-0.33,0.13c-0.13,0-0.24-0.05-0.33-0.14c-0.08-0.09-0.13-0.22-0.13-0.38
				c0-0.31,0.16-0.59,0.47-0.85s0.76-0.39,1.33-0.39c0.44,0,0.79,0.07,1.07,0.22c0.21,0.11,0.37,0.28,0.47,0.52
				c0.06,0.15,0.1,0.47,0.1,0.95v1.67c0,0.47,0.01,0.76,0.03,0.86c0.02,0.11,0.05,0.18,0.09,0.21c0.04,0.04,0.09,0.05,0.14,0.05
				c0.06,0,0.11-0.01,0.15-0.04c0.08-0.05,0.22-0.18,0.44-0.39v0.3c-0.4,0.54-0.78,0.81-1.15,0.81c-0.18,0-0.31-0.06-0.42-0.18
				S77.36,187.34,77.35,187.05z M77.35,186.7v-1.87c-0.54,0.21-0.89,0.37-1.05,0.46c-0.28,0.16-0.49,0.32-0.61,0.49
				s-0.18,0.36-0.18,0.56c0,0.26,0.08,0.47,0.23,0.64c0.15,0.17,0.33,0.26,0.53,0.26C76.55,187.23,76.91,187.05,77.35,186.7z"/>
		</g>
	</g>
	<g>
		<g>
			<path fill="#1E1E1E" d="M347.46,175.37h-1.17c0.17-0.52,0.25-1.32,0.25-2.38v-3.86c0-1.09,0.31-1.9,0.92-2.42
				s1.29-0.79,2.04-0.79c0.81,0,1.46,0.28,1.95,0.83s0.74,1.28,0.74,2.18c0,0.98-0.31,1.83-0.92,2.55s-1.31,1.08-2.09,1.08
				c-0.53,0-1.03-0.17-1.51-0.51v0.9C347.67,173.91,347.6,174.72,347.46,175.37z M347.67,170.48c0,0.55,0.15,0.97,0.44,1.26
				s0.66,0.43,1.11,0.43c0.53,0,0.98-0.23,1.34-0.69s0.54-1.06,0.54-1.81c0-0.95-0.24-1.71-0.73-2.26s-1.03-0.83-1.63-0.83
				c-0.41,0-0.68,0.13-0.84,0.38s-0.23,0.66-0.23,1.23V170.48z"/>
			<path fill="#1E1E1E" d="M353.42,171.78c0-0.83,0.13-1.55,0.38-2.15c0.25-0.6,0.58-1.05,1-1.34c0.32-0.23,0.66-0.35,1-0.35
				c0.56,0,1.06,0.28,1.5,0.85c0.56,0.71,0.83,1.66,0.83,2.87c0,0.85-0.12,1.56-0.37,2.15s-0.55,1.02-0.93,1.29
				c-0.38,0.27-0.74,0.4-1.09,0.4c-0.69,0-1.27-0.41-1.73-1.23C353.61,173.59,353.42,172.76,353.42,171.78z M354.47,171.92
				c0,1,0.12,1.82,0.37,2.45c0.2,0.53,0.51,0.8,0.91,0.8c0.19,0,0.39-0.09,0.6-0.26c0.21-0.17,0.37-0.46,0.47-0.87
				c0.16-0.62,0.25-1.48,0.25-2.6c0-0.83-0.09-1.52-0.26-2.08c-0.13-0.41-0.3-0.7-0.5-0.88c-0.15-0.12-0.32-0.18-0.53-0.18
				c-0.24,0-0.46,0.11-0.65,0.33c-0.26,0.3-0.43,0.76-0.53,1.4S354.47,171.3,354.47,171.92z"/>
			<path fill="#1E1E1E" d="M370.25,162.9l0.21,3.15h-0.21c-0.28-0.94-0.69-1.62-1.21-2.04s-1.15-0.62-1.89-0.62
				c-0.62,0-1.17,0.16-1.67,0.47s-0.89,0.81-1.17,1.49s-0.43,1.53-0.43,2.55c0,0.84,0.13,1.57,0.4,2.18s0.67,1.09,1.21,1.42
				s1.16,0.49,1.85,0.49c0.6,0,1.13-0.13,1.59-0.39s0.97-0.77,1.52-1.53l0.21,0.14c-0.46,0.82-1.01,1.43-1.63,1.81
				s-1.36,0.57-2.21,0.57c-1.54,0-2.73-0.57-3.57-1.71c-0.63-0.85-0.94-1.85-0.94-2.99c0-0.93,0.21-1.77,0.62-2.55
				s0.99-1.38,1.71-1.8s1.52-0.64,2.38-0.64c0.67,0,1.33,0.16,1.98,0.49c0.19,0.1,0.33,0.15,0.41,0.15c0.12,0,0.23-0.04,0.32-0.13
				c0.12-0.12,0.2-0.29,0.25-0.51H370.25z"/>
			<path fill="#1E1E1E" d="M373.76,171.97v2.12c0,0.46,0.05,0.74,0.15,0.85c0.14,0.16,0.34,0.24,0.62,0.24h0.28v0.2h-3.12v-0.2h0.27
				c0.31,0,0.53-0.1,0.66-0.3c0.07-0.11,0.11-0.37,0.11-0.79v-4.71c0-0.46-0.05-0.74-0.15-0.85c-0.14-0.16-0.35-0.24-0.62-0.24
				h-0.27v-0.2h2.67c0.65,0,1.17,0.07,1.54,0.2c0.38,0.13,0.69,0.36,0.95,0.68s0.39,0.7,0.39,1.13c0,0.59-0.2,1.08-0.59,1.45
				c-0.39,0.37-0.95,0.56-1.66,0.56c-0.18,0-0.37-0.01-0.57-0.04S374,172.02,373.76,171.97z M373.76,171.66
				c0.19,0.04,0.36,0.06,0.5,0.08s0.27,0.03,0.38,0.03c0.37,0,0.69-0.14,0.96-0.43c0.27-0.29,0.41-0.66,0.41-1.12
				c0-0.31-0.06-0.61-0.19-0.88c-0.13-0.27-0.31-0.47-0.55-0.61c-0.24-0.13-0.5-0.2-0.81-0.2c-0.18,0-0.42,0.03-0.7,0.1V171.66z"/>
			<path fill="#1E1E1E" d="M379.94,170.31v3.95c0,0.31,0.02,0.51,0.07,0.61c0.04,0.1,0.11,0.18,0.2,0.23
				c0.09,0.05,0.25,0.08,0.48,0.08v0.19h-2.39v-0.19c0.24,0,0.4-0.02,0.48-0.07s0.15-0.12,0.2-0.23c0.05-0.11,0.07-0.31,0.07-0.62
				v-1.9c0-0.53-0.02-0.88-0.05-1.04c-0.02-0.11-0.06-0.19-0.12-0.24c-0.05-0.04-0.13-0.07-0.22-0.07c-0.1,0-0.22,0.03-0.37,0.08
				l-0.08-0.19l1.48-0.6H379.94z M379.5,167.74c0.15,0,0.28,0.05,0.38,0.16c0.11,0.11,0.16,0.23,0.16,0.38s-0.05,0.28-0.16,0.39
				c-0.11,0.11-0.23,0.16-0.38,0.16s-0.28-0.05-0.39-0.16s-0.16-0.24-0.16-0.39s0.05-0.28,0.16-0.38
				C379.21,167.79,379.34,167.74,379.5,167.74z"/>
		</g>
	</g>
	<g>
		<g>
			<path fill="#1E1E1E" d="M22.06,28.06H20.9c0.17-0.52,0.25-1.32,0.25-2.38v-3.86c0-1.09,0.31-1.9,0.92-2.42s1.29-0.79,2.04-0.79
				c0.81,0,1.46,0.28,1.95,0.83s0.74,1.28,0.74,2.18c0,0.98-0.31,1.83-0.92,2.55s-1.31,1.08-2.09,1.08c-0.53,0-1.03-0.17-1.51-0.51
				v0.9C22.28,26.6,22.21,27.41,22.06,28.06z M22.28,23.17c0,0.55,0.15,0.97,0.44,1.26s0.66,0.43,1.11,0.43
				c0.53,0,0.98-0.23,1.34-0.69s0.54-1.06,0.54-1.81c0-0.95-0.24-1.71-0.73-2.26s-1.03-0.83-1.63-0.83c-0.41,0-0.68,0.13-0.84,0.38
				s-0.23,0.66-0.23,1.23V23.17z"/>
			<path fill="#1E1E1E" d="M36.05,15.59l0.21,3.15h-0.21c-0.28-0.94-0.69-1.62-1.21-2.04s-1.15-0.62-1.89-0.62
				c-0.62,0-1.17,0.16-1.67,0.47s-0.89,0.81-1.17,1.49s-0.43,1.53-0.43,2.55c0,0.84,0.13,1.57,0.4,2.18s0.67,1.09,1.21,1.42
				s1.16,0.49,1.85,0.49c0.6,0,1.13-0.13,1.59-0.39s0.97-0.77,1.52-1.53l0.21,0.14c-0.46,0.82-1.01,1.43-1.63,1.81
				s-1.36,0.57-2.21,0.57c-1.54,0-2.73-0.57-3.57-1.71c-0.63-0.85-0.94-1.85-0.94-2.99c0-0.93,0.21-1.77,0.62-2.55
				s0.99-1.38,1.71-1.8s1.52-0.64,2.38-0.64c0.67,0,1.33,0.16,1.98,0.49c0.19,0.1,0.33,0.15,0.41,0.15c0.12,0,0.23-0.04,0.32-0.13
				c0.12-0.12,0.2-0.29,0.25-0.51H36.05z"/>
			<path fill="#1E1E1E" d="M37.3,23.64l1.51-0.61h0.2v1.15c0.25-0.43,0.51-0.74,0.77-0.91c0.26-0.17,0.53-0.26,0.81-0.26
				c0.49,0,0.91,0.19,1.24,0.58c0.4,0.47,0.61,1.09,0.61,1.85c0,0.85-0.24,1.55-0.73,2.11c-0.4,0.45-0.91,0.68-1.51,0.68
				c-0.27,0-0.49-0.04-0.69-0.11c-0.14-0.05-0.3-0.16-0.48-0.32v1.5c0,0.34,0.02,0.55,0.06,0.64c0.04,0.09,0.11,0.16,0.21,0.22
				c0.1,0.05,0.29,0.08,0.56,0.08v0.2h-2.58v-0.2h0.13c0.2,0,0.37-0.03,0.5-0.11c0.07-0.04,0.12-0.1,0.16-0.19
				c0.04-0.09,0.06-0.31,0.06-0.67V24.6c0-0.32-0.01-0.52-0.04-0.61s-0.07-0.15-0.14-0.19c-0.06-0.04-0.15-0.06-0.26-0.06
				c-0.09,0-0.2,0.02-0.33,0.08L37.3,23.64z M39.02,24.49v1.84c0,0.4,0.02,0.66,0.05,0.78c0.05,0.21,0.17,0.39,0.37,0.55
				c0.2,0.16,0.44,0.24,0.74,0.24c0.36,0,0.65-0.14,0.87-0.42c0.29-0.37,0.44-0.88,0.44-1.54c0-0.75-0.16-1.33-0.49-1.73
				c-0.23-0.28-0.5-0.42-0.82-0.42c-0.17,0-0.34,0.04-0.51,0.13C39.53,23.97,39.32,24.17,39.02,24.49z"/>
			<path fill="#1E1E1E" d="M51.09,27.84h-3.01V15.59h3.01v0.54h-1.98v11.18h1.98V27.84z"/>
			<path fill="#1E1E1E" d="M53.34,16.05V15.8h3.97v0.25h-0.33c-0.38,0-0.65,0.11-0.83,0.33c-0.11,0.15-0.16,0.5-0.16,1.05v4.53
				c0,0.7-0.08,1.26-0.23,1.7s-0.42,0.81-0.79,1.13s-0.82,0.48-1.35,0.48c-0.43,0-0.77-0.11-1.01-0.32s-0.37-0.45-0.37-0.73
				c0-0.22,0.06-0.39,0.17-0.51c0.15-0.14,0.33-0.21,0.53-0.21c0.15,0,0.28,0.05,0.39,0.14s0.26,0.35,0.44,0.77
				c0.1,0.25,0.24,0.37,0.4,0.37c0.12,0,0.24-0.08,0.35-0.23s0.16-0.42,0.16-0.8v-6.33c0-0.47-0.03-0.78-0.09-0.93
				c-0.05-0.11-0.14-0.21-0.29-0.29c-0.2-0.11-0.4-0.16-0.62-0.16H53.34z"/>
			<path fill="#1E1E1E" d="M60.04,19.95c0.46-0.46,0.72-0.72,0.81-0.79c0.21-0.17,0.43-0.31,0.66-0.4s0.47-0.14,0.7-0.14
				c0.39,0,0.73,0.11,1.01,0.34s0.47,0.56,0.57,0.99c0.47-0.55,0.87-0.91,1.19-1.08s0.66-0.26,1-0.26c0.33,0,0.63,0.09,0.89,0.26
				s0.46,0.45,0.61,0.84c0.1,0.26,0.15,0.68,0.15,1.24v2.69c0,0.39,0.03,0.66,0.09,0.81c0.05,0.1,0.13,0.19,0.25,0.26
				s0.32,0.11,0.6,0.11v0.25h-3.09v-0.25h0.13c0.27,0,0.48-0.05,0.63-0.16c0.1-0.07,0.18-0.19,0.23-0.35
				c0.02-0.08,0.03-0.3,0.03-0.66v-2.69c0-0.51-0.06-0.87-0.18-1.08c-0.18-0.29-0.46-0.44-0.85-0.44c-0.24,0-0.48,0.06-0.73,0.18
				s-0.54,0.35-0.89,0.67l-0.01,0.08l0.01,0.29v2.99c0,0.43,0.02,0.69,0.07,0.8s0.14,0.19,0.27,0.26s0.36,0.11,0.68,0.11v0.25H61.7
				v-0.25c0.35,0,0.58-0.04,0.71-0.12s0.22-0.21,0.27-0.37c0.02-0.08,0.03-0.3,0.03-0.68v-2.69c0-0.51-0.08-0.88-0.23-1.1
				c-0.2-0.29-0.48-0.44-0.84-0.44c-0.25,0-0.49,0.07-0.73,0.2c-0.38,0.2-0.67,0.43-0.88,0.68v3.36c0,0.41,0.03,0.68,0.09,0.8
				s0.14,0.22,0.25,0.28s0.34,0.09,0.68,0.09v0.25h-3.1v-0.25c0.29,0,0.49-0.03,0.6-0.09s0.2-0.16,0.26-0.29s0.09-0.4,0.09-0.78
				v-2.39c0-0.69-0.02-1.13-0.06-1.33c-0.03-0.15-0.08-0.25-0.15-0.31s-0.16-0.09-0.28-0.09c-0.13,0-0.28,0.03-0.46,0.1l-0.1-0.25
				l1.89-0.77h0.29V19.95z"/>
			<path fill="#1E1E1E" d="M69.43,18.19h2.78V19h-2.78V18.19z"/>
			<path fill="#1E1E1E" d="M73.48,15.17c0.21-0.49,0.47-0.87,0.79-1.14c0.32-0.27,0.71-0.4,1.18-0.4c0.58,0,1.03,0.19,1.34,0.57
				c0.24,0.28,0.35,0.59,0.35,0.91c0,0.53-0.33,1.08-1,1.64c0.45,0.18,0.79,0.43,1.02,0.75s0.34,0.71,0.34,1.15
				c0,0.63-0.2,1.18-0.6,1.64c-0.52,0.6-1.28,0.9-2.27,0.9c-0.49,0-0.82-0.06-1-0.18c-0.18-0.12-0.27-0.25-0.27-0.39
				c0-0.1,0.04-0.2,0.13-0.27c0.08-0.08,0.19-0.12,0.3-0.12c0.09,0,0.18,0.01,0.27,0.04c0.06,0.02,0.2,0.08,0.41,0.2
				c0.21,0.11,0.36,0.18,0.45,0.2c0.13,0.04,0.27,0.06,0.42,0.06c0.37,0,0.68-0.14,0.95-0.42c0.27-0.28,0.41-0.62,0.41-1
				c0-0.28-0.06-0.56-0.19-0.83c-0.09-0.2-0.2-0.35-0.31-0.46c-0.15-0.14-0.37-0.27-0.63-0.39c-0.27-0.12-0.54-0.17-0.82-0.17h-0.17
				v-0.16c0.28-0.04,0.57-0.14,0.85-0.31c0.29-0.17,0.49-0.37,0.62-0.61s0.19-0.5,0.19-0.78c0-0.37-0.12-0.67-0.35-0.89
				c-0.23-0.23-0.52-0.34-0.86-0.34c-0.56,0-1.02,0.3-1.39,0.89L73.48,15.17z"/>
			<path fill="#1E1E1E" d="M80.87,13.62c0.46,0,0.85,0.16,1.17,0.48c0.32,0.32,0.48,0.71,0.48,1.17c0,0.45-0.16,0.84-0.48,1.17
				s-0.71,0.48-1.17,0.48c-0.45,0-0.84-0.16-1.17-0.48s-0.48-0.71-0.48-1.17c0-0.46,0.16-0.85,0.48-1.17
				C80.03,13.78,80.42,13.62,80.87,13.62z M80.87,14.07c-0.33,0-0.62,0.12-0.85,0.35s-0.35,0.52-0.35,0.85
				c0,0.33,0.12,0.61,0.35,0.85c0.23,0.23,0.52,0.35,0.85,0.35c0.33,0,0.61-0.12,0.85-0.35c0.23-0.23,0.35-0.52,0.35-0.85
				c0-0.33-0.12-0.62-0.35-0.85S81.21,14.07,80.87,14.07z"/>
			<path fill="#1E1E1E" d="M91.8,15.59l0.21,3.15H91.8c-0.28-0.94-0.69-1.62-1.21-2.04s-1.15-0.62-1.89-0.62
				c-0.62,0-1.17,0.16-1.67,0.47s-0.89,0.81-1.17,1.49s-0.43,1.53-0.43,2.55c0,0.84,0.13,1.57,0.4,2.18s0.67,1.09,1.21,1.42
				s1.16,0.49,1.85,0.49c0.6,0,1.13-0.13,1.59-0.39s0.97-0.77,1.52-1.53l0.21,0.14c-0.46,0.82-1.01,1.43-1.63,1.81
				s-1.36,0.57-2.21,0.57c-1.54,0-2.73-0.57-3.57-1.71c-0.63-0.85-0.94-1.85-0.94-2.99c0-0.93,0.21-1.77,0.62-2.55
				s0.99-1.38,1.71-1.8s1.52-0.64,2.38-0.64c0.67,0,1.33,0.16,1.98,0.49c0.19,0.1,0.33,0.15,0.41,0.15c0.12,0,0.23-0.04,0.32-0.13
				c0.12-0.12,0.2-0.29,0.25-0.51H91.8z"/>
			<path fill="#1E1E1E" d="M93.51,18.19h2.78V19h-2.78V18.19z"/>
			<path fill="#1E1E1E" d="M98.29,14.5l1.77-0.86h0.18v6.15c0,0.41,0.02,0.66,0.05,0.76c0.03,0.1,0.1,0.18,0.21,0.23
				s0.33,0.08,0.66,0.09v0.2h-2.74v-0.2c0.34-0.01,0.57-0.04,0.67-0.09c0.1-0.05,0.17-0.12,0.21-0.21c0.04-0.09,0.06-0.35,0.06-0.79
				v-3.93c0-0.53-0.02-0.87-0.05-1.02c-0.02-0.11-0.07-0.2-0.14-0.25c-0.07-0.05-0.15-0.08-0.24-0.08c-0.13,0-0.32,0.06-0.55,0.17
				L98.29,14.5z"/>
			<path fill="#1E1E1E" d="M103.29,15.59h3.01v12.26h-3.01v-0.54h1.98V16.13h-1.98V15.59z"/>
		</g>
	</g>
	<g>
		<path fill="#1E1E1E" d="M249.02,246.92l0.1,2.17h-0.26c-0.05-0.38-0.12-0.66-0.21-0.82c-0.14-0.26-0.33-0.46-0.56-0.58
			s-0.54-0.19-0.93-0.19h-1.31v7.08c0,0.57,0.06,0.93,0.18,1.07c0.17,0.19,0.44,0.29,0.8,0.29h0.32v0.25h-3.93v-0.25h0.33
			c0.39,0,0.67-0.12,0.83-0.36c0.1-0.15,0.15-0.48,0.15-1v-7.08h-1.11c-0.43,0-0.74,0.03-0.92,0.1c-0.24,0.09-0.44,0.25-0.61,0.5
			s-0.27,0.58-0.3,1h-0.26l0.11-2.17H249.02z"/>
		<path fill="#1E1E1E" d="M254.06,257.32c-0.13,0.65-0.39,1.15-0.78,1.5c-0.39,0.35-0.81,0.52-1.28,0.52c-0.56,0-1.05-0.23-1.46-0.7
			s-0.62-1.1-0.62-1.9c0-0.77,0.23-1.4,0.69-1.89c0.46-0.48,1.01-0.73,1.66-0.73c0.48,0,0.88,0.13,1.19,0.38
			c0.31,0.26,0.47,0.52,0.47,0.8c0,0.14-0.04,0.25-0.13,0.33c-0.09,0.08-0.21,0.13-0.37,0.13c-0.21,0-0.37-0.07-0.48-0.2
			c-0.06-0.08-0.1-0.22-0.12-0.43c-0.02-0.21-0.09-0.37-0.22-0.48c-0.13-0.11-0.3-0.16-0.52-0.16c-0.36,0-0.65,0.13-0.86,0.4
			c-0.29,0.35-0.44,0.81-0.44,1.39c0,0.59,0.14,1.11,0.43,1.56c0.29,0.45,0.68,0.67,1.17,0.67c0.35,0,0.67-0.12,0.95-0.36
			c0.2-0.16,0.39-0.46,0.57-0.9L254.06,257.32z"/>
	</g>
	<g>
		<path fill="#1E1E1E" d="M21.37,251.61c0-1.06,0.16-1.97,0.48-2.73s0.74-1.33,1.27-1.71c0.41-0.3,0.83-0.44,1.27-0.44
			c0.71,0,1.35,0.36,1.91,1.09c0.71,0.9,1.06,2.11,1.06,3.65c0,1.08-0.15,1.99-0.46,2.74s-0.71,1.3-1.19,1.64s-0.94,0.51-1.39,0.51
			c-0.88,0-1.62-0.52-2.21-1.57C21.62,253.91,21.37,252.85,21.37,251.61z M22.71,251.78c0,1.28,0.16,2.32,0.47,3.12
			c0.26,0.68,0.65,1.02,1.16,1.02c0.25,0,0.5-0.11,0.77-0.33s0.46-0.59,0.6-1.11c0.21-0.78,0.31-1.89,0.31-3.32
			c0-1.06-0.11-1.94-0.33-2.65c-0.16-0.52-0.38-0.9-0.64-1.11c-0.19-0.15-0.41-0.23-0.68-0.23c-0.31,0-0.59,0.14-0.83,0.42
			c-0.33,0.38-0.55,0.97-0.67,1.78S22.71,250.99,22.71,251.78z"/>
	</g>
	<g>
		<g>
			<path fill="#1E1E1E" d="M380.48,246.92l0.1,2.17h-0.26c-0.05-0.38-0.12-0.66-0.21-0.82c-0.14-0.26-0.33-0.46-0.56-0.58
				s-0.54-0.19-0.93-0.19h-1.31v7.08c0,0.57,0.06,0.93,0.18,1.07c0.17,0.19,0.44,0.29,0.8,0.29h0.32v0.25h-3.93v-0.25h0.33
				c0.39,0,0.67-0.12,0.83-0.36c0.1-0.15,0.15-0.48,0.15-1v-7.08h-1.11c-0.43,0-0.74,0.03-0.92,0.1c-0.24,0.09-0.44,0.25-0.61,0.5
				s-0.27,0.58-0.3,1h-0.26l0.11-2.17H380.48z"/>
		</g>
		<g>
			<path fill="#1E1E1E" d="M386.49,257.46h-2.16v-10.31h2.16v0.7h-1.3v8.92h1.3V257.46z"/>
			<path fill="#1E1E1E" d="M388.96,244.11c0.46,0,0.85,0.16,1.17,0.48c0.32,0.32,0.48,0.71,0.48,1.17c0,0.45-0.16,0.84-0.48,1.17
				s-0.71,0.48-1.17,0.48c-0.45,0-0.84-0.16-1.17-0.48s-0.48-0.71-0.48-1.17c0-0.46,0.16-0.85,0.48-1.17
				C388.11,244.27,388.5,244.11,388.96,244.11z M388.96,244.56c-0.33,0-0.62,0.12-0.85,0.35s-0.35,0.52-0.35,0.85
				c0,0.33,0.12,0.61,0.35,0.85c0.23,0.23,0.52,0.35,0.85,0.35c0.33,0,0.61-0.12,0.85-0.35c0.23-0.23,0.35-0.52,0.35-0.85
				c0-0.33-0.12-0.62-0.35-0.85S389.29,244.56,388.96,244.56z"/>
			<path fill="#1E1E1E" d="M399.88,246.07l0.21,3.15h-0.21c-0.28-0.94-0.69-1.62-1.21-2.04s-1.15-0.62-1.89-0.62
				c-0.62,0-1.17,0.16-1.67,0.47s-0.89,0.81-1.17,1.49s-0.43,1.53-0.43,2.55c0,0.84,0.13,1.57,0.4,2.18s0.67,1.09,1.21,1.42
				s1.16,0.49,1.85,0.49c0.6,0,1.13-0.13,1.59-0.39s0.97-0.77,1.52-1.53l0.21,0.14c-0.46,0.82-1.01,1.43-1.63,1.81
				s-1.36,0.57-2.21,0.57c-1.54,0-2.73-0.57-3.57-1.71c-0.63-0.85-0.94-1.85-0.94-2.99c0-0.93,0.21-1.77,0.62-2.55
				s0.99-1.38,1.71-1.8s1.52-0.64,2.38-0.64c0.67,0,1.33,0.16,1.98,0.49c0.19,0.1,0.33,0.15,0.41,0.15c0.12,0,0.23-0.04,0.32-0.13
				c0.12-0.12,0.2-0.29,0.25-0.51H399.88z"/>
			<path fill="#1E1E1E" d="M403.6,257.46h-2.15v-0.7h1.29v-8.92h-1.29v-0.7h2.15V257.46z"/>
		</g>
	</g>
	<g>
		<path fill="#1E1E1E" d="M261.75,204.98v1h-2.67c0.58,0.33,1.06,0.75,1.43,1.26s0.55,1.05,0.55,1.62c0,0.74-0.29,1.36-0.88,1.85
			s-1.25,0.73-1.99,0.73c-0.88,0-1.64-0.35-2.28-1.04s-0.96-1.49-0.96-2.41c0-0.65,0.17-1.22,0.5-1.72s0.72-0.84,1.17-1.02
			s1.04-0.27,1.8-0.27H261.75z M258.63,205.97h-0.24c-0.68,0-1.23,0.17-1.64,0.51s-0.61,0.87-0.61,1.6c0,0.77,0.21,1.45,0.64,2.04
			s0.93,0.89,1.5,0.89c0.46,0,0.84-0.22,1.14-0.67s0.45-0.98,0.45-1.61C259.88,207.73,259.46,206.81,258.63,205.97z"/>
	</g>
	<g>
		<path fill="#1E1E1E" d="M255.82,150.64v2.96h0.15c0.46,0,0.8-0.15,1-0.44s0.34-0.72,0.4-1.28h0.2v3.81h-0.2
			c-0.04-0.42-0.13-0.76-0.27-1.02c-0.14-0.27-0.3-0.44-0.48-0.53c-0.18-0.09-0.45-0.14-0.79-0.14v2.05c0,0.4,0.02,0.65,0.05,0.74
			c0.03,0.09,0.1,0.16,0.19,0.22s0.24,0.09,0.45,0.09h0.44c0.68,0,1.23-0.16,1.64-0.47c0.41-0.31,0.7-0.79,0.88-1.44h0.2l-0.33,2.31
			h-6.29v-0.2h0.24c0.21,0,0.38-0.04,0.51-0.11c0.09-0.05,0.16-0.14,0.21-0.26c0.04-0.09,0.06-0.31,0.06-0.68v-4.79
			c0-0.33-0.01-0.53-0.03-0.61c-0.04-0.13-0.1-0.22-0.2-0.29c-0.14-0.1-0.32-0.15-0.56-0.15h-0.24v-0.2h6.1v2.15h-0.2
			c-0.1-0.53-0.25-0.9-0.44-1.13c-0.19-0.23-0.45-0.4-0.8-0.5c-0.2-0.06-0.58-0.1-1.13-0.1H255.82z"/>
	</g>
</g>
<g id="writer_source" display="none">
	
		<image display="inline" overflow="visible" width="309" height="208" xlink:href="../../trt/package_Images_MaterialCurve_P1/TO DO/image1635298409_SRC.jpg"  transform="matrix(0.6509 0 0 0.6509 499.8567 38.0513)">
	</image>
</g>
</svg>
