<?xml version="1.0" encoding="utf-8"?>
<!-- Generator: Adobe Illustrator 23.0.3, SVG Export Plug-In . SVG Version: 6.00 Build 0)  -->
<svg version="1.1" xmlns="http://www.w3.org/2000/svg" xmlns:xlink="http://www.w3.org/1999/xlink" x="0px" y="0px" width="219px"
	 height="164px" viewBox="0 0 219 164" enable-background="new 0 0 219 164" xml:space="preserve">
<g id="Shapes">
	<g id="Wrench_tool_x28_s_x29_">
	</g>
	<g id="user2">
	</g>
	<g id="user2_1_">
	</g>
	<g id="user2_4_">
	</g>
	<g id="user2_3_">
	</g>
	<g id="user2_2_">
	</g>
	<g id="Internet_2">
	</g>
	<g id="Enterprise">
	</g>
	<g id="Tunnel__x28_stackable_x29_">
	</g>
	<g id="New_Symbol">
	</g>
	<g id="New_Symbol_1">
	</g>
	<g id="Files">
	</g>
	<g id="BlobBlock">
	</g>
	<g id="E_x5F_Enterprise">
	</g>
	<g id="E_x5F_AD_FS">
	</g>
	<g id="C_x5F_Azure_Active_Directory">
	</g>
	<g>
		<rect x="0.5" y="0.5" fill="#FFFFFF" width="218" height="163"/>
		<rect x="0.5" y="0.5" opacity="0.2" fill="#E5E5E5" width="218" height="163"/>
		<rect x="0.5" y="0.5" opacity="0.1" fill="none" stroke="#231F20" stroke-miterlimit="10" width="218" height="163"/>
	</g>
	<g id="Layer_22">
	</g>
</g>
<g id="arrows">
	<g>
		<path fill="#272525" d="M110.15,85.03l-0.04-1.25c0.66-0.02,1.31-0.07,1.94-0.14l0.14,1.24
			C111.53,84.96,110.85,85.01,110.15,85.03z M114.23,84.55l-0.26-1.22c0.64-0.14,1.27-0.31,1.86-0.5l0.39,1.19
			C115.58,84.22,114.91,84.4,114.23,84.55z M118.15,83.25l-0.53-1.13c0.58-0.27,1.15-0.58,1.69-0.92l0.66,1.06
			C119.39,82.62,118.78,82.95,118.15,83.25z M121.66,81.05l-0.79-0.97c0.49-0.4,0.97-0.84,1.41-1.3l0.9,0.87
			C122.7,80.14,122.19,80.61,121.66,81.05z M124.53,78.07l-0.99-0.77c0.4-0.52,0.79-1.05,1.16-1.59l1.03,0.71
			C125.34,76.99,124.94,77.54,124.53,78.07z M126.83,74.72l-1.07-0.65c0.34-0.56,0.67-1.13,0.99-1.71l1.09,0.61
			C127.52,73.56,127.18,74.14,126.83,74.72z M128.79,71.18l-1.12-0.56c0.3-0.59,0.59-1.18,0.87-1.78l1.13,0.53
			C129.39,69.97,129.1,70.58,128.79,71.18z M130.51,67.53l-1.14-0.51c0.27-0.61,0.53-1.22,0.79-1.83l1.15,0.49
			C131.05,66.31,130.78,66.92,130.51,67.53z M132.09,63.85l-1.15-0.49c0.27-0.62,0.54-1.24,0.82-1.84l1.13,0.53
			C132.62,62.63,132.35,63.24,132.09,63.85z M133.76,60.26l-1.12-0.56c0.31-0.61,0.62-1.2,0.94-1.79l1.1,0.6
			C134.36,59.08,134.06,59.67,133.76,60.26z M135.66,56.79l-1.08-0.64c0.35-0.58,0.7-1.16,1.06-1.72l1.05,0.67
			C136.34,55.66,135.99,56.22,135.66,56.79z M137.79,53.46l-1.03-0.71c0.38-0.56,0.78-1.11,1.18-1.64l1,0.75
			C138.55,52.38,138.16,52.91,137.79,53.46z M140.15,50.29l-0.98-0.78c0.42-0.53,0.85-1.05,1.29-1.55l0.95,0.82
			C140.98,49.27,140.56,49.77,140.15,50.29z M142.73,47.3l-0.92-0.85c0.46-0.5,0.93-0.98,1.4-1.46l0.88,0.88
			C143.64,46.34,143.18,46.81,142.73,47.3z M145.52,44.5l-0.85-0.91c0.49-0.46,1-0.91,1.5-1.35l0.82,0.94
			C146.5,43.61,146.01,44.05,145.52,44.5z M148.51,41.9l-0.79-0.97c0.52-0.42,1.05-0.84,1.59-1.24l0.75,1
			C149.54,41.08,149.02,41.49,148.51,41.9z M151.67,39.52l-0.72-1.02c0.55-0.39,1.11-0.76,1.67-1.13l0.69,1.04
			C152.75,38.77,152.21,39.14,151.67,39.52z M154.97,37.35l-0.65-1.07c0.57-0.35,1.15-0.69,1.73-1.03l0.62,1.08
			C156.1,36.67,155.53,37.01,154.97,37.35z M158.4,35.39l-0.59-1.1c0.59-0.32,1.19-0.63,1.79-0.93l0.56,1.12
			C159.57,34.77,158.98,35.08,158.4,35.39z M161.95,33.61l-0.53-1.13c0.61-0.28,1.22-0.56,1.84-0.83l0.5,1.15
			C163.15,33.06,162.54,33.34,161.95,33.61z M165.58,32.03l-0.47-1.16c0.62-0.25,1.25-0.5,1.88-0.74l0.44,1.17
			C166.81,31.54,166.2,31.78,165.58,32.03z M169.3,30.62l-0.42-1.18c0.63-0.22,1.27-0.44,1.9-0.65l0.39,1.19
			C170.54,30.18,169.92,30.4,169.3,30.62z M173.07,29.37l-0.37-1.19c0.64-0.2,1.28-0.39,1.93-0.57l0.34,1.2
			C174.33,28.99,173.7,29.18,173.07,29.37z M176.89,28.27l-0.32-1.21c0.65-0.17,1.29-0.34,1.95-0.5l0.3,1.21
			C178.17,27.93,177.53,28.1,176.89,28.27z M180.75,27.3l-0.28-1.22c0.65-0.15,1.3-0.3,1.96-0.44l0.26,1.22
			C182.04,27.01,181.39,27.15,180.75,27.3z M184.64,26.46l-0.25-1.23c0.65-0.13,1.31-0.26,1.97-0.38l0.23,1.23
			C185.94,26.21,185.29,26.33,184.64,26.46z M188.56,25.73l-0.21-1.23c0.66-0.11,1.32-0.22,1.98-0.33l0.2,1.23
			C189.86,25.51,189.21,25.62,188.56,25.73z"/>
		<path fill-rule="evenodd" clip-rule="evenodd" fill="none" d="M110.13,84.4c5.74-0.18,10.39-2.29,13.68-6.43
			c3.29-4.14,5.48-9.05,7.52-13.93c10.73-25.64,34.06-35.52,60.82-39.52"/>
	</g>
	<g>
		<g>
			
				<line fill="none" stroke="#000000" stroke-linecap="round" stroke-linejoin="round" x1="109.63" y1="154.67" x2="109.63" y2="19.53"/>
			<g>
				<polygon points="112.53,21.51 109.63,10.67 106.72,21.51 				"/>
			</g>
		</g>
	</g>
	<g>
		<g>
			
				<line fill="none" stroke="#000000" stroke-linecap="round" stroke-linejoin="round" x1="12.63" y1="84.67" x2="198.77" y2="84.67"/>
			<g>
				<polygon points="196.79,87.58 207.63,84.67 196.79,81.77 				"/>
			</g>
		</g>
	</g>
	<path fill="none" stroke="#2E5291" stroke-width="2" stroke-linecap="round" stroke-linejoin="round" stroke-miterlimit="10" d="
		M6.19,144.9c11.38-0.27,27.37-3,35.14-12.97c7-8.98,8.08-21.54,9.74-32.81c1.52-10.3,3.08-20.76,6.16-30.7s6.66-20.62,15.12-26.69
		c9.68-6.95,23.09-7.38,34.93-8.69c34.28-3.81,68.57-7.62,102.85-11.43"/>
	<path fill="none" stroke="#D83B01" stroke-width="2" stroke-linecap="round" stroke-linejoin="round" stroke-miterlimit="10" d="
		M109.63,32.78"/>
	<path fill="none" stroke="#D83B01" stroke-width="2" stroke-linecap="round" stroke-linejoin="round" stroke-miterlimit="10" d="
		M53.43,84.33c0.99-5.38,2.18-10.72,3.79-15.91c3.08-9.94,6.66-20.62,15.12-26.69c9.68-6.95,23.09-7.38,34.93-8.69
		c0.78-0.09,1.57-0.17,2.35-0.26"/>
	<path fill="none" stroke="#D83B01" stroke-width="2" stroke-linecap="round" stroke-linejoin="round" stroke-miterlimit="10" d="
		M53.43,84.33"/>
	<path fill="none" stroke="#D83B01" stroke-width="2" stroke-linecap="round" stroke-linejoin="round" stroke-miterlimit="10" d="
		M41.33,131.93"/>
	<path fill="none" stroke="#2E5291" stroke-width="2" stroke-linecap="round" stroke-linejoin="round" stroke-miterlimit="10" d="
		M212.13,21.65c-11.38,0.27-27.37,3-35.14,12.97c-7,8.98-8.08,21.54-9.74,32.81c-1.52,10.3-3.08,20.76-6.16,30.7
		c-3.08,9.94-6.66,20.62-15.12,26.69c-9.68,6.95-23.09,7.38-34.93,8.69c-34.28,3.81-68.57,7.62-102.85,11.43"/>
</g>
<g id="Text">
	<g id="Windows_Server_New">
	</g>
	<g>
		<path fill="#1E1E1E" d="M98.79,16.37c0.64,0.14,1.12,0.36,1.44,0.66c0.44,0.42,0.66,0.93,0.66,1.54c0,0.46-0.15,0.9-0.44,1.32
			s-0.69,0.73-1.2,0.92s-1.28,0.29-2.33,0.29h-4.38v-0.25h0.35c0.39,0,0.67-0.12,0.83-0.37c0.1-0.16,0.16-0.5,0.16-1.02v-5.99
			c0-0.57-0.07-0.94-0.2-1.09c-0.18-0.2-0.44-0.3-0.79-0.3h-0.35v-0.25h4.01c0.75,0,1.35,0.05,1.8,0.16
			c0.68,0.16,1.21,0.45,1.57,0.87s0.54,0.9,0.54,1.44c0,0.46-0.14,0.88-0.42,1.25S99.34,16.2,98.79,16.37z M95.21,16.01
			c0.17,0.03,0.36,0.06,0.58,0.07s0.45,0.02,0.71,0.02c0.67,0,1.17-0.07,1.5-0.22s0.59-0.36,0.77-0.66s0.27-0.62,0.27-0.97
			c0-0.54-0.22-1-0.66-1.39s-1.09-0.57-1.93-0.57c-0.46,0-0.87,0.05-1.23,0.15V16.01z M95.21,20.44c0.53,0.12,1.05,0.18,1.57,0.18
			c0.82,0,1.45-0.19,1.89-0.56s0.65-0.83,0.65-1.38c0-0.36-0.1-0.71-0.29-1.04s-0.52-0.59-0.96-0.79s-0.99-0.29-1.64-0.29
			c-0.28,0-0.52,0-0.72,0.01s-0.36,0.02-0.49,0.05V20.44z"/>
	</g>
	<g>
		<path fill="#1E1E1E" d="M199.5,98.2h4.31v-2.65c0-0.47-0.03-0.79-0.09-0.94c-0.05-0.11-0.14-0.21-0.29-0.29
			c-0.2-0.11-0.4-0.16-0.62-0.16h-0.33V93.9h3.96v0.25h-0.33c-0.22,0-0.43,0.05-0.62,0.16c-0.15,0.07-0.25,0.18-0.3,0.33
			s-0.08,0.45-0.08,0.91v5.98c0,0.47,0.03,0.78,0.09,0.93c0.05,0.11,0.14,0.21,0.28,0.29c0.2,0.11,0.41,0.16,0.63,0.16h0.33v0.25
			h-3.96v-0.25h0.33c0.38,0,0.65-0.11,0.83-0.33c0.11-0.15,0.17-0.5,0.17-1.05V98.7h-4.31v2.82c0,0.47,0.03,0.78,0.09,0.93
			c0.05,0.11,0.14,0.21,0.29,0.29c0.2,0.11,0.4,0.16,0.62,0.16h0.33v0.25h-3.97v-0.25h0.33c0.38,0,0.66-0.11,0.83-0.33
			c0.11-0.15,0.16-0.5,0.16-1.05v-5.98c0-0.47-0.03-0.79-0.09-0.94c-0.05-0.11-0.14-0.21-0.28-0.29c-0.2-0.11-0.41-0.16-0.63-0.16
			h-0.33V93.9h3.97v0.25h-0.33c-0.22,0-0.43,0.05-0.62,0.16c-0.14,0.07-0.24,0.18-0.29,0.33s-0.08,0.45-0.08,0.91V98.2z"/>
	</g>
</g>
<g id="writer_source" display="none">
	
		<image display="inline" overflow="visible" width="216" height="150" xlink:href="3341EB78.jpg"  transform="matrix(0.7761 0 0 0.7761 248.3857 11.7961)">
	</image>
</g>
</svg>
