<?xml version="1.0" encoding="utf-8"?>
<!-- Generator: Adobe Illustrator 23.0.3, SVG Export Plug-In . SVG Version: 6.00 Build 0)  -->
<svg version="1.1" xmlns="http://www.w3.org/2000/svg" xmlns:xlink="http://www.w3.org/1999/xlink" x="0px" y="0px" width="275px"
	 height="175px" viewBox="0 0 275 175" enable-background="new 0 0 275 175" xml:space="preserve">
<g id="Shapes">
	<g>
		<rect x="0.5" y="0.5" fill="#FFFFFF" width="274" height="174"/>
		<rect x="0.5" y="0.5" opacity="0.2" fill="#E5E5E5" width="274" height="174"/>
		<rect x="0.5" y="0.5" opacity="0.1" fill="none" stroke="#231F20" stroke-miterlimit="10" width="274" height="174"/>
	</g>
	<g id="Wrench_tool_x28_s_x29_">
	</g>
	<g id="user2">
	</g>
	<g id="user2_1_">
	</g>
	<g id="user2_4_">
	</g>
	<g id="user2_3_">
	</g>
	<g id="user2_2_">
	</g>
	<g id="Internet_2">
	</g>
	<g id="Enterprise">
	</g>
	<g id="Tunnel__x28_stackable_x29_">
	</g>
	<g id="New_Symbol">
	</g>
	<g id="New_Symbol_1">
	</g>
	<g id="Files">
	</g>
	<g id="BlobBlock">
	</g>
	<g id="E_x5F_Enterprise">
	</g>
	<g id="E_x5F_AD_FS">
	</g>
	<g id="C_x5F_Azure_Active_Directory">
	</g>
	<g id="Layer_22">
	</g>
	<g>
		<g>
			
				<line fill="none" stroke="#000000" stroke-linecap="round" stroke-linejoin="round" x1="87.61" y1="86.85" x2="87.61" y2="21.28"/>
			<g>
				<polygon points="90.51,23.26 87.61,12.42 84.7,23.26 				"/>
			</g>
		</g>
	</g>
	<g>
		<g>
			<line fill="none" stroke="#666666" stroke-width="1.25" stroke-miterlimit="10" x1="87.61" y1="86.85" x2="91.6" y2="87.06"/>
			
				<line fill="none" stroke="#666666" stroke-width="1.25" stroke-miterlimit="10" stroke-dasharray="7.8654,1.9664" x1="93.56" y1="87.17" x2="200.58" y2="92.91"/>
			<polyline fill="none" stroke="#666666" stroke-width="1.25" stroke-miterlimit="10" points="201.56,92.96 205.55,93.18 
				205.55,89.18 			"/>
			
				<line fill="none" stroke="#666666" stroke-width="1.25" stroke-miterlimit="10" stroke-dasharray="8.9177,2.2294" x1="205.55" y1="86.95" x2="205.55" y2="54.62"/>
			<polyline fill="none" stroke="#666666" stroke-width="1.25" stroke-miterlimit="10" points="205.55,53.5 205.55,49.5 
				201.56,49.29 			"/>
			
				<line fill="none" stroke="#666666" stroke-width="1.25" stroke-miterlimit="10" stroke-dasharray="7.8654,1.9664" x1="199.6" y1="49.18" x2="92.58" y2="43.45"/>
			<line fill="none" stroke="#666666" stroke-width="1.25" stroke-miterlimit="10" x1="91.6" y1="43.39" x2="87.61" y2="43.18"/>
		</g>
	</g>
	
		<line fill="none" stroke="#666666" stroke-width="1.25" stroke-miterlimit="10" stroke-dasharray="8,2" x1="87.61" y1="86.85" x2="148.7" y2="139.2"/>
	<circle fill="#01A7DF" stroke="#1B75BB" stroke-miterlimit="10" cx="87.61" cy="86.85" r="5"/>
	<g>
		<g>
			
				<line fill="none" stroke="#000000" stroke-linecap="round" stroke-linejoin="round" x1="130.81" y1="79.27" x2="130.81" y2="54.54"/>
			<g>
				<polygon points="133.72,77.29 130.81,88.13 127.91,77.29 				"/>
			</g>
			<g>
				<polygon points="133.72,56.52 130.81,45.68 127.91,56.52 				"/>
			</g>
		</g>
	</g>
	<path fill="none" stroke="#2E5291" stroke-width="2" stroke-miterlimit="10" d="M148.7,139.2c36.44-17.87,55.21-47.9,56.85-89.7"/>
	<circle fill="#01A7DF" stroke="#1B75BB" stroke-miterlimit="10" cx="205.55" cy="49.49" r="5"/>
	<circle fill="#01A7DF" stroke="#1B75BB" stroke-miterlimit="10" cx="148.7" cy="139.2" r="5"/>
	<g>
		<g>
			<g>
				<polyline fill="none" stroke="#000000" stroke-linecap="round" stroke-linejoin="round" points="40.55,136.24 22.75,143.38 
					38.35,152.45 				"/>
				<g>
					<polygon points="37.63,134.28 48.77,132.95 39.79,139.68 					"/>
				</g>
				<g>
					<polygon points="35.18,153.96 46.01,156.9 38.1,148.94 					"/>
				</g>
			</g>
		</g>
		<g>
			<g>
				
					<line fill="none" stroke="#000000" stroke-linecap="round" stroke-linejoin="round" x1="22.75" y1="143.38" x2="22.75" y2="126.84"/>
				<g>
					<polygon points="25.65,128.82 22.75,117.98 19.84,128.82 					"/>
				</g>
			</g>
		</g>
	</g>
	<g>
		<g>
			<path fill="none" stroke="#D83B01" stroke-miterlimit="10" d="M120.21,113.71c4.48-1.84,8.35-5.11,10.92-9.21
				c1.61-2.58,2.71-5.48,3.22-8.47"/>
			<g>
				<polygon fill="#D83B01" points="137.89,97.39 134.64,90.66 130.43,96.84 				"/>
			</g>
		</g>
	</g>
</g>
<g id="Text">
	<g id="Windows_Server_New">
	</g>
	<g>
		<rect x="7.06" y="11.06" fill="none" width="69.19" height="26.86"/>
		<path fill="#1E1E1E" d="M29.21,19.94v-8.4h2.32c2.96,0,4.44,1.37,4.44,4.1c0,1.3-0.41,2.34-1.23,3.13s-1.92,1.18-3.3,1.18H29.21z
			 M30.2,12.43v6.62h1.25c1.1,0,1.96-0.29,2.57-0.88s0.92-1.43,0.92-2.51c0-2.15-1.14-3.23-3.43-3.23H30.2z"/>
		<path fill="#1E1E1E" d="M37.99,12.42c-0.17,0-0.32-0.06-0.44-0.18s-0.18-0.27-0.18-0.45s0.06-0.33,0.18-0.45s0.27-0.18,0.44-0.18
			c0.18,0,0.33,0.06,0.45,0.18s0.18,0.27,0.18,0.45c0,0.17-0.06,0.32-0.18,0.44S38.16,12.42,37.99,12.42z M38.46,19.94H37.5v-6h0.96
			V19.94z"/>
		<path fill="#1E1E1E" d="M43.53,14.91c-0.17-0.13-0.41-0.19-0.73-0.19c-0.41,0-0.75,0.19-1.03,0.58s-0.41,0.91-0.41,1.58v3.06H40.4
			v-6h0.96v1.24h0.02c0.14-0.42,0.35-0.75,0.63-0.99s0.6-0.35,0.94-0.35c0.25,0,0.44,0.03,0.57,0.08V14.91z"/>
		<path fill="#1E1E1E" d="M49.4,17.18h-4.24c0.02,0.67,0.2,1.18,0.54,1.55s0.82,0.54,1.42,0.54c0.68,0,1.3-0.22,1.86-0.67v0.9
			c-0.53,0.38-1.22,0.57-2.09,0.57c-0.85,0-1.51-0.27-2-0.82s-0.73-1.31-0.73-2.3c0-0.93,0.26-1.69,0.79-2.28s1.19-0.88,1.97-0.88
			s1.39,0.25,1.82,0.76s0.64,1.21,0.64,2.12V17.18z M48.41,16.36c0-0.55-0.14-0.99-0.4-1.29s-0.63-0.46-1.1-0.46
			c-0.45,0-0.84,0.16-1.15,0.49s-0.51,0.75-0.59,1.27H48.41z"/>
		<path fill="#1E1E1E" d="M54.94,19.66c-0.46,0.28-1.01,0.42-1.64,0.42c-0.86,0-1.55-0.28-2.07-0.83s-0.79-1.28-0.79-2.17
			c0-0.99,0.28-1.78,0.85-2.38s1.32-0.9,2.27-0.9c0.53,0,0.99,0.1,1.39,0.29v0.98c-0.45-0.31-0.92-0.47-1.43-0.47
			c-0.61,0-1.12,0.22-1.51,0.66s-0.59,1.02-0.59,1.73c0,0.7,0.18,1.26,0.55,1.66s0.86,0.61,1.49,0.61c0.52,0,1.02-0.17,1.48-0.52
			V19.66z"/>
		<path fill="#1E1E1E" d="M59.18,19.88c-0.23,0.13-0.53,0.19-0.9,0.19c-1.05,0-1.58-0.59-1.58-1.76v-3.55h-1.03v-0.82h1.03v-1.46
			l0.96-0.31v1.78h1.51v0.82h-1.51v3.38c0,0.4,0.07,0.69,0.21,0.86s0.36,0.26,0.68,0.26c0.24,0,0.45-0.07,0.63-0.2V19.88z"/>
		<path fill="#1E1E1E" d="M60.95,12.42c-0.17,0-0.32-0.06-0.44-0.18s-0.18-0.27-0.18-0.45s0.06-0.33,0.18-0.45s0.27-0.18,0.44-0.18
			c0.18,0,0.33,0.06,0.45,0.18s0.18,0.27,0.18,0.45c0,0.17-0.06,0.32-0.18,0.44S61.13,12.42,60.95,12.42z M61.42,19.94h-0.96v-6
			h0.96V19.94z"/>
		<path fill="#1E1E1E" d="M68.35,19.94h-0.96v-3.42c0-1.27-0.46-1.91-1.39-1.91c-0.48,0-0.88,0.18-1.19,0.54s-0.47,0.82-0.47,1.37
			v3.42h-0.96v-6h0.96v1h0.02c0.45-0.76,1.11-1.14,1.97-1.14c0.66,0,1.16,0.21,1.51,0.64s0.52,1.04,0.52,1.84V19.94z"/>
		<path fill="#1E1E1E" d="M75.28,19.46c0,2.2-1.05,3.3-3.16,3.3c-0.74,0-1.39-0.14-1.95-0.42v-0.96c0.68,0.38,1.32,0.56,1.93,0.56
			c1.48,0,2.21-0.79,2.21-2.36v-0.66h-0.02c-0.46,0.77-1.14,1.15-2.06,1.15c-0.75,0-1.35-0.27-1.8-0.8s-0.68-1.25-0.68-2.15
			c0-1.02,0.25-1.83,0.74-2.43s1.16-0.9,2.01-0.9c0.81,0,1.41,0.32,1.8,0.97h0.02v-0.83h0.96V19.46z M74.32,17.23v-0.88
			c0-0.48-0.16-0.88-0.48-1.22s-0.72-0.51-1.2-0.51c-0.59,0-1.06,0.22-1.39,0.65s-0.5,1.04-0.5,1.81c0,0.67,0.16,1.2,0.48,1.6
			s0.75,0.6,1.28,0.6c0.54,0,0.98-0.19,1.32-0.57S74.32,17.82,74.32,17.23z"/>
		<path fill="#1E1E1E" d="M49.1,27.14l-2.39,6h-0.94l-2.27-6h1.05l1.52,4.36c0.11,0.32,0.18,0.6,0.21,0.84h0.02
			c0.04-0.3,0.1-0.57,0.19-0.81l1.59-4.38H49.1z"/>
		<path fill="#1E1E1E" d="M54.96,30.38h-4.24c0.02,0.67,0.2,1.18,0.54,1.55s0.82,0.54,1.42,0.54c0.68,0,1.3-0.22,1.86-0.67v0.9
			c-0.53,0.38-1.22,0.57-2.09,0.57c-0.85,0-1.51-0.27-2-0.82s-0.73-1.31-0.73-2.3c0-0.93,0.26-1.69,0.79-2.28S51.71,27,52.49,27
			s1.39,0.25,1.82,0.76s0.64,1.21,0.64,2.12V30.38z M53.97,29.56c0-0.55-0.14-0.99-0.4-1.29s-0.63-0.46-1.1-0.46
			c-0.45,0-0.84,0.16-1.15,0.49s-0.51,0.75-0.59,1.27H53.97z"/>
		<path fill="#1E1E1E" d="M60.5,32.86c-0.46,0.28-1.01,0.42-1.64,0.42c-0.86,0-1.55-0.28-2.07-0.83S56,31.17,56,30.28
			c0-0.99,0.28-1.78,0.85-2.38s1.32-0.9,2.27-0.9c0.53,0,0.99,0.1,1.39,0.29v0.98c-0.45-0.31-0.92-0.47-1.43-0.47
			c-0.61,0-1.12,0.22-1.51,0.66s-0.59,1.02-0.59,1.73c0,0.7,0.18,1.26,0.55,1.66s0.86,0.61,1.49,0.61c0.52,0,1.02-0.17,1.48-0.52
			V32.86z"/>
		<path fill="#1E1E1E" d="M64.74,33.08c-0.23,0.13-0.53,0.19-0.9,0.19c-1.05,0-1.58-0.59-1.58-1.76v-3.55h-1.03v-0.82h1.03v-1.46
			l0.96-0.31v1.78h1.51v0.82h-1.51v3.38c0,0.4,0.07,0.69,0.21,0.86s0.36,0.26,0.68,0.26c0.24,0,0.45-0.07,0.63-0.2V33.08z"/>
		<path fill="#1E1E1E" d="M68.53,33.28c-0.89,0-1.59-0.28-2.12-0.84s-0.79-1.3-0.79-2.23c0-1.01,0.28-1.79,0.83-2.36
			S67.73,27,68.67,27c0.89,0,1.59,0.28,2.09,0.83s0.75,1.31,0.75,2.29c0,0.96-0.27,1.72-0.81,2.3S69.44,33.28,68.53,33.28z
			 M68.6,27.81c-0.62,0-1.11,0.21-1.46,0.63s-0.54,1-0.54,1.74c0,0.71,0.18,1.27,0.54,1.68s0.85,0.62,1.46,0.62
			c0.62,0,1.1-0.2,1.43-0.6s0.5-0.97,0.5-1.72c0-0.75-0.17-1.33-0.5-1.73S69.22,27.81,68.6,27.81z"/>
		<path fill="#1E1E1E" d="M76.18,28.11c-0.17-0.13-0.41-0.19-0.73-0.19c-0.41,0-0.75,0.19-1.03,0.58s-0.41,0.91-0.41,1.58v3.06
			h-0.96v-6h0.96v1.24h0.02c0.14-0.42,0.35-0.75,0.63-0.99s0.6-0.35,0.94-0.35c0.25,0,0.44,0.03,0.57,0.08V28.11z"/>
	</g>
	<g>
		<rect x="7.06" y="81.42" fill="none" width="69.19" height="13.43"/>
		<path fill="#1E1E1E" d="M20.73,87.13v3.18h-0.98v-8.4h2.31c0.9,0,1.59,0.22,2.09,0.66s0.74,1.05,0.74,1.85s-0.27,1.45-0.82,1.96
			s-1.29,0.76-2.22,0.76H20.73z M20.73,82.79v3.45h1.03c0.68,0,1.2-0.16,1.56-0.47s0.54-0.75,0.54-1.32c0-1.11-0.66-1.66-1.97-1.66
			H20.73z"/>
		<path fill="#1E1E1E" d="M26.83,82.78c-0.17,0-0.32-0.06-0.44-0.18s-0.18-0.27-0.18-0.45s0.06-0.33,0.18-0.45s0.27-0.18,0.44-0.18
			c0.18,0,0.33,0.06,0.45,0.18s0.18,0.27,0.18,0.45c0,0.17-0.06,0.32-0.18,0.44S27,82.78,26.83,82.78z M27.29,90.3h-0.96v-6h0.96
			V90.3z"/>
		<path fill="#1E1E1E" d="M33.96,84.3l-2.39,6h-0.94l-2.27-6h1.05l1.52,4.36c0.11,0.32,0.18,0.6,0.21,0.84h0.02
			c0.04-0.3,0.1-0.57,0.19-0.81l1.59-4.38H33.96z"/>
		<path fill="#1E1E1E" d="M37.5,90.44c-0.89,0-1.59-0.28-2.12-0.84s-0.79-1.3-0.79-2.23c0-1.01,0.28-1.79,0.83-2.36
			s1.29-0.85,2.23-0.85c0.89,0,1.59,0.28,2.09,0.83s0.75,1.31,0.75,2.29c0,0.96-0.27,1.72-0.81,2.3S38.41,90.44,37.5,90.44z
			 M37.57,84.97c-0.62,0-1.11,0.21-1.46,0.63s-0.54,1-0.54,1.74c0,0.71,0.18,1.27,0.54,1.68s0.85,0.62,1.46,0.62
			c0.62,0,1.1-0.2,1.43-0.6s0.5-0.97,0.5-1.72c0-0.75-0.17-1.33-0.5-1.73S38.19,84.97,37.57,84.97z"/>
		<path fill="#1E1E1E" d="M44.8,90.24c-0.23,0.13-0.53,0.19-0.9,0.19c-1.05,0-1.58-0.59-1.58-1.76v-3.55H41.3V84.3h1.03v-1.46
			l0.96-0.31v1.78h1.51v0.82h-1.51v3.38c0,0.4,0.07,0.69,0.21,0.86s0.36,0.26,0.68,0.26c0.24,0,0.45-0.07,0.63-0.2V90.24z"/>
		<path fill="#1E1E1E" d="M50.36,89.43h-0.02v3.63h-0.96V84.3h0.96v1.05h0.02c0.47-0.8,1.16-1.2,2.07-1.2
			c0.77,0,1.38,0.27,1.81,0.81s0.65,1.26,0.65,2.16c0,1-0.24,1.81-0.73,2.41s-1.16,0.91-2,0.91C51.38,90.44,50.78,90.11,50.36,89.43
			z M50.33,87.01v0.84c0,0.5,0.16,0.92,0.48,1.26s0.73,0.52,1.23,0.52c0.58,0,1.04-0.22,1.37-0.67s0.5-1.06,0.5-1.86
			c0-0.67-0.15-1.19-0.46-1.57s-0.73-0.57-1.25-0.57c-0.56,0-1.01,0.19-1.35,0.58S50.33,86.43,50.33,87.01z"/>
		<path fill="#1E1E1E" d="M58.94,90.44c-0.89,0-1.59-0.28-2.12-0.84s-0.79-1.3-0.79-2.23c0-1.01,0.28-1.79,0.83-2.36
			s1.29-0.85,2.23-0.85c0.89,0,1.59,0.28,2.09,0.83s0.75,1.31,0.75,2.29c0,0.96-0.27,1.72-0.81,2.3S59.85,90.44,58.94,90.44z
			 M59.01,84.97c-0.62,0-1.11,0.21-1.46,0.63S57,86.6,57,87.34c0,0.71,0.18,1.27,0.54,1.68s0.85,0.62,1.46,0.62
			c0.62,0,1.1-0.2,1.43-0.6s0.5-0.97,0.5-1.72c0-0.75-0.17-1.33-0.5-1.73S59.63,84.97,59.01,84.97z"/>
		<path fill="#1E1E1E" d="M63.95,82.78c-0.17,0-0.32-0.06-0.44-0.18s-0.18-0.27-0.18-0.45s0.06-0.33,0.18-0.45s0.27-0.18,0.44-0.18
			c0.18,0,0.33,0.06,0.45,0.18s0.18,0.27,0.18,0.45c0,0.17-0.06,0.32-0.18,0.44S64.13,82.78,63.95,82.78z M64.42,90.3h-0.96v-6h0.96
			V90.3z"/>
		<path fill="#1E1E1E" d="M71.35,90.3h-0.96v-3.42c0-1.27-0.46-1.91-1.39-1.91c-0.48,0-0.88,0.18-1.19,0.54s-0.47,0.82-0.47,1.37
			v3.42h-0.96v-6h0.96v1h0.02c0.45-0.76,1.11-1.14,1.97-1.14c0.66,0,1.16,0.21,1.51,0.64s0.52,1.04,0.52,1.84V90.3z"/>
		<path fill="#1E1E1E" d="M75.94,90.24c-0.23,0.13-0.53,0.19-0.9,0.19c-1.05,0-1.58-0.59-1.58-1.76v-3.55h-1.03V84.3h1.03v-1.46
			l0.96-0.31v1.78h1.51v0.82h-1.51v3.38c0,0.4,0.07,0.69,0.21,0.86s0.36,0.26,0.68,0.26c0.24,0,0.45-0.07,0.63-0.2V90.24z"/>
	</g>
	<g>
		<rect x="144.58" y="150.18" fill="none" width="69.19" height="13.43"/>
		<path fill="#1E1E1E" d="M145.29,158.73v-1.16c0.13,0.12,0.29,0.22,0.48,0.32s0.38,0.17,0.59,0.24s0.41,0.11,0.62,0.15
			s0.4,0.05,0.57,0.05c0.61,0,1.06-0.11,1.36-0.34s0.45-0.55,0.45-0.97c0-0.23-0.05-0.42-0.15-0.59s-0.24-0.32-0.41-0.46
			s-0.38-0.27-0.62-0.4s-0.5-0.26-0.78-0.4c-0.29-0.15-0.57-0.3-0.82-0.45s-0.47-0.32-0.66-0.5s-0.33-0.39-0.44-0.62
			s-0.16-0.5-0.16-0.82c0-0.38,0.08-0.72,0.25-1s0.39-0.52,0.66-0.7s0.58-0.32,0.93-0.41s0.71-0.13,1.07-0.13
			c0.83,0,1.43,0.1,1.81,0.3v1.11c-0.5-0.34-1.13-0.52-1.91-0.52c-0.21,0-0.43,0.02-0.64,0.07s-0.41,0.12-0.57,0.22
			s-0.3,0.23-0.41,0.39s-0.16,0.36-0.16,0.59c0,0.21,0.04,0.4,0.12,0.56s0.2,0.3,0.35,0.43s0.35,0.25,0.57,0.38s0.48,0.25,0.78,0.4
			c0.3,0.15,0.59,0.3,0.86,0.47s0.51,0.35,0.71,0.54s0.36,0.42,0.48,0.66s0.18,0.52,0.18,0.83c0,0.41-0.08,0.76-0.24,1.05
			s-0.38,0.52-0.66,0.7s-0.59,0.31-0.95,0.39s-0.74,0.12-1.14,0.12c-0.13,0-0.3-0.01-0.49-0.03s-0.39-0.05-0.6-0.09
			s-0.4-0.09-0.58-0.15S145.4,158.8,145.29,158.73z"/>
		<path fill="#1E1E1E" d="M154.44,159.21c-0.89,0-1.59-0.28-2.12-0.84s-0.79-1.3-0.79-2.23c0-1.01,0.28-1.79,0.83-2.36
			s1.29-0.85,2.23-0.85c0.89,0,1.59,0.28,2.09,0.83s0.75,1.31,0.75,2.29c0,0.96-0.27,1.72-0.81,2.3S155.35,159.21,154.44,159.21z
			 M154.51,153.73c-0.62,0-1.11,0.21-1.46,0.63s-0.54,1-0.54,1.74c0,0.71,0.18,1.27,0.54,1.68s0.85,0.62,1.46,0.62
			c0.62,0,1.1-0.2,1.43-0.6s0.5-0.97,0.5-1.72c0-0.75-0.17-1.33-0.5-1.73S155.13,153.73,154.51,153.73z"/>
		<path fill="#1E1E1E" d="M163.81,159.07h-0.96v-0.95h-0.02c-0.4,0.73-1.02,1.09-1.85,1.09c-1.43,0-2.14-0.85-2.14-2.55v-3.59h0.96
			v3.43c0,1.27,0.48,1.9,1.45,1.9c0.47,0,0.85-0.17,1.16-0.52s0.45-0.8,0.45-1.36v-3.46h0.96V159.07z"/>
		<path fill="#1E1E1E" d="M168.88,154.04c-0.17-0.13-0.41-0.19-0.73-0.19c-0.41,0-0.75,0.19-1.03,0.58s-0.41,0.91-0.41,1.58v3.06
			h-0.96v-6h0.96v1.24h0.02c0.14-0.42,0.35-0.75,0.63-0.99s0.6-0.35,0.94-0.35c0.25,0,0.44,0.03,0.57,0.08V154.04z"/>
		<path fill="#1E1E1E" d="M174.01,158.79c-0.46,0.28-1.01,0.42-1.64,0.42c-0.86,0-1.55-0.28-2.07-0.83s-0.79-1.28-0.79-2.17
			c0-0.99,0.28-1.78,0.85-2.38s1.32-0.9,2.27-0.9c0.53,0,0.99,0.1,1.39,0.29v0.98c-0.45-0.31-0.92-0.47-1.43-0.47
			c-0.61,0-1.12,0.22-1.51,0.66s-0.59,1.02-0.59,1.73c0,0.7,0.18,1.26,0.55,1.66s0.86,0.61,1.49,0.61c0.52,0,1.02-0.17,1.48-0.52
			V158.79z"/>
		<path fill="#1E1E1E" d="M180.29,156.31h-4.24c0.02,0.67,0.2,1.18,0.54,1.55s0.82,0.54,1.42,0.54c0.68,0,1.3-0.22,1.86-0.67v0.9
			c-0.53,0.38-1.22,0.57-2.09,0.57c-0.85,0-1.51-0.27-2-0.82s-0.73-1.31-0.73-2.3c0-0.93,0.26-1.69,0.79-2.28s1.19-0.88,1.97-0.88
			s1.39,0.25,1.82,0.76s0.64,1.21,0.64,2.12V156.31z M179.3,155.49c0-0.55-0.14-0.99-0.4-1.29s-0.63-0.46-1.1-0.46
			c-0.45,0-0.84,0.16-1.15,0.49s-0.51,0.75-0.59,1.27H179.3z"/>
		<path fill="#1E1E1E" d="M186.01,158.2h-0.02v3.63h-0.96v-8.76h0.96v1.05h0.02c0.47-0.8,1.16-1.2,2.07-1.2
			c0.77,0,1.38,0.27,1.81,0.81s0.65,1.26,0.65,2.16c0,1-0.24,1.81-0.73,2.41s-1.16,0.91-2,0.91
			C187.03,159.21,186.43,158.87,186.01,158.2z M185.99,155.78v0.84c0,0.5,0.16,0.92,0.48,1.26s0.73,0.52,1.23,0.52
			c0.58,0,1.04-0.22,1.37-0.67s0.5-1.06,0.5-1.86c0-0.67-0.15-1.19-0.46-1.57s-0.73-0.57-1.25-0.57c-0.56,0-1.01,0.19-1.35,0.58
			S185.99,155.19,185.99,155.78z"/>
		<path fill="#1E1E1E" d="M194.59,159.21c-0.89,0-1.59-0.28-2.12-0.84s-0.79-1.3-0.79-2.23c0-1.01,0.28-1.79,0.83-2.36
			s1.29-0.85,2.23-0.85c0.89,0,1.59,0.28,2.09,0.83s0.75,1.31,0.75,2.29c0,0.96-0.27,1.72-0.81,2.3S195.5,159.21,194.59,159.21z
			 M194.66,153.73c-0.62,0-1.11,0.21-1.46,0.63s-0.54,1-0.54,1.74c0,0.71,0.18,1.27,0.54,1.68s0.85,0.62,1.46,0.62
			c0.62,0,1.1-0.2,1.43-0.6s0.5-0.97,0.5-1.72c0-0.75-0.17-1.33-0.5-1.73S195.28,153.73,194.66,153.73z"/>
		<path fill="#1E1E1E" d="M199.61,151.54c-0.17,0-0.32-0.06-0.44-0.18s-0.18-0.27-0.18-0.45s0.06-0.33,0.18-0.45
			s0.27-0.18,0.44-0.18c0.18,0,0.33,0.06,0.45,0.18s0.18,0.27,0.18,0.45c0,0.17-0.06,0.32-0.18,0.44S199.78,151.54,199.61,151.54z
			 M200.07,159.07h-0.96v-6h0.96V159.07z"/>
		<path fill="#1E1E1E" d="M207,159.07h-0.96v-3.42c0-1.27-0.46-1.91-1.39-1.91c-0.48,0-0.88,0.18-1.19,0.54s-0.47,0.82-0.47,1.37
			v3.42h-0.96v-6h0.96v1H203c0.45-0.76,1.11-1.14,1.97-1.14c0.66,0,1.16,0.21,1.51,0.64s0.52,1.04,0.52,1.84V159.07z"/>
		<path fill="#1E1E1E" d="M211.59,159.01c-0.23,0.13-0.53,0.19-0.9,0.19c-1.05,0-1.58-0.59-1.58-1.76v-3.55h-1.03v-0.82h1.03v-1.46
			l0.96-0.31v1.78h1.51v0.82h-1.51v3.38c0,0.4,0.07,0.69,0.21,0.86s0.36,0.26,0.68,0.26c0.24,0,0.45-0.07,0.63-0.2V159.01z"/>
	</g>
	<g>
		<rect x="215.75" y="34.23" fill="none" width="49.03" height="24.17"/>
		<path fill="#1E1E1E" d="M222.57,42.76c-0.62,0.33-1.39,0.49-2.32,0.49c-1.2,0-2.15-0.38-2.87-1.15s-1.08-1.78-1.08-3.03
			c0-1.34,0.4-2.43,1.21-3.26s1.83-1.24,3.08-1.24c0.8,0,1.46,0.12,1.98,0.35v1.05c-0.6-0.34-1.27-0.5-1.99-0.5
			c-0.96,0-1.75,0.32-2.35,0.97s-0.9,1.51-0.9,2.58c0,1.02,0.28,1.84,0.84,2.45s1.3,0.91,2.21,0.91c0.84,0,1.57-0.19,2.19-0.56
			V42.76z"/>
		<path fill="#1E1E1E" d="M227.28,38.09c-0.17-0.13-0.41-0.19-0.73-0.19c-0.41,0-0.75,0.19-1.03,0.58s-0.41,0.91-0.41,1.58v3.06
			h-0.96v-6h0.96v1.24h0.02c0.14-0.42,0.35-0.75,0.63-0.99s0.6-0.35,0.94-0.35c0.25,0,0.44,0.03,0.57,0.08V38.09z"/>
		<path fill="#1E1E1E" d="M233.15,40.35h-4.24c0.02,0.67,0.2,1.18,0.54,1.55s0.82,0.54,1.42,0.54c0.68,0,1.3-0.22,1.86-0.67v0.9
			c-0.53,0.38-1.22,0.57-2.09,0.57c-0.85,0-1.51-0.27-2-0.82s-0.73-1.31-0.73-2.3c0-0.93,0.26-1.69,0.79-2.28s1.19-0.88,1.97-0.88
			s1.39,0.25,1.82,0.76s0.64,1.21,0.64,2.12V40.35z M232.16,39.54c0-0.55-0.14-0.99-0.4-1.29s-0.63-0.46-1.1-0.46
			c-0.45,0-0.84,0.16-1.15,0.49s-0.51,0.75-0.59,1.27H232.16z"/>
		<path fill="#1E1E1E" d="M238.89,43.11h-0.96v-0.94h-0.02c-0.42,0.72-1.03,1.08-1.85,1.08c-0.6,0-1.07-0.16-1.4-0.47
			s-0.51-0.74-0.51-1.26c0-1.12,0.66-1.77,1.98-1.96l1.8-0.25c0-1.02-0.41-1.53-1.24-1.53c-0.72,0-1.38,0.25-1.96,0.74v-0.98
			c0.59-0.38,1.27-0.56,2.04-0.56c1.41,0,2.12,0.75,2.12,2.24V43.11z M237.93,40.08l-1.45,0.2c-0.45,0.06-0.78,0.17-1.01,0.33
			s-0.34,0.44-0.34,0.84c0,0.29,0.1,0.53,0.31,0.72s0.49,0.28,0.83,0.28c0.48,0,0.87-0.17,1.18-0.5s0.47-0.76,0.47-1.27V40.08z"/>
		<path fill="#1E1E1E" d="M243.49,43.05c-0.23,0.13-0.53,0.19-0.9,0.19c-1.05,0-1.58-0.59-1.58-1.76v-3.55h-1.03v-0.82h1.03v-1.46
			l0.96-0.31v1.78h1.51v0.82h-1.51v3.38c0,0.4,0.07,0.69,0.21,0.86s0.36,0.26,0.68,0.26c0.24,0,0.45-0.07,0.63-0.2V43.05z"/>
		<path fill="#1E1E1E" d="M249.59,40.35h-4.24c0.02,0.67,0.2,1.18,0.54,1.55s0.82,0.54,1.42,0.54c0.68,0,1.3-0.22,1.86-0.67v0.9
			c-0.53,0.38-1.22,0.57-2.09,0.57c-0.85,0-1.51-0.27-2-0.82s-0.73-1.31-0.73-2.3c0-0.93,0.26-1.69,0.79-2.28s1.19-0.88,1.97-0.88
			s1.39,0.25,1.82,0.76s0.64,1.21,0.64,2.12V40.35z M248.61,39.54c0-0.55-0.14-0.99-0.4-1.29s-0.63-0.46-1.1-0.46
			c-0.45,0-0.84,0.16-1.15,0.49s-0.51,0.75-0.59,1.27H248.61z"/>
		<path fill="#1E1E1E" d="M256.17,43.11h-0.96v-1.02h-0.02c-0.45,0.77-1.13,1.16-2.06,1.16c-0.75,0-1.36-0.27-1.81-0.81
			s-0.68-1.27-0.68-2.19c0-0.99,0.25-1.79,0.75-2.38s1.17-0.9,2-0.9c0.82,0,1.42,0.32,1.8,0.97h0.02v-3.71h0.96V43.11z M255.21,40.4
			v-0.88c0-0.48-0.16-0.89-0.48-1.23s-0.73-0.5-1.22-0.5c-0.59,0-1.05,0.21-1.38,0.64s-0.5,1.02-0.5,1.78
			c0,0.69,0.16,1.24,0.48,1.64s0.75,0.6,1.3,0.6c0.54,0,0.97-0.19,1.3-0.58S255.21,40.99,255.21,40.4z"/>
		<path fill="#1E1E1E" d="M217.71,55.45h-0.02v3.63h-0.96v-8.76h0.96v1.05h0.02c0.47-0.8,1.16-1.2,2.07-1.2
			c0.77,0,1.38,0.27,1.81,0.81s0.65,1.26,0.65,2.16c0,1-0.24,1.81-0.73,2.41s-1.16,0.91-2,0.91
			C218.73,56.45,218.13,56.12,217.71,55.45z M217.68,53.03v0.84c0,0.5,0.16,0.92,0.48,1.26s0.73,0.52,1.23,0.52
			c0.58,0,1.04-0.22,1.37-0.67s0.5-1.06,0.5-1.86c0-0.67-0.15-1.19-0.46-1.57s-0.73-0.57-1.25-0.57c-0.56,0-1.01,0.19-1.35,0.58
			S217.68,52.44,217.68,53.03z"/>
		<path fill="#1E1E1E" d="M226.29,56.45c-0.89,0-1.59-0.28-2.12-0.84s-0.79-1.3-0.79-2.23c0-1.01,0.28-1.79,0.83-2.36
			s1.29-0.85,2.23-0.85c0.89,0,1.59,0.28,2.09,0.83s0.75,1.31,0.75,2.29c0,0.96-0.27,1.72-0.81,2.3S227.2,56.45,226.29,56.45z
			 M226.36,50.98c-0.62,0-1.11,0.21-1.46,0.63s-0.54,1-0.54,1.74c0,0.71,0.18,1.27,0.54,1.68s0.85,0.62,1.46,0.62
			c0.62,0,1.1-0.2,1.43-0.6s0.5-0.97,0.5-1.72c0-0.75-0.17-1.33-0.5-1.73S226.98,50.98,226.36,50.98z"/>
		<path fill="#1E1E1E" d="M231.3,48.79c-0.17,0-0.32-0.06-0.44-0.18s-0.18-0.27-0.18-0.45s0.06-0.33,0.18-0.45s0.27-0.18,0.44-0.18
			c0.18,0,0.33,0.06,0.45,0.18s0.18,0.27,0.18,0.45c0,0.17-0.06,0.32-0.18,0.44S231.48,48.79,231.3,48.79z M231.77,56.31h-0.96v-6
			h0.96V56.31z"/>
		<path fill="#1E1E1E" d="M238.7,56.31h-0.96v-3.42c0-1.27-0.46-1.91-1.39-1.91c-0.48,0-0.88,0.18-1.19,0.54s-0.47,0.82-0.47,1.37
			v3.42h-0.96v-6h0.96v1h0.02c0.45-0.76,1.11-1.14,1.97-1.14c0.66,0,1.16,0.21,1.51,0.64s0.52,1.04,0.52,1.84V56.31z"/>
		<path fill="#1E1E1E" d="M243.29,56.25c-0.23,0.13-0.53,0.19-0.9,0.19c-1.05,0-1.58-0.59-1.58-1.76v-3.55h-1.03v-0.82h1.03v-1.46
			l0.96-0.31v1.78h1.51v0.82h-1.51v3.38c0,0.4,0.07,0.69,0.21,0.86s0.36,0.26,0.68,0.26c0.24,0,0.45-0.07,0.63-0.2V56.25z"/>
	</g>
	<g>
		<rect x="189.6" y="109.26" fill="none" width="69.19" height="13.43"/>
		<path fill="#1E1E1E" d="M197.02,118.15h-0.98v-3.83h-4.35v3.83h-0.98v-8.4h0.98v3.69h4.35v-3.69h0.98V118.15z"/>
		<path fill="#1E1E1E" d="M203.91,115.39h-4.24c0.02,0.67,0.2,1.18,0.54,1.55s0.82,0.54,1.42,0.54c0.68,0,1.3-0.22,1.86-0.67v0.9
			c-0.53,0.38-1.22,0.57-2.09,0.57c-0.85,0-1.51-0.27-2-0.82s-0.73-1.31-0.73-2.3c0-0.93,0.26-1.69,0.79-2.28s1.19-0.88,1.97-0.88
			s1.39,0.25,1.82,0.76s0.64,1.21,0.64,2.12V115.39z M202.93,114.57c0-0.55-0.14-0.99-0.4-1.29s-0.63-0.46-1.1-0.46
			c-0.45,0-0.84,0.16-1.15,0.49s-0.51,0.75-0.59,1.27H202.93z"/>
		<path fill="#1E1E1E" d="M206.33,118.15h-0.96v-8.88h0.96V118.15z"/>
		<path fill="#1E1E1E" d="M208.76,110.62c-0.17,0-0.32-0.06-0.44-0.18s-0.18-0.27-0.18-0.45s0.06-0.33,0.18-0.45
			s0.27-0.18,0.44-0.18c0.18,0,0.33,0.06,0.45,0.18s0.18,0.27,0.18,0.45c0,0.17-0.06,0.32-0.18,0.44S208.94,110.62,208.76,110.62z
			 M209.23,118.15h-0.96v-6h0.96V118.15z"/>
		<path fill="#1E1E1E" d="M215.27,117.87c-0.46,0.28-1.01,0.42-1.64,0.42c-0.86,0-1.55-0.28-2.07-0.83s-0.79-1.28-0.79-2.17
			c0-0.99,0.28-1.78,0.85-2.38s1.32-0.9,2.27-0.9c0.53,0,0.99,0.1,1.39,0.29v0.98c-0.45-0.31-0.92-0.47-1.43-0.47
			c-0.61,0-1.12,0.22-1.51,0.66s-0.59,1.02-0.59,1.73c0,0.7,0.18,1.26,0.55,1.66s0.86,0.61,1.49,0.61c0.52,0,1.02-0.17,1.48-0.52
			V117.87z"/>
		<path fill="#1E1E1E" d="M221.02,118.15h-0.96v-0.94h-0.02c-0.42,0.72-1.03,1.08-1.85,1.08c-0.6,0-1.07-0.16-1.4-0.47
			s-0.51-0.74-0.51-1.26c0-1.12,0.66-1.77,1.98-1.96l1.8-0.25c0-1.02-0.41-1.53-1.24-1.53c-0.72,0-1.38,0.25-1.96,0.74v-0.98
			c0.59-0.38,1.27-0.56,2.04-0.56c1.41,0,2.12,0.75,2.12,2.24V118.15z M220.05,115.11l-1.45,0.2c-0.45,0.06-0.78,0.17-1.01,0.33
			s-0.34,0.44-0.34,0.84c0,0.29,0.1,0.53,0.31,0.72s0.49,0.28,0.83,0.28c0.48,0,0.87-0.17,1.18-0.5s0.47-0.76,0.47-1.27V115.11z"/>
		<path fill="#1E1E1E" d="M223.79,118.15h-0.96v-8.88h0.96V118.15z"/>
		<path fill="#1E1E1E" d="M229.98,118.15h-0.96v-8.88h0.96V118.15z"/>
		<path fill="#1E1E1E" d="M232.42,110.62c-0.17,0-0.32-0.06-0.44-0.18s-0.18-0.27-0.18-0.45s0.06-0.33,0.18-0.45
			s0.27-0.18,0.44-0.18c0.18,0,0.33,0.06,0.45,0.18s0.18,0.27,0.18,0.45c0,0.17-0.06,0.32-0.18,0.44S232.59,110.62,232.42,110.62z
			 M232.89,118.15h-0.96v-6h0.96V118.15z"/>
		<path fill="#1E1E1E" d="M239.81,118.15h-0.96v-3.42c0-1.27-0.46-1.91-1.39-1.91c-0.48,0-0.88,0.18-1.19,0.54s-0.47,0.82-0.47,1.37
			v3.42h-0.96v-6h0.96v1h0.02c0.45-0.76,1.11-1.14,1.97-1.14c0.66,0,1.16,0.21,1.51,0.64s0.52,1.04,0.52,1.84V118.15z"/>
		<path fill="#1E1E1E" d="M246.45,115.39h-4.24c0.02,0.67,0.2,1.18,0.54,1.55s0.82,0.54,1.42,0.54c0.68,0,1.3-0.22,1.86-0.67v0.9
			c-0.53,0.38-1.22,0.57-2.09,0.57c-0.85,0-1.51-0.27-2-0.82s-0.73-1.31-0.73-2.3c0-0.93,0.26-1.69,0.79-2.28s1.19-0.88,1.97-0.88
			s1.39,0.25,1.82,0.76s0.64,1.21,0.64,2.12V115.39z M245.46,114.57c0-0.55-0.14-0.99-0.4-1.29s-0.63-0.46-1.1-0.46
			c-0.45,0-0.84,0.16-1.15,0.49s-0.51,0.75-0.59,1.27H245.46z"/>
	</g>
	<g>
		<path fill="#1E1E1E" d="M145.92,71h-0.98v-3.83h-4.35V71h-0.98v-8.4h0.98v3.69h4.35V62.6h0.98V71z"/>
		<path fill="#1E1E1E" d="M152.81,68.24h-4.24c0.02,0.67,0.2,1.18,0.54,1.55s0.82,0.54,1.42,0.54c0.68,0,1.3-0.22,1.86-0.67v0.9
			c-0.53,0.38-1.22,0.57-2.09,0.57c-0.85,0-1.51-0.27-2-0.82s-0.73-1.31-0.73-2.3c0-0.93,0.26-1.69,0.79-2.28s1.19-0.88,1.97-0.88
			s1.39,0.25,1.82,0.76s0.64,1.21,0.64,2.12V68.24z M151.83,67.43c0-0.55-0.14-0.99-0.4-1.29s-0.63-0.46-1.1-0.46
			c-0.45,0-0.84,0.16-1.15,0.49s-0.51,0.75-0.59,1.27H151.83z"/>
		<path fill="#1E1E1E" d="M154.76,63.48c-0.17,0-0.32-0.06-0.44-0.18s-0.18-0.27-0.18-0.45s0.06-0.33,0.18-0.45s0.27-0.18,0.44-0.18
			c0.18,0,0.33,0.06,0.45,0.18s0.18,0.27,0.18,0.45c0,0.17-0.06,0.32-0.18,0.44S154.94,63.48,154.76,63.48z M155.23,71h-0.96v-6
			h0.96V71z"/>
		<path fill="#1E1E1E" d="M162.29,70.52c0,2.2-1.05,3.3-3.16,3.3c-0.74,0-1.39-0.14-1.95-0.42v-0.96c0.68,0.38,1.32,0.56,1.93,0.56
			c1.48,0,2.21-0.79,2.21-2.36v-0.66h-0.02c-0.46,0.77-1.14,1.15-2.06,1.15c-0.75,0-1.35-0.27-1.8-0.8s-0.68-1.25-0.68-2.15
			c0-1.02,0.25-1.83,0.74-2.43s1.16-0.9,2.01-0.9c0.81,0,1.41,0.32,1.8,0.97h0.02V65h0.96V70.52z M161.33,68.29V67.4
			c0-0.48-0.16-0.88-0.48-1.22s-0.72-0.51-1.2-0.51c-0.59,0-1.06,0.22-1.39,0.65s-0.5,1.04-0.5,1.81c0,0.67,0.16,1.2,0.48,1.6
			s0.75,0.6,1.28,0.6c0.54,0,0.98-0.19,1.32-0.57S161.33,68.88,161.33,68.29z"/>
		<path fill="#1E1E1E" d="M169.22,71h-0.96v-3.46c0-1.25-0.46-1.88-1.39-1.88c-0.47,0-0.86,0.18-1.18,0.54s-0.48,0.83-0.48,1.39V71
			h-0.96v-8.88h0.96V66h0.02c0.46-0.76,1.12-1.14,1.97-1.14c1.35,0,2.03,0.81,2.03,2.44V71z"/>
		<path fill="#1E1E1E" d="M173.81,70.94c-0.23,0.13-0.53,0.19-0.9,0.19c-1.05,0-1.58-0.59-1.58-1.76v-3.55h-1.03V65h1.03v-1.46
			l0.96-0.31V65h1.51v0.82h-1.51v3.38c0,0.4,0.07,0.69,0.21,0.86s0.36,0.26,0.68,0.26c0.24,0,0.45-0.07,0.63-0.2V70.94z"/>
	</g>
	<g>
		<path fill="#1E1E1E" d="M52.08,128.45h2.29v0.2h-0.11c-0.16,0-0.28,0.03-0.36,0.1c-0.08,0.07-0.12,0.16-0.12,0.26
			c0,0.14,0.06,0.33,0.18,0.58l1.2,2.48l1.1-2.72c0.06-0.15,0.09-0.29,0.09-0.44c0-0.06-0.01-0.11-0.04-0.15
			c-0.03-0.04-0.07-0.07-0.13-0.09c-0.06-0.02-0.17-0.03-0.32-0.03v-0.2h1.6v0.2c-0.13,0.01-0.23,0.04-0.31,0.09
			s-0.15,0.12-0.24,0.24c-0.03,0.05-0.09,0.19-0.18,0.41l-2,4.91c-0.19,0.48-0.45,0.84-0.76,1.08c-0.31,0.24-0.62,0.37-0.91,0.37
			c-0.21,0-0.38-0.06-0.52-0.18s-0.2-0.26-0.2-0.42c0-0.15,0.05-0.27,0.15-0.36c0.1-0.09,0.23-0.14,0.41-0.14
			c0.12,0,0.28,0.04,0.48,0.12c0.14,0.05,0.23,0.08,0.27,0.08c0.11,0,0.22-0.06,0.35-0.17c0.13-0.11,0.26-0.33,0.38-0.64l0.35-0.85
			l-1.77-3.71c-0.05-0.11-0.14-0.25-0.26-0.41c-0.09-0.13-0.16-0.21-0.22-0.25c-0.08-0.06-0.21-0.11-0.4-0.15V128.45z"/>
	</g>
	<g>
		<path fill="#1E1E1E" d="M48.92,156.98h2.31v0.2c-0.15,0-0.25,0.02-0.31,0.08c-0.06,0.05-0.09,0.12-0.09,0.2
			c0,0.09,0.06,0.22,0.19,0.4c0.04,0.06,0.1,0.15,0.18,0.27l0.35,0.56l0.4-0.56c0.26-0.35,0.39-0.58,0.39-0.67
			c0-0.08-0.03-0.14-0.09-0.19c-0.06-0.05-0.16-0.08-0.3-0.08v-0.2h1.67v0.2c-0.18,0.01-0.33,0.06-0.46,0.15
			c-0.18,0.12-0.42,0.39-0.72,0.79l-0.67,0.9l1.22,1.76c0.3,0.43,0.52,0.69,0.64,0.78c0.13,0.09,0.3,0.14,0.5,0.15v0.19h-2.32v-0.19
			c0.16,0,0.29-0.04,0.38-0.11c0.07-0.05,0.1-0.12,0.1-0.2s-0.11-0.29-0.34-0.62l-0.72-1.05l-0.79,1.05
			c-0.24,0.33-0.37,0.52-0.37,0.58c0,0.09,0.04,0.16,0.12,0.23c0.08,0.07,0.2,0.11,0.36,0.12v0.19h-1.61v-0.19
			c0.13-0.02,0.24-0.06,0.34-0.13c0.14-0.1,0.37-0.37,0.69-0.79l1.03-1.37l-0.93-1.35c-0.27-0.39-0.47-0.63-0.61-0.73
			c-0.15-0.1-0.33-0.15-0.55-0.15V156.98z"/>
	</g>
	<g>
		<path fill="#1E1E1E" d="M24.6,112.24l-0.06,1.51H20.2v-0.19l3.27-4.35h-1.61c-0.35,0-0.57,0.02-0.68,0.07
			c-0.11,0.04-0.2,0.13-0.26,0.25c-0.1,0.18-0.15,0.4-0.17,0.67h-0.21l0.03-1.36h4.13v0.2l-3.3,4.36h1.79
			c0.38,0,0.63-0.03,0.77-0.09c0.13-0.06,0.24-0.17,0.32-0.33c0.06-0.11,0.11-0.36,0.15-0.73H24.6z"/>
	</g>
	<g>
		<path fill="#1E1E1E" d="M123.54,98.05h1.16l-0.7,3.17c-0.14,0.6-0.23,0.97-0.28,1.11c0.18,0.84,0.45,1.26,0.79,1.26
			c0.41,0,0.62-0.28,0.64-0.85h0.25c-0.01,0.53-0.11,0.96-0.29,1.28s-0.42,0.49-0.71,0.49c-0.24,0-0.42-0.1-0.54-0.29
			s-0.25-0.6-0.38-1.2c-0.47,1-1.25,1.5-2.32,1.5c-0.73,0-1.32-0.29-1.75-0.86s-0.65-1.39-0.65-2.46c0-1.05,0.24-1.86,0.71-2.45
			s1.04-0.88,1.71-0.88c0.47,0,0.85,0.17,1.16,0.5s0.57,0.88,0.8,1.63L123.54,98.05z M122.94,100.73c-0.21-0.73-0.45-1.31-0.72-1.72
			s-0.58-0.62-0.95-0.62c-0.83,0-1.25,0.98-1.25,2.93c0,1.85,0.4,2.78,1.2,2.78c0.69,0,1.21-0.82,1.54-2.45L122.94,100.73z"/>
	</g>
</g>
<g id="writer_source" display="none">
	
		<image display="inline" overflow="visible" width="281" height="211" xlink:href="../../trt/package_Images_Geo_P1/To Do/image820849468_SRC.jpg"  transform="matrix(0.75 0 0 0.75 361.8125 -54.6382)">
	</image>
</g>
</svg>
