<?xml version="1.0" encoding="utf-8"?>
<!-- Generator: Adobe Illustrator 23.0.3, SVG Export Plug-In . SVG Version: 6.00 Build 0)  -->
<svg version="1.1" xmlns="http://www.w3.org/2000/svg" xmlns:xlink="http://www.w3.org/1999/xlink" x="0px" y="0px"
	 width="175.32px" height="121.96px" viewBox="0 0 175.32 121.96" enable-background="new 0 0 175.32 121.96" xml:space="preserve">
<g id="Shapes">
	<g id="Wrench_tool_x28_s_x29_">
	</g>
	<g id="user2">
	</g>
	<g id="user2_1_">
	</g>
	<g id="user2_4_">
	</g>
	<g id="user2_3_">
	</g>
	<g id="user2_2_">
	</g>
	<g id="Internet_2">
	</g>
	<g id="Enterprise">
	</g>
	<g id="Tunnel__x28_stackable_x29_">
	</g>
	<g id="New_Symbol">
	</g>
	<g id="New_Symbol_1">
	</g>
	<g id="Files">
	</g>
	<g id="BlobBlock">
	</g>
	<g id="E_x5F_Enterprise">
	</g>
	<g id="E_x5F_AD_FS">
	</g>
	<g id="C_x5F_Azure_Active_Directory">
	</g>
	<g id="Layer_22">
	</g>
	<g>
		<g enable-background="new    ">
			<g>
				<polygon fill="#8B99B1" points="175.32,42.18 175.27,62.56 73.07,121.96 73.12,101.58 				"/>
			</g>
			<g>
				<polygon fill="#546682" points="73.12,101.58 73.07,121.96 0,79.77 0.06,59.39 				"/>
			</g>
			<g>
				<polygon fill="#A0ADC3" points="175.32,42.18 73.12,101.58 0.06,59.39 102.26,0 				"/>
			</g>
		</g>
	</g>
</g>
<g id="writer_source" display="none">
	
		<image display="inline" overflow="visible" width="141" height="82" xlink:href="../../trt/package_Images_Geo_P1/To Do/image1454039518_SRC.jpg"  transform="matrix(1 0 0 1 232.8045 -11.4866)">
	</image>
	<g display="inline">
		<g>
			<g enable-background="new    ">
				<g>
					<polygon fill="#8B99B1" points="440.99,142.39 440.94,162.77 338.74,222.16 338.79,201.78 					"/>
				</g>
				<g>
					<polygon fill="#546682" points="338.79,201.78 338.74,222.16 265.67,179.98 265.73,159.6 					"/>
				</g>
				<g>
					<polygon fill="#A0ADC3" points="440.99,142.39 338.79,201.78 265.73,159.6 367.93,100.2 					"/>
				</g>
			</g>
		</g>
	</g>
</g>
</svg>
