<?xml version="1.0" encoding="utf-8"?>
<!-- Generator: Adobe Illustrator 23.0.3, SVG Export Plug-In . SVG Version: 6.00 Build 0)  -->
<svg version="1.1" xmlns="http://www.w3.org/2000/svg" xmlns:xlink="http://www.w3.org/1999/xlink" x="0px" y="0px" width="214px"
	 height="248px" viewBox="0 0 214 248" enable-background="new 0 0 214 248" xml:space="preserve">
<g id="Shapes">
	<g>
		<rect x="0.5" y="0.5" fill="#FFFFFF" width="213" height="247"/>
		<rect x="0.5" y="0.5" opacity="0.2" fill="#E5E5E5" width="213" height="247"/>
		<rect x="0.5" y="0.5" opacity="0.1" fill="none" stroke="#231F20" stroke-miterlimit="10" width="213" height="247"/>
	</g>
	<g>
		<g>
			<g>
				<polyline fill="none" stroke="#000000" stroke-linecap="round" stroke-linejoin="round" points="37.49,209.23 19.68,216.37 
					35.29,225.44 				"/>
				<g>
					<polygon points="34.57,207.27 45.71,205.94 36.73,212.67 					"/>
				</g>
				<g>
					<polygon points="32.11,226.95 42.95,229.89 35.03,221.93 					"/>
				</g>
			</g>
		</g>
		<g>
			<g>
				
					<line fill="none" stroke="#000000" stroke-linecap="round" stroke-linejoin="round" x1="19.68" y1="216.37" x2="19.68" y2="199.83"/>
				<g>
					<polygon points="22.59,201.81 19.68,190.97 16.78,201.81 					"/>
				</g>
			</g>
		</g>
	</g>
	<g id="Wrench_tool_x28_s_x29_">
	</g>
	<g id="user2">
	</g>
	<g id="user2_1_">
	</g>
	<g id="user2_4_">
	</g>
	<g id="user2_3_">
	</g>
	<g id="user2_2_">
	</g>
	<g id="Internet_2">
	</g>
	<g id="Enterprise">
	</g>
	<g id="Tunnel__x28_stackable_x29_">
	</g>
	<g id="New_Symbol">
	</g>
	<g id="New_Symbol_1">
	</g>
	<g id="Files">
	</g>
	<g id="BlobBlock">
	</g>
	<g id="E_x5F_Enterprise">
	</g>
	<g id="E_x5F_AD_FS">
	</g>
	<g id="C_x5F_Azure_Active_Directory">
	</g>
	<g id="Layer_22">
	</g>
	<path fill="#666666" d="M143.37,212.81c-0.13,0-0.27-0.04-0.38-0.13l-6.35-4.87c-0.27-0.21-0.33-0.6-0.12-0.88
		c0.21-0.27,0.6-0.32,0.88-0.12l6.27,4.8l0.76-7.82c0.03-0.34,0.34-0.59,0.68-0.56c0.34,0.03,0.6,0.34,0.56,0.68l-0.77,7.96
		c-0.03,0.34-0.35,0.59-0.68,0.56c-0.09-0.01-0.17-0.04-0.25-0.08c-0.02,0.07-0.05,0.13-0.1,0.19
		C143.75,212.73,143.56,212.81,143.37,212.81z M135.44,206.73c-0.13,0-0.27-0.04-0.38-0.13l-6.35-4.87
		c-0.27-0.21-0.33-0.6-0.12-0.88c0.21-0.27,0.6-0.33,0.88-0.12l6.35,4.87c0.27,0.21,0.33,0.6,0.12,0.88
		C135.81,206.64,135.62,206.73,135.44,206.73z M145.24,202.5c-0.02,0-0.04,0-0.06,0c-0.34-0.03-0.6-0.34-0.56-0.68l0.77-7.96
		c0.03-0.34,0.34-0.6,0.68-0.56c0.34,0.03,0.6,0.34,0.56,0.68l-0.77,7.96C145.83,202.26,145.56,202.5,145.24,202.5z M127.5,200.64
		c-0.13,0-0.27-0.04-0.38-0.13l-6.35-4.87c-0.27-0.21-0.33-0.6-0.12-0.88c0.21-0.27,0.6-0.33,0.88-0.12l6.35,4.87
		c0.27,0.21,0.33,0.6,0.12,0.88C127.87,200.56,127.69,200.64,127.5,200.64z M119.56,194.56c-0.13,0-0.27-0.04-0.38-0.13l-6.35-4.87
		c-0.27-0.21-0.33-0.6-0.12-0.88c0.21-0.27,0.6-0.32,0.88-0.12l6.35,4.87c0.27,0.21,0.33,0.6,0.12,0.88
		C119.94,194.48,119.75,194.56,119.56,194.56z M146.21,192.55c-0.02,0-0.04,0-0.06,0c-0.34-0.03-0.6-0.34-0.56-0.68l0.77-7.96
		c0.03-0.34,0.34-0.59,0.68-0.56c0.34,0.03,0.6,0.34,0.56,0.68l-0.77,7.96C146.8,192.31,146.52,192.55,146.21,192.55z
		 M111.62,188.48c-0.13,0-0.27-0.04-0.38-0.13l-6.35-4.87c-0.27-0.21-0.33-0.6-0.12-0.88c0.21-0.27,0.6-0.33,0.88-0.12l6.35,4.87
		c0.27,0.21,0.33,0.6,0.12,0.88C112,188.39,111.81,188.48,111.62,188.48z M147.17,182.6c-0.02,0-0.04,0-0.06,0
		c-0.34-0.03-0.6-0.34-0.56-0.68l0.77-7.96c0.03-0.34,0.34-0.6,0.68-0.56c0.34,0.03,0.6,0.34,0.56,0.68l-0.77,7.96
		C147.76,182.35,147.49,182.6,147.17,182.6z M103.69,182.4c-0.13,0-0.27-0.04-0.38-0.13l-6.35-4.87c-0.27-0.21-0.33-0.6-0.12-0.88
		c0.21-0.27,0.6-0.33,0.88-0.12l6.35,4.87c0.27,0.21,0.33,0.6,0.12,0.88C104.06,182.31,103.88,182.4,103.69,182.4z M95.75,176.31
		c-0.13,0-0.27-0.04-0.38-0.13l-6.35-4.87c-0.27-0.21-0.33-0.6-0.12-0.88c0.21-0.27,0.6-0.32,0.88-0.12l6.35,4.87
		c0.27,0.21,0.33,0.6,0.12,0.88C96.12,176.23,95.94,176.31,95.75,176.31z M148.14,172.64c-0.02,0-0.04,0-0.06,0
		c-0.34-0.03-0.6-0.34-0.56-0.68l0.77-7.96c0.03-0.34,0.34-0.59,0.68-0.56c0.34,0.03,0.6,0.34,0.56,0.68l-0.77,7.96
		C148.73,172.4,148.45,172.64,148.14,172.64z M87.81,170.23c-0.13,0-0.27-0.04-0.38-0.13l-6.35-4.87c-0.27-0.21-0.33-0.6-0.12-0.88
		c0.21-0.27,0.6-0.33,0.88-0.12l6.35,4.87c0.27,0.21,0.33,0.6,0.12,0.88C88.19,170.14,88,170.23,87.81,170.23z M79.88,164.15
		c-0.13,0-0.27-0.04-0.38-0.13l-6.35-4.87c-0.27-0.21-0.33-0.6-0.12-0.88c0.21-0.27,0.6-0.33,0.88-0.12l6.35,4.87
		c0.27,0.21,0.33,0.6,0.12,0.88C80.25,164.06,80.06,164.15,79.88,164.15z M149.1,162.69c-0.02,0-0.04,0-0.06,0
		c-0.34-0.03-0.6-0.34-0.56-0.68l0.77-7.96c0.03-0.34,0.34-0.6,0.68-0.56c0.34,0.03,0.6,0.34,0.56,0.68l-0.77,7.96
		C149.69,162.45,149.42,162.69,149.1,162.69z M71.94,158.06c-0.13,0-0.27-0.04-0.38-0.13l-6.35-4.86c-0.01,0-0.01-0.01-0.02-0.01
		c-0.06-0.05-0.11-0.1-0.14-0.16c-0.04-0.07-0.07-0.16-0.08-0.24c0,0,0,0,0,0v0c-0.01-0.1,0-0.2,0.04-0.3
		c0.02-0.07,0.06-0.13,0.11-0.18c0,0,0-0.01,0.01-0.01l2.81-3.24c0.23-0.26,0.62-0.29,0.88-0.06c0.26,0.23,0.29,0.62,0.06,0.88
		l-2.38,2.74l5.82,4.46c0.27,0.21,0.33,0.6,0.12,0.88C72.31,157.98,72.13,158.06,71.94,158.06z M150.06,152.74
		c-0.02,0-0.04,0-0.06,0c-0.34-0.03-0.6-0.34-0.56-0.68l0.77-7.96c0.03-0.34,0.34-0.6,0.68-0.56c0.34,0.03,0.6,0.34,0.56,0.68
		l-0.77,7.96C150.65,152.49,150.38,152.74,150.06,152.74z M69.72,148.45c-0.15,0-0.29-0.05-0.41-0.15
		c-0.26-0.23-0.29-0.62-0.06-0.88l5.25-6.04c0.23-0.26,0.62-0.29,0.88-0.06c0.26,0.23,0.29,0.62,0.06,0.88l-5.25,6.04
		C70.06,148.37,69.89,148.45,69.72,148.45z M151.03,142.78c-0.02,0-0.04,0-0.06,0c-0.34-0.03-0.6-0.34-0.56-0.68l0.77-7.96
		c0.03-0.34,0.34-0.59,0.68-0.56c0.34,0.03,0.6,0.34,0.56,0.68l-0.77,7.96C151.62,142.54,151.35,142.78,151.03,142.78z M76.27,140.9
		c-0.15,0-0.29-0.05-0.41-0.15c-0.26-0.23-0.29-0.62-0.06-0.88l5.25-6.04c0.23-0.26,0.62-0.29,0.88-0.06
		c0.26,0.23,0.29,0.62,0.06,0.88l-5.25,6.04C76.62,140.83,76.45,140.9,76.27,140.9z M82.83,133.35c-0.15,0-0.29-0.05-0.41-0.15
		c-0.26-0.23-0.29-0.62-0.06-0.88l5.25-6.04c0.23-0.26,0.62-0.29,0.88-0.06c0.26,0.23,0.29,0.62,0.06,0.88l-5.25,6.04
		C83.18,133.28,83.01,133.35,82.83,133.35z M151.99,132.83c-0.02,0-0.04,0-0.06,0c-0.34-0.03-0.6-0.34-0.56-0.68l0.77-7.96
		c0.03-0.34,0.33-0.6,0.68-0.56c0.34,0.03,0.6,0.34,0.56,0.68l-0.77,7.96C152.58,132.59,152.31,132.83,151.99,132.83z M89.39,125.8
		c-0.15,0-0.29-0.05-0.41-0.15c-0.26-0.23-0.29-0.62-0.06-0.88l5.25-6.04c0.23-0.26,0.62-0.29,0.88-0.06
		c0.26,0.23,0.29,0.62,0.06,0.88l-5.25,6.04C89.74,125.73,89.57,125.8,89.39,125.8z M152.96,122.88c-0.02,0-0.04,0-0.06,0
		c-0.34-0.03-0.6-0.34-0.56-0.68l0.77-7.96c0.03-0.34,0.34-0.59,0.68-0.56c0.34,0.03,0.6,0.34,0.56,0.68l-0.77,7.96
		C153.55,122.63,153.27,122.88,152.96,122.88z M95.95,118.25c-0.15,0-0.29-0.05-0.41-0.15c-0.26-0.23-0.29-0.62-0.06-0.88l5.25-6.04
		c0.23-0.26,0.62-0.29,0.88-0.06c0.26,0.23,0.29,0.62,0.06,0.88l-5.25,6.04C96.3,118.18,96.13,118.25,95.95,118.25z M153.92,112.92
		c-0.02,0-0.04,0-0.06,0c-0.34-0.03-0.6-0.34-0.56-0.68l0.77-7.96c0.03-0.34,0.34-0.6,0.68-0.56c0.34,0.03,0.6,0.34,0.56,0.68
		l-0.77,7.96C154.51,112.68,154.24,112.92,153.92,112.92z M102.51,110.7c-0.15,0-0.29-0.05-0.41-0.15
		c-0.26-0.23-0.29-0.62-0.06-0.88l5.25-6.04c0.23-0.26,0.62-0.29,0.88-0.06c0.26,0.23,0.29,0.62,0.06,0.88l-5.25,6.04
		C102.86,110.63,102.68,110.7,102.51,110.7z M109.07,103.15c-0.15,0-0.29-0.05-0.41-0.15c-0.26-0.23-0.29-0.62-0.06-0.88l5.25-6.04
		c0.23-0.26,0.62-0.29,0.88-0.06c0.26,0.23,0.29,0.62,0.06,0.88l-5.25,6.04C109.42,103.08,109.24,103.15,109.07,103.15z
		 M154.88,102.97c-0.02,0-0.04,0-0.06,0c-0.34-0.03-0.6-0.34-0.56-0.68l0.77-7.96c0.03-0.34,0.34-0.59,0.68-0.56
		c0.34,0.03,0.6,0.34,0.56,0.68l-0.77,7.96C155.47,102.73,155.2,102.97,154.88,102.97z M115.63,95.61c-0.15,0-0.29-0.05-0.41-0.15
		c-0.26-0.23-0.29-0.62-0.06-0.88l5.25-6.04c0.23-0.26,0.62-0.29,0.88-0.06c0.26,0.23,0.29,0.62,0.06,0.88l-5.25,6.04
		C115.98,95.53,115.8,95.61,115.63,95.61z M155.85,93.02c-0.02,0-0.04,0-0.06,0c-0.34-0.03-0.6-0.34-0.56-0.68l0.77-7.96
		c0.03-0.34,0.34-0.6,0.68-0.56c0.34,0.03,0.6,0.34,0.56,0.68l-0.77,7.96C156.44,92.77,156.17,93.02,155.85,93.02z M122.19,88.06
		c-0.15,0-0.29-0.05-0.41-0.15c-0.26-0.23-0.29-0.62-0.06-0.88l5.25-6.04c0.23-0.26,0.62-0.29,0.88-0.06
		c0.26,0.23,0.29,0.62,0.06,0.88l-5.25,6.04C122.53,87.98,122.36,88.06,122.19,88.06z M156.81,83.06c-0.02,0-0.04,0-0.06,0
		c-0.34-0.03-0.6-0.34-0.56-0.68l0.77-7.96c0.03-0.34,0.34-0.6,0.68-0.56c0.34,0.03,0.6,0.34,0.56,0.68l-0.77,7.96
		C157.4,82.82,157.13,83.06,156.81,83.06z M128.74,80.51c-0.15,0-0.29-0.05-0.41-0.15c-0.26-0.23-0.29-0.62-0.06-0.88l5.25-6.04
		c0.23-0.26,0.62-0.29,0.88-0.06c0.26,0.23,0.29,0.62,0.06,0.88l-5.25,6.04C129.09,80.44,128.92,80.51,128.74,80.51z M157.78,73.11
		c-0.02,0-0.04,0-0.06,0c-0.34-0.03-0.6-0.34-0.56-0.68l0.77-7.96c0.03-0.34,0.33-0.59,0.68-0.56c0.34,0.03,0.6,0.34,0.56,0.68
		l-0.77,7.96C158.37,72.87,158.09,73.11,157.78,73.11z M135.3,72.96c-0.15,0-0.29-0.05-0.41-0.15c-0.26-0.23-0.29-0.62-0.06-0.88
		l5.25-6.04c0.23-0.26,0.62-0.29,0.88-0.06c0.26,0.23,0.29,0.62,0.06,0.88l-5.25,6.04C135.65,72.89,135.48,72.96,135.3,72.96z
		 M141.86,65.41c-0.15,0-0.29-0.05-0.41-0.15c-0.26-0.23-0.29-0.62-0.06-0.88l5.25-6.04c0.23-0.26,0.62-0.29,0.88-0.06
		c0.26,0.23,0.29,0.62,0.06,0.88l-5.25,6.04C142.21,65.34,142.04,65.41,141.86,65.41z M158.74,63.16c-0.02,0-0.04,0-0.06,0
		c-0.34-0.03-0.6-0.34-0.56-0.68l0.77-7.96c0.03-0.34,0.34-0.6,0.68-0.56c0.34,0.03,0.6,0.34,0.56,0.68l-0.77,7.96
		C159.33,62.91,159.06,63.16,158.74,63.16z M148.42,57.86c-0.15,0-0.29-0.05-0.41-0.15c-0.26-0.23-0.29-0.62-0.06-0.88l5.25-6.04
		c0.23-0.26,0.62-0.29,0.88-0.06c0.26,0.23,0.29,0.62,0.06,0.88l-5.25,6.04C148.77,57.79,148.6,57.86,148.42,57.86z M159.7,53.2
		c-0.02,0-0.04,0-0.06,0c-0.34-0.03-0.6-0.34-0.56-0.68l0.72-7.42l-4.35,5.01c-0.23,0.26-0.62,0.29-0.88,0.06
		c-0.26-0.23-0.29-0.62-0.06-0.88l5.25-6.04c0.23-0.26,0.62-0.29,0.88-0.06c0.25,0.22,0.29,0.6,0.08,0.86
		c0.25,0.1,0.41,0.36,0.38,0.64l-0.77,7.96C160.29,52.96,160.02,53.2,159.7,53.2z"/>
	<path fill="none" stroke="#2E5291" stroke-width="2" stroke-miterlimit="10" d="M65.59,152.26c4.08-8.1,8.63-16.31,13.61-24.54
		c38.13-62.91,89.51-100.88,112.44-86.99s10.6,76.15-27.53,139.06c-6.9,11.39-14.18,22.02-21.61,31.72"/>
	<circle fill="#01A7DF" stroke="#1B75BB" stroke-miterlimit="10" cx="144.41" cy="212.81" r="5"/>
	<circle fill="#01A7DF" stroke="#1B75BB" stroke-miterlimit="10" cx="160.44" cy="43.32" r="5"/>
	<circle fill="#01A7DF" stroke="#1B75BB" stroke-miterlimit="10" cx="65.59" cy="152.39" r="5"/>
</g>
<g id="Text">
	<g>
		<path fill="#1E1E1E" d="M49.01,201.44h2.29v0.2h-0.11c-0.16,0-0.28,0.03-0.36,0.1c-0.08,0.07-0.12,0.16-0.12,0.26
			c0,0.14,0.06,0.33,0.18,0.58l1.2,2.48l1.1-2.72c0.06-0.15,0.09-0.29,0.09-0.44c0-0.06-0.01-0.11-0.04-0.15
			c-0.03-0.04-0.07-0.07-0.13-0.09c-0.06-0.02-0.17-0.03-0.32-0.03v-0.2h1.6v0.2c-0.13,0.01-0.23,0.04-0.31,0.09
			s-0.15,0.12-0.24,0.24c-0.03,0.05-0.09,0.19-0.18,0.41l-2,4.91c-0.19,0.48-0.45,0.84-0.76,1.08c-0.31,0.24-0.62,0.37-0.91,0.37
			c-0.21,0-0.38-0.06-0.52-0.18s-0.2-0.26-0.2-0.42c0-0.15,0.05-0.27,0.15-0.36c0.1-0.09,0.23-0.14,0.41-0.14
			c0.12,0,0.28,0.04,0.48,0.12c0.14,0.05,0.23,0.08,0.27,0.08c0.11,0,0.22-0.06,0.35-0.17c0.13-0.11,0.26-0.33,0.38-0.64l0.35-0.85
			l-1.77-3.71c-0.05-0.11-0.14-0.25-0.26-0.41c-0.09-0.13-0.16-0.21-0.22-0.25c-0.08-0.06-0.21-0.11-0.4-0.15V201.44z"/>
	</g>
	<g>
		<path fill="#1E1E1E" d="M45.85,229.97h2.31v0.2c-0.15,0-0.25,0.02-0.31,0.08c-0.06,0.05-0.09,0.12-0.09,0.2
			c0,0.09,0.06,0.22,0.19,0.4c0.04,0.06,0.1,0.15,0.18,0.27l0.35,0.56l0.4-0.56c0.26-0.35,0.39-0.58,0.39-0.67
			c0-0.08-0.03-0.14-0.09-0.19c-0.06-0.05-0.16-0.08-0.3-0.08v-0.2h1.67v0.2c-0.18,0.01-0.33,0.06-0.46,0.15
			c-0.18,0.12-0.42,0.39-0.72,0.79l-0.67,0.9l1.22,1.76c0.3,0.43,0.52,0.69,0.64,0.78c0.13,0.09,0.3,0.14,0.5,0.15v0.19h-2.32v-0.19
			c0.16,0,0.29-0.04,0.38-0.11c0.07-0.05,0.1-0.12,0.1-0.2s-0.11-0.29-0.34-0.62l-0.72-1.05l-0.79,1.05
			c-0.24,0.33-0.37,0.52-0.37,0.58c0,0.09,0.04,0.16,0.12,0.23c0.08,0.07,0.2,0.11,0.36,0.12v0.19h-1.61v-0.19
			c0.13-0.02,0.24-0.06,0.34-0.13c0.14-0.1,0.37-0.37,0.69-0.79l1.03-1.37l-0.93-1.35c-0.27-0.39-0.47-0.63-0.61-0.73
			c-0.15-0.1-0.33-0.15-0.55-0.15V229.97z"/>
	</g>
	<g>
		<path fill="#1E1E1E" d="M21.53,185.23l-0.06,1.51h-4.34v-0.19l3.27-4.35h-1.61c-0.35,0-0.57,0.02-0.68,0.07
			c-0.11,0.04-0.2,0.13-0.26,0.25c-0.1,0.18-0.15,0.4-0.17,0.67h-0.21l0.03-1.36h4.13v0.2l-3.3,4.36h1.79
			c0.38,0,0.63-0.03,0.77-0.09c0.13-0.06,0.24-0.17,0.32-0.33c0.06-0.11,0.11-0.36,0.15-0.73H21.53z"/>
	</g>
	<g id="Windows_Server_New">
	</g>
	<g>
		<rect x="122.08" y="10.86" fill="none" width="42.67" height="26.86"/>
		<path fill="#1E1E1E" d="M137.42,19.74h-0.98v-5.64c0-0.45,0.03-0.99,0.08-1.63h-0.02c-0.09,0.38-0.18,0.65-0.25,0.81l-2.87,6.46
			h-0.48l-2.87-6.41c-0.08-0.19-0.17-0.47-0.25-0.86h-0.02c0.03,0.34,0.05,0.88,0.05,1.65v5.63h-0.95v-8.4h1.3l2.58,5.86
			c0.2,0.45,0.33,0.79,0.39,1.01h0.04c0.17-0.46,0.3-0.8,0.4-1.03l2.63-5.84h1.23V19.74z"/>
		<path fill="#1E1E1E" d="M139.99,12.22c-0.17,0-0.32-0.06-0.44-0.18s-0.18-0.27-0.18-0.45s0.06-0.33,0.18-0.45s0.27-0.18,0.44-0.18
			c0.18,0,0.33,0.06,0.45,0.18s0.18,0.27,0.18,0.45c0,0.17-0.06,0.32-0.18,0.44S140.17,12.22,139.99,12.22z M140.46,19.74h-0.96v-6
			h0.96V19.74z"/>
		<path fill="#1E1E1E" d="M147.53,19.74h-0.96v-1.02h-0.02c-0.45,0.77-1.13,1.16-2.06,1.16c-0.75,0-1.36-0.27-1.81-0.81
			S142,17.81,142,16.88c0-0.99,0.25-1.79,0.75-2.38s1.17-0.9,2-0.9c0.82,0,1.42,0.32,1.8,0.97h0.02v-3.71h0.96V19.74z M146.57,17.03
			v-0.88c0-0.48-0.16-0.89-0.48-1.23s-0.73-0.5-1.22-0.5c-0.59,0-1.05,0.21-1.38,0.64s-0.5,1.02-0.5,1.78
			c0,0.69,0.16,1.24,0.48,1.64s0.75,0.6,1.3,0.6c0.54,0,0.97-0.19,1.3-0.58S146.57,17.62,146.57,17.03z"/>
		<path fill="#1E1E1E" d="M154.6,19.74h-0.96v-1.02h-0.02c-0.45,0.77-1.13,1.16-2.06,1.16c-0.75,0-1.36-0.27-1.81-0.81
			s-0.68-1.27-0.68-2.19c0-0.99,0.25-1.79,0.75-2.38s1.17-0.9,2-0.9c0.82,0,1.42,0.32,1.8,0.97h0.02v-3.71h0.96V19.74z
			 M153.63,17.03v-0.88c0-0.48-0.16-0.89-0.48-1.23s-0.73-0.5-1.22-0.5c-0.59,0-1.05,0.21-1.38,0.64s-0.5,1.02-0.5,1.78
			c0,0.69,0.16,1.24,0.48,1.64s0.75,0.6,1.3,0.6c0.54,0,0.97-0.19,1.3-0.58S153.63,17.62,153.63,17.03z"/>
		<path fill="#1E1E1E" d="M157.5,19.74h-0.96v-8.88h0.96V19.74z"/>
		<path fill="#1E1E1E" d="M164.27,16.98h-4.24c0.02,0.67,0.2,1.18,0.54,1.55s0.82,0.54,1.42,0.54c0.68,0,1.3-0.22,1.86-0.67v0.9
			c-0.53,0.38-1.22,0.57-2.09,0.57c-0.85,0-1.51-0.27-2-0.82s-0.73-1.31-0.73-2.3c0-0.93,0.26-1.69,0.79-2.28s1.19-0.88,1.97-0.88
			s1.39,0.25,1.82,0.76s0.64,1.21,0.64,2.12V16.98z M163.29,16.17c0-0.55-0.14-0.99-0.4-1.29s-0.63-0.46-1.1-0.46
			c-0.45,0-0.84,0.16-1.15,0.49s-0.51,0.75-0.59,1.27H163.29z"/>
		<path fill="#1E1E1E" d="M138.86,32.08h-0.02v3.63h-0.96v-8.76h0.96V28h0.02c0.47-0.8,1.16-1.2,2.07-1.2
			c0.77,0,1.38,0.27,1.81,0.81s0.65,1.26,0.65,2.16c0,1-0.24,1.81-0.73,2.41s-1.16,0.91-2,0.91
			C139.88,33.08,139.28,32.75,138.86,32.08z M138.83,29.66v0.84c0,0.5,0.16,0.92,0.48,1.26s0.73,0.52,1.23,0.52
			c0.58,0,1.04-0.22,1.37-0.67s0.5-1.06,0.5-1.86c0-0.67-0.15-1.19-0.46-1.57s-0.73-0.57-1.25-0.57c-0.56,0-1.01,0.19-1.35,0.58
			S138.83,29.07,138.83,29.66z"/>
		<path fill="#1E1E1E" d="M147.44,33.08c-0.89,0-1.59-0.28-2.12-0.84s-0.79-1.3-0.79-2.23c0-1.01,0.28-1.79,0.83-2.36
			s1.29-0.85,2.23-0.85c0.89,0,1.59,0.28,2.09,0.83s0.75,1.31,0.75,2.29c0,0.96-0.27,1.72-0.81,2.3S148.35,33.08,147.44,33.08z
			 M147.51,27.61c-0.62,0-1.11,0.21-1.46,0.63s-0.54,1-0.54,1.74c0,0.71,0.18,1.27,0.54,1.68s0.85,0.62,1.46,0.62
			c0.62,0,1.1-0.2,1.43-0.6s0.5-0.97,0.5-1.72c0-0.75-0.17-1.33-0.5-1.73S148.13,27.61,147.51,27.61z"/>
		<path fill="#1E1E1E" d="M152.45,25.42c-0.17,0-0.32-0.06-0.44-0.18s-0.18-0.27-0.18-0.45s0.06-0.33,0.18-0.45s0.27-0.18,0.44-0.18
			c0.18,0,0.33,0.06,0.45,0.18s0.18,0.27,0.18,0.45c0,0.17-0.06,0.32-0.18,0.44S152.63,25.42,152.45,25.42z M152.92,32.94h-0.96v-6
			h0.96V32.94z"/>
		<path fill="#1E1E1E" d="M159.85,32.94h-0.96v-3.42c0-1.27-0.46-1.91-1.39-1.91c-0.48,0-0.88,0.18-1.19,0.54s-0.47,0.82-0.47,1.37
			v3.42h-0.96v-6h0.96v1h0.02c0.45-0.76,1.11-1.14,1.97-1.14c0.66,0,1.16,0.21,1.51,0.64s0.52,1.04,0.52,1.84V32.94z"/>
		<path fill="#1E1E1E" d="M164.44,32.88c-0.23,0.13-0.53,0.19-0.9,0.19c-1.05,0-1.58-0.59-1.58-1.76v-3.55h-1.03v-0.82h1.03v-1.46
			l0.96-0.31v1.78h1.51v0.82h-1.51v3.38c0,0.4,0.07,0.69,0.21,0.86s0.36,0.26,0.68,0.26c0.24,0,0.45-0.07,0.63-0.2V32.88z"/>
	</g>
	<g>
		<rect x="12.79" y="133.96" fill="none" width="42.67" height="26.86"/>
		<path fill="#1E1E1E" d="M24.32,142.84h-4.45v-8.4h4.27v0.89h-3.28v2.79h3.04v0.88h-3.04v2.94h3.47V142.84z"/>
		<path fill="#1E1E1E" d="M30.79,142.84h-0.96v-3.42c0-1.27-0.46-1.91-1.39-1.91c-0.48,0-0.88,0.18-1.19,0.54s-0.47,0.82-0.47,1.37
			v3.42h-0.96v-6h0.96v1h0.02c0.45-0.76,1.11-1.14,1.97-1.14c0.66,0,1.16,0.21,1.51,0.64s0.52,1.04,0.52,1.84V142.84z"/>
		<path fill="#1E1E1E" d="M37.73,142.84h-0.96v-1.02h-0.02c-0.45,0.77-1.13,1.16-2.06,1.16c-0.75,0-1.36-0.27-1.81-0.81
			s-0.68-1.27-0.68-2.19c0-0.99,0.25-1.79,0.75-2.38s1.17-0.9,2-0.9c0.82,0,1.42,0.32,1.8,0.97h0.02v-3.71h0.96V142.84z
			 M36.76,140.13v-0.88c0-0.48-0.16-0.89-0.48-1.23s-0.73-0.5-1.22-0.5c-0.59,0-1.05,0.21-1.38,0.64s-0.5,1.02-0.5,1.78
			c0,0.69,0.16,1.24,0.48,1.64s0.75,0.6,1.3,0.6c0.54,0,0.97-0.19,1.3-0.58S36.76,140.72,36.76,140.13z"/>
		<path fill="#1E1E1E" d="M40.16,135.31c-0.17,0-0.32-0.06-0.44-0.18s-0.18-0.27-0.18-0.45s0.06-0.33,0.18-0.45s0.27-0.18,0.44-0.18
			c0.18,0,0.33,0.06,0.45,0.18s0.18,0.27,0.18,0.45c0,0.17-0.06,0.32-0.18,0.44S40.34,135.31,40.16,135.31z M40.63,142.84h-0.96v-6
			h0.96V142.84z"/>
		<path fill="#1E1E1E" d="M47.56,142.84H46.6v-3.42c0-1.27-0.46-1.91-1.39-1.91c-0.48,0-0.88,0.18-1.19,0.54s-0.47,0.82-0.47,1.37
			v3.42h-0.96v-6h0.96v1h0.02c0.45-0.76,1.11-1.14,1.97-1.14c0.66,0,1.16,0.21,1.51,0.64s0.52,1.04,0.52,1.84V142.84z"/>
		<path fill="#1E1E1E" d="M54.49,142.36c0,2.2-1.05,3.3-3.16,3.3c-0.74,0-1.39-0.14-1.95-0.42v-0.96c0.68,0.38,1.32,0.56,1.93,0.56
			c1.48,0,2.21-0.79,2.21-2.36v-0.66H53.5c-0.46,0.77-1.14,1.15-2.06,1.15c-0.75,0-1.35-0.27-1.8-0.8s-0.68-1.25-0.68-2.15
			c0-1.02,0.25-1.83,0.74-2.43s1.16-0.9,2.01-0.9c0.81,0,1.41,0.32,1.8,0.97h0.02v-0.83h0.96V142.36z M53.53,140.13v-0.88
			c0-0.48-0.16-0.88-0.48-1.22s-0.72-0.51-1.2-0.51c-0.59,0-1.06,0.22-1.39,0.65s-0.5,1.04-0.5,1.81c0,0.67,0.16,1.2,0.48,1.6
			s0.75,0.6,1.28,0.6c0.54,0,0.98-0.19,1.32-0.57S53.53,140.72,53.53,140.13z"/>
		<path fill="#1E1E1E" d="M29.57,155.17h-0.02v3.63h-0.96v-8.76h0.96v1.05h0.02c0.47-0.8,1.16-1.2,2.07-1.2
			c0.77,0,1.38,0.27,1.81,0.81s0.65,1.26,0.65,2.16c0,1-0.24,1.81-0.73,2.41s-1.16,0.91-2,0.91
			C30.59,156.18,29.99,155.84,29.57,155.17z M29.55,152.75v0.84c0,0.5,0.16,0.92,0.48,1.26s0.73,0.52,1.23,0.52
			c0.58,0,1.04-0.22,1.37-0.67s0.5-1.06,0.5-1.86c0-0.67-0.15-1.19-0.46-1.57s-0.73-0.57-1.25-0.57c-0.56,0-1.01,0.19-1.35,0.58
			S29.55,152.17,29.55,152.75z"/>
		<path fill="#1E1E1E" d="M38.15,156.18c-0.89,0-1.59-0.28-2.12-0.84s-0.79-1.3-0.79-2.23c0-1.01,0.28-1.79,0.83-2.36
			s1.29-0.85,2.23-0.85c0.89,0,1.59,0.28,2.09,0.83s0.75,1.31,0.75,2.29c0,0.96-0.27,1.72-0.81,2.3S39.06,156.18,38.15,156.18z
			 M38.22,150.71c-0.62,0-1.11,0.21-1.46,0.63s-0.54,1-0.54,1.74c0,0.71,0.18,1.27,0.54,1.68s0.85,0.62,1.46,0.62
			c0.62,0,1.1-0.2,1.43-0.6s0.5-0.97,0.5-1.72c0-0.75-0.17-1.33-0.5-1.73S38.84,150.71,38.22,150.71z"/>
		<path fill="#1E1E1E" d="M43.16,148.52c-0.17,0-0.32-0.06-0.44-0.18s-0.18-0.27-0.18-0.45s0.06-0.33,0.18-0.45s0.27-0.18,0.44-0.18
			c0.18,0,0.33,0.06,0.45,0.18s0.18,0.27,0.18,0.45c0,0.17-0.06,0.32-0.18,0.44S43.34,148.52,43.16,148.52z M43.63,156.04h-0.96v-6
			h0.96V156.04z"/>
		<path fill="#1E1E1E" d="M50.56,156.04H49.6v-3.42c0-1.27-0.46-1.91-1.39-1.91c-0.48,0-0.88,0.18-1.19,0.54s-0.47,0.82-0.47,1.37
			v3.42h-0.96v-6h0.96v1h0.02c0.45-0.76,1.11-1.14,1.97-1.14c0.66,0,1.16,0.21,1.51,0.64s0.52,1.04,0.52,1.84V156.04z"/>
		<path fill="#1E1E1E" d="M55.15,155.98c-0.23,0.13-0.53,0.19-0.9,0.19c-1.05,0-1.58-0.59-1.58-1.76v-3.55h-1.03v-0.82h1.03v-1.46
			l0.96-0.31v1.78h1.51v0.82h-1.51v3.38c0,0.4,0.07,0.69,0.21,0.86s0.36,0.26,0.68,0.26c0.24,0,0.45-0.07,0.63-0.2V155.98z"/>
	</g>
	<g>
		<rect x="154.44" y="207.38" fill="none" width="42.67" height="26.86"/>
		<path fill="#1E1E1E" d="M155.15,215.92v-1.16c0.13,0.12,0.29,0.22,0.48,0.32s0.38,0.17,0.59,0.24s0.41,0.11,0.62,0.15
			s0.4,0.05,0.57,0.05c0.61,0,1.06-0.11,1.36-0.34s0.45-0.55,0.45-0.97c0-0.23-0.05-0.42-0.15-0.59s-0.24-0.32-0.41-0.46
			s-0.38-0.27-0.62-0.4s-0.5-0.26-0.78-0.4c-0.29-0.15-0.57-0.3-0.82-0.45s-0.47-0.32-0.66-0.5s-0.33-0.39-0.44-0.62
			s-0.16-0.5-0.16-0.82c0-0.38,0.08-0.72,0.25-1s0.39-0.52,0.66-0.7s0.58-0.32,0.93-0.41s0.71-0.13,1.07-0.13
			c0.83,0,1.43,0.1,1.81,0.3v1.11c-0.5-0.34-1.13-0.52-1.91-0.52c-0.21,0-0.43,0.02-0.64,0.07s-0.41,0.12-0.57,0.22
			s-0.3,0.23-0.41,0.39s-0.16,0.36-0.16,0.59c0,0.21,0.04,0.4,0.12,0.56s0.2,0.3,0.35,0.43s0.35,0.25,0.57,0.38s0.48,0.25,0.78,0.4
			c0.3,0.15,0.59,0.3,0.86,0.47s0.51,0.35,0.71,0.54s0.36,0.42,0.48,0.66s0.18,0.52,0.18,0.83c0,0.41-0.08,0.76-0.24,1.05
			s-0.38,0.52-0.66,0.7s-0.59,0.31-0.95,0.39s-0.74,0.12-1.14,0.12c-0.13,0-0.3-0.01-0.49-0.03s-0.39-0.05-0.6-0.09
			s-0.4-0.09-0.58-0.15S155.25,215.99,155.15,215.92z"/>
		<path fill="#1E1E1E" d="M164.18,216.2c-0.23,0.13-0.53,0.19-0.9,0.19c-1.05,0-1.58-0.59-1.58-1.76v-3.55h-1.03v-0.82h1.03v-1.46
			l0.96-0.31v1.78h1.51v0.82h-1.51v3.38c0,0.4,0.07,0.69,0.21,0.86s0.36,0.26,0.68,0.26c0.24,0,0.45-0.07,0.63-0.2V216.2z"/>
		<path fill="#1E1E1E" d="M169.76,216.26h-0.96v-0.94h-0.02c-0.42,0.72-1.03,1.08-1.85,1.08c-0.6,0-1.07-0.16-1.4-0.47
			s-0.51-0.74-0.51-1.26c0-1.12,0.66-1.77,1.98-1.96l1.8-0.25c0-1.02-0.41-1.53-1.24-1.53c-0.72,0-1.38,0.25-1.96,0.74v-0.98
			c0.59-0.38,1.27-0.56,2.04-0.56c1.41,0,2.12,0.75,2.12,2.24V216.26z M168.8,213.22l-1.45,0.2c-0.45,0.06-0.78,0.17-1.01,0.33
			s-0.34,0.44-0.34,0.84c0,0.29,0.1,0.53,0.31,0.72s0.49,0.28,0.83,0.28c0.48,0,0.87-0.17,1.18-0.5s0.47-0.76,0.47-1.27V213.22z"/>
		<path fill="#1E1E1E" d="M174.7,211.23c-0.17-0.13-0.41-0.19-0.73-0.19c-0.41,0-0.75,0.19-1.03,0.58s-0.41,0.91-0.41,1.58v3.06
			h-0.96v-6h0.96v1.24h0.02c0.14-0.42,0.35-0.75,0.63-0.99s0.6-0.35,0.94-0.35c0.25,0,0.44,0.03,0.57,0.08V211.23z"/>
		<path fill="#1E1E1E" d="M178.52,216.2c-0.23,0.13-0.53,0.19-0.9,0.19c-1.05,0-1.58-0.59-1.58-1.76v-3.55h-1.03v-0.82h1.03v-1.46
			l0.96-0.31v1.78h1.51v0.82h-1.51v3.38c0,0.4,0.07,0.69,0.21,0.86s0.36,0.26,0.68,0.26c0.24,0,0.45-0.07,0.63-0.2V216.2z"/>
		<path fill="#1E1E1E" d="M180.3,208.73c-0.17,0-0.32-0.06-0.44-0.18s-0.18-0.27-0.18-0.45s0.06-0.33,0.18-0.45s0.27-0.18,0.44-0.18
			c0.18,0,0.33,0.06,0.45,0.18s0.18,0.27,0.18,0.45c0,0.17-0.06,0.32-0.18,0.44S180.48,208.73,180.3,208.73z M180.77,216.26h-0.96
			v-6h0.96V216.26z"/>
		<path fill="#1E1E1E" d="M187.69,216.26h-0.96v-3.42c0-1.27-0.46-1.91-1.39-1.91c-0.48,0-0.88,0.18-1.19,0.54s-0.47,0.82-0.47,1.37
			v3.42h-0.96v-6h0.96v1h0.02c0.45-0.76,1.11-1.14,1.97-1.14c0.66,0,1.16,0.21,1.51,0.64s0.52,1.04,0.52,1.84V216.26z"/>
		<path fill="#1E1E1E" d="M194.63,215.78c0,2.2-1.05,3.3-3.16,3.3c-0.74,0-1.39-0.14-1.95-0.42v-0.96c0.68,0.38,1.32,0.56,1.93,0.56
			c1.48,0,2.21-0.79,2.21-2.36v-0.66h-0.02c-0.46,0.77-1.14,1.15-2.06,1.15c-0.75,0-1.35-0.27-1.8-0.8s-0.68-1.25-0.68-2.15
			c0-1.02,0.25-1.83,0.74-2.43s1.16-0.9,2.01-0.9c0.81,0,1.41,0.32,1.8,0.97h0.02v-0.83h0.96V215.78z M193.66,213.54v-0.88
			c0-0.48-0.16-0.88-0.48-1.22s-0.72-0.51-1.2-0.51c-0.59,0-1.06,0.22-1.39,0.65s-0.5,1.04-0.5,1.81c0,0.67,0.16,1.2,0.48,1.6
			s0.75,0.6,1.28,0.6c0.54,0,0.98-0.19,1.32-0.57S193.66,214.14,193.66,213.54z"/>
		<path fill="#1E1E1E" d="M156.39,228.59h-0.02v3.63h-0.96v-8.76h0.96v1.05h0.02c0.47-0.8,1.16-1.2,2.07-1.2
			c0.77,0,1.38,0.27,1.81,0.81s0.65,1.26,0.65,2.16c0,1-0.24,1.81-0.73,2.41s-1.16,0.91-2,0.91
			C157.41,229.6,156.81,229.26,156.39,228.59z M156.37,226.17v0.84c0,0.5,0.16,0.92,0.48,1.26s0.73,0.52,1.23,0.52
			c0.58,0,1.04-0.22,1.37-0.67s0.5-1.06,0.5-1.86c0-0.67-0.15-1.19-0.46-1.57s-0.73-0.57-1.25-0.57c-0.56,0-1.01,0.19-1.35,0.58
			S156.37,225.58,156.37,226.17z"/>
		<path fill="#1E1E1E" d="M164.97,229.6c-0.89,0-1.59-0.28-2.12-0.84s-0.79-1.3-0.79-2.23c0-1.01,0.28-1.79,0.83-2.36
			s1.29-0.85,2.23-0.85c0.89,0,1.59,0.28,2.09,0.83s0.75,1.31,0.75,2.29c0,0.96-0.27,1.72-0.81,2.3S165.88,229.6,164.97,229.6z
			 M165.04,224.13c-0.62,0-1.11,0.21-1.46,0.63s-0.54,1-0.54,1.74c0,0.71,0.18,1.27,0.54,1.68s0.85,0.62,1.46,0.62
			c0.62,0,1.1-0.2,1.43-0.6s0.5-0.97,0.5-1.72c0-0.75-0.17-1.33-0.5-1.73S165.66,224.13,165.04,224.13z"/>
		<path fill="#1E1E1E" d="M169.99,221.93c-0.17,0-0.32-0.06-0.44-0.18s-0.18-0.27-0.18-0.45s0.06-0.33,0.18-0.45
			s0.27-0.18,0.44-0.18c0.18,0,0.33,0.06,0.45,0.18s0.18,0.27,0.18,0.45c0,0.17-0.06,0.32-0.18,0.44S170.16,221.93,169.99,221.93z
			 M170.46,229.46h-0.96v-6h0.96V229.46z"/>
		<path fill="#1E1E1E" d="M177.38,229.46h-0.96v-3.42c0-1.27-0.46-1.91-1.39-1.91c-0.48,0-0.88,0.18-1.19,0.54s-0.47,0.82-0.47,1.37
			v3.42h-0.96v-6h0.96v1h0.02c0.45-0.76,1.11-1.14,1.97-1.14c0.66,0,1.16,0.21,1.51,0.64s0.52,1.04,0.52,1.84V229.46z"/>
		<path fill="#1E1E1E" d="M181.98,229.4c-0.23,0.13-0.53,0.19-0.9,0.19c-1.05,0-1.58-0.59-1.58-1.76v-3.55h-1.03v-0.82h1.03v-1.46
			l0.96-0.31v1.78h1.51v0.82h-1.51v3.38c0,0.4,0.07,0.69,0.21,0.86s0.36,0.26,0.68,0.26c0.24,0,0.45-0.07,0.63-0.2V229.4z"/>
	</g>
</g>
<g id="writer_source" display="none">
	
		<image display="inline" overflow="visible" width="203" height="233" xlink:href="../../trt/package_Images_Geo_P1/To Do/image1191233038_SRC.jpg"  transform="matrix(1 0 0 1 283.8084 7.5)">
	</image>
</g>
</svg>
