<?xml version="1.0" encoding="utf-8"?>
<!-- Generator: Adobe Illustrator 23.0.3, SVG Export Plug-In . SVG Version: 6.00 Build 0)  -->
<svg version="1.1" xmlns="http://www.w3.org/2000/svg" xmlns:xlink="http://www.w3.org/1999/xlink" x="0px" y="0px"
	 width="322.98px" height="146.78px" viewBox="0 0 322.98 146.78" enable-background="new 0 0 322.98 146.78" xml:space="preserve">
<g id="Shapes">
	<g>
		<polygon opacity="0.5" fill="#D5DCE9" points="182.34,23.85 195.47,72.09 247.51,49.97 320.48,74.59 320.48,32.1 232.86,2.5 		"/>
		<polygon fill="none" stroke="#8297BD" stroke-linecap="round" stroke-linejoin="round" points="182.34,23.85 195.47,72.09 
			247.51,49.97 320.48,74.59 320.48,32.1 232.86,2.5 		"/>
	</g>
	<g id="Wrench_tool_x28_s_x29_">
	</g>
	<g id="user2">
	</g>
	<g id="user2_1_">
	</g>
	<g id="user2_4_">
	</g>
	<g id="user2_3_">
	</g>
	<g id="user2_2_">
	</g>
	<g id="Internet_2">
	</g>
	<g id="Enterprise">
	</g>
	<g id="Tunnel__x28_stackable_x29_">
	</g>
	<g id="New_Symbol">
	</g>
	<g id="New_Symbol_1">
	</g>
	<g id="Files">
	</g>
	<g id="BlobBlock">
	</g>
	<g id="E_x5F_Enterprise">
	</g>
	<g id="E_x5F_AD_FS">
	</g>
	<g id="C_x5F_Azure_Active_Directory">
	</g>
	<g id="Layer_22">
	</g>
	<g>
		<g>
			<polygon opacity="0.5" fill="#D5DCE9" points="6.15,23.85 19.27,72.09 71.32,49.97 144.29,74.59 144.29,32.1 56.67,2.5 			"/>
			<polygon fill="none" stroke="#8297BD" stroke-linecap="round" stroke-linejoin="round" points="6.15,23.85 19.27,72.09 
				71.32,49.97 144.29,74.59 144.29,32.1 56.67,2.5 			"/>
		</g>
		<circle fill="#01A7DF" stroke="#1B75BB" stroke-miterlimit="10" cx="16.95" cy="63.57" r="2"/>
		<circle fill="#01A7DF" stroke="#1B75BB" stroke-miterlimit="10" cx="14.94" cy="56.88" r="2"/>
		<circle fill="#01A7DF" stroke="#1B75BB" stroke-miterlimit="10" cx="12.15" cy="46.35" r="2"/>
		<circle fill="#01A7DF" stroke="#1B75BB" stroke-miterlimit="10" cx="20.57" cy="17.75" r="2"/>
		<circle fill="#01A7DF" stroke="#1B75BB" stroke-miterlimit="10" cx="40.42" cy="9.37" r="2"/>
		<circle fill="#01A7DF" stroke="#1B75BB" stroke-miterlimit="10" cx="56.68" cy="2.5" r="2"/>
		<circle fill="#01A7DF" stroke="#1B75BB" stroke-miterlimit="10" cx="78.37" cy="9.83" r="2"/>
		<circle fill="#01A7DF" stroke="#1B75BB" stroke-miterlimit="10" cx="102.15" cy="17.85" r="2"/>
		<circle fill="#01A7DF" stroke="#1B75BB" stroke-miterlimit="10" cx="126.25" cy="25.99" r="2"/>
		<circle fill="#01A7DF" stroke="#1B75BB" stroke-miterlimit="10" cx="144.29" cy="32.1" r="2"/>
		<circle fill="#01A7DF" stroke="#1B75BB" stroke-miterlimit="10" cx="144.29" cy="50.47" r="2"/>
		<circle fill="#01A7DF" stroke="#1B75BB" stroke-miterlimit="10" cx="144.29" cy="57.71" r="2"/>
		<circle fill="#01A7DF" stroke="#1B75BB" stroke-miterlimit="10" cx="144.29" cy="64.95" r="2"/>
		<circle fill="#01A7DF" stroke="#1B75BB" stroke-miterlimit="10" cx="144.29" cy="70.08" r="2"/>
		<circle fill="#01A7DF" stroke="#1B75BB" stroke-miterlimit="10" cx="144.29" cy="74.59" r="2"/>
		<circle fill="#01A7DF" stroke="#1B75BB" stroke-miterlimit="10" cx="125.75" cy="68.33" r="2"/>
		<circle fill="#01A7DF" stroke="#1B75BB" stroke-miterlimit="10" cx="105.3" cy="61.44" r="2"/>
		<circle fill="#01A7DF" stroke="#1B75BB" stroke-miterlimit="10" cx="84.71" cy="54.49" r="2"/>
		<circle fill="#01A7DF" stroke="#1B75BB" stroke-miterlimit="10" cx="71.32" cy="49.94" r="2"/>
		<circle fill="#01A7DF" stroke="#1B75BB" stroke-miterlimit="10" cx="53.89" cy="57.3" r="2"/>
		<circle fill="#01A7DF" stroke="#1B75BB" stroke-miterlimit="10" cx="33.92" cy="65.93" r="2"/>
		<circle fill="#01A7DF" stroke="#1B75BB" stroke-miterlimit="10" cx="6.15" cy="23.83" r="2"/>
		<circle fill="#01A7DF" stroke="#1B75BB" stroke-miterlimit="10" cx="18.15" cy="67.87" r="2"/>
		<circle fill="#01A7DF" stroke="#1B75BB" stroke-miterlimit="10" cx="19.28" cy="72.09" r="2"/>
	</g>
	<line fill="none" stroke="#5875A7" x1="196.77" y1="17.85" x2="210" y2="65.91"/>
	<line fill="none" stroke="#5875A7" x1="216.61" y1="9.37" x2="229.9" y2="57.46"/>
	<line fill="none" stroke="#5875A7" x1="232.87" y1="2.5" x2="247.51" y2="49.97"/>
	<line fill="none" stroke="#5875A7" x1="254.56" y1="9.83" x2="260.9" y2="54.49"/>
	<line fill="none" stroke="#5875A7" x1="278.34" y1="17.86" x2="281.48" y2="61.44"/>
	<line fill="none" stroke="#5875A7" x1="302.45" y1="26.01" x2="301.92" y2="68.33"/>
	<polyline fill="none" stroke="#6D86B2" points="188.46,46.35 239.5,23.99 320.48,50.47 	"/>
	<polyline fill="none" stroke="#6D86B2" points="191.14,56.2 242.3,33.08 320.48,57.71 	"/>
	<polyline fill="none" stroke="#6D86B2" points="192.99,63.07 244.63,40.63 320.48,64.95 	"/>
	<polyline fill="none" stroke="#6D86B2" points="194.37,68.05 246.1,45.4 320.48,70.09 	"/>
	<g>
		<rect x="142.29" y="114.43" opacity="0.5" fill="#D5DCE9" width="52.05" height="31.85"/>
		
			<rect x="142.29" y="114.43" fill="none" stroke="#8297BD" stroke-linecap="round" stroke-linejoin="round" width="52.05" height="31.85"/>
	</g>
</g>
<g id="dots">
	<circle fill="#01A7DF" stroke="#1B75BB" stroke-miterlimit="10" cx="192.99" cy="63.05" r="2"/>
	<circle fill="#01A7DF" stroke="#1B75BB" stroke-miterlimit="10" cx="191.14" cy="56.22" r="2"/>
	<circle fill="#01A7DF" stroke="#1B75BB" stroke-miterlimit="10" cx="188.46" cy="46.35" r="2"/>
	<circle fill="#01A7DF" stroke="#1B75BB" stroke-miterlimit="10" cx="196.74" cy="17.75" r="2"/>
	<circle fill="#01A7DF" stroke="#1B75BB" stroke-miterlimit="10" cx="216.61" cy="9.37" r="2"/>
	<circle fill="#01A7DF" stroke="#1B75BB" stroke-miterlimit="10" cx="232.87" cy="2.5" r="2"/>
	<circle fill="#01A7DF" stroke="#1B75BB" stroke-miterlimit="10" cx="254.56" cy="9.83" r="2"/>
	<circle fill="#01A7DF" stroke="#1B75BB" stroke-miterlimit="10" cx="278.34" cy="17.85" r="2"/>
	<circle fill="#01A7DF" stroke="#1B75BB" stroke-miterlimit="10" cx="302.45" cy="25.99" r="2"/>
	<circle fill="#01A7DF" stroke="#1B75BB" stroke-miterlimit="10" cx="320.48" cy="32.1" r="2"/>
	<circle fill="#01A7DF" stroke="#1B75BB" stroke-miterlimit="10" cx="320.48" cy="50.47" r="2"/>
	<circle fill="#01A7DF" stroke="#1B75BB" stroke-miterlimit="10" cx="320.48" cy="57.71" r="2"/>
	<circle fill="#01A7DF" stroke="#1B75BB" stroke-miterlimit="10" cx="320.48" cy="64.95" r="2"/>
	<circle fill="#01A7DF" stroke="#1B75BB" stroke-miterlimit="10" cx="320.48" cy="70.08" r="2"/>
	<circle fill="#01A7DF" stroke="#1B75BB" stroke-miterlimit="10" cx="320.48" cy="74.59" r="2"/>
	<circle fill="#01A7DF" stroke="#1B75BB" stroke-miterlimit="10" cx="301.95" cy="68.33" r="2"/>
	<circle fill="#01A7DF" stroke="#1B75BB" stroke-miterlimit="10" cx="281.49" cy="61.44" r="2"/>
	<circle fill="#01A7DF" stroke="#1B75BB" stroke-miterlimit="10" cx="260.91" cy="54.51" r="2"/>
	<circle fill="#01A7DF" stroke="#1B75BB" stroke-miterlimit="10" cx="247.51" cy="49.94" r="2"/>
	<circle fill="#01A7DF" stroke="#1B75BB" stroke-miterlimit="10" cx="229.9" cy="57.44" r="2"/>
	<circle fill="#01A7DF" stroke="#1B75BB" stroke-miterlimit="10" cx="210.01" cy="65.93" r="2"/>
	<circle fill="#01A7DF" stroke="#1B75BB" stroke-miterlimit="10" cx="182.34" cy="23.83" r="2"/>
	<circle fill="#01A7DF" stroke="#1B75BB" stroke-miterlimit="10" cx="194.34" cy="68.09" r="2"/>
	<circle fill="#01A7DF" stroke="#1B75BB" stroke-miterlimit="10" cx="195.48" cy="72.09" r="2"/>
	<g>
		<g>
			<path fill="none" stroke="#000000" stroke-linecap="round" stroke-linejoin="round" d="M55.89,64.95c0,0,22.52,52.89,63.04,59.85
				"/>
			<g>
				<polygon points="116.68,127.39 127.75,125.55 117.25,121.61 				"/>
			</g>
		</g>
	</g>
	<g>
		<g>
			<path fill="none" stroke="#000000" stroke-linecap="round" stroke-linejoin="round" d="M274.36,72.89
				c-8.83,16.44-32.34,52.67-67.95,52.67"/>
			<g>
				<polygon points="270.83,73.34 278.28,64.95 276.03,75.94 				"/>
			</g>
		</g>
	</g>
</g>
<g id="Text">
	<g id="Windows_Server_New">
	</g>
	<g>
		<path fill="#1E1E1E" d="M2.09,15.46v3.18H1.1v-8.4h2.31c0.9,0,1.59,0.22,2.09,0.66s0.74,1.05,0.74,1.85s-0.27,1.45-0.82,1.96
			s-1.29,0.76-2.22,0.76H2.09z M2.09,11.12v3.45h1.03c0.68,0,1.2-0.16,1.56-0.47s0.54-0.75,0.54-1.32c0-1.11-0.66-1.66-1.97-1.66
			H2.09z"/>
		<path fill="#1E1E1E" d="M10.96,18.63H10v-7.26c-0.07,0.07-0.18,0.16-0.33,0.25s-0.3,0.19-0.48,0.28s-0.37,0.18-0.56,0.26
			s-0.39,0.15-0.58,0.19V11.4c0.21-0.06,0.43-0.14,0.67-0.24s0.47-0.21,0.7-0.33s0.44-0.25,0.65-0.39s0.38-0.27,0.53-0.4h0.36V18.63
			z"/>
	</g>
	<g>
		<path fill="#1E1E1E" d="M16.23,84.15v3.18h-0.98v-8.4h2.31c0.9,0,1.59,0.22,2.09,0.66s0.74,1.05,0.74,1.85s-0.27,1.45-0.82,1.96
			s-1.29,0.76-2.22,0.76H16.23z M16.23,79.82v3.45h1.03c0.68,0,1.2-0.16,1.56-0.47s0.54-0.75,0.54-1.32c0-1.11-0.66-1.66-1.97-1.66
			H16.23z"/>
		<path fill="#1E1E1E" d="M25.85,78.93v5.55h1.08v0.88h-1.08v1.97H24.9v-1.97h-3.95v-0.83c0.37-0.41,0.74-0.86,1.11-1.33
			s0.73-0.95,1.08-1.43s0.66-0.97,0.95-1.45s0.54-0.94,0.74-1.39H25.85z M22.03,84.48h2.87v-4.11c-0.29,0.51-0.57,0.97-0.83,1.37
			s-0.51,0.77-0.75,1.1s-0.46,0.63-0.68,0.89S22.22,84.24,22.03,84.48z"/>
	</g>
	<g>
		<path fill="#1E1E1E" d="M140.26,85.56v3.18h-0.98v-8.4h2.31c0.9,0,1.59,0.22,2.09,0.66s0.74,1.05,0.74,1.85s-0.27,1.45-0.82,1.96
			s-1.29,0.76-2.22,0.76H140.26z M140.26,81.22v3.45h1.03c0.68,0,1.2-0.16,1.56-0.47s0.54-0.75,0.54-1.32
			c0-1.11-0.66-1.66-1.97-1.66H140.26z"/>
		<path fill="#1E1E1E" d="M150.48,86.36c0,0.38-0.07,0.72-0.21,1.03s-0.34,0.58-0.6,0.8s-0.57,0.39-0.93,0.51s-0.76,0.18-1.2,0.18
			c-0.8,0-1.44-0.15-1.91-0.46v-1.03c0.57,0.45,1.21,0.67,1.95,0.67c0.29,0,0.56-0.04,0.79-0.11s0.44-0.18,0.61-0.32
			s0.3-0.31,0.39-0.51s0.14-0.42,0.14-0.67c0-1.1-0.78-1.65-2.34-1.65h-0.7v-0.81h0.66c1.38,0,2.07-0.52,2.07-1.55
			c0-0.95-0.53-1.43-1.58-1.43c-0.59,0-1.15,0.2-1.67,0.6v-0.93c0.54-0.32,1.17-0.48,1.91-0.48c0.35,0,0.67,0.05,0.96,0.15
			s0.53,0.23,0.73,0.41s0.36,0.39,0.47,0.63s0.17,0.52,0.17,0.81c0,1.11-0.56,1.82-1.68,2.13v0.02c0.29,0.03,0.55,0.1,0.79,0.21
			s0.45,0.25,0.63,0.42s0.31,0.37,0.41,0.61S150.48,86.08,150.48,86.36z"/>
	</g>
	<g>
		<path fill="#1E1E1E" d="M140.26,23.06v3.18h-0.98v-8.4h2.31c0.9,0,1.59,0.22,2.09,0.66s0.74,1.05,0.74,1.85s-0.27,1.45-0.82,1.96
			s-1.29,0.76-2.22,0.76H140.26z M140.26,18.72v3.45h1.03c0.68,0,1.2-0.16,1.56-0.47s0.54-0.75,0.54-1.32
			c0-1.11-0.66-1.66-1.97-1.66H140.26z"/>
		<path fill="#1E1E1E" d="M149.42,20.04c0-0.26-0.04-0.48-0.12-0.67s-0.19-0.35-0.33-0.48s-0.3-0.22-0.49-0.28s-0.39-0.09-0.61-0.09
			c-0.19,0-0.37,0.03-0.55,0.08s-0.35,0.12-0.52,0.21s-0.33,0.2-0.49,0.32s-0.31,0.26-0.44,0.42V18.5c0.27-0.26,0.57-0.46,0.91-0.6
			s0.74-0.21,1.22-0.21c0.34,0,0.66,0.05,0.96,0.15s0.55,0.25,0.76,0.44s0.38,0.43,0.51,0.71s0.18,0.6,0.18,0.97
			c0,0.33-0.04,0.63-0.11,0.9s-0.19,0.52-0.35,0.76s-0.35,0.47-0.58,0.69s-0.51,0.44-0.83,0.67c-0.39,0.28-0.72,0.52-0.98,0.72
			s-0.46,0.39-0.61,0.56s-0.26,0.35-0.32,0.52s-0.09,0.37-0.09,0.6h4.18v0.86h-5.19v-0.42c0-0.36,0.04-0.68,0.12-0.95
			s0.21-0.53,0.39-0.78s0.42-0.49,0.71-0.74s0.65-0.52,1.07-0.83c0.3-0.22,0.56-0.43,0.76-0.63s0.37-0.4,0.5-0.6s0.21-0.4,0.27-0.61
			S149.42,20.27,149.42,20.04z"/>
	</g>
</g>
<g id="writer_source" display="none">
	
		<image display="inline" overflow="visible" width="237" height="103" xlink:href="../../ImagesDocFluxEN/Images/image1056985043_SRC.jpg"  transform="matrix(1.6538 0 0 1.6538 -22.7547 -180.5818)">
	</image>
</g>
</svg>
