<?xml version="1.0" encoding="utf-8"?>
<!-- Generator: Adobe Illustrator 23.0.3, SVG Export Plug-In . SVG Version: 6.00 Build 0)  -->
<svg version="1.1" xmlns="http://www.w3.org/2000/svg" xmlns:xlink="http://www.w3.org/1999/xlink" x="0px" y="0px"
	 width="144.15px" height="174.57px" viewBox="0 0 144.15 174.57" enable-background="new 0 0 144.15 174.57" xml:space="preserve">
<g id="Shapes">
	<g id="Wrench_tool_x28_s_x29_">
	</g>
	<g id="user2">
	</g>
	<g id="user2_1_">
	</g>
	<g id="user2_4_">
	</g>
	<g id="user2_3_">
	</g>
	<g id="user2_2_">
	</g>
	<g id="Internet_2">
	</g>
	<g id="Enterprise">
	</g>
	<g id="Tunnel__x28_stackable_x29_">
	</g>
	<g id="New_Symbol">
	</g>
	<g id="New_Symbol_1">
	</g>
	<g id="Files">
	</g>
	<g id="BlobBlock">
	</g>
	<g id="E_x5F_Enterprise">
	</g>
	<g id="E_x5F_AD_FS">
	</g>
	<g id="C_x5F_Azure_Active_Directory">
	</g>
	<g id="Layer_22">
	</g>
	<g>
		<polygon fill="#43639C" points="140.15,127.21 94.45,100.23 94.45,71.03 140.15,98.02 		"/>
		<polygon fill="#43639C" points="94.45,100.23 19.28,143.58 19.28,114.1 94.45,71.03 		"/>
		<polygon fill="#43639C" points="64.98,170.59 140.15,127.21 94.45,100.23 19.27,143.59 		"/>
		<polygon opacity="0.7" fill="#D5DCE9" points="64.98,141.4 140.15,98.02 94.44,71.03 19.27,114.1 		"/>
		<polygon fill="#C0CBDE" points="64.98,170.59 19.28,143.61 19.28,114.1 64.98,141.4 		"/>
		<polygon fill="#96A8C8" points="140.12,127.21 64.98,170.59 64.98,141.4 140.15,98.02 		"/>
		<polyline fill="none" stroke="#191919" stroke-linecap="round" stroke-linejoin="round" points="64.98,141.41 140.15,98.02 
			94.45,71.03 19.28,114.14 		"/>
		<polyline fill="none" stroke="#191919" stroke-linecap="round" stroke-linejoin="round" points="64.98,170.59 140.15,127.21 
			140.15,98.02 		"/>
		<g>
			<path fill="#999999" d="M139.49,127.17c-0.04,0-0.09-0.01-0.13-0.03l-0.86-0.51c-0.12-0.07-0.16-0.22-0.09-0.34
				c0.07-0.12,0.23-0.16,0.34-0.09l0.86,0.51c0.12,0.07,0.16,0.22,0.09,0.34C139.66,127.13,139.57,127.17,139.49,127.17z
				 M136.9,125.65c-0.04,0-0.09-0.01-0.13-0.03l-0.86-0.51c-0.12-0.07-0.16-0.22-0.09-0.34c0.07-0.12,0.23-0.16,0.34-0.09l0.86,0.51
				c0.12,0.07,0.16,0.22,0.09,0.34C137.07,125.61,136.99,125.65,136.9,125.65z M134.32,124.12c-0.04,0-0.09-0.01-0.13-0.03
				l-0.86-0.51c-0.12-0.07-0.16-0.22-0.09-0.34c0.07-0.12,0.23-0.16,0.34-0.09l0.86,0.51c0.12,0.07,0.16,0.22,0.09,0.34
				C134.49,124.08,134.41,124.12,134.32,124.12z M131.74,122.6c-0.04,0-0.09-0.01-0.13-0.03l-0.86-0.51
				c-0.12-0.07-0.16-0.22-0.09-0.34c0.07-0.12,0.22-0.16,0.34-0.09l0.86,0.51c0.12,0.07,0.16,0.22,0.09,0.34
				C131.91,122.55,131.82,122.6,131.74,122.6z M129.15,121.07c-0.04,0-0.09-0.01-0.13-0.03l-0.86-0.51
				c-0.12-0.07-0.16-0.22-0.09-0.34c0.07-0.12,0.23-0.16,0.34-0.09l0.86,0.51c0.12,0.07,0.16,0.22,0.09,0.34
				C129.32,121.03,129.24,121.07,129.15,121.07z M126.57,119.55c-0.04,0-0.09-0.01-0.13-0.03l-0.86-0.51
				c-0.12-0.07-0.16-0.22-0.09-0.34c0.07-0.12,0.22-0.16,0.34-0.09l0.86,0.51c0.12,0.07,0.16,0.22,0.09,0.34
				C126.74,119.5,126.66,119.55,126.57,119.55z M123.99,118.02c-0.04,0-0.09-0.01-0.13-0.03l-0.86-0.51
				c-0.12-0.07-0.16-0.22-0.09-0.34c0.07-0.12,0.23-0.16,0.34-0.09l0.86,0.51c0.12,0.07,0.16,0.22,0.09,0.34
				C124.16,117.98,124.07,118.02,123.99,118.02z M121.41,116.5c-0.04,0-0.09-0.01-0.13-0.03l-0.86-0.51
				c-0.12-0.07-0.16-0.22-0.09-0.34c0.07-0.12,0.22-0.16,0.34-0.09l0.86,0.51c0.12,0.07,0.16,0.22,0.09,0.34
				C121.57,116.45,121.49,116.5,121.41,116.5z M118.82,114.97c-0.04,0-0.09-0.01-0.13-0.03l-0.86-0.51
				c-0.12-0.07-0.16-0.22-0.09-0.34c0.07-0.12,0.23-0.16,0.34-0.09l0.86,0.51c0.12,0.07,0.16,0.22,0.09,0.34
				C118.99,114.93,118.91,114.97,118.82,114.97z M116.24,113.44c-0.04,0-0.09-0.01-0.13-0.03l-0.86-0.51
				c-0.12-0.07-0.16-0.22-0.09-0.34c0.07-0.12,0.22-0.16,0.34-0.09l0.86,0.51c0.12,0.07,0.16,0.22,0.09,0.34
				C116.41,113.4,116.32,113.44,116.24,113.44z M113.66,111.92c-0.04,0-0.09-0.01-0.13-0.03l-0.86-0.51
				c-0.12-0.07-0.16-0.22-0.09-0.34c0.07-0.12,0.23-0.16,0.34-0.09l0.86,0.51c0.12,0.07,0.16,0.22,0.09,0.34
				C113.82,111.88,113.74,111.92,113.66,111.92z M111.07,110.39c-0.04,0-0.09-0.01-0.13-0.03l-0.86-0.51
				c-0.12-0.07-0.16-0.22-0.09-0.34c0.07-0.12,0.23-0.16,0.34-0.09l0.86,0.51c0.12,0.07,0.16,0.22,0.09,0.34
				C111.24,110.35,111.16,110.39,111.07,110.39z M108.49,108.87c-0.04,0-0.09-0.01-0.13-0.03l-0.86-0.51
				c-0.12-0.07-0.16-0.22-0.09-0.34c0.07-0.12,0.22-0.16,0.34-0.09l0.86,0.51c0.12,0.07,0.16,0.22,0.09,0.34
				C108.66,108.82,108.57,108.87,108.49,108.87z M105.91,107.34c-0.04,0-0.09-0.01-0.13-0.03l-0.86-0.51
				c-0.12-0.07-0.16-0.22-0.09-0.34c0.07-0.12,0.23-0.16,0.34-0.09l0.86,0.51c0.12,0.07,0.16,0.22,0.09,0.34
				C106.07,107.3,105.99,107.34,105.91,107.34z M103.32,105.82c-0.04,0-0.09-0.01-0.13-0.03l-0.86-0.51
				c-0.12-0.07-0.16-0.22-0.09-0.34c0.07-0.12,0.22-0.16,0.34-0.09l0.86,0.51c0.12,0.07,0.16,0.22,0.09,0.34
				C103.49,105.77,103.41,105.82,103.32,105.82z M100.74,104.29c-0.04,0-0.09-0.01-0.13-0.03l-0.86-0.51
				c-0.12-0.07-0.16-0.22-0.09-0.34c0.07-0.12,0.23-0.16,0.34-0.09l0.86,0.51c0.12,0.07,0.16,0.22,0.09,0.34
				C100.91,104.25,100.83,104.29,100.74,104.29z M98.16,102.77c-0.04,0-0.09-0.01-0.13-0.03l-0.86-0.51
				c-0.12-0.07-0.16-0.22-0.09-0.34c0.07-0.12,0.22-0.16,0.34-0.09l0.86,0.51c0.12,0.07,0.16,0.22,0.09,0.34
				C98.33,102.72,98.24,102.77,98.16,102.77z M95.57,101.24c-0.04,0-0.09-0.01-0.13-0.03l-0.86-0.51c-0.12-0.07-0.16-0.22-0.09-0.34
				c0.07-0.12,0.23-0.16,0.34-0.09l0.86,0.51c0.12,0.07,0.16,0.22,0.09,0.34C95.74,101.2,95.66,101.24,95.57,101.24z M94.38,98.92
				c-0.14,0-0.25-0.11-0.25-0.25v-1c0-0.14,0.11-0.25,0.25-0.25s0.25,0.11,0.25,0.25v1C94.63,98.81,94.52,98.92,94.38,98.92z
				 M94.38,95.92c-0.14,0-0.25-0.11-0.25-0.25v-1c0-0.14,0.11-0.25,0.25-0.25s0.25,0.11,0.25,0.25v1
				C94.63,95.81,94.52,95.92,94.38,95.92z M94.38,92.92c-0.14,0-0.25-0.11-0.25-0.25v-1c0-0.14,0.11-0.25,0.25-0.25
				s0.25,0.11,0.25,0.25v1C94.63,92.81,94.52,92.92,94.38,92.92z M94.38,89.92c-0.14,0-0.25-0.11-0.25-0.25v-1
				c0-0.14,0.11-0.25,0.25-0.25s0.25,0.11,0.25,0.25v1C94.63,89.81,94.52,89.92,94.38,89.92z M94.38,86.92
				c-0.14,0-0.25-0.11-0.25-0.25v-1c0-0.14,0.11-0.25,0.25-0.25s0.25,0.11,0.25,0.25v1C94.63,86.81,94.52,86.92,94.38,86.92z
				 M94.38,83.92c-0.14,0-0.25-0.11-0.25-0.25v-1c0-0.14,0.11-0.25,0.25-0.25s0.25,0.11,0.25,0.25v1
				C94.63,83.81,94.52,83.92,94.38,83.92z M94.38,80.92c-0.14,0-0.25-0.11-0.25-0.25v-1c0-0.14,0.11-0.25,0.25-0.25
				s0.25,0.11,0.25,0.25v1C94.63,80.81,94.52,80.92,94.38,80.92z M94.38,77.92c-0.14,0-0.25-0.11-0.25-0.25v-1
				c0-0.14,0.11-0.25,0.25-0.25s0.25,0.11,0.25,0.25v1C94.63,77.81,94.52,77.92,94.38,77.92z M94.38,74.92
				c-0.14,0-0.25-0.11-0.25-0.25v-1c0-0.14,0.11-0.25,0.25-0.25s0.25,0.11,0.25,0.25v1C94.63,74.81,94.52,74.92,94.38,74.92z"/>
			<path fill="#999999" d="M20.82,143c-0.09,0-0.17-0.04-0.22-0.13c-0.07-0.12-0.03-0.27,0.09-0.34l0.87-0.5
				c0.12-0.07,0.27-0.03,0.34,0.09c0.07,0.12,0.03,0.27-0.09,0.34l-0.87,0.5C20.91,142.99,20.87,143,20.82,143z M23.42,141.5
				c-0.09,0-0.17-0.04-0.22-0.13c-0.07-0.12-0.03-0.27,0.09-0.34l0.87-0.5c0.12-0.07,0.27-0.03,0.34,0.09
				c0.07,0.12,0.03,0.27-0.09,0.34l-0.87,0.5C23.51,141.49,23.47,141.5,23.42,141.5z M26.02,140c-0.09,0-0.17-0.04-0.22-0.13
				c-0.07-0.12-0.03-0.27,0.09-0.34l0.87-0.5c0.12-0.07,0.27-0.03,0.34,0.09c0.07,0.12,0.03,0.27-0.09,0.34l-0.87,0.5
				C26.11,139.99,26.06,140,26.02,140z M28.62,138.5c-0.09,0-0.17-0.04-0.22-0.13c-0.07-0.12-0.03-0.27,0.09-0.34l0.87-0.5
				c0.12-0.07,0.27-0.03,0.34,0.09c0.07,0.12,0.03,0.27-0.09,0.34l-0.87,0.5C28.71,138.49,28.66,138.5,28.62,138.5z M31.22,137
				c-0.09,0-0.17-0.04-0.22-0.13c-0.07-0.12-0.03-0.27,0.09-0.34l0.87-0.5c0.12-0.07,0.27-0.03,0.34,0.09
				c0.07,0.12,0.03,0.27-0.09,0.34l-0.87,0.5C31.3,136.99,31.26,137,31.22,137z M33.82,135.5c-0.09,0-0.17-0.04-0.22-0.13
				c-0.07-0.12-0.03-0.27,0.09-0.34l0.87-0.5c0.12-0.07,0.27-0.03,0.34,0.09c0.07,0.12,0.03,0.27-0.09,0.34l-0.87,0.5
				C33.9,135.49,33.86,135.5,33.82,135.5z M36.42,134.01c-0.09,0-0.17-0.04-0.22-0.13c-0.07-0.12-0.03-0.27,0.09-0.34l0.87-0.5
				c0.12-0.07,0.27-0.03,0.34,0.09c0.07,0.12,0.03,0.27-0.09,0.34l-0.87,0.5C36.5,133.99,36.46,134.01,36.42,134.01z M39.02,132.51
				c-0.09,0-0.17-0.04-0.22-0.13c-0.07-0.12-0.03-0.27,0.09-0.34l0.87-0.5c0.12-0.07,0.27-0.03,0.34,0.09
				c0.07,0.12,0.03,0.27-0.09,0.34l-0.87,0.5C39.1,132.5,39.06,132.51,39.02,132.51z M41.61,131.01c-0.09,0-0.17-0.04-0.22-0.13
				c-0.07-0.12-0.03-0.27,0.09-0.34l0.87-0.5c0.12-0.07,0.27-0.03,0.34,0.09c0.07,0.12,0.03,0.27-0.09,0.34l-0.87,0.5
				C41.7,131,41.66,131.01,41.61,131.01z M44.21,129.51c-0.09,0-0.17-0.04-0.22-0.13c-0.07-0.12-0.03-0.27,0.09-0.34l0.87-0.5
				c0.12-0.07,0.27-0.03,0.34,0.09c0.07,0.12,0.03,0.27-0.09,0.34l-0.87,0.5C44.3,129.5,44.26,129.51,44.21,129.51z M46.81,128.01
				c-0.09,0-0.17-0.04-0.22-0.13c-0.07-0.12-0.03-0.27,0.09-0.34l0.87-0.5c0.12-0.07,0.27-0.03,0.34,0.09
				c0.07,0.12,0.03,0.27-0.09,0.34l-0.87,0.5C46.9,128,46.85,128.01,46.81,128.01z M49.41,126.51c-0.09,0-0.17-0.04-0.22-0.13
				c-0.07-0.12-0.03-0.27,0.09-0.34l0.87-0.5c0.12-0.07,0.27-0.03,0.34,0.09c0.07,0.12,0.03,0.27-0.09,0.34l-0.87,0.5
				C49.5,126.5,49.45,126.51,49.41,126.51z M52.01,125.01c-0.09,0-0.17-0.04-0.22-0.13c-0.07-0.12-0.03-0.27,0.09-0.34l0.87-0.5
				c0.12-0.07,0.27-0.03,0.34,0.09c0.07,0.12,0.03,0.27-0.09,0.34l-0.87,0.5C52.09,125,52.05,125.01,52.01,125.01z M54.61,123.51
				c-0.09,0-0.17-0.04-0.22-0.13c-0.07-0.12-0.03-0.27,0.09-0.34l0.87-0.5c0.12-0.07,0.27-0.03,0.34,0.09
				c0.07,0.12,0.03,0.27-0.09,0.34l-0.87,0.5C54.69,123.5,54.65,123.51,54.61,123.51z M57.21,122.02c-0.09,0-0.17-0.04-0.22-0.13
				c-0.07-0.12-0.03-0.27,0.09-0.34l0.87-0.5c0.12-0.07,0.27-0.03,0.34,0.09c0.07,0.12,0.03,0.27-0.09,0.34l-0.87,0.5
				C57.29,122,57.25,122.02,57.21,122.02z M59.81,120.52c-0.09,0-0.17-0.04-0.22-0.13c-0.07-0.12-0.03-0.27,0.09-0.34l0.87-0.5
				c0.12-0.07,0.27-0.03,0.34,0.09c0.07,0.12,0.03,0.27-0.09,0.34l-0.87,0.5C59.89,120.51,59.85,120.52,59.81,120.52z M62.4,119.02
				c-0.09,0-0.17-0.04-0.22-0.13c-0.07-0.12-0.03-0.27,0.09-0.34l0.87-0.5c0.12-0.07,0.27-0.03,0.34,0.09s0.03,0.27-0.09,0.34
				l-0.87,0.5C62.49,119.01,62.45,119.02,62.4,119.02z M65,117.52c-0.09,0-0.17-0.04-0.22-0.13c-0.07-0.12-0.03-0.27,0.09-0.34
				l0.87-0.5c0.12-0.07,0.27-0.03,0.34,0.09c0.07,0.12,0.03,0.27-0.09,0.34l-0.87,0.5C65.09,117.51,65.05,117.52,65,117.52z
				 M67.6,116.02c-0.09,0-0.17-0.04-0.22-0.13c-0.07-0.12-0.03-0.27,0.09-0.34l0.87-0.5c0.12-0.07,0.27-0.03,0.34,0.09
				c0.07,0.12,0.03,0.27-0.09,0.34l-0.87,0.5C67.69,116.01,67.64,116.02,67.6,116.02z M70.2,114.52c-0.09,0-0.17-0.04-0.22-0.13
				c-0.07-0.12-0.03-0.27,0.09-0.34l0.87-0.5c0.12-0.07,0.27-0.03,0.34,0.09c0.07,0.12,0.03,0.27-0.09,0.34l-0.87,0.5
				C70.29,114.51,70.24,114.52,70.2,114.52z M72.8,113.02c-0.09,0-0.17-0.04-0.22-0.13c-0.07-0.12-0.03-0.27,0.09-0.34l0.87-0.5
				c0.12-0.07,0.27-0.03,0.34,0.09c0.07,0.12,0.03,0.27-0.09,0.34l-0.87,0.5C72.89,113.01,72.84,113.02,72.8,113.02z M75.4,111.52
				c-0.09,0-0.17-0.04-0.22-0.13c-0.07-0.12-0.03-0.27,0.09-0.34l0.87-0.5c0.12-0.07,0.27-0.03,0.34,0.09
				c0.07,0.12,0.03,0.27-0.09,0.34l-0.87,0.5C75.48,111.51,75.44,111.52,75.4,111.52z M78,110.03c-0.09,0-0.17-0.04-0.22-0.13
				c-0.07-0.12-0.03-0.27,0.09-0.34l0.87-0.5c0.12-0.07,0.27-0.03,0.34,0.09c0.07,0.12,0.03,0.27-0.09,0.34l-0.87,0.5
				C78.08,110.01,78.04,110.03,78,110.03z M80.6,108.53c-0.09,0-0.17-0.04-0.22-0.13c-0.07-0.12-0.03-0.27,0.09-0.34l0.87-0.5
				c0.12-0.07,0.27-0.03,0.34,0.09c0.07,0.12,0.03,0.27-0.09,0.34l-0.87,0.5C80.68,108.52,80.64,108.53,80.6,108.53z M83.2,107.03
				c-0.09,0-0.17-0.04-0.22-0.13c-0.07-0.12-0.03-0.27,0.09-0.34l0.87-0.5c0.12-0.07,0.27-0.03,0.34,0.09
				c0.07,0.12,0.03,0.27-0.09,0.34l-0.87,0.5C83.28,107.02,83.24,107.03,83.2,107.03z M85.79,105.53c-0.09,0-0.17-0.04-0.22-0.13
				c-0.07-0.12-0.03-0.27,0.09-0.34l0.87-0.5c0.12-0.07,0.27-0.03,0.34,0.09c0.07,0.12,0.03,0.27-0.09,0.34l-0.87,0.5
				C85.88,105.52,85.84,105.53,85.79,105.53z M88.39,104.03c-0.09,0-0.17-0.04-0.22-0.13c-0.07-0.12-0.03-0.27,0.09-0.34l0.87-0.5
				c0.12-0.07,0.27-0.03,0.34,0.09c0.07,0.12,0.03,0.27-0.09,0.34l-0.87,0.5C88.48,104.02,88.43,104.03,88.39,104.03z M90.99,102.53
				c-0.09,0-0.17-0.04-0.22-0.13c-0.07-0.12-0.03-0.27,0.09-0.34l0.87-0.5c0.12-0.07,0.27-0.03,0.34,0.09
				c0.07,0.12,0.03,0.27-0.09,0.34l-0.87,0.5C91.08,102.52,91.03,102.53,90.99,102.53z M93.59,101.03c-0.09,0-0.17-0.04-0.22-0.13
				c-0.07-0.12-0.03-0.27,0.09-0.34l0.87-0.5c0.12-0.07,0.27-0.03,0.34,0.09c0.07,0.12,0.03,0.27-0.09,0.34l-0.87,0.5
				C93.68,101.02,93.63,101.03,93.59,101.03z"/>
		</g>
		<polygon fill="none" stroke="#191919" stroke-linecap="round" stroke-linejoin="round" stroke-miterlimit="10" points="
			64.98,170.59 19.28,143.61 19.28,114.1 64.98,141.4 		"/>
	</g>
	<g>
		<polyline fill="none" stroke="#191919" stroke-linecap="round" stroke-linejoin="round" points="64.98,74.38 140.15,30.99 
			94.45,4 19.28,47.1 		"/>
		<polyline fill="none" stroke="#191919" stroke-linecap="round" stroke-linejoin="round" points="64.98,103.56 140.15,60.18 
			140.15,30.99 		"/>
		<g>
			<polyline fill="none" stroke="#000000" points="140.15,60.18 94.38,33.25 94.38,4 			"/>
			<line fill="none" stroke="#000000" x1="94.46" y1="33.25" x2="19.93" y2="76.23"/>
		</g>
		<polygon fill="none" stroke="#191919" stroke-linecap="round" stroke-linejoin="round" stroke-miterlimit="10" points="
			64.98,103.56 19.28,76.57 19.28,47.07 64.98,74.37 		"/>
		<g>
			<circle fill="#BBBDBF" stroke="#808184" stroke-miterlimit="10" cx="94.45" cy="4" r="3.5"/>
			<circle fill="#BBBDBF" stroke="#808184" stroke-miterlimit="10" cx="94.38" cy="33.25" r="3.5"/>
			<circle fill="#BBBDBF" stroke="#808184" stroke-miterlimit="10" cx="140.15" cy="30.99" r="3.5"/>
			<circle fill="#BBBDBF" stroke="#808184" stroke-miterlimit="10" cx="140.15" cy="60.15" r="3.5"/>
			<g>
				<circle fill="#BBBDBF" stroke="#808184" stroke-miterlimit="10" cx="19.28" cy="47.07" r="3.5"/>
				<circle fill="#BBBDBF" stroke="#808184" stroke-miterlimit="10" cx="19.28" cy="76.57" r="3.5"/>
			</g>
			<g>
				<circle fill="#BBBDBF" stroke="#808184" stroke-miterlimit="10" cx="64.98" cy="74.49" r="3.5"/>
				<circle fill="#BBBDBF" stroke="#808184" stroke-miterlimit="10" cx="64.98" cy="103.54" r="3.5"/>
			</g>
		</g>
	</g>
	<circle fill="#BBBDBF" stroke="#808184" stroke-miterlimit="10" cx="94.45" cy="71.03" r="3.5"/>
	<circle fill="#BBBDBF" stroke="#808184" stroke-miterlimit="10" cx="140.15" cy="98.02" r="3.5"/>
	<circle fill="#BBBDBF" stroke="#808184" stroke-miterlimit="10" cx="140.15" cy="127.18" r="3.5"/>
	<g>
		<circle fill="#BBBDBF" stroke="#808184" stroke-miterlimit="10" cx="19.28" cy="114.1" r="3.5"/>
		<circle fill="#BBBDBF" stroke="#808184" stroke-miterlimit="10" cx="19.28" cy="143.61" r="3.5"/>
	</g>
	<g>
		<circle fill="#BBBDBF" stroke="#808184" stroke-miterlimit="10" cx="64.98" cy="141.52" r="3.5"/>
		<circle fill="#BBBDBF" stroke="#808184" stroke-miterlimit="10" cx="64.98" cy="170.57" r="3.5"/>
	</g>
	<g>
		<g>
			
				<line fill="none" stroke="#000000" stroke-linecap="round" stroke-linejoin="round" x1="2.91" y1="147.11" x2="2.91" y2="86.49"/>
			<g>
				<polygon points="5.81,88.48 2.91,77.64 0,88.48 				"/>
			</g>
		</g>
	</g>
</g>
<g id="writer_source" display="none">
	
		<image display="inline" overflow="visible" width="93" height="98" xlink:href="../../trt/package_Images_Geo_P1/To Do/image1765282035_SRC.jpg"  transform="matrix(1.4635 0 0 1.4635 178.358 29.8071)">
	</image>
</g>
</svg>
