<?xml version="1.0" encoding="utf-8"?>
<!-- Generator: Adobe Illustrator 23.0.3, SVG Export Plug-In . SVG Version: 6.00 Build 0)  -->
<svg version="1.1" xmlns="http://www.w3.org/2000/svg" xmlns:xlink="http://www.w3.org/1999/xlink" x="0px" y="0px"
	 width="175.32px" height="121.96px" viewBox="0 0 175.32 121.96" enable-background="new 0 0 175.32 121.96" xml:space="preserve">
<g id="Shapes">
	<g id="Wrench_tool_x28_s_x29_">
	</g>
	<g id="user2">
	</g>
	<g id="user2_1_">
	</g>
	<g id="user2_4_">
	</g>
	<g id="user2_3_">
	</g>
	<g id="user2_2_">
	</g>
	<g id="Internet_2">
	</g>
	<g id="Enterprise">
	</g>
	<g id="Tunnel__x28_stackable_x29_">
	</g>
	<g id="New_Symbol">
	</g>
	<g id="New_Symbol_1">
	</g>
	<g id="Files">
	</g>
	<g id="BlobBlock">
	</g>
	<g id="E_x5F_Enterprise">
	</g>
	<g id="E_x5F_AD_FS">
	</g>
	<g id="C_x5F_Azure_Active_Directory">
	</g>
	<g id="Layer_22">
	</g>
	<g>
		<g enable-background="new    ">
			<g>
				<polygon fill="#546682" points="149.44,43.58 149.38,63.96 99.88,35.38 99.94,15 				"/>
			</g>
			<g>
				<polygon fill="#8B99B1" points="99.94,15 99.88,35.38 25.88,78.38 25.94,58 				"/>
			</g>
			<g>
				<polygon fill="#546682" points="73.13,101.58 73.07,121.96 0,79.77 0.06,59.39 				"/>
			</g>
			<g>
				<polygon fill="#8B99B1" points="175.32,42.19 175.27,62.57 73.07,121.96 73.13,101.58 				"/>
			</g>
			<g>
				<path fill="#A0ADC3" d="M102.25,0l73.07,42.19L73.13,101.58L0.06,59.39L102.25,0z M75.44,86.58l74-43L99.94,15l-74,43
					L75.44,86.58"/>
			</g>
		</g>
	</g>
</g>
<g id="writer_source" display="none">
	<g display="inline">
		<g>
			<g enable-background="new    ">
				<g>
					<polygon fill="#546682" points="493.17,10.88 493.12,31.26 443.62,2.68 443.67,-17.69 					"/>
				</g>
				<g>
					<polygon fill="#8B99B1" points="443.67,-17.69 443.62,2.68 369.62,45.69 369.67,25.31 					"/>
				</g>
				<g>
					<polygon fill="#546682" points="416.87,68.88 416.81,89.26 343.74,47.07 343.79,26.69 					"/>
				</g>
				<g>
					<polygon fill="#8B99B1" points="519.06,9.49 519,29.87 416.81,89.26 416.87,68.88 					"/>
				</g>
				<g>
					<path fill="#A0ADC3" d="M445.99-32.69l73.07,42.19L416.87,68.88l-73.07-42.19L445.99-32.69z M419.17,53.89l74-43l-49.5-28.58
						l-74,43L419.17,53.89"/>
				</g>
			</g>
		</g>
	</g>
	
		<image display="inline" overflow="visible" width="140" height="86" xlink:href="../../trt/package_Images_Geo_P1/To Do/image1496998699_src.jpg"  transform="matrix(0.9206 0 0 0.9206 379.9622 127.4986)">
	</image>
</g>
</svg>
