<?xml version="1.0" encoding="utf-8"?>
<!-- Generator: Adobe Illustrator 23.0.3, SVG Export Plug-In . SVG Version: 6.00 Build 0)  -->
<svg version="1.1" xmlns="http://www.w3.org/2000/svg" xmlns:xlink="http://www.w3.org/1999/xlink" x="0px" y="0px" width="265px"
	 height="99px" viewBox="0 0 265 99" enable-background="new 0 0 265 99" xml:space="preserve">
<g id="Shapes">
	<g id="Wrench_tool_x28_s_x29_">
	</g>
	<g id="user2">
	</g>
	<g id="user2_1_">
	</g>
	<g id="user2_4_">
	</g>
	<g id="user2_3_">
	</g>
	<g id="user2_2_">
	</g>
	<g id="Internet_2">
	</g>
	<g id="Enterprise">
	</g>
	<g id="Tunnel__x28_stackable_x29_">
	</g>
	<g id="New_Symbol">
	</g>
	<g id="New_Symbol_1">
	</g>
	<g id="Files">
	</g>
	<g id="BlobBlock">
	</g>
	<g id="E_x5F_Enterprise">
	</g>
	<g id="E_x5F_AD_FS">
	</g>
	<g id="C_x5F_Azure_Active_Directory">
	</g>
	<g id="Layer_22">
	</g>
	<g>
		<rect x="0.5" y="0.5" fill="#FFFFFF" width="264" height="98"/>
		<rect x="0.5" y="0.5" opacity="0.2" fill="#E5E5E5" width="264" height="98"/>
		<rect x="0.5" y="0.5" opacity="0.1" fill="none" stroke="#231F20" stroke-miterlimit="10" width="264" height="98"/>
	</g>
	<g>
		<g>
			
				<line fill="none" stroke="#000000" stroke-linecap="round" stroke-linejoin="round" x1="33.1" y1="75.1" x2="107.75" y2="22.83"/>
			<g>
				<polygon points="107.8,26.35 115.01,17.75 104.47,21.59 				"/>
			</g>
		</g>
	</g>
	<g>
		<path d="M93.31,73.28c-0.16,0-0.31-0.07-0.41-0.21c-0.16-0.23-0.1-0.54,0.12-0.7l0.82-0.57c0.22-0.16,0.54-0.1,0.7,0.12
			c0.16,0.23,0.1,0.54-0.12,0.7l-0.82,0.57C93.51,73.25,93.41,73.28,93.31,73.28z"/>
		<path d="M97.48,70.37c-0.16,0-0.31-0.07-0.41-0.21c-0.16-0.23-0.1-0.54,0.12-0.7l1.67-1.17c0.23-0.16,0.54-0.1,0.7,0.12
			c0.16,0.23,0.1,0.54-0.12,0.7l-1.67,1.17C97.68,70.34,97.58,70.37,97.48,70.37z M102.5,66.85c-0.16,0-0.31-0.07-0.41-0.21
			c-0.16-0.23-0.1-0.54,0.12-0.7l1.67-1.17c0.23-0.16,0.54-0.1,0.7,0.12c0.16,0.23,0.1,0.54-0.12,0.7l-1.67,1.17
			C102.7,66.82,102.6,66.85,102.5,66.85z M107.52,63.33c-0.16,0-0.31-0.07-0.41-0.21c-0.16-0.23-0.1-0.54,0.12-0.7l1.67-1.17
			c0.23-0.16,0.54-0.1,0.7,0.12c0.16,0.23,0.1,0.54-0.12,0.7l-1.67,1.17C107.72,63.3,107.62,63.33,107.52,63.33z M112.54,59.82
			c-0.16,0-0.31-0.07-0.41-0.21c-0.16-0.23-0.1-0.54,0.12-0.7l1.67-1.17c0.23-0.16,0.54-0.1,0.7,0.12c0.16,0.23,0.1,0.54-0.12,0.7
			l-1.67,1.17C112.74,59.79,112.64,59.82,112.54,59.82z M117.56,56.3c-0.16,0-0.31-0.07-0.41-0.21c-0.16-0.23-0.1-0.54,0.12-0.7
			l1.67-1.17c0.23-0.16,0.54-0.1,0.7,0.12c0.16,0.23,0.1,0.54-0.12,0.7l-1.67,1.17C117.76,56.27,117.66,56.3,117.56,56.3z
			 M122.59,52.79c-0.16,0-0.31-0.07-0.41-0.21c-0.16-0.23-0.1-0.54,0.12-0.7l1.67-1.17c0.22-0.16,0.54-0.1,0.7,0.12
			c0.16,0.23,0.1,0.54-0.12,0.7l-1.67,1.17C122.79,52.76,122.69,52.79,122.59,52.79z M127.61,49.27c-0.16,0-0.31-0.07-0.41-0.21
			c-0.16-0.23-0.1-0.54,0.12-0.7l1.67-1.17c0.22-0.16,0.54-0.1,0.7,0.12c0.16,0.23,0.1,0.54-0.12,0.7l-1.67,1.17
			C127.81,49.24,127.71,49.27,127.61,49.27z M132.63,45.75c-0.16,0-0.31-0.07-0.41-0.21c-0.16-0.23-0.1-0.54,0.12-0.7l1.67-1.17
			c0.23-0.16,0.54-0.1,0.7,0.12c0.16,0.23,0.1,0.54-0.12,0.7l-1.67,1.17C132.83,45.72,132.73,45.75,132.63,45.75z M137.65,42.24
			c-0.16,0-0.31-0.07-0.41-0.21c-0.16-0.23-0.1-0.54,0.12-0.7l1.67-1.17c0.23-0.16,0.54-0.1,0.7,0.12c0.16,0.23,0.1,0.54-0.12,0.7
			l-1.67,1.17C137.85,42.21,137.75,42.24,137.65,42.24z M142.67,38.72c-0.16,0-0.31-0.07-0.41-0.21c-0.16-0.23-0.1-0.54,0.12-0.7
			l1.67-1.17c0.23-0.16,0.54-0.1,0.7,0.12c0.16,0.23,0.1,0.54-0.12,0.7l-1.67,1.17C142.87,38.69,142.77,38.72,142.67,38.72z
			 M147.69,35.21c-0.16,0-0.31-0.07-0.41-0.21c-0.16-0.23-0.1-0.54,0.12-0.7l1.67-1.17c0.23-0.16,0.54-0.1,0.7,0.12
			c0.16,0.23,0.1,0.54-0.12,0.7l-1.67,1.17C147.89,35.18,147.79,35.21,147.69,35.21z M152.71,31.69c-0.16,0-0.31-0.07-0.41-0.21
			c-0.16-0.23-0.1-0.54,0.12-0.7l1.67-1.17c0.23-0.16,0.54-0.1,0.7,0.12c0.16,0.23,0.1,0.54-0.12,0.7L153,31.6
			C152.91,31.66,152.81,31.69,152.71,31.69z M157.74,28.17c-0.16,0-0.31-0.07-0.41-0.21c-0.16-0.23-0.1-0.54,0.12-0.7l1.67-1.17
			c0.23-0.16,0.54-0.1,0.7,0.12c0.16,0.23,0.1,0.54-0.12,0.7l-1.67,1.17C157.94,28.14,157.83,28.17,157.74,28.17z M162.76,24.66
			c-0.16,0-0.31-0.07-0.41-0.21c-0.16-0.23-0.1-0.54,0.12-0.7l1.67-1.17c0.23-0.16,0.54-0.1,0.7,0.12c0.16,0.23,0.1,0.54-0.12,0.7
			l-1.67,1.17C162.96,24.63,162.86,24.66,162.76,24.66z"/>
		<path d="M167.78,21.14c-0.16,0-0.31-0.07-0.41-0.21c-0.16-0.23-0.1-0.54,0.12-0.7l0.82-0.57c0.23-0.16,0.54-0.1,0.7,0.12
			c0.16,0.23,0.1,0.54-0.12,0.7l-0.82,0.57C167.98,21.11,167.88,21.14,167.78,21.14z"/>
		<g>
			<path fill="#FFFFFF" d="M95.64,75.74c-1.7,1.19-4.05,0.78-5.24-0.92c-1.19-1.7-0.78-4.05,0.92-5.24c1.7-1.19,4.05-0.78,5.24,0.92
				S97.34,74.55,95.64,75.74z"/>
			<path d="M95.93,76.15c1.92-1.35,2.39-4.01,1.05-5.93c-1.35-1.92-4.01-2.39-5.93-1.05c-1.92,1.35-2.39,4.01-1.05,5.93
				C91.34,77.03,94.01,77.5,95.93,76.15C97.85,74.8,94.01,77.5,95.93,76.15z M91.62,69.99c1.47-1.03,3.51-0.67,4.54,0.8
				c1.03,1.47,0.67,3.51-0.8,4.54c-1.47,1.03-3.51,0.67-4.54-0.8C89.79,73.06,90.14,71.02,91.62,69.99
				C93.09,68.96,90.14,71.02,91.62,69.99z"/>
		</g>
		<g>
			<path fill="#FFFFFF" d="M170.58,23.27c1.7-1.19,2.11-3.54,0.92-5.24c-1.19-1.7-3.54-2.11-5.24-0.92
				c-1.7,1.19-2.11,3.54-0.92,5.24S168.88,24.46,170.58,23.27z"/>
			<path d="M170.87,23.68c-1.92,1.35-4.59,0.88-5.93-1.05c-1.35-1.92-0.88-4.59,1.05-5.93c1.92-1.35,4.59-0.88,5.93,1.05
				C173.26,19.67,172.79,22.33,170.87,23.68C168.94,25.03,172.79,22.33,170.87,23.68z M166.55,17.52c-1.47,1.03-1.83,3.07-0.8,4.54
				c1.03,1.47,3.07,1.83,4.54,0.8c1.47-1.03,1.83-3.07,0.8-4.54C170.06,16.85,168.03,16.49,166.55,17.52
				C165.08,18.55,168.03,16.49,166.55,17.52z"/>
		</g>
	</g>
</g>
<g id="Text">
	<g id="Windows_Server_New">
	</g>
	<g>
		<path fill="#1E1E1E" d="M15.47,32.65h-2.43v7.51h-0.98v-7.51H9.64v-0.89h5.83V32.65z"/>
		<path fill="#1E1E1E" d="M18.74,35.14c-0.17-0.13-0.41-0.19-0.73-0.19c-0.41,0-0.75,0.19-1.03,0.58s-0.41,0.91-0.41,1.58v3.06
			h-0.96v-6h0.96v1.24h0.02c0.14-0.42,0.35-0.75,0.63-0.99s0.6-0.35,0.94-0.35c0.25,0,0.44,0.03,0.57,0.08V35.14z"/>
		<path fill="#1E1E1E" d="M24.08,40.16h-0.96v-0.94H23.1c-0.42,0.72-1.03,1.08-1.85,1.08c-0.6,0-1.07-0.16-1.4-0.47
			s-0.51-0.74-0.51-1.26c0-1.12,0.66-1.77,1.98-1.96l1.8-0.25c0-1.02-0.41-1.53-1.24-1.53c-0.72,0-1.38,0.25-1.96,0.74v-0.98
			c0.59-0.38,1.27-0.56,2.04-0.56c1.41,0,2.12,0.75,2.12,2.24V40.16z M23.12,37.13l-1.45,0.2c-0.45,0.06-0.78,0.17-1.01,0.33
			s-0.34,0.44-0.34,0.84c0,0.29,0.1,0.53,0.31,0.72s0.49,0.28,0.83,0.28c0.48,0,0.87-0.17,1.18-0.5s0.47-0.76,0.47-1.27V37.13z"/>
		<path fill="#1E1E1E" d="M30.87,40.16h-0.96v-3.42c0-1.27-0.46-1.91-1.39-1.91c-0.48,0-0.88,0.18-1.19,0.54s-0.47,0.82-0.47,1.37
			v3.42h-0.96v-6h0.96v1h0.02c0.45-0.76,1.11-1.14,1.97-1.14c0.66,0,1.16,0.21,1.51,0.64s0.52,1.04,0.52,1.84V40.16z"/>
		<path fill="#1E1E1E" d="M32.32,39.95v-1.03c0.52,0.39,1.1,0.58,1.73,0.58c0.84,0,1.27-0.28,1.27-0.84c0-0.16-0.04-0.3-0.11-0.41
			s-0.17-0.21-0.29-0.3s-0.27-0.16-0.43-0.23s-0.34-0.14-0.54-0.21c-0.27-0.11-0.5-0.21-0.7-0.32s-0.37-0.23-0.5-0.36
			s-0.24-0.29-0.3-0.46s-0.1-0.37-0.1-0.6c0-0.28,0.06-0.53,0.19-0.75s0.3-0.4,0.52-0.54s0.46-0.26,0.74-0.33s0.56-0.11,0.85-0.11
			c0.52,0,0.98,0.09,1.39,0.27v0.97c-0.44-0.29-0.95-0.43-1.52-0.43c-0.18,0-0.34,0.02-0.49,0.06s-0.27,0.1-0.37,0.17
			s-0.18,0.16-0.24,0.27s-0.08,0.22-0.08,0.34c0,0.16,0.03,0.29,0.08,0.39s0.14,0.2,0.25,0.28s0.24,0.16,0.4,0.22
			s0.33,0.14,0.53,0.22c0.27,0.1,0.5,0.21,0.71,0.31s0.39,0.23,0.54,0.36s0.26,0.29,0.34,0.47s0.12,0.38,0.12,0.63
			c0,0.3-0.07,0.55-0.2,0.77s-0.31,0.4-0.52,0.54s-0.47,0.25-0.76,0.32s-0.58,0.11-0.9,0.11C33.31,40.3,32.77,40.18,32.32,39.95z"/>
		<path fill="#1E1E1E" d="M38.74,40.16h-0.96v-8.88h0.96V40.16z"/>
		<path fill="#1E1E1E" d="M44.98,40.16h-0.96v-0.94h-0.02c-0.42,0.72-1.03,1.08-1.85,1.08c-0.6,0-1.07-0.16-1.4-0.47
			s-0.51-0.74-0.51-1.26c0-1.12,0.66-1.77,1.98-1.96l1.8-0.25c0-1.02-0.41-1.53-1.24-1.53c-0.72,0-1.38,0.25-1.96,0.74v-0.98
			c0.59-0.38,1.27-0.56,2.04-0.56c1.41,0,2.12,0.75,2.12,2.24V40.16z M44.02,37.13l-1.45,0.2c-0.45,0.06-0.78,0.17-1.01,0.33
			s-0.34,0.44-0.34,0.84c0,0.29,0.1,0.53,0.31,0.72s0.49,0.28,0.83,0.28c0.48,0,0.87-0.17,1.18-0.5s0.47-0.76,0.47-1.27V37.13z"/>
		<path fill="#1E1E1E" d="M49.57,40.1c-0.23,0.13-0.53,0.19-0.9,0.19c-1.05,0-1.58-0.59-1.58-1.76v-3.55h-1.03v-0.82h1.03V32.7
			l0.96-0.31v1.78h1.51v0.82h-1.51v3.38c0,0.4,0.07,0.69,0.21,0.86s0.36,0.26,0.68,0.26c0.24,0,0.45-0.07,0.63-0.2V40.1z"/>
		<path fill="#1E1E1E" d="M51.35,32.64c-0.17,0-0.32-0.06-0.44-0.18s-0.18-0.27-0.18-0.45s0.06-0.33,0.18-0.45s0.27-0.18,0.44-0.18
			c0.18,0,0.33,0.06,0.45,0.18s0.18,0.27,0.18,0.45c0,0.17-0.06,0.32-0.18,0.44S51.52,32.64,51.35,32.64z M51.81,40.16h-0.96v-6
			h0.96V40.16z"/>
		<path fill="#1E1E1E" d="M56.27,40.3c-0.89,0-1.59-0.28-2.12-0.84s-0.79-1.3-0.79-2.23c0-1.01,0.28-1.79,0.83-2.36
			s1.29-0.85,2.23-0.85c0.89,0,1.59,0.28,2.09,0.83s0.75,1.31,0.75,2.29c0,0.96-0.27,1.72-0.81,2.3S57.18,40.3,56.27,40.3z
			 M56.34,34.83c-0.62,0-1.11,0.21-1.46,0.63s-0.54,1-0.54,1.74c0,0.71,0.18,1.27,0.54,1.68s0.85,0.62,1.46,0.62
			c0.62,0,1.1-0.2,1.43-0.6s0.5-0.97,0.5-1.72c0-0.75-0.17-1.33-0.5-1.73S56.96,34.83,56.34,34.83z"/>
		<path fill="#1E1E1E" d="M65.77,40.16h-0.96v-3.42c0-1.27-0.46-1.91-1.39-1.91c-0.48,0-0.88,0.18-1.19,0.54s-0.47,0.82-0.47,1.37
			v3.42h-0.96v-6h0.96v1h0.02c0.45-0.76,1.11-1.14,1.97-1.14c0.66,0,1.16,0.21,1.51,0.64s0.52,1.04,0.52,1.84V40.16z"/>
	</g>
	<g>
		<path fill="#1E1E1E" d="M188.61,24.74c-0.62,0.33-1.39,0.49-2.32,0.49c-1.2,0-2.15-0.38-2.87-1.15s-1.08-1.78-1.08-3.03
			c0-1.34,0.4-2.43,1.21-3.26s1.83-1.24,3.08-1.24c0.8,0,1.46,0.12,1.98,0.35v1.05c-0.6-0.34-1.27-0.5-1.99-0.5
			c-0.96,0-1.75,0.32-2.35,0.97s-0.9,1.51-0.9,2.58c0,1.02,0.28,1.84,0.84,2.45s1.3,0.91,2.21,0.91c0.84,0,1.57-0.19,2.19-0.56
			V24.74z"/>
		<path fill="#1E1E1E" d="M193.32,20.06c-0.17-0.13-0.41-0.19-0.73-0.19c-0.41,0-0.75,0.19-1.03,0.58s-0.41,0.91-0.41,1.58v3.06
			h-0.96v-6h0.96v1.24h0.02c0.14-0.42,0.35-0.75,0.63-0.99s0.6-0.35,0.94-0.35c0.25,0,0.44,0.03,0.57,0.08V20.06z"/>
		<path fill="#1E1E1E" d="M199.19,22.33h-4.24c0.02,0.67,0.2,1.18,0.54,1.55s0.82,0.54,1.42,0.54c0.68,0,1.3-0.22,1.86-0.67v0.9
			c-0.53,0.38-1.22,0.57-2.09,0.57c-0.85,0-1.51-0.27-2-0.82s-0.73-1.31-0.73-2.3c0-0.93,0.26-1.69,0.79-2.28s1.19-0.88,1.97-0.88
			s1.39,0.25,1.82,0.76s0.64,1.21,0.64,2.12V22.33z M198.2,21.51c0-0.55-0.14-0.99-0.4-1.29s-0.63-0.46-1.1-0.46
			c-0.45,0-0.84,0.16-1.15,0.49s-0.51,0.75-0.59,1.27H198.2z"/>
		<path fill="#1E1E1E" d="M204.94,25.09h-0.96v-0.94h-0.02c-0.42,0.72-1.03,1.08-1.85,1.08c-0.6,0-1.07-0.16-1.4-0.47
			s-0.51-0.74-0.51-1.26c0-1.12,0.66-1.77,1.98-1.96l1.8-0.25c0-1.02-0.41-1.53-1.24-1.53c-0.72,0-1.38,0.25-1.96,0.74v-0.98
			c0.59-0.38,1.27-0.56,2.04-0.56c1.41,0,2.12,0.75,2.12,2.24V25.09z M203.97,22.05l-1.45,0.2c-0.45,0.06-0.78,0.17-1.01,0.33
			s-0.34,0.44-0.34,0.84c0,0.29,0.1,0.53,0.31,0.72s0.49,0.28,0.83,0.28c0.48,0,0.87-0.17,1.18-0.5s0.47-0.76,0.47-1.27V22.05z"/>
		<path fill="#1E1E1E" d="M209.53,25.03c-0.23,0.13-0.53,0.19-0.9,0.19c-1.05,0-1.58-0.59-1.58-1.76v-3.55h-1.03v-0.82h1.03v-1.46
			l0.96-0.31v1.78h1.51v0.82h-1.51v3.38c0,0.4,0.07,0.69,0.21,0.86s0.36,0.26,0.68,0.26c0.24,0,0.45-0.07,0.63-0.2V25.03z"/>
		<path fill="#1E1E1E" d="M215.63,22.33h-4.24c0.02,0.67,0.2,1.18,0.54,1.55s0.82,0.54,1.42,0.54c0.68,0,1.3-0.22,1.86-0.67v0.9
			c-0.53,0.38-1.22,0.57-2.09,0.57c-0.85,0-1.51-0.27-2-0.82s-0.73-1.31-0.73-2.3c0-0.93,0.26-1.69,0.79-2.28s1.19-0.88,1.97-0.88
			s1.39,0.25,1.82,0.76s0.64,1.21,0.64,2.12V22.33z M214.65,21.51c0-0.55-0.14-0.99-0.4-1.29s-0.63-0.46-1.1-0.46
			c-0.45,0-0.84,0.16-1.15,0.49s-0.51,0.75-0.59,1.27H214.65z"/>
		<path fill="#1E1E1E" d="M222.21,25.09h-0.96v-1.02h-0.02c-0.45,0.77-1.13,1.16-2.06,1.16c-0.75,0-1.36-0.27-1.81-0.81
			s-0.68-1.27-0.68-2.19c0-0.99,0.25-1.79,0.75-2.38s1.17-0.9,2-0.9c0.82,0,1.42,0.32,1.8,0.97h0.02V16.2h0.96V25.09z M221.25,22.37
			v-0.88c0-0.48-0.16-0.89-0.48-1.23s-0.73-0.5-1.22-0.5c-0.59,0-1.05,0.21-1.38,0.64s-0.5,1.02-0.5,1.78
			c0,0.69,0.16,1.24,0.48,1.64s0.75,0.6,1.3,0.6c0.54,0,0.97-0.19,1.3-0.58S221.25,22.96,221.25,22.37z"/>
		<path fill="#1E1E1E" d="M228.43,24.22h-0.02v3.63h-0.96v-8.76h0.96v1.05h0.02c0.47-0.8,1.16-1.2,2.07-1.2
			c0.77,0,1.38,0.27,1.81,0.81s0.65,1.26,0.65,2.16c0,1-0.24,1.81-0.73,2.41s-1.16,0.91-2,0.91
			C229.45,25.23,228.85,24.89,228.43,24.22z M228.4,21.8v0.84c0,0.5,0.16,0.92,0.48,1.26s0.73,0.52,1.23,0.52
			c0.58,0,1.04-0.22,1.37-0.67s0.5-1.06,0.5-1.86c0-0.67-0.15-1.19-0.46-1.57s-0.73-0.57-1.25-0.57c-0.56,0-1.01,0.19-1.35,0.58
			S228.4,21.21,228.4,21.8z"/>
		<path fill="#1E1E1E" d="M237,25.23c-0.89,0-1.59-0.28-2.12-0.84s-0.79-1.3-0.79-2.23c0-1.01,0.28-1.79,0.83-2.36
			s1.29-0.85,2.23-0.85c0.89,0,1.59,0.28,2.09,0.83s0.75,1.31,0.75,2.29c0,0.96-0.27,1.72-0.81,2.3S237.91,25.23,237,25.23z
			 M237.07,19.76c-0.62,0-1.11,0.21-1.46,0.63s-0.54,1-0.54,1.74c0,0.71,0.18,1.27,0.54,1.68s0.85,0.62,1.46,0.62
			c0.62,0,1.1-0.2,1.43-0.6s0.5-0.97,0.5-1.72c0-0.75-0.17-1.33-0.5-1.73S237.7,19.76,237.07,19.76z"/>
		<path fill="#1E1E1E" d="M242.02,17.56c-0.17,0-0.32-0.06-0.44-0.18s-0.18-0.27-0.18-0.45s0.06-0.33,0.18-0.45s0.27-0.18,0.44-0.18
			c0.18,0,0.33,0.06,0.45,0.18s0.18,0.27,0.18,0.45c0,0.17-0.06,0.32-0.18,0.44S242.2,17.56,242.02,17.56z M242.49,25.09h-0.96v-6
			h0.96V25.09z"/>
		<path fill="#1E1E1E" d="M249.41,25.09h-0.96v-3.42c0-1.27-0.46-1.91-1.39-1.91c-0.48,0-0.88,0.18-1.19,0.54s-0.47,0.82-0.47,1.37
			v3.42h-0.96v-6h0.96v1h0.02c0.45-0.76,1.11-1.14,1.97-1.14c0.66,0,1.16,0.21,1.51,0.64s0.52,1.04,0.52,1.84V25.09z"/>
		<path fill="#1E1E1E" d="M254.01,25.03c-0.23,0.13-0.53,0.19-0.9,0.19c-1.05,0-1.58-0.59-1.58-1.76v-3.55h-1.03v-0.82h1.03v-1.46
			l0.96-0.31v1.78h1.51v0.82h-1.51v3.38c0,0.4,0.07,0.69,0.21,0.86s0.36,0.26,0.68,0.26c0.24,0,0.45-0.07,0.63-0.2V25.03z"/>
	</g>
	<g>
		<path fill="#1E1E1E" d="M112.05,80.05v-1.16c0.13,0.12,0.29,0.22,0.48,0.32s0.38,0.17,0.59,0.24s0.41,0.11,0.62,0.15
			s0.4,0.05,0.57,0.05c0.61,0,1.06-0.11,1.36-0.34s0.45-0.55,0.45-0.97c0-0.23-0.05-0.42-0.15-0.59s-0.24-0.32-0.41-0.46
			s-0.38-0.27-0.62-0.4s-0.5-0.26-0.78-0.4c-0.29-0.15-0.57-0.3-0.82-0.45s-0.47-0.32-0.66-0.5s-0.33-0.39-0.44-0.62
			s-0.16-0.5-0.16-0.82c0-0.38,0.08-0.72,0.25-1s0.39-0.52,0.66-0.7s0.58-0.32,0.93-0.41s0.71-0.13,1.07-0.13
			c0.83,0,1.43,0.1,1.81,0.3v1.11c-0.5-0.34-1.13-0.52-1.91-0.52c-0.21,0-0.43,0.02-0.64,0.07s-0.41,0.12-0.57,0.22
			s-0.3,0.23-0.41,0.39s-0.16,0.36-0.16,0.59c0,0.21,0.04,0.4,0.12,0.56s0.2,0.3,0.35,0.43s0.35,0.25,0.57,0.38s0.48,0.25,0.78,0.4
			c0.3,0.15,0.59,0.3,0.86,0.47s0.51,0.35,0.71,0.54s0.36,0.42,0.48,0.66s0.18,0.52,0.18,0.83c0,0.41-0.08,0.76-0.24,1.05
			s-0.38,0.52-0.66,0.7s-0.59,0.31-0.95,0.39s-0.74,0.12-1.14,0.12c-0.13,0-0.3-0.01-0.49-0.03s-0.39-0.05-0.6-0.09
			s-0.4-0.09-0.58-0.15S112.15,80.12,112.05,80.05z"/>
		<path fill="#1E1E1E" d="M121.19,80.53c-0.89,0-1.59-0.28-2.12-0.84s-0.79-1.3-0.79-2.23c0-1.01,0.28-1.79,0.83-2.36
			s1.29-0.85,2.23-0.85c0.89,0,1.59,0.28,2.09,0.83s0.75,1.31,0.75,2.29c0,0.96-0.27,1.72-0.81,2.3S122.1,80.53,121.19,80.53z
			 M121.26,75.06c-0.62,0-1.11,0.21-1.46,0.63s-0.54,1-0.54,1.74c0,0.71,0.18,1.27,0.54,1.68s0.85,0.62,1.46,0.62
			c0.62,0,1.1-0.2,1.43-0.6s0.5-0.97,0.5-1.72c0-0.75-0.17-1.33-0.5-1.73S121.88,75.06,121.26,75.06z"/>
		<path fill="#1E1E1E" d="M130.57,80.39h-0.96v-0.95h-0.02c-0.4,0.73-1.02,1.09-1.85,1.09c-1.43,0-2.14-0.85-2.14-2.55v-3.59h0.96
			v3.43c0,1.27,0.48,1.9,1.45,1.9c0.47,0,0.85-0.17,1.16-0.52s0.45-0.8,0.45-1.36v-3.46h0.96V80.39z"/>
		<path fill="#1E1E1E" d="M135.64,75.36c-0.17-0.13-0.41-0.19-0.73-0.19c-0.41,0-0.75,0.19-1.03,0.58s-0.41,0.91-0.41,1.58v3.06
			h-0.96v-6h0.96v1.24h0.02c0.14-0.42,0.35-0.75,0.63-0.99s0.6-0.35,0.94-0.35c0.25,0,0.44,0.03,0.57,0.08V75.36z"/>
		<path fill="#1E1E1E" d="M140.77,80.12c-0.46,0.28-1.01,0.42-1.64,0.42c-0.86,0-1.55-0.28-2.07-0.83s-0.79-1.28-0.79-2.17
			c0-0.99,0.28-1.78,0.85-2.38s1.32-0.9,2.27-0.9c0.53,0,0.99,0.1,1.39,0.29v0.98c-0.45-0.31-0.92-0.47-1.43-0.47
			c-0.61,0-1.12,0.22-1.51,0.66s-0.59,1.02-0.59,1.73c0,0.7,0.18,1.26,0.55,1.66s0.86,0.61,1.49,0.61c0.52,0,1.02-0.17,1.48-0.52
			V80.12z"/>
		<path fill="#1E1E1E" d="M147.04,77.63h-4.24c0.02,0.67,0.2,1.18,0.54,1.55s0.82,0.54,1.42,0.54c0.68,0,1.3-0.22,1.86-0.67v0.9
			c-0.53,0.38-1.22,0.57-2.09,0.57c-0.85,0-1.51-0.27-2-0.82s-0.73-1.31-0.73-2.3c0-0.93,0.26-1.69,0.79-2.28s1.19-0.88,1.97-0.88
			s1.39,0.25,1.82,0.76s0.64,1.21,0.64,2.12V77.63z M146.06,76.82c0-0.55-0.14-0.99-0.4-1.29s-0.63-0.46-1.1-0.46
			c-0.45,0-0.84,0.16-1.15,0.49s-0.51,0.75-0.59,1.27H146.06z"/>
		<path fill="#1E1E1E" d="M152.77,79.52h-0.02v3.63h-0.96v-8.76h0.96v1.05h0.02c0.47-0.8,1.16-1.2,2.07-1.2
			c0.77,0,1.38,0.27,1.81,0.81s0.65,1.26,0.65,2.16c0,1-0.24,1.81-0.73,2.41s-1.16,0.91-2,0.91
			C153.79,80.53,153.19,80.2,152.77,79.52z M152.74,77.1v0.84c0,0.5,0.16,0.92,0.48,1.26s0.73,0.52,1.23,0.52
			c0.58,0,1.04-0.22,1.37-0.67s0.5-1.06,0.5-1.86c0-0.67-0.15-1.19-0.46-1.57s-0.73-0.57-1.25-0.57c-0.56,0-1.01,0.19-1.35,0.58
			S152.74,76.52,152.74,77.1z"/>
		<path fill="#1E1E1E" d="M161.35,80.53c-0.89,0-1.59-0.28-2.12-0.84s-0.79-1.3-0.79-2.23c0-1.01,0.28-1.79,0.83-2.36
			s1.29-0.85,2.23-0.85c0.89,0,1.59,0.28,2.09,0.83s0.75,1.31,0.75,2.29c0,0.96-0.27,1.72-0.81,2.3S162.26,80.53,161.35,80.53z
			 M161.42,75.06c-0.62,0-1.11,0.21-1.46,0.63s-0.54,1-0.54,1.74c0,0.71,0.18,1.27,0.54,1.68s0.85,0.62,1.46,0.62
			c0.62,0,1.1-0.2,1.43-0.6s0.5-0.97,0.5-1.72c0-0.75-0.17-1.33-0.5-1.73S162.04,75.06,161.42,75.06z"/>
		<path fill="#1E1E1E" d="M166.36,72.87c-0.17,0-0.32-0.06-0.44-0.18s-0.18-0.27-0.18-0.45s0.06-0.33,0.18-0.45s0.27-0.18,0.44-0.18
			c0.18,0,0.33,0.06,0.45,0.18s0.18,0.27,0.18,0.45c0,0.17-0.06,0.32-0.18,0.44S166.54,72.87,166.36,72.87z M166.83,80.39h-0.96v-6
			h0.96V80.39z"/>
		<path fill="#1E1E1E" d="M173.76,80.39h-0.96v-3.42c0-1.27-0.46-1.91-1.39-1.91c-0.48,0-0.88,0.18-1.19,0.54s-0.47,0.82-0.47,1.37
			v3.42h-0.96v-6h0.96v1h0.02c0.45-0.76,1.11-1.14,1.97-1.14c0.66,0,1.16,0.21,1.51,0.64s0.52,1.04,0.52,1.84V80.39z"/>
		<path fill="#1E1E1E" d="M178.35,80.33c-0.23,0.13-0.53,0.19-0.9,0.19c-1.05,0-1.58-0.59-1.58-1.76v-3.55h-1.03v-0.82h1.03v-1.46
			l0.96-0.31v1.78h1.51v0.82h-1.51v3.38c0,0.4,0.07,0.69,0.21,0.86s0.36,0.26,0.68,0.26c0.24,0,0.45-0.07,0.63-0.2V80.33z"/>
	</g>
</g>
<g id="writer_source" display="none">
	
		<image display="inline" overflow="visible" width="367" height="125" xlink:href="../../trt/package_Images_Geo_P1/To Do/image1434591280_SRC.jpg"  transform="matrix(0.3764 0 0 0.3764 354.5554 27.0881)">
	</image>
</g>
</svg>
