<?xml version="1.0" encoding="utf-8"?>
<!-- Generator: Adobe Illustrator 25.0.0, SVG Export Plug-In . SVG Version: 6.00 Build 0)  -->
<svg version="1.1" xmlns="http://www.w3.org/2000/svg" xmlns:xlink="http://www.w3.org/1999/xlink" x="0px" y="0px" width="368px"
	 height="183px" viewBox="0 0 368 183" enable-background="new 0 0 368 183" xml:space="preserve">
<g id="Shapes">
	<g>
		<rect x="1.5" y="1.5" fill="#FFFFFF" width="365" height="180"/>
		<rect x="1.5" y="1.5" opacity="0.2" fill="#E5E5E5" width="365" height="180"/>
		<rect x="1.5" y="1.5" opacity="0.1" fill="none" stroke="#231F20" stroke-miterlimit="10" width="365" height="180"/>
	</g>
	<g id="Wrench_tool_x28_s_x29_">
	</g>
	<g id="user2">
	</g>
	<g id="user2_1_">
	</g>
	<g id="user2_4_">
	</g>
	<g id="user2_3_">
	</g>
	<g id="user2_2_">
	</g>
	<g id="Internet_2">
	</g>
	<g id="Enterprise">
	</g>
	<g id="Tunnel__x28_stackable_x29_">
	</g>
	<g id="New_Symbol">
	</g>
	<g id="New_Symbol_1">
	</g>
	<g id="Files">
	</g>
	<g id="BlobBlock">
	</g>
	<g id="E_x5F_Enterprise">
	</g>
	<g id="E_x5F_AD_FS">
	</g>
	<g id="C_x5F_Azure_Active_Directory">
	</g>
	<g id="Layer_22">
	</g>
	<g>
		<g>
			<polyline fill="none" stroke="#000000" stroke-linecap="round" stroke-linejoin="round" points="317.26,146.08 69.12,146.08 
				69.12,21.7 			"/>
			<g>
				<polygon points="315.28,143.18 326.12,146.08 315.28,148.99 				"/>
			</g>
			<g>
				<polygon points="72.03,23.68 69.12,12.84 66.22,23.68 				"/>
			</g>
		</g>
	</g>
	<path fill="none" stroke="#2E5291" stroke-width="2" stroke-linecap="round" stroke-linejoin="round" stroke-miterlimit="10" d="
		M69.67,134.18c0,0,73.45-4.61,91.29-85.55c0,0,5.58,50.22,18.81,59.8"/>
	
		<line fill="none" stroke="#272525" stroke-width="1.25" stroke-miterlimit="10" stroke-dasharray="8,2" x1="179.78" y1="146.08" x2="179.78" y2="87.94"/>
	
		<line fill="none" stroke="#272525" stroke-width="1.25" stroke-miterlimit="10" stroke-dasharray="8,2" x1="256.44" y1="146.08" x2="256.44" y2="87.94"/>
	
		<line fill="none" stroke="#272525" stroke-width="1.25" stroke-miterlimit="10" stroke-dasharray="8,2" x1="279.57" y1="146.08" x2="279.57" y2="77.7"/>
	
		<line fill="none" stroke="#2E5291" stroke-width="2" stroke-linecap="round" stroke-linejoin="round" stroke-miterlimit="10" x1="180.3" y1="125.71" x2="255.73" y2="118.63"/>
	
		<line fill="none" stroke="#2E5291" stroke-width="2" stroke-linecap="round" stroke-linejoin="round" stroke-miterlimit="10" x1="256.74" y1="113.77" x2="279.31" y2="113.77"/>
	
		<line fill="none" stroke="#2E5291" stroke-width="2" stroke-linecap="round" stroke-linejoin="round" stroke-miterlimit="10" x1="279.81" y1="107.89" x2="326.12" y2="107.89"/>
	<line fill="none" stroke="#000000" stroke-linecap="round" stroke-linejoin="round" x1="69.48" y1="42.8" x2="75.47" y2="42.8"/>
	<line fill="none" stroke="#000000" stroke-linecap="round" stroke-linejoin="round" x1="69.47" y1="77.23" x2="75.47" y2="77.23"/>
	
		<line fill="none" stroke="#000000" stroke-linecap="round" stroke-linejoin="round" x1="69.62" y1="111.66" x2="75.62" y2="111.66"/>
	
		<line fill="none" stroke="#000000" stroke-linecap="round" stroke-linejoin="round" x1="126.89" y1="146.08" x2="126.89" y2="140.09"/>
	
		<line fill="none" stroke="#000000" stroke-linecap="round" stroke-linejoin="round" x1="184.66" y1="146.08" x2="184.66" y2="140.08"/>
	
		<line fill="none" stroke="#000000" stroke-linecap="round" stroke-linejoin="round" x1="242.42" y1="146.08" x2="242.42" y2="140.09"/>
	
		<line fill="none" stroke="#000000" stroke-linecap="round" stroke-linejoin="round" x1="300.19" y1="146.08" x2="300.19" y2="140.09"/>
	<rect x="158.83" y="69.62" fill="#E5E5E5" fill-opacity="0.8" width="42.16" height="18.14"/>
	<g>
		<path fill="#1E1E1E" d="M181.4,109.93c-0.54-0.34-0.85-0.56-0.85-0.56l0.57-0.82c0,0,0.3,0.21,0.81,0.54L181.4,109.93z"/>
		<path fill="#1E1E1E" d="M251.43,114.27h-1.96v-1h1.96V114.27z M247.51,114.27h-1.96v-1h1.96V114.27z M243.58,114.27l-1.96,0v-1
			l1.96,0V114.27z M239.65,114.27h-1.96v-1h1.96V114.27z M235.72,114.27l-1.96,0v-1l1.96,0V114.27z M231.79,114.27h-1.96v-1h1.96
			V114.27z M227.86,114.27h-1.96v-1h1.96V114.27z M223.94,114.27l-1.96,0v-1l1.96,0V114.27z M220.01,114.27h-1.96v-1h1.96V114.27z
			 M216.08,114.27l-1.96,0v-1l1.96,0V114.27z M212.15,114.27h-1.96v-1h1.96V114.27z M208.22,114.27h-1.96v-1h1.96V114.27z
			 M204.3,114.27h-1.96v-1h1.96V114.27z M200.37,114.27h-1.96v-1h1.96V114.27z M196.44,114.27l-1.96,0v-1l1.96,0V114.27z
			 M192.51,114.27h-0.42c-0.53-0.03-1.07-0.11-1.63-0.22l0.21-0.98c0.51,0.11,1,0.18,1.46,0.2l0.39,0V114.27z M188.51,113.5
			c-0.6-0.21-1.23-0.45-1.87-0.73l0.4-0.92c0.62,0.27,1.22,0.51,1.79,0.7L188.51,113.5z M184.84,111.91
			c-0.63-0.32-1.22-0.65-1.75-0.95l0.5-0.87c0.51,0.3,1.09,0.61,1.7,0.93L184.84,111.91z"/>
		<rect x="253.4" y="113.27" fill="#1E1E1E" width="1" height="1"/>
	</g>
</g>
<g id="Text">
	<g id="Windows_Server_New">
	</g>
	<g>
		<path fill="#1E1E1E" d="M49.95,43.46c0-0.22,0.04-0.45,0.11-0.67s0.17-0.43,0.3-0.63s0.29-0.37,0.49-0.53s0.41-0.29,0.66-0.38
			c-0.36-0.2-0.65-0.46-0.87-0.78s-0.32-0.67-0.32-1.06c0-0.31,0.06-0.59,0.18-0.86s0.28-0.49,0.5-0.68s0.46-0.34,0.75-0.45
			s0.6-0.16,0.94-0.16c0.34,0,0.65,0.05,0.94,0.16s0.54,0.26,0.75,0.45s0.38,0.42,0.49,0.68s0.18,0.54,0.18,0.85
			c0,0.39-0.11,0.74-0.32,1.06s-0.5,0.58-0.86,0.78c0.24,0.09,0.46,0.22,0.65,0.38s0.35,0.34,0.48,0.53s0.23,0.41,0.3,0.63
			s0.11,0.45,0.11,0.67c0,0.37-0.07,0.7-0.2,1.01s-0.32,0.57-0.56,0.78s-0.53,0.39-0.86,0.51s-0.7,0.18-1.1,0.18
			c-0.4,0-0.76-0.06-1.1-0.18s-0.62-0.29-0.86-0.51s-0.43-0.48-0.57-0.78S49.95,43.83,49.95,43.46z M51,43.38
			c0,0.26,0.04,0.5,0.12,0.71s0.19,0.39,0.34,0.54s0.32,0.26,0.53,0.34s0.44,0.12,0.69,0.12c0.25,0,0.47-0.04,0.68-0.12
			s0.39-0.2,0.54-0.35s0.27-0.33,0.35-0.54s0.13-0.45,0.13-0.7c0-0.23-0.04-0.45-0.12-0.66s-0.19-0.39-0.34-0.54
			s-0.33-0.28-0.53-0.37s-0.44-0.13-0.7-0.13c-0.24,0-0.47,0.04-0.67,0.13s-0.38,0.2-0.53,0.35s-0.27,0.33-0.35,0.54
			S51,43.13,51,43.38z M51.29,39.48c0,0.2,0.04,0.38,0.11,0.55s0.17,0.32,0.3,0.45s0.27,0.23,0.44,0.3s0.35,0.11,0.54,0.11
			s0.37-0.04,0.54-0.11s0.32-0.17,0.44-0.3s0.22-0.28,0.3-0.45s0.11-0.35,0.11-0.55c0-0.2-0.04-0.39-0.11-0.56s-0.17-0.32-0.3-0.45
			s-0.27-0.22-0.44-0.3s-0.35-0.11-0.55-0.11c-0.21,0-0.4,0.04-0.57,0.11s-0.32,0.17-0.44,0.3s-0.22,0.28-0.28,0.45
			S51.29,39.29,51.29,39.48z"/>
		<path fill="#1E1E1E" d="M61.87,41.57c0,0.7-0.06,1.33-0.19,1.87s-0.31,1-0.55,1.37s-0.54,0.66-0.88,0.85s-0.75,0.29-1.19,0.29
			c-0.42,0-0.8-0.09-1.13-0.28s-0.61-0.46-0.83-0.81s-0.4-0.79-0.52-1.31s-0.18-1.11-0.18-1.78c0-0.73,0.06-1.38,0.18-1.95
			s0.3-1.03,0.54-1.42s0.53-0.67,0.89-0.86s0.76-0.29,1.22-0.29C60.99,37.26,61.87,38.7,61.87,41.57z M60.89,41.66
			c0-2.39-0.57-3.59-1.71-3.59c-1.2,0-1.8,1.22-1.8,3.65c0,2.27,0.59,3.4,1.76,3.4C60.31,45.13,60.89,43.97,60.89,41.66z"/>
		<path fill="#1E1E1E" d="M55.41,78.14c0,0.41-0.07,0.79-0.2,1.13s-0.32,0.64-0.55,0.89s-0.51,0.44-0.84,0.58s-0.68,0.21-1.05,0.21
			c-0.42,0-0.8-0.09-1.13-0.26s-0.62-0.43-0.85-0.76s-0.41-0.73-0.53-1.21s-0.18-1.01-0.18-1.61c0-0.73,0.08-1.39,0.24-1.99
			s0.39-1.11,0.69-1.53s0.66-0.75,1.08-0.98s0.89-0.35,1.41-0.35c0.58,0,1.04,0.08,1.39,0.24v0.91c-0.43-0.22-0.89-0.33-1.37-0.33
			c-0.38,0-0.71,0.08-1.01,0.25s-0.56,0.41-0.77,0.71s-0.38,0.68-0.5,1.11s-0.17,0.92-0.17,1.45h0.02c0.39-0.7,1.03-1.05,1.92-1.05
			c0.37,0,0.7,0.06,0.99,0.19s0.55,0.3,0.76,0.53s0.37,0.5,0.48,0.82S55.41,77.75,55.41,78.14z M54.43,78.26
			c0-0.29-0.04-0.56-0.11-0.79s-0.18-0.43-0.32-0.6s-0.31-0.29-0.51-0.38s-0.43-0.13-0.69-0.13c-0.24,0-0.46,0.04-0.66,0.13
			s-0.38,0.21-0.53,0.37s-0.26,0.33-0.35,0.54s-0.13,0.42-0.13,0.65c0,0.29,0.04,0.56,0.12,0.81s0.2,0.47,0.35,0.66
			s0.33,0.33,0.53,0.44s0.43,0.16,0.68,0.16c0.24,0,0.46-0.05,0.66-0.14s0.37-0.22,0.51-0.38s0.25-0.36,0.33-0.59
			S54.43,78.54,54.43,78.26z"/>
		<path fill="#1E1E1E" d="M61.87,76.57c0,0.7-0.06,1.33-0.19,1.87s-0.31,1-0.55,1.37s-0.54,0.66-0.88,0.85s-0.75,0.29-1.19,0.29
			c-0.42,0-0.8-0.09-1.13-0.28s-0.61-0.46-0.83-0.81s-0.4-0.79-0.52-1.31s-0.18-1.11-0.18-1.78c0-0.73,0.06-1.38,0.18-1.95
			s0.3-1.03,0.54-1.42s0.53-0.67,0.89-0.86s0.76-0.29,1.22-0.29C60.99,72.26,61.87,73.7,61.87,76.57z M60.89,76.66
			c0-2.39-0.57-3.59-1.71-3.59c-1.2,0-1.8,1.22-1.8,3.65c0,2.27,0.59,3.4,1.76,3.4C60.31,80.13,60.89,78.97,60.89,76.66z"/>
		<path fill="#1E1E1E" d="M54.41,107.4v5.55h1.08v0.88h-1.08v1.97h-0.95v-1.97h-3.95V113c0.37-0.41,0.74-0.86,1.11-1.33
			s0.73-0.95,1.08-1.43s0.66-0.97,0.95-1.45s0.54-0.94,0.74-1.39H54.41z M50.59,112.95h2.87v-4.11c-0.29,0.51-0.57,0.97-0.83,1.37
			s-0.51,0.77-0.75,1.1s-0.46,0.62-0.68,0.89S50.78,112.71,50.59,112.95z"/>
		<path fill="#1E1E1E" d="M61.87,111.57c0,0.7-0.06,1.33-0.19,1.87s-0.31,1-0.55,1.37s-0.54,0.66-0.88,0.85s-0.75,0.29-1.19,0.29
			c-0.42,0-0.8-0.09-1.13-0.28s-0.61-0.46-0.83-0.81s-0.4-0.79-0.52-1.31s-0.18-1.11-0.18-1.78c0-0.73,0.06-1.38,0.18-1.95
			s0.3-1.03,0.54-1.42s0.53-0.67,0.89-0.86s0.76-0.29,1.22-0.29C60.99,107.26,61.87,108.7,61.87,111.57z M60.89,111.66
			c0-2.39-0.57-3.59-1.71-3.59c-1.2,0-1.8,1.22-1.8,3.65c0,2.27,0.59,3.4,1.76,3.4C60.31,115.13,60.89,113.97,60.89,111.66z"/>
		<path fill="#1E1E1E" d="M53.95,144.6c0-0.26-0.04-0.48-0.12-0.67s-0.19-0.35-0.33-0.48s-0.3-0.22-0.49-0.28s-0.39-0.09-0.61-0.09
			c-0.19,0-0.37,0.03-0.55,0.08s-0.35,0.12-0.52,0.21s-0.33,0.2-0.49,0.32s-0.31,0.26-0.44,0.42v-1.03c0.27-0.26,0.57-0.46,0.91-0.6
			s0.74-0.21,1.22-0.21c0.34,0,0.66,0.05,0.96,0.15s0.55,0.25,0.76,0.44s0.38,0.43,0.51,0.71s0.18,0.6,0.18,0.97
			c0,0.33-0.04,0.63-0.11,0.9s-0.19,0.52-0.35,0.76s-0.35,0.47-0.58,0.69s-0.51,0.44-0.83,0.67c-0.39,0.28-0.72,0.52-0.98,0.72
			s-0.46,0.39-0.61,0.56s-0.26,0.35-0.32,0.52s-0.09,0.37-0.09,0.6h4.18v0.86h-5.19v-0.42c0-0.36,0.04-0.68,0.12-0.95
			s0.21-0.53,0.39-0.78s0.42-0.49,0.71-0.74s0.65-0.52,1.07-0.83c0.3-0.22,0.56-0.43,0.76-0.63s0.37-0.4,0.5-0.6s0.21-0.4,0.27-0.61
			S53.95,144.83,53.95,144.6z"/>
		<path fill="#1E1E1E" d="M61.87,146.57c0,0.7-0.06,1.33-0.19,1.87s-0.31,1-0.55,1.37s-0.54,0.66-0.88,0.85s-0.75,0.29-1.19,0.29
			c-0.42,0-0.8-0.09-1.13-0.28s-0.61-0.46-0.83-0.81s-0.4-0.79-0.52-1.31s-0.18-1.11-0.18-1.78c0-0.73,0.06-1.38,0.18-1.95
			s0.3-1.03,0.54-1.42s0.53-0.67,0.89-0.86s0.76-0.29,1.22-0.29C60.99,142.26,61.87,143.7,61.87,146.57z M60.89,146.66
			c0-2.39-0.57-3.59-1.71-3.59c-1.2,0-1.8,1.22-1.8,3.65c0,2.27,0.59,3.4,1.76,3.4C60.31,150.13,60.89,148.97,60.89,146.66z"/>
	</g>
	<g>
		<path fill="#1E1E1E" d="M117.47,157.48c0-0.22,0.04-0.45,0.11-0.67s0.17-0.43,0.3-0.63s0.29-0.37,0.49-0.53s0.41-0.29,0.66-0.38
			c-0.36-0.2-0.65-0.46-0.87-0.78s-0.32-0.67-0.32-1.06c0-0.31,0.06-0.59,0.18-0.86s0.28-0.49,0.5-0.68s0.46-0.34,0.75-0.45
			s0.6-0.16,0.94-0.16c0.34,0,0.65,0.05,0.94,0.16s0.54,0.26,0.75,0.45s0.38,0.42,0.49,0.68s0.18,0.54,0.18,0.85
			c0,0.39-0.11,0.74-0.32,1.06s-0.5,0.58-0.86,0.78c0.24,0.09,0.46,0.22,0.65,0.38s0.35,0.34,0.48,0.53s0.23,0.41,0.3,0.63
			s0.11,0.45,0.11,0.67c0,0.37-0.07,0.7-0.2,1.01s-0.32,0.57-0.56,0.78s-0.53,0.39-0.86,0.51s-0.7,0.18-1.1,0.18
			c-0.4,0-0.76-0.06-1.1-0.18s-0.62-0.29-0.86-0.51s-0.43-0.48-0.57-0.78S117.47,157.84,117.47,157.48z M118.51,157.4
			c0,0.26,0.04,0.5,0.12,0.71s0.19,0.39,0.34,0.54s0.32,0.26,0.53,0.34s0.44,0.12,0.69,0.12c0.25,0,0.47-0.04,0.68-0.12
			s0.39-0.2,0.54-0.35s0.27-0.33,0.35-0.54s0.13-0.45,0.13-0.7c0-0.23-0.04-0.45-0.12-0.66s-0.19-0.39-0.34-0.54
			s-0.33-0.28-0.53-0.37s-0.44-0.13-0.7-0.13c-0.24,0-0.47,0.04-0.67,0.13s-0.38,0.2-0.53,0.35s-0.27,0.33-0.35,0.54
			S118.51,157.15,118.51,157.4z M118.81,153.5c0,0.2,0.04,0.38,0.11,0.55s0.17,0.32,0.3,0.45s0.27,0.23,0.44,0.3
			s0.35,0.11,0.54,0.11s0.37-0.04,0.54-0.11s0.32-0.17,0.44-0.3s0.22-0.28,0.3-0.45s0.11-0.35,0.11-0.55c0-0.2-0.04-0.39-0.11-0.56
			s-0.17-0.32-0.3-0.45s-0.27-0.22-0.44-0.3s-0.35-0.11-0.55-0.11c-0.21,0-0.4,0.04-0.57,0.11s-0.32,0.17-0.44,0.3
			s-0.22,0.28-0.28,0.45S118.81,153.3,118.81,153.5z"/>
		<path fill="#1E1E1E" d="M129.38,155.58c0,0.7-0.06,1.33-0.19,1.87s-0.31,1-0.55,1.37s-0.54,0.66-0.88,0.85s-0.75,0.29-1.19,0.29
			c-0.42,0-0.8-0.09-1.13-0.28s-0.61-0.46-0.83-0.81s-0.4-0.79-0.52-1.31s-0.18-1.11-0.18-1.78c0-0.73,0.06-1.38,0.18-1.95
			s0.3-1.03,0.54-1.42s0.53-0.67,0.89-0.86s0.76-0.29,1.22-0.29C128.5,151.28,129.38,152.71,129.38,155.58z M128.4,155.68
			c0-2.39-0.57-3.59-1.71-3.59c-1.2,0-1.8,1.22-1.8,3.65c0,2.27,0.59,3.4,1.76,3.4C127.82,159.15,128.4,157.99,128.4,155.68z"/>
		<path fill="#1E1E1E" d="M135.85,155.58c0,0.7-0.06,1.33-0.19,1.87s-0.31,1-0.55,1.37s-0.54,0.66-0.88,0.85s-0.75,0.29-1.19,0.29
			c-0.42,0-0.8-0.09-1.13-0.28s-0.61-0.46-0.83-0.81s-0.4-0.79-0.52-1.31s-0.18-1.11-0.18-1.78c0-0.73,0.06-1.38,0.18-1.95
			s0.3-1.03,0.54-1.42s0.53-0.67,0.89-0.86s0.76-0.29,1.22-0.29C134.97,151.28,135.85,152.71,135.85,155.58z M134.87,155.68
			c0-2.39-0.57-3.59-1.71-3.59c-1.2,0-1.8,1.22-1.8,3.65c0,2.27,0.59,3.4,1.76,3.4C134.29,159.15,134.87,157.99,134.87,155.68z"/>
	</g>
	<g>
		<path fill="#1E1E1E" d="M152.46,42.8h-0.96v-7.26c-0.07,0.07-0.18,0.16-0.33,0.25s-0.3,0.19-0.48,0.28s-0.37,0.18-0.56,0.26
			s-0.39,0.15-0.58,0.19v-0.97c0.21-0.06,0.43-0.14,0.67-0.24s0.47-0.21,0.7-0.33s0.44-0.25,0.65-0.39s0.38-0.27,0.53-0.4h0.36V42.8
			z"/>
		<path fill="#1E1E1E" d="M160.67,38.57c0,0.7-0.06,1.33-0.19,1.87s-0.31,1-0.55,1.37s-0.54,0.66-0.88,0.85s-0.75,0.29-1.19,0.29
			c-0.42,0-0.8-0.09-1.13-0.28s-0.61-0.46-0.83-0.81s-0.4-0.79-0.52-1.31s-0.18-1.11-0.18-1.78c0-0.73,0.06-1.38,0.18-1.95
			s0.3-1.03,0.54-1.42s0.53-0.67,0.89-0.86s0.76-0.29,1.22-0.29C159.79,34.26,160.67,35.7,160.67,38.57z M159.68,38.66
			c0-2.39-0.57-3.59-1.71-3.59c-1.2,0-1.8,1.22-1.8,3.65c0,2.27,0.59,3.4,1.76,3.4C159.1,42.13,159.68,40.97,159.68,38.66z"/>
		<path fill="#1E1E1E" d="M166.74,40.42c0,0.38-0.07,0.72-0.21,1.03s-0.34,0.58-0.6,0.8s-0.57,0.39-0.93,0.51s-0.76,0.18-1.2,0.18
			c-0.8,0-1.44-0.15-1.91-0.46v-1.03c0.57,0.45,1.21,0.67,1.95,0.67c0.29,0,0.56-0.04,0.79-0.11s0.44-0.18,0.61-0.32
			s0.3-0.31,0.39-0.51s0.14-0.42,0.14-0.67c0-1.1-0.78-1.65-2.34-1.65h-0.7v-0.81h0.66c1.38,0,2.07-0.52,2.07-1.55
			c0-0.95-0.53-1.43-1.58-1.43c-0.59,0-1.15,0.2-1.67,0.6v-0.93c0.54-0.32,1.17-0.48,1.91-0.48c0.35,0,0.67,0.05,0.96,0.15
			s0.53,0.23,0.73,0.41s0.36,0.39,0.47,0.63s0.17,0.52,0.17,0.81c0,1.11-0.56,1.82-1.68,2.13v0.02c0.29,0.03,0.55,0.1,0.79,0.21
			s0.45,0.25,0.63,0.42s0.31,0.37,0.41,0.61S166.74,40.14,166.74,40.42z"/>
		<path fill="#1E1E1E" d="M173.21,40.42c0,0.38-0.07,0.72-0.21,1.03s-0.34,0.58-0.6,0.8s-0.57,0.39-0.93,0.51s-0.76,0.18-1.2,0.18
			c-0.8,0-1.44-0.15-1.91-0.46v-1.03c0.57,0.45,1.21,0.67,1.95,0.67c0.29,0,0.56-0.04,0.79-0.11s0.44-0.18,0.61-0.32
			s0.3-0.31,0.39-0.51s0.14-0.42,0.14-0.67c0-1.1-0.78-1.65-2.34-1.65h-0.7v-0.81h0.66c1.38,0,2.07-0.52,2.07-1.55
			c0-0.95-0.53-1.43-1.58-1.43c-0.59,0-1.15,0.2-1.67,0.6v-0.93c0.54-0.32,1.17-0.48,1.91-0.48c0.35,0,0.67,0.05,0.96,0.15
			s0.53,0.23,0.73,0.41s0.36,0.39,0.47,0.63s0.17,0.52,0.17,0.81c0,1.11-0.56,1.82-1.68,2.13v0.02c0.29,0.03,0.55,0.1,0.79,0.21
			s0.45,0.25,0.63,0.42s0.31,0.37,0.41,0.61S173.21,40.14,173.21,40.42z"/>
		<path fill="#1E1E1E" d="M180.08,38.4l2.93,2.91c0.48,0.48,0.89,0.81,1.23,0.98s0.68,0.27,1.02,0.3v0.22h-3.78v-0.22
			c0.23,0,0.39-0.04,0.49-0.11s0.15-0.16,0.15-0.25s-0.02-0.18-0.06-0.25s-0.16-0.21-0.37-0.42l-2.74-2.71v2.56
			c0,0.4,0.03,0.67,0.08,0.8c0.04,0.1,0.12,0.18,0.25,0.25c0.17,0.09,0.35,0.14,0.53,0.14h0.27v0.22h-3.39v-0.22h0.28
			c0.33,0,0.57-0.1,0.71-0.29c0.09-0.12,0.14-0.43,0.14-0.9v-5.13c0-0.4-0.03-0.67-0.08-0.8c-0.04-0.09-0.12-0.18-0.24-0.25
			c-0.17-0.09-0.35-0.14-0.54-0.14h-0.28v-0.22h3.39v0.22h-0.27c-0.18,0-0.36,0.04-0.53,0.13c-0.12,0.06-0.21,0.16-0.25,0.28
			s-0.07,0.38-0.07,0.77v2.43c0.08-0.07,0.35-0.32,0.8-0.74c1.16-1.06,1.86-1.77,2.1-2.13c0.11-0.16,0.16-0.29,0.16-0.41
			c0-0.09-0.04-0.17-0.12-0.24s-0.22-0.1-0.42-0.1h-0.18v-0.22h2.92v0.22c-0.17,0-0.33,0.03-0.47,0.07s-0.31,0.13-0.52,0.25
			s-0.45,0.32-0.75,0.59c-0.09,0.08-0.48,0.48-1.19,1.2L180.08,38.4z"/>
	</g>
	<g>
		<path fill="#1E1E1E" d="M166.11,83.33h-0.96v-7.26c-0.07,0.07-0.18,0.16-0.33,0.25s-0.3,0.19-0.48,0.28s-0.37,0.18-0.56,0.26
			s-0.39,0.15-0.58,0.19v-0.97c0.21-0.06,0.43-0.14,0.67-0.24s0.47-0.21,0.7-0.33s0.44-0.25,0.65-0.39s0.38-0.27,0.53-0.4h0.36
			V83.33z"/>
		<path fill="#1E1E1E" d="M172.58,83.33h-0.96v-7.26c-0.07,0.07-0.18,0.16-0.33,0.25s-0.3,0.19-0.48,0.28s-0.37,0.18-0.56,0.26
			s-0.39,0.15-0.58,0.19v-0.97c0.21-0.06,0.43-0.14,0.67-0.24s0.47-0.21,0.7-0.33s0.44-0.25,0.65-0.39s0.38-0.27,0.53-0.4h0.36
			V83.33z"/>
		<path fill="#1E1E1E" d="M175.33,80.98c0-0.22,0.04-0.45,0.11-0.67s0.17-0.43,0.3-0.63s0.29-0.37,0.49-0.53s0.41-0.29,0.66-0.38
			c-0.36-0.2-0.65-0.46-0.87-0.78s-0.32-0.67-0.32-1.06c0-0.31,0.06-0.59,0.18-0.86s0.28-0.49,0.5-0.68s0.46-0.34,0.75-0.45
			s0.6-0.16,0.94-0.16c0.34,0,0.65,0.05,0.94,0.16s0.54,0.26,0.75,0.45s0.38,0.42,0.49,0.68s0.18,0.54,0.18,0.85
			c0,0.39-0.11,0.74-0.32,1.06s-0.5,0.58-0.86,0.78c0.24,0.09,0.46,0.22,0.65,0.38s0.35,0.34,0.48,0.53s0.23,0.41,0.3,0.63
			s0.11,0.45,0.11,0.67c0,0.37-0.07,0.7-0.2,1.01s-0.32,0.57-0.56,0.78s-0.53,0.39-0.86,0.51s-0.7,0.18-1.1,0.18
			c-0.4,0-0.76-0.06-1.1-0.18s-0.62-0.29-0.86-0.51s-0.43-0.48-0.57-0.78S175.33,81.35,175.33,80.98z M176.37,80.9
			c0,0.26,0.04,0.5,0.12,0.71s0.19,0.39,0.34,0.54s0.32,0.26,0.53,0.34s0.44,0.12,0.69,0.12c0.25,0,0.47-0.04,0.68-0.12
			s0.39-0.2,0.54-0.35s0.27-0.33,0.35-0.54s0.13-0.45,0.13-0.7c0-0.23-0.04-0.45-0.12-0.66s-0.19-0.39-0.34-0.54
			s-0.33-0.28-0.53-0.37s-0.44-0.13-0.7-0.13c-0.24,0-0.47,0.04-0.67,0.13s-0.38,0.2-0.53,0.35s-0.27,0.33-0.35,0.54
			S176.37,80.65,176.37,80.9z M176.67,77.01c0,0.2,0.04,0.38,0.11,0.55s0.17,0.32,0.3,0.45s0.27,0.23,0.44,0.3s0.35,0.11,0.54,0.11
			s0.37-0.04,0.54-0.11s0.32-0.17,0.44-0.3s0.22-0.28,0.3-0.45s0.11-0.35,0.11-0.55c0-0.2-0.04-0.39-0.11-0.56s-0.17-0.32-0.3-0.45
			s-0.27-0.22-0.44-0.3s-0.35-0.11-0.55-0.11c-0.21,0-0.4,0.04-0.57,0.11s-0.32,0.17-0.44,0.3s-0.22,0.28-0.28,0.45
			S176.67,76.81,176.67,77.01z"/>
		<path fill="#1E1E1E" d="M186.86,80.95c0,0.38-0.07,0.72-0.21,1.03s-0.34,0.58-0.6,0.8s-0.57,0.39-0.93,0.51s-0.76,0.18-1.2,0.18
			c-0.8,0-1.44-0.15-1.91-0.46v-1.03c0.57,0.45,1.21,0.67,1.95,0.67c0.29,0,0.56-0.04,0.79-0.11s0.44-0.18,0.61-0.32
			s0.3-0.31,0.39-0.51s0.14-0.42,0.14-0.67c0-1.1-0.78-1.65-2.34-1.65h-0.7v-0.81h0.66c1.38,0,2.07-0.52,2.07-1.55
			c0-0.95-0.53-1.43-1.58-1.43c-0.59,0-1.15,0.2-1.67,0.6v-0.93c0.54-0.32,1.17-0.48,1.91-0.48c0.35,0,0.67,0.05,0.96,0.15
			s0.53,0.23,0.73,0.41s0.36,0.39,0.47,0.63s0.17,0.52,0.17,0.81c0,1.11-0.56,1.82-1.68,2.13v0.02c0.29,0.03,0.55,0.1,0.79,0.21
			s0.45,0.25,0.63,0.42s0.31,0.37,0.41,0.61S186.86,80.67,186.86,80.95z"/>
		<path fill="#1E1E1E" d="M193.73,78.92l2.93,2.91c0.48,0.48,0.89,0.81,1.23,0.98s0.68,0.27,1.02,0.3v0.22h-3.78v-0.22
			c0.23,0,0.39-0.04,0.49-0.11s0.15-0.16,0.15-0.25s-0.02-0.18-0.06-0.25s-0.16-0.21-0.37-0.42l-2.74-2.71v2.56
			c0,0.4,0.03,0.67,0.08,0.8c0.04,0.1,0.12,0.18,0.25,0.25c0.17,0.09,0.35,0.14,0.53,0.14h0.27v0.22h-3.39v-0.22h0.28
			c0.33,0,0.57-0.1,0.71-0.29c0.09-0.12,0.14-0.43,0.14-0.9v-5.13c0-0.4-0.03-0.67-0.08-0.8c-0.04-0.09-0.12-0.18-0.24-0.25
			c-0.17-0.09-0.35-0.14-0.54-0.14h-0.28v-0.22h3.39v0.22h-0.27c-0.18,0-0.36,0.04-0.53,0.13c-0.12,0.06-0.21,0.16-0.25,0.28
			s-0.07,0.38-0.07,0.77v2.43c0.08-0.07,0.35-0.32,0.8-0.74c1.16-1.06,1.86-1.77,2.1-2.13c0.11-0.16,0.16-0.29,0.16-0.41
			c0-0.09-0.04-0.17-0.12-0.24s-0.22-0.1-0.42-0.1h-0.18v-0.22h2.92v0.22c-0.17,0-0.33,0.03-0.47,0.07s-0.31,0.13-0.52,0.25
			s-0.45,0.32-0.75,0.59c-0.09,0.08-0.48,0.48-1.19,1.2L193.73,78.92z"/>
	</g>
	<g>
		<path fill="#1E1E1E" d="M231.23,83.33h-0.96v-7.26c-0.07,0.07-0.18,0.16-0.33,0.25s-0.3,0.19-0.48,0.28s-0.37,0.18-0.56,0.26
			s-0.39,0.15-0.58,0.19v-0.97c0.21-0.06,0.43-0.14,0.67-0.24s0.47-0.21,0.7-0.33s0.44-0.25,0.65-0.39s0.38-0.27,0.53-0.4h0.36
			V83.33z"/>
		<path fill="#1E1E1E" d="M239.44,80.66c0,0.41-0.07,0.79-0.2,1.13s-0.32,0.64-0.55,0.89s-0.51,0.44-0.84,0.58s-0.68,0.21-1.05,0.21
			c-0.42,0-0.8-0.09-1.13-0.26s-0.62-0.43-0.85-0.76s-0.41-0.73-0.53-1.21s-0.18-1.01-0.18-1.61c0-0.73,0.08-1.39,0.24-1.99
			s0.39-1.11,0.69-1.53s0.66-0.75,1.08-0.98s0.89-0.35,1.41-0.35c0.58,0,1.04,0.08,1.39,0.24v0.91c-0.43-0.22-0.89-0.33-1.37-0.33
			c-0.38,0-0.71,0.08-1.01,0.25s-0.56,0.41-0.77,0.71s-0.38,0.68-0.5,1.11s-0.17,0.92-0.17,1.45h0.02c0.39-0.7,1.03-1.05,1.92-1.05
			c0.37,0,0.7,0.06,0.99,0.19s0.55,0.3,0.76,0.53s0.37,0.5,0.48,0.82S239.44,80.28,239.44,80.66z M238.46,80.79
			c0-0.29-0.04-0.56-0.11-0.79s-0.18-0.43-0.32-0.6s-0.31-0.29-0.51-0.38s-0.43-0.13-0.69-0.13c-0.24,0-0.46,0.04-0.66,0.13
			s-0.38,0.21-0.53,0.37s-0.26,0.33-0.35,0.54s-0.13,0.42-0.13,0.65c0,0.29,0.04,0.56,0.12,0.81s0.2,0.47,0.35,0.66
			s0.33,0.33,0.53,0.44s0.43,0.16,0.68,0.16c0.24,0,0.46-0.05,0.66-0.14s0.37-0.22,0.51-0.38s0.25-0.36,0.33-0.59
			S238.46,81.06,238.46,80.79z"/>
		<path fill="#1E1E1E" d="M245.84,75.48c-0.13,0.22-0.28,0.5-0.47,0.83s-0.37,0.71-0.58,1.12s-0.41,0.86-0.62,1.34
			s-0.41,0.97-0.59,1.48s-0.34,1.02-0.48,1.54s-0.24,1.03-0.3,1.54h-1.03c0.07-0.5,0.18-1.01,0.33-1.53s0.31-1.03,0.5-1.54
			s0.38-0.99,0.59-1.45s0.41-0.89,0.6-1.28s0.37-0.74,0.54-1.03s0.29-0.53,0.39-0.7h-4.21v-0.87h5.34V75.48z"/>
		<path fill="#1E1E1E" d="M251.98,80.95c0,0.38-0.07,0.72-0.21,1.03s-0.34,0.58-0.6,0.8s-0.57,0.39-0.93,0.51s-0.76,0.18-1.2,0.18
			c-0.8,0-1.44-0.15-1.91-0.46v-1.03c0.57,0.45,1.21,0.67,1.95,0.67c0.29,0,0.56-0.04,0.79-0.11s0.44-0.18,0.61-0.32
			s0.3-0.31,0.39-0.51s0.14-0.42,0.14-0.67c0-1.1-0.78-1.65-2.34-1.65h-0.7v-0.81h0.66c1.38,0,2.07-0.52,2.07-1.55
			c0-0.95-0.53-1.43-1.58-1.43c-0.59,0-1.15,0.2-1.67,0.6v-0.93c0.54-0.32,1.17-0.48,1.91-0.48c0.35,0,0.67,0.05,0.96,0.15
			s0.53,0.23,0.73,0.41s0.36,0.39,0.47,0.63s0.17,0.52,0.17,0.81c0,1.11-0.56,1.82-1.68,2.13v0.02c0.29,0.03,0.55,0.1,0.79,0.21
			s0.45,0.25,0.63,0.42s0.31,0.37,0.41,0.61S251.98,80.67,251.98,80.95z"/>
		<path fill="#1E1E1E" d="M258.85,78.92l2.93,2.91c0.48,0.48,0.89,0.81,1.23,0.98s0.68,0.27,1.02,0.3v0.22h-3.78v-0.22
			c0.23,0,0.39-0.04,0.49-0.11s0.15-0.16,0.15-0.25s-0.02-0.18-0.06-0.25s-0.16-0.21-0.37-0.42l-2.74-2.71v2.56
			c0,0.4,0.03,0.67,0.08,0.8c0.04,0.1,0.12,0.18,0.25,0.25c0.17,0.09,0.35,0.14,0.53,0.14h0.27v0.22h-3.39v-0.22h0.28
			c0.33,0,0.57-0.1,0.71-0.29c0.09-0.12,0.14-0.43,0.14-0.9v-5.13c0-0.4-0.03-0.67-0.08-0.8c-0.04-0.09-0.12-0.18-0.24-0.25
			c-0.17-0.09-0.35-0.14-0.54-0.14h-0.28v-0.22h3.39v0.22h-0.27c-0.18,0-0.36,0.04-0.53,0.13c-0.12,0.06-0.21,0.16-0.25,0.28
			s-0.07,0.38-0.07,0.77v2.43c0.08-0.07,0.35-0.32,0.8-0.74c1.16-1.06,1.86-1.77,2.1-2.13c0.11-0.16,0.16-0.29,0.16-0.41
			c0-0.09-0.04-0.17-0.12-0.24s-0.22-0.1-0.42-0.1h-0.18v-0.22h2.92v0.22c-0.17,0-0.33,0.03-0.47,0.07s-0.31,0.13-0.52,0.25
			s-0.45,0.32-0.75,0.59c-0.09,0.08-0.48,0.48-1.19,1.2L258.85,78.92z"/>
	</g>
	<g>
		<path fill="#1E1E1E" d="M274.89,74.12h-0.96v-7.26c-0.07,0.07-0.18,0.16-0.33,0.25s-0.3,0.19-0.48,0.28s-0.37,0.18-0.56,0.26
			s-0.39,0.15-0.58,0.19v-0.97c0.21-0.06,0.43-0.14,0.67-0.24s0.47-0.21,0.7-0.33s0.44-0.25,0.65-0.39s0.38-0.27,0.53-0.4h0.36
			V74.12z"/>
		<path fill="#1E1E1E" d="M277.64,71.78c0-0.22,0.04-0.45,0.11-0.67s0.17-0.43,0.3-0.63s0.29-0.37,0.49-0.53s0.41-0.29,0.66-0.38
			c-0.36-0.2-0.65-0.46-0.87-0.78s-0.32-0.67-0.32-1.06c0-0.31,0.06-0.59,0.18-0.86s0.28-0.49,0.5-0.68s0.46-0.34,0.75-0.45
			s0.6-0.16,0.94-0.16c0.34,0,0.65,0.05,0.94,0.16s0.54,0.26,0.75,0.45s0.38,0.42,0.49,0.68s0.18,0.54,0.18,0.85
			c0,0.39-0.11,0.74-0.32,1.06s-0.5,0.58-0.86,0.78c0.24,0.09,0.46,0.22,0.65,0.38s0.35,0.34,0.48,0.53s0.23,0.41,0.3,0.63
			s0.11,0.45,0.11,0.67c0,0.37-0.07,0.7-0.2,1.01s-0.32,0.57-0.56,0.78s-0.53,0.39-0.86,0.51s-0.7,0.18-1.1,0.18
			c-0.4,0-0.76-0.06-1.1-0.18s-0.62-0.29-0.86-0.51s-0.43-0.48-0.57-0.78S277.64,72.15,277.64,71.78z M278.69,71.7
			c0,0.26,0.04,0.5,0.12,0.71s0.19,0.39,0.34,0.54s0.32,0.26,0.53,0.34s0.44,0.12,0.69,0.12c0.25,0,0.47-0.04,0.68-0.12
			s0.39-0.2,0.54-0.35s0.27-0.33,0.35-0.54s0.13-0.45,0.13-0.7c0-0.23-0.04-0.45-0.12-0.66s-0.19-0.39-0.34-0.54
			s-0.33-0.28-0.53-0.37s-0.44-0.13-0.7-0.13c-0.24,0-0.47,0.04-0.67,0.13s-0.38,0.2-0.53,0.35s-0.27,0.33-0.35,0.54
			S278.69,71.45,278.69,71.7z M278.99,67.8c0,0.2,0.04,0.38,0.11,0.55s0.17,0.32,0.3,0.45s0.27,0.23,0.44,0.3s0.35,0.11,0.54,0.11
			s0.37-0.04,0.54-0.11s0.32-0.17,0.44-0.3s0.22-0.28,0.3-0.45s0.11-0.35,0.11-0.55c0-0.2-0.04-0.39-0.11-0.56s-0.17-0.32-0.3-0.45
			s-0.27-0.22-0.44-0.3s-0.35-0.11-0.55-0.11c-0.21,0-0.4,0.04-0.57,0.11s-0.32,0.17-0.44,0.3s-0.22,0.28-0.28,0.45
			S278.99,67.61,278.99,67.8z"/>
		<path fill="#1E1E1E" d="M287.83,74.12h-0.96v-7.26c-0.07,0.07-0.18,0.16-0.33,0.25s-0.3,0.19-0.48,0.28s-0.37,0.18-0.56,0.26
			s-0.39,0.15-0.58,0.19v-0.97c0.21-0.06,0.43-0.14,0.67-0.24s0.47-0.21,0.7-0.33s0.44-0.25,0.65-0.39s0.38-0.27,0.53-0.4h0.36
			V74.12z"/>
		<path fill="#1E1E1E" d="M294.58,67.92c0-0.26-0.04-0.48-0.12-0.67s-0.19-0.35-0.33-0.48s-0.3-0.22-0.49-0.28s-0.39-0.09-0.61-0.09
			c-0.19,0-0.37,0.03-0.55,0.08s-0.35,0.12-0.52,0.21s-0.33,0.2-0.49,0.32s-0.31,0.26-0.44,0.42v-1.03c0.27-0.26,0.57-0.46,0.91-0.6
			s0.74-0.21,1.22-0.21c0.34,0,0.66,0.05,0.96,0.15s0.55,0.25,0.76,0.44s0.38,0.43,0.51,0.71s0.18,0.6,0.18,0.97
			c0,0.33-0.04,0.63-0.11,0.9s-0.19,0.52-0.35,0.76s-0.35,0.47-0.58,0.69s-0.51,0.44-0.83,0.67c-0.39,0.28-0.72,0.52-0.98,0.72
			s-0.46,0.39-0.61,0.56s-0.26,0.35-0.32,0.52s-0.09,0.37-0.09,0.6h4.18v0.86h-5.19v-0.42c0-0.36,0.04-0.68,0.12-0.95
			s0.21-0.53,0.39-0.78s0.42-0.49,0.71-0.74s0.65-0.52,1.07-0.83c0.3-0.22,0.56-0.43,0.76-0.63s0.37-0.4,0.5-0.6s0.21-0.4,0.27-0.61
			S294.58,68.16,294.58,67.92z"/>
		<path fill="#1E1E1E" d="M302.51,69.72l2.93,2.91c0.48,0.48,0.89,0.81,1.23,0.98s0.68,0.27,1.02,0.3v0.22h-3.78v-0.22
			c0.23,0,0.39-0.04,0.49-0.11s0.15-0.16,0.15-0.25s-0.02-0.18-0.06-0.25s-0.16-0.21-0.37-0.42l-2.74-2.71v2.56
			c0,0.4,0.03,0.67,0.08,0.8c0.04,0.1,0.12,0.18,0.25,0.25c0.17,0.09,0.35,0.14,0.53,0.14h0.27v0.22h-3.39v-0.22h0.28
			c0.33,0,0.57-0.1,0.71-0.29c0.09-0.12,0.14-0.43,0.14-0.9v-5.13c0-0.4-0.03-0.67-0.08-0.8c-0.04-0.09-0.12-0.18-0.24-0.25
			c-0.17-0.09-0.35-0.14-0.54-0.14h-0.28v-0.22h3.39v0.22h-0.27c-0.18,0-0.36,0.04-0.53,0.13c-0.12,0.06-0.21,0.16-0.25,0.28
			s-0.07,0.38-0.07,0.77v2.43c0.08-0.07,0.35-0.32,0.8-0.74c1.16-1.06,1.86-1.77,2.1-2.13c0.11-0.16,0.16-0.29,0.16-0.41
			c0-0.09-0.04-0.17-0.12-0.24s-0.22-0.1-0.42-0.1h-0.18v-0.22h2.92v0.22c-0.17,0-0.33,0.03-0.47,0.07s-0.31,0.13-0.52,0.25
			s-0.45,0.32-0.75,0.59c-0.09,0.08-0.48,0.48-1.19,1.2L302.51,69.72z"/>
	</g>
	<g>
		<path fill="#1E1E1E" d="M176.08,159.82h-0.96v-7.26c-0.07,0.07-0.18,0.16-0.33,0.25s-0.3,0.19-0.48,0.28s-0.37,0.18-0.56,0.26
			s-0.39,0.15-0.58,0.19v-0.97c0.21-0.06,0.43-0.14,0.67-0.24s0.47-0.21,0.7-0.33s0.44-0.25,0.65-0.39s0.38-0.27,0.53-0.4h0.36
			V159.82z"/>
		<path fill="#1E1E1E" d="M182.83,153.62c0-0.26-0.04-0.48-0.12-0.67s-0.19-0.35-0.33-0.48s-0.3-0.22-0.49-0.28
			s-0.39-0.09-0.61-0.09c-0.19,0-0.37,0.03-0.55,0.08s-0.35,0.12-0.52,0.21s-0.33,0.2-0.49,0.32s-0.31,0.26-0.44,0.42v-1.03
			c0.27-0.26,0.57-0.46,0.91-0.6s0.74-0.21,1.22-0.21c0.34,0,0.66,0.05,0.96,0.15s0.55,0.25,0.76,0.44s0.38,0.43,0.51,0.71
			s0.18,0.6,0.18,0.97c0,0.33-0.04,0.63-0.11,0.9s-0.19,0.52-0.35,0.76s-0.35,0.47-0.58,0.69s-0.51,0.44-0.83,0.67
			c-0.39,0.28-0.72,0.52-0.98,0.72s-0.46,0.39-0.61,0.56s-0.26,0.35-0.32,0.52s-0.09,0.37-0.09,0.6h4.18v0.86h-5.19v-0.42
			c0-0.36,0.04-0.68,0.12-0.95s0.21-0.53,0.39-0.78s0.42-0.49,0.71-0.74s0.65-0.52,1.07-0.83c0.3-0.22,0.56-0.43,0.76-0.63
			s0.37-0.4,0.5-0.6s0.21-0.4,0.27-0.61S182.83,153.85,182.83,153.62z"/>
		<path fill="#1E1E1E" d="M190.75,155.58c0,0.7-0.06,1.33-0.19,1.87s-0.31,1-0.55,1.37s-0.54,0.66-0.88,0.85s-0.75,0.29-1.19,0.29
			c-0.42,0-0.8-0.09-1.13-0.28s-0.61-0.46-0.83-0.81s-0.4-0.79-0.52-1.31s-0.18-1.11-0.18-1.78c0-0.73,0.06-1.38,0.18-1.95
			s0.3-1.03,0.54-1.42s0.53-0.67,0.89-0.86s0.76-0.29,1.22-0.29C189.87,151.28,190.75,152.71,190.75,155.58z M189.76,155.68
			c0-2.39-0.57-3.59-1.71-3.59c-1.2,0-1.8,1.22-1.8,3.65c0,2.27,0.59,3.4,1.76,3.4C189.18,159.15,189.76,157.99,189.76,155.68z"/>
		<path fill="#1E1E1E" d="M197.22,155.58c0,0.7-0.06,1.33-0.19,1.87s-0.31,1-0.55,1.37s-0.54,0.66-0.88,0.85s-0.75,0.29-1.19,0.29
			c-0.42,0-0.8-0.09-1.13-0.28s-0.61-0.46-0.83-0.81s-0.4-0.79-0.52-1.31s-0.18-1.11-0.18-1.78c0-0.73,0.06-1.38,0.18-1.95
			s0.3-1.03,0.54-1.42s0.53-0.67,0.89-0.86s0.76-0.29,1.22-0.29C196.34,151.28,197.22,152.71,197.22,155.58z M196.23,155.68
			c0-2.39-0.57-3.59-1.71-3.59c-1.2,0-1.8,1.22-1.8,3.65c0,2.27,0.59,3.4,1.76,3.4C195.65,159.15,196.23,157.99,196.23,155.68z"/>
	</g>
	<g>
		<path fill="#1E1E1E" d="M233.22,159.82h-0.96v-7.26c-0.07,0.07-0.18,0.16-0.33,0.25s-0.3,0.19-0.48,0.28s-0.37,0.18-0.56,0.26
			s-0.39,0.15-0.58,0.19v-0.97c0.21-0.06,0.43-0.14,0.67-0.24s0.47-0.21,0.7-0.33s0.44-0.25,0.65-0.39s0.38-0.27,0.53-0.4h0.36
			V159.82z"/>
		<path fill="#1E1E1E" d="M241.44,157.16c0,0.41-0.07,0.79-0.2,1.13s-0.32,0.64-0.55,0.89s-0.51,0.44-0.84,0.58
			s-0.68,0.21-1.05,0.21c-0.42,0-0.8-0.09-1.13-0.26s-0.62-0.43-0.85-0.76s-0.41-0.73-0.53-1.21s-0.18-1.01-0.18-1.61
			c0-0.73,0.08-1.39,0.24-1.99s0.39-1.11,0.69-1.53s0.66-0.75,1.08-0.98s0.89-0.35,1.41-0.35c0.58,0,1.04,0.08,1.39,0.24v0.91
			c-0.43-0.22-0.89-0.33-1.37-0.33c-0.38,0-0.71,0.08-1.01,0.25s-0.56,0.41-0.77,0.71s-0.38,0.68-0.5,1.11s-0.17,0.92-0.17,1.45
			h0.02c0.39-0.7,1.03-1.05,1.92-1.05c0.37,0,0.7,0.06,0.99,0.19s0.55,0.3,0.76,0.53s0.37,0.5,0.48,0.82
			S241.44,156.77,241.44,157.16z M240.45,157.28c0-0.29-0.04-0.56-0.11-0.79s-0.18-0.43-0.32-0.6s-0.31-0.29-0.51-0.38
			s-0.43-0.13-0.69-0.13c-0.24,0-0.46,0.04-0.66,0.13s-0.38,0.21-0.53,0.37s-0.26,0.33-0.35,0.54s-0.13,0.42-0.13,0.65
			c0,0.29,0.04,0.56,0.12,0.81s0.2,0.47,0.35,0.66s0.33,0.33,0.53,0.44s0.43,0.16,0.68,0.16c0.24,0,0.46-0.05,0.66-0.14
			s0.37-0.22,0.51-0.38s0.25-0.36,0.33-0.59S240.45,157.56,240.45,157.28z"/>
		<path fill="#1E1E1E" d="M247.9,155.58c0,0.7-0.06,1.33-0.19,1.87s-0.31,1-0.55,1.37s-0.54,0.66-0.88,0.85s-0.75,0.29-1.19,0.29
			c-0.42,0-0.8-0.09-1.13-0.28s-0.61-0.46-0.83-0.81s-0.4-0.79-0.52-1.31s-0.18-1.11-0.18-1.78c0-0.73,0.06-1.38,0.18-1.95
			s0.3-1.03,0.54-1.42s0.53-0.67,0.89-0.86s0.76-0.29,1.22-0.29C247.01,151.28,247.9,152.71,247.9,155.58z M246.91,155.68
			c0-2.39-0.57-3.59-1.71-3.59c-1.2,0-1.8,1.22-1.8,3.65c0,2.27,0.59,3.4,1.76,3.4C246.33,159.15,246.91,157.99,246.91,155.68z"/>
		<path fill="#1E1E1E" d="M254.36,155.58c0,0.7-0.06,1.33-0.19,1.87s-0.31,1-0.55,1.37s-0.54,0.66-0.88,0.85s-0.75,0.29-1.19,0.29
			c-0.42,0-0.8-0.09-1.13-0.28s-0.61-0.46-0.83-0.81s-0.4-0.79-0.52-1.31s-0.18-1.11-0.18-1.78c0-0.73,0.06-1.38,0.18-1.95
			s0.3-1.03,0.54-1.42s0.53-0.67,0.89-0.86s0.76-0.29,1.22-0.29C253.48,151.28,254.36,152.71,254.36,155.58z M253.38,155.68
			c0-2.39-0.57-3.59-1.71-3.59c-1.2,0-1.8,1.22-1.8,3.65c0,2.27,0.59,3.4,1.76,3.4C252.8,159.15,253.38,157.99,253.38,155.68z"/>
	</g>
	<g>
		<path fill="#1E1E1E" d="M274.1,158.08h-2.43v7.51h-0.98v-7.51h-2.42v-0.89h5.83V158.08z"/>
		<path fill="#1E1E1E" d="M278.94,162.83h-4.24c0.02,0.67,0.2,1.18,0.54,1.55s0.82,0.54,1.42,0.54c0.68,0,1.3-0.22,1.86-0.67v0.9
			c-0.53,0.38-1.22,0.57-2.09,0.57c-0.85,0-1.51-0.27-2-0.82s-0.73-1.31-0.73-2.3c0-0.93,0.26-1.69,0.79-2.28s1.19-0.88,1.97-0.88
			s1.39,0.25,1.82,0.76s0.64,1.21,0.64,2.12V162.83z M277.95,162.01c0-0.55-0.14-0.99-0.4-1.29s-0.63-0.46-1.1-0.46
			c-0.45,0-0.84,0.16-1.15,0.49s-0.51,0.75-0.59,1.27H277.95z"/>
		<path fill="#1E1E1E" d="M288.91,165.59h-0.96v-3.45c0-0.66-0.1-1.14-0.31-1.44s-0.55-0.45-1.03-0.45c-0.41,0-0.76,0.19-1.05,0.56
			s-0.43,0.82-0.43,1.35v3.42h-0.96v-3.56c0-1.18-0.46-1.77-1.37-1.77c-0.42,0-0.77,0.18-1.04,0.53s-0.41,0.81-0.41,1.38v3.42h-0.96
			v-6h0.96v0.95h0.02c0.43-0.73,1.05-1.09,1.86-1.09c0.41,0,0.77,0.11,1.07,0.34s0.51,0.53,0.63,0.9c0.45-0.83,1.11-1.24,1.99-1.24
			c1.32,0,1.98,0.81,1.98,2.44V165.59z"/>
		<path fill="#1E1E1E" d="M291.71,164.72h-0.02v3.63h-0.96v-8.76h0.96v1.05h0.02c0.47-0.8,1.16-1.2,2.07-1.2
			c0.77,0,1.38,0.27,1.81,0.81s0.65,1.26,0.65,2.16c0,1-0.24,1.81-0.73,2.41s-1.16,0.91-2,0.91
			C292.73,165.73,292.13,165.39,291.71,164.72z M291.69,162.3v0.84c0,0.5,0.16,0.92,0.48,1.26s0.73,0.52,1.23,0.52
			c0.58,0,1.04-0.22,1.37-0.67s0.5-1.06,0.5-1.86c0-0.67-0.15-1.19-0.46-1.57s-0.73-0.57-1.25-0.57c-0.56,0-1.01,0.19-1.35,0.58
			S291.69,161.72,291.69,162.3z"/>
		<path fill="#1E1E1E" d="M302.6,162.83h-4.24c0.02,0.67,0.2,1.18,0.54,1.55s0.82,0.54,1.42,0.54c0.68,0,1.3-0.22,1.86-0.67v0.9
			c-0.53,0.38-1.22,0.57-2.09,0.57c-0.85,0-1.51-0.27-2-0.82s-0.73-1.31-0.73-2.3c0-0.93,0.26-1.69,0.79-2.28s1.19-0.88,1.97-0.88
			s1.39,0.25,1.82,0.76s0.64,1.21,0.64,2.12V162.83z M301.62,162.01c0-0.55-0.14-0.99-0.4-1.29s-0.63-0.46-1.1-0.46
			c-0.45,0-0.84,0.16-1.15,0.49s-0.51,0.75-0.59,1.27H301.62z"/>
		<path fill="#1E1E1E" d="M307.18,160.56c-0.17-0.13-0.41-0.19-0.73-0.19c-0.41,0-0.75,0.19-1.03,0.58s-0.41,0.91-0.41,1.58v3.06
			h-0.96v-6h0.96v1.24h0.02c0.14-0.42,0.35-0.75,0.63-0.99s0.6-0.35,0.94-0.35c0.25,0,0.44,0.03,0.57,0.08V160.56z"/>
		<path fill="#1E1E1E" d="M312.52,165.59h-0.96v-0.94h-0.02c-0.42,0.72-1.03,1.08-1.85,1.08c-0.6,0-1.07-0.16-1.4-0.47
			s-0.51-0.74-0.51-1.26c0-1.12,0.66-1.77,1.98-1.96l1.8-0.25c0-1.02-0.41-1.53-1.24-1.53c-0.72,0-1.38,0.25-1.96,0.74v-0.98
			c0.59-0.38,1.27-0.56,2.04-0.56c1.41,0,2.12,0.75,2.12,2.24V165.59z M311.56,162.55l-1.45,0.2c-0.45,0.06-0.78,0.17-1.01,0.33
			s-0.34,0.44-0.34,0.84c0,0.29,0.1,0.53,0.31,0.72s0.49,0.28,0.83,0.28c0.48,0,0.87-0.17,1.18-0.5s0.47-0.76,0.47-1.27V162.55z"/>
		<path fill="#1E1E1E" d="M317.12,165.53c-0.23,0.12-0.53,0.19-0.9,0.19c-1.05,0-1.58-0.59-1.58-1.76v-3.55h-1.03v-0.82h1.03v-1.46
			l0.96-0.31v1.78h1.51v0.82h-1.51v3.38c0,0.4,0.07,0.69,0.21,0.86s0.36,0.26,0.68,0.26c0.24,0,0.45-0.07,0.63-0.2V165.53z"/>
		<path fill="#1E1E1E" d="M323.25,165.59h-0.96v-0.95h-0.02c-0.4,0.73-1.02,1.09-1.85,1.09c-1.43,0-2.14-0.85-2.14-2.55v-3.59h0.96
			v3.43c0,1.27,0.48,1.9,1.45,1.9c0.47,0,0.85-0.17,1.16-0.52s0.45-0.8,0.45-1.36v-3.46h0.96V165.59z"/>
		<path fill="#1E1E1E" d="M328.32,160.56c-0.17-0.13-0.41-0.19-0.73-0.19c-0.41,0-0.75,0.19-1.03,0.58s-0.41,0.91-0.41,1.58v3.06
			h-0.96v-6h0.96v1.24h0.02c0.14-0.42,0.35-0.75,0.63-0.99s0.6-0.35,0.94-0.35c0.25,0,0.44,0.03,0.57,0.08V160.56z"/>
		<path fill="#1E1E1E" d="M334.18,162.83h-4.24c0.02,0.67,0.2,1.18,0.54,1.55s0.82,0.54,1.42,0.54c0.68,0,1.3-0.22,1.86-0.67v0.9
			c-0.53,0.38-1.22,0.57-2.09,0.57c-0.85,0-1.51-0.27-2-0.82s-0.73-1.31-0.73-2.3c0-0.93,0.26-1.69,0.79-2.28s1.19-0.88,1.97-0.88
			s1.39,0.25,1.82,0.76s0.64,1.21,0.64,2.12V162.83z M333.2,162.01c0-0.55-0.14-0.99-0.4-1.29s-0.63-0.46-1.1-0.46
			c-0.45,0-0.84,0.16-1.15,0.49s-0.51,0.75-0.59,1.27H333.2z"/>
		<path fill="#1E1E1E" d="M342.3,168.33v0.25c-0.69-0.35-1.26-0.75-1.72-1.22c-0.66-0.66-1.16-1.44-1.52-2.34s-0.53-1.83-0.53-2.8
			c0-1.41,0.35-2.7,1.05-3.87s1.61-2,2.73-2.5v0.29c-0.56,0.31-1.02,0.73-1.38,1.27s-0.63,1.22-0.81,2.04s-0.27,1.69-0.27,2.58
			c0,0.98,0.08,1.86,0.23,2.66c0.12,0.63,0.26,1.13,0.43,1.51s0.4,0.75,0.68,1.1S341.84,168.01,342.3,168.33z"/>
		<path fill="#1E1E1E" d="M347.15,160.45l3.42,3.4c0.56,0.56,1.04,0.94,1.44,1.15s0.79,0.32,1.19,0.35v0.25h-4.41v-0.25
			c0.26,0,0.45-0.04,0.57-0.13s0.17-0.19,0.17-0.3s-0.02-0.21-0.06-0.29s-0.19-0.25-0.43-0.49l-3.2-3.17v2.99
			c0,0.47,0.03,0.78,0.09,0.93c0.05,0.11,0.14,0.21,0.29,0.29c0.2,0.11,0.4,0.16,0.62,0.16h0.31v0.25h-3.95v-0.25h0.33
			c0.38,0,0.66-0.11,0.83-0.33c0.11-0.15,0.16-0.5,0.16-1.05v-5.99c0-0.47-0.03-0.78-0.09-0.94c-0.05-0.11-0.14-0.21-0.28-0.29
			c-0.2-0.11-0.41-0.16-0.63-0.16h-0.33v-0.25h3.95v0.25h-0.31c-0.21,0-0.42,0.05-0.62,0.16c-0.14,0.07-0.24,0.18-0.29,0.33
			s-0.08,0.45-0.08,0.9v2.84c0.09-0.09,0.4-0.38,0.94-0.87c1.35-1.24,2.17-2.07,2.45-2.48c0.12-0.18,0.18-0.34,0.18-0.48
			c0-0.1-0.05-0.2-0.14-0.28s-0.26-0.12-0.49-0.12h-0.21v-0.25h3.4v0.25c-0.2,0-0.38,0.03-0.55,0.08s-0.36,0.15-0.6,0.29
			s-0.53,0.38-0.88,0.69c-0.1,0.09-0.56,0.56-1.39,1.4L347.15,160.45z"/>
		<path fill="#1E1E1E" d="M353.74,156.16v-0.29c0.69,0.34,1.27,0.75,1.73,1.21c0.65,0.67,1.16,1.45,1.51,2.34s0.53,1.83,0.53,2.8
			c0,1.41-0.35,2.7-1.04,3.87s-1.61,2-2.73,2.5v-0.25c0.56-0.31,1.02-0.74,1.38-1.27s0.63-1.22,0.81-2.04s0.26-1.69,0.26-2.59
			c0-0.97-0.08-1.86-0.23-2.66c-0.11-0.63-0.26-1.13-0.43-1.51s-0.4-0.74-0.68-1.09S354.2,156.47,353.74,156.16z"/>
	</g>
	<g>
		<g>
			<path fill="#1E1E1E" d="M93.59,106.43v3.64h1.69c0.39,0,0.67-0.09,0.85-0.26s0.3-0.51,0.36-1.02h0.25v3.14h-0.25
				c0-0.36-0.05-0.62-0.14-0.79s-0.21-0.29-0.37-0.38s-0.39-0.13-0.7-0.13h-1.69v2.91c0,0.47,0.03,0.78,0.09,0.93
				c0.05,0.11,0.14,0.21,0.29,0.29c0.2,0.11,0.41,0.16,0.63,0.16h0.33v0.25h-3.98v-0.25h0.33c0.38,0,0.66-0.11,0.83-0.33
				c0.11-0.15,0.16-0.5,0.16-1.05v-5.99c0-0.47-0.03-0.78-0.09-0.93c-0.05-0.11-0.14-0.21-0.28-0.29c-0.2-0.11-0.41-0.16-0.63-0.16
				h-0.33v-0.25h6.9l0.09,2.04H97.7c-0.12-0.43-0.26-0.75-0.41-0.95s-0.35-0.35-0.58-0.44s-0.59-0.14-1.07-0.14H93.59z"/>
			<path fill="#1E1E1E" d="M100.35,111.29c0,0.93,0.22,1.66,0.68,2.19s0.99,0.79,1.61,0.79c0.41,0,0.77-0.11,1.07-0.34
				s0.56-0.61,0.76-1.16l0.21,0.14c-0.1,0.62-0.37,1.19-0.83,1.71s-1.04,0.77-1.73,0.77c-0.75,0-1.4-0.29-1.93-0.88
				s-0.8-1.37-0.8-2.36c0-1.07,0.27-1.91,0.82-2.51s1.24-0.9,2.07-0.9c0.7,0,1.28,0.23,1.73,0.69s0.68,1.08,0.68,1.86H100.35z
				 M100.35,110.89h2.9c-0.02-0.4-0.07-0.68-0.14-0.85c-0.11-0.26-0.28-0.46-0.51-0.6s-0.46-0.22-0.71-0.22
				c-0.38,0-0.72,0.15-1.02,0.44S100.4,110.37,100.35,110.89z"/>
		</g>
	</g>
	<g>
		<g>
			<path fill="#1E1E1E" d="M259.9,118.77v3.12h1.45c0.33,0,0.58-0.07,0.73-0.22s0.26-0.44,0.31-0.87h0.22v2.69h-0.22
				c0-0.31-0.04-0.54-0.12-0.68s-0.18-0.25-0.32-0.33s-0.33-0.11-0.6-0.11h-1.45v2.5c0,0.4,0.03,0.67,0.08,0.8
				c0.04,0.1,0.12,0.18,0.25,0.25c0.17,0.09,0.35,0.14,0.54,0.14h0.29v0.22h-3.41v-0.22h0.28c0.33,0,0.57-0.1,0.71-0.29
				c0.09-0.12,0.14-0.43,0.14-0.9v-5.13c0-0.4-0.03-0.67-0.08-0.8c-0.04-0.1-0.12-0.18-0.24-0.25c-0.17-0.09-0.35-0.14-0.54-0.14
				h-0.28v-0.22h5.91l0.08,1.75h-0.21c-0.1-0.37-0.22-0.64-0.35-0.82s-0.3-0.3-0.5-0.38s-0.5-0.12-0.92-0.12H259.9z"/>
			<path fill="#1E1E1E" d="M265.39,122.94c0,0.8,0.19,1.42,0.58,1.88s0.85,0.68,1.38,0.68c0.35,0,0.66-0.1,0.92-0.29
				s0.48-0.52,0.65-0.99l0.18,0.12c-0.08,0.54-0.32,1.02-0.71,1.46s-0.89,0.66-1.48,0.66c-0.64,0-1.2-0.25-1.66-0.75
				s-0.69-1.18-0.69-2.02c0-0.92,0.24-1.63,0.71-2.15s1.06-0.77,1.77-0.77c0.6,0,1.1,0.2,1.48,0.59s0.58,0.93,0.58,1.59H265.39z
				 M265.39,122.6h2.48c-0.02-0.34-0.06-0.59-0.12-0.73c-0.1-0.22-0.24-0.39-0.44-0.52s-0.4-0.19-0.61-0.19
				c-0.32,0-0.61,0.13-0.87,0.38S265.43,122.15,265.39,122.6z"/>
			<path fill="#1E1E1E" d="M275.06,120.92h1l-0.6,2.71c-0.12,0.52-0.2,0.83-0.24,0.95c0.16,0.72,0.38,1.08,0.68,1.08
				c0.35,0,0.53-0.24,0.54-0.73h0.21c-0.01,0.45-0.09,0.82-0.25,1.1s-0.36,0.42-0.61,0.42c-0.21,0-0.36-0.08-0.46-0.25
				s-0.21-0.51-0.33-1.03c-0.41,0.86-1.07,1.28-1.99,1.28c-0.63,0-1.13-0.25-1.5-0.74s-0.56-1.19-0.56-2.11c0-0.9,0.2-1.6,0.61-2.1
				s0.89-0.75,1.46-0.75c0.4,0,0.73,0.14,0.99,0.43s0.49,0.75,0.69,1.39L275.06,120.92z M274.54,123.21
				c-0.18-0.63-0.39-1.12-0.62-1.47s-0.5-0.53-0.81-0.53c-0.71,0-1.07,0.84-1.07,2.51c0,1.59,0.34,2.38,1.03,2.38
				c0.59,0,1.03-0.7,1.32-2.1L274.54,123.21z"/>
		</g>
	</g>
	<g>
		<path fill="#1E1E1E" d="M299.73,82.34v3.12h1.45c0.33,0,0.58-0.07,0.73-0.22s0.26-0.44,0.31-0.87h0.22v2.69h-0.22
			c0-0.31-0.04-0.54-0.12-0.68s-0.18-0.25-0.32-0.33s-0.33-0.11-0.6-0.11h-1.45v2.5c0,0.4,0.03,0.67,0.08,0.8
			c0.04,0.1,0.12,0.18,0.25,0.25c0.17,0.09,0.35,0.14,0.54,0.14h0.29v0.22h-3.41v-0.22h0.28c0.33,0,0.57-0.1,0.71-0.29
			c0.09-0.12,0.14-0.43,0.14-0.9v-5.13c0-0.4-0.03-0.67-0.08-0.8c-0.04-0.1-0.12-0.18-0.24-0.25c-0.17-0.09-0.35-0.14-0.54-0.14
			h-0.28v-0.22h5.91l0.08,1.75h-0.21c-0.1-0.37-0.22-0.64-0.35-0.82s-0.3-0.3-0.5-0.38s-0.5-0.12-0.92-0.12H299.73z"/>
		<path fill="#1E1E1E" d="M305.23,86.51c0,0.8,0.19,1.42,0.58,1.88s0.85,0.68,1.38,0.68c0.35,0,0.66-0.1,0.92-0.29
			s0.48-0.52,0.65-0.99l0.18,0.12c-0.08,0.54-0.32,1.02-0.71,1.46s-0.89,0.66-1.48,0.66c-0.64,0-1.2-0.25-1.66-0.75
			s-0.69-1.18-0.69-2.02c0-0.92,0.24-1.63,0.71-2.15s1.06-0.77,1.77-0.77c0.6,0,1.1,0.2,1.48,0.59s0.58,0.93,0.58,1.59H305.23z
			 M305.23,86.17h2.48c-0.02-0.34-0.06-0.59-0.12-0.73c-0.1-0.22-0.24-0.39-0.44-0.52s-0.4-0.19-0.61-0.19
			c-0.32,0-0.61,0.13-0.87,0.38S305.27,85.72,305.23,86.17z"/>
		<path fill="#1E1E1E" d="M299.5,93.52v7.12c0,0.34,0.02,0.56,0.07,0.67s0.12,0.19,0.23,0.25s0.29,0.08,0.57,0.08v0.21h-2.63v-0.21
			c0.25,0,0.41-0.03,0.5-0.08s0.16-0.13,0.21-0.25s0.08-0.34,0.08-0.67v-4.88c0-0.61-0.01-0.98-0.04-1.12s-0.07-0.23-0.13-0.28
			s-0.14-0.08-0.23-0.08c-0.1,0-0.23,0.03-0.39,0.09l-0.1-0.21l1.6-0.66H299.5z"/>
		<path fill="#1E1E1E" d="M302.84,96.33v4.31c0,0.34,0.02,0.56,0.07,0.67s0.12,0.19,0.22,0.25s0.27,0.08,0.52,0.08v0.21h-2.61v-0.21
			c0.26,0,0.44-0.03,0.53-0.08s0.16-0.13,0.21-0.25s0.08-0.34,0.08-0.67v-2.07c0-0.58-0.02-0.96-0.05-1.13
			c-0.03-0.12-0.07-0.21-0.13-0.26s-0.14-0.07-0.24-0.07c-0.11,0-0.24,0.03-0.4,0.09l-0.08-0.21l1.62-0.66H302.84z M302.35,93.52
			c0.16,0,0.3,0.06,0.42,0.17s0.17,0.25,0.17,0.42s-0.06,0.3-0.17,0.42s-0.25,0.18-0.42,0.18s-0.3-0.06-0.42-0.18
			s-0.18-0.26-0.18-0.42s0.06-0.3,0.17-0.42S302.19,93.52,302.35,93.52z"/>
		<path fill="#1E1E1E" d="M309.07,96.33v6.9c0,0.34,0.02,0.56,0.07,0.66s0.12,0.17,0.22,0.23s0.29,0.08,0.58,0.08v0.22h-2.71v-0.22
			h0.11c0.22,0,0.38-0.03,0.5-0.09c0.08-0.04,0.14-0.12,0.19-0.23s0.07-0.33,0.07-0.65v-2.31c-0.36,0.42-0.67,0.71-0.93,0.86
			s-0.54,0.23-0.83,0.23c-0.52,0-0.98-0.24-1.39-0.71s-0.61-1.11-0.61-1.9c0-0.91,0.27-1.65,0.81-2.22s1.19-0.86,1.95-0.86
			c0.22,0,0.43,0.03,0.62,0.09s0.36,0.16,0.5,0.28c0.23-0.11,0.44-0.23,0.65-0.38H309.07z M308.11,100.55v-2.52
			c0-0.29-0.04-0.52-0.11-0.69s-0.21-0.31-0.41-0.43s-0.42-0.18-0.66-0.18c-0.44,0-0.81,0.19-1.12,0.56s-0.47,0.93-0.47,1.69
			c0,0.72,0.16,1.27,0.48,1.65s0.7,0.56,1.15,0.56c0.23,0,0.44-0.05,0.62-0.15S307.93,100.78,308.11,100.55z"/>
		<path fill="#1E1E1E" d="M315.03,96.49v3.25c0,0.62,0.01,1,0.04,1.14s0.08,0.24,0.14,0.29s0.14,0.08,0.23,0.08
			c0.12,0,0.26-0.03,0.41-0.1l0.08,0.21l-1.61,0.66h-0.26v-1.14c-0.46,0.5-0.81,0.81-1.05,0.94s-0.5,0.19-0.77,0.19
			c-0.3,0-0.56-0.09-0.78-0.26s-0.37-0.4-0.46-0.67s-0.13-0.66-0.13-1.16v-2.4c0-0.25-0.03-0.43-0.08-0.53s-0.14-0.17-0.24-0.23
			s-0.3-0.08-0.58-0.07v-0.22h1.88v3.59c0,0.5,0.09,0.83,0.26,0.98s0.38,0.23,0.63,0.23c0.17,0,0.36-0.05,0.57-0.16
			s0.47-0.31,0.76-0.6V97.5c0-0.3-0.06-0.51-0.17-0.62s-0.34-0.17-0.69-0.17v-0.22H315.03z"/>
		<path fill="#1E1E1E" d="M318.17,96.33v4.31c0,0.34,0.02,0.56,0.07,0.67s0.12,0.19,0.22,0.25s0.27,0.08,0.52,0.08v0.21h-2.61v-0.21
			c0.26,0,0.44-0.03,0.53-0.08s0.16-0.13,0.21-0.25s0.08-0.34,0.08-0.67v-2.07c0-0.58-0.02-0.96-0.05-1.13
			c-0.03-0.12-0.07-0.21-0.13-0.26s-0.14-0.07-0.24-0.07c-0.11,0-0.24,0.03-0.4,0.09l-0.08-0.21l1.62-0.66H318.17z M317.69,93.52
			c0.16,0,0.3,0.06,0.42,0.17s0.17,0.25,0.17,0.42s-0.06,0.3-0.17,0.42s-0.25,0.18-0.42,0.18s-0.3-0.06-0.42-0.18
			s-0.18-0.26-0.18-0.42s0.06-0.3,0.17-0.42S317.52,93.52,317.69,93.52z"/>
		<path fill="#1E1E1E" d="M323.45,101.25c-0.26,0.27-0.52,0.47-0.77,0.59s-0.52,0.18-0.81,0.18c-0.59,0-1.1-0.25-1.54-0.74
			s-0.66-1.12-0.66-1.89s0.24-1.47,0.73-2.11s1.11-0.96,1.87-0.96c0.47,0,0.86,0.15,1.17,0.45v-0.99c0-0.61-0.01-0.99-0.04-1.13
			s-0.08-0.24-0.14-0.29s-0.14-0.08-0.23-0.08c-0.1,0-0.24,0.03-0.4,0.09l-0.08-0.21l1.6-0.66h0.26v6.21c0,0.63,0.01,1.01,0.04,1.15
			s0.08,0.24,0.14,0.29s0.14,0.08,0.23,0.08c0.11,0,0.25-0.03,0.42-0.1l0.06,0.21l-1.59,0.66h-0.27V101.25z M323.45,100.84v-2.77
			c-0.02-0.27-0.09-0.51-0.21-0.73s-0.27-0.38-0.47-0.5s-0.38-0.17-0.57-0.17c-0.34,0-0.65,0.15-0.92,0.46
			c-0.36,0.41-0.53,1-0.53,1.78c0,0.79,0.17,1.39,0.52,1.81s0.73,0.63,1.15,0.63C322.77,101.37,323.12,101.2,323.45,100.84z"/>
	</g>
	<g>
		<path fill="#1E1E1E" d="M20.54,114.17v0.98h-3.83v4.35h3.83v0.98h-8.4v-0.98h3.69v-4.35h-3.69v-0.98H20.54z"/>
		<path fill="#1E1E1E" d="M17.78,107.27v4.24c0.67-0.02,1.18-0.2,1.55-0.54s0.54-0.82,0.54-1.42c0-0.68-0.22-1.3-0.67-1.86h0.9
			c0.38,0.53,0.57,1.22,0.57,2.09c0,0.85-0.27,1.51-0.82,2s-1.31,0.73-2.3,0.73c-0.93,0-1.69-0.26-2.28-0.79s-0.88-1.19-0.88-1.97
			s0.25-1.39,0.76-1.82s1.21-0.64,2.12-0.64H17.78z M16.97,108.26c-0.55,0-0.99,0.14-1.29,0.4s-0.46,0.63-0.46,1.1
			c0,0.45,0.16,0.84,0.49,1.15s0.75,0.51,1.27,0.59V108.26z"/>
		<path fill="#1E1E1E" d="M20.54,101.52v0.96H19.6v0.02c0.72,0.42,1.08,1.03,1.08,1.85c0,0.6-0.16,1.07-0.47,1.4
			s-0.74,0.51-1.26,0.51c-1.12,0-1.77-0.66-1.96-1.98l-0.25-1.8c-1.02,0-1.53,0.41-1.53,1.24c0,0.72,0.25,1.38,0.74,1.96h-0.98
			c-0.38-0.59-0.56-1.27-0.56-2.04c0-1.41,0.75-2.12,2.24-2.12H20.54z M17.5,102.49l0.2,1.45c0.06,0.45,0.17,0.78,0.33,1.01
			s0.44,0.34,0.84,0.34c0.29,0,0.53-0.1,0.72-0.31s0.28-0.49,0.28-0.83c0-0.48-0.17-0.87-0.5-1.18s-0.76-0.47-1.27-0.47H17.5z"/>
		<path fill="#1E1E1E" d="M20.48,96.93c0.12,0.23,0.19,0.53,0.19,0.9c0,1.05-0.59,1.58-1.76,1.58h-3.55v1.03h-0.82V99.4h-1.46
			l-0.31-0.96h1.78v-1.51h0.82v1.51h3.38c0.4,0,0.69-0.07,0.86-0.21s0.26-0.36,0.26-0.68c0-0.24-0.07-0.45-0.2-0.63H20.48z"/>
		<path fill="#1E1E1E" d="M20.26,88.27c0.28,0.46,0.42,1.01,0.42,1.64c0,0.86-0.28,1.55-0.83,2.07s-1.28,0.79-2.17,0.79
			c-0.99,0-1.78-0.28-2.38-0.85s-0.9-1.32-0.9-2.27c0-0.53,0.1-0.99,0.29-1.39h0.98c-0.31,0.45-0.47,0.92-0.47,1.43
			c0,0.61,0.22,1.12,0.66,1.51s1.02,0.59,1.73,0.59c0.7,0,1.26-0.18,1.66-0.55s0.61-0.86,0.61-1.49c0-0.52-0.17-1.02-0.52-1.48
			H20.26z"/>
		<path fill="#1E1E1E" d="M20.54,82.52v0.96H19.6v0.02c0.72,0.42,1.08,1.03,1.08,1.85c0,0.6-0.16,1.07-0.47,1.4
			s-0.74,0.51-1.26,0.51c-1.12,0-1.77-0.66-1.96-1.98l-0.25-1.8c-1.02,0-1.53,0.41-1.53,1.24c0,0.72,0.25,1.38,0.74,1.96h-0.98
			c-0.38-0.59-0.56-1.27-0.56-2.04c0-1.41,0.75-2.12,2.24-2.12H20.54z M17.5,83.48l0.2,1.45c0.06,0.45,0.17,0.78,0.33,1.01
			s0.44,0.34,0.84,0.34c0.29,0,0.53-0.1,0.72-0.31s0.28-0.49,0.28-0.83c0-0.48-0.17-0.87-0.5-1.18s-0.76-0.47-1.27-0.47H17.5z"/>
		<path fill="#1E1E1E" d="M19.67,79.73v0.02h3.63v0.96h-8.76v-0.96h1.05v-0.02c-0.8-0.47-1.2-1.16-1.2-2.07
			c0-0.77,0.27-1.38,0.81-1.81s1.26-0.65,2.16-0.65c1,0,1.81,0.24,2.41,0.73s0.91,1.16,0.91,2C20.68,78.71,20.34,79.31,19.67,79.73z
			 M17.25,79.75h0.84c0.5,0,0.92-0.16,1.26-0.48s0.52-0.73,0.52-1.23c0-0.58-0.22-1.04-0.67-1.37s-1.06-0.5-1.86-0.5
			c-0.67,0-1.19,0.15-1.57,0.46s-0.57,0.73-0.57,1.25c0,0.56,0.19,1.01,0.58,1.35S16.67,79.75,17.25,79.75z"/>
		<path fill="#1E1E1E" d="M20.54,69.36v0.96H19.6v0.02c0.72,0.42,1.08,1.03,1.08,1.85c0,0.6-0.16,1.07-0.47,1.4
			s-0.74,0.51-1.26,0.51c-1.12,0-1.77-0.66-1.96-1.98l-0.25-1.8c-1.02,0-1.53,0.41-1.53,1.24c0,0.72,0.25,1.38,0.74,1.96h-0.98
			c-0.38-0.59-0.56-1.27-0.56-2.04c0-1.41,0.75-2.12,2.24-2.12H20.54z M17.5,70.32l0.2,1.45c0.06,0.45,0.17,0.78,0.33,1.01
			s0.44,0.34,0.84,0.34c0.29,0,0.53-0.1,0.72-0.31s0.28-0.49,0.28-0.83c0-0.48-0.17-0.87-0.5-1.18s-0.76-0.47-1.27-0.47H17.5z"/>
		<path fill="#1E1E1E" d="M20.26,63.46c0.28,0.46,0.42,1.01,0.42,1.64c0,0.86-0.28,1.55-0.83,2.07s-1.28,0.79-2.17,0.79
			c-0.99,0-1.78-0.28-2.38-0.85s-0.9-1.32-0.9-2.27c0-0.53,0.1-0.99,0.29-1.39h0.98c-0.31,0.45-0.47,0.92-0.47,1.43
			c0,0.61,0.22,1.12,0.66,1.51s1.02,0.59,1.73,0.59c0.7,0,1.26-0.18,1.66-0.55s0.61-0.86,0.61-1.49c0-0.52-0.17-1.02-0.52-1.48
			H20.26z"/>
		<path fill="#1E1E1E" d="M13.02,61.52c0,0.17-0.06,0.32-0.18,0.44s-0.27,0.18-0.45,0.18s-0.33-0.06-0.45-0.18s-0.18-0.27-0.18-0.44
			c0-0.18,0.06-0.33,0.18-0.45s0.27-0.18,0.45-0.18c0.17,0,0.32,0.06,0.44,0.18S13.02,61.34,13.02,61.52z M20.54,61.05v0.96h-6
			v-0.96H20.54z"/>
		<path fill="#1E1E1E" d="M20.48,56.32c0.12,0.23,0.19,0.53,0.19,0.9c0,1.05-0.59,1.58-1.76,1.58h-3.55v1.03h-0.82v-1.03h-1.46
			l-0.31-0.96h1.78v-1.51h0.82v1.51h3.38c0.4,0,0.69-0.07,0.86-0.21s0.26-0.36,0.26-0.68c0-0.24-0.07-0.45-0.2-0.63H20.48z"/>
		<path fill="#1E1E1E" d="M14.54,50.26l6.96,2.76c1.24,0.49,1.86,1.18,1.86,2.07c0,0.25-0.03,0.46-0.08,0.63h-0.86
			c0.07-0.21,0.11-0.4,0.11-0.57c0-0.48-0.29-0.85-0.87-1.09l-1.14-0.48l-5.99,2.34v-1.07l4.62-1.62c0.06-0.02,0.21-0.06,0.46-0.12
			v-0.04c-0.09-0.02-0.24-0.06-0.45-0.12l-4.63-1.71V50.26z"/>
	</g>
	<g>
		<path fill="#1E1E1E" d="M27.84,114.35l3.15-0.21v0.21c-0.94,0.28-1.62,0.69-2.04,1.21s-0.62,1.15-0.62,1.89
			c0,0.62,0.16,1.17,0.47,1.67s0.81,0.89,1.49,1.17s1.53,0.43,2.55,0.43c0.84,0,1.57-0.13,2.18-0.4s1.09-0.67,1.42-1.21
			s0.49-1.16,0.49-1.85c0-0.6-0.13-1.13-0.39-1.59s-0.77-0.97-1.53-1.52l0.14-0.21c0.82,0.46,1.43,1.01,1.81,1.63
			s0.57,1.36,0.57,2.21c0,1.54-0.57,2.73-1.71,3.57c-0.85,0.63-1.85,0.94-2.99,0.94c-0.93,0-1.77-0.21-2.55-0.62
			s-1.38-0.99-1.8-1.71s-0.64-1.52-0.64-2.38c0-0.67,0.16-1.33,0.49-1.98c0.1-0.19,0.15-0.33,0.15-0.41c0-0.12-0.04-0.23-0.13-0.32
			c-0.12-0.12-0.29-0.2-0.51-0.25V114.35z"/>
		<path fill="#1E1E1E" d="M35.89,113.1l-0.61-1.51v-0.2h1.15c-0.43-0.25-0.74-0.51-0.91-0.77c-0.17-0.26-0.26-0.53-0.26-0.81
			c0-0.49,0.19-0.91,0.58-1.24c0.47-0.4,1.09-0.61,1.85-0.61c0.85,0,1.55,0.24,2.11,0.73c0.45,0.4,0.68,0.91,0.68,1.51
			c0,0.27-0.04,0.49-0.11,0.69c-0.05,0.14-0.16,0.3-0.32,0.48h1.5c0.34,0,0.55-0.02,0.64-0.06c0.09-0.04,0.16-0.11,0.22-0.21
			c0.05-0.1,0.08-0.29,0.08-0.56h0.2v2.58h-0.2V113c0-0.2-0.03-0.37-0.11-0.5c-0.04-0.07-0.1-0.12-0.19-0.16
			c-0.09-0.04-0.31-0.06-0.67-0.06h-4.65c-0.32,0-0.52,0.01-0.61,0.04s-0.15,0.07-0.19,0.14c-0.04,0.06-0.06,0.15-0.06,0.26
			c0,0.09,0.02,0.2,0.08,0.33L35.89,113.1z M36.74,111.38h1.84c0.4,0,0.66-0.02,0.78-0.05c0.21-0.05,0.39-0.17,0.55-0.37
			c0.16-0.2,0.24-0.44,0.24-0.74c0-0.36-0.14-0.65-0.42-0.87c-0.37-0.29-0.88-0.44-1.54-0.44c-0.75,0-1.33,0.16-1.73,0.49
			c-0.28,0.23-0.42,0.5-0.42,0.82c0,0.17,0.04,0.34,0.13,0.51C36.23,110.87,36.42,111.09,36.74,111.38z"/>
		<path fill="#1E1E1E" d="M40.06,102.97h0.25c-0.35,0.69-0.75,1.26-1.22,1.72c-0.66,0.66-1.44,1.16-2.34,1.52s-1.83,0.53-2.8,0.53
			c-1.41,0-2.7-0.35-3.87-1.05s-2-1.61-2.5-2.73h0.29c0.31,0.56,0.73,1.02,1.27,1.38s1.22,0.63,2.04,0.81s1.69,0.27,2.58,0.27
			c0.98,0,1.86-0.08,2.66-0.23c0.63-0.12,1.13-0.26,1.51-0.43s0.75-0.4,1.1-0.68S39.74,103.43,40.06,102.97z"/>
		<path fill="#1E1E1E" d="M28.3,100.91h-0.25v-3.97h0.25v0.33c0,0.38,0.11,0.65,0.33,0.83c0.15,0.11,0.5,0.16,1.05,0.16h4.53
			c0.7,0,1.26,0.08,1.7,0.23s0.81,0.42,1.13,0.79s0.48,0.82,0.48,1.35c0,0.43-0.11,0.77-0.32,1.01s-0.45,0.37-0.73,0.37
			c-0.22,0-0.39-0.06-0.51-0.17c-0.14-0.15-0.21-0.33-0.21-0.53c0-0.15,0.05-0.28,0.14-0.39s0.35-0.26,0.77-0.44
			c0.25-0.1,0.37-0.24,0.37-0.4c0-0.12-0.08-0.24-0.23-0.35s-0.42-0.16-0.8-0.16h-6.33c-0.47,0-0.78,0.03-0.93,0.09
			c-0.11,0.05-0.21,0.14-0.29,0.29c-0.11,0.2-0.16,0.4-0.16,0.62V100.91z"/>
		<path fill="#1E1E1E" d="M27.6,92.58l9.91,3.36v0.55l-9.91-3.36V92.58z"/>
		<path fill="#1E1E1E" d="M32.21,89.97c-0.46-0.46-0.72-0.72-0.79-0.81c-0.17-0.21-0.31-0.43-0.4-0.66s-0.14-0.47-0.14-0.7
			c0-0.39,0.11-0.73,0.34-1.01s0.56-0.47,0.99-0.57c-0.55-0.47-0.91-0.87-1.08-1.19s-0.26-0.66-0.26-1c0-0.33,0.09-0.63,0.26-0.89
			s0.45-0.46,0.84-0.61c0.26-0.1,0.68-0.15,1.24-0.15h2.69c0.39,0,0.66-0.03,0.81-0.09c0.1-0.05,0.19-0.13,0.26-0.25
			s0.11-0.32,0.11-0.6h0.25v3.09h-0.25V84.4c0-0.27-0.05-0.48-0.16-0.63c-0.07-0.1-0.19-0.18-0.35-0.23
			c-0.08-0.02-0.3-0.03-0.66-0.03h-2.69c-0.51,0-0.87,0.06-1.08,0.18c-0.29,0.18-0.44,0.46-0.44,0.85c0,0.24,0.06,0.48,0.18,0.73
			s0.35,0.54,0.67,0.89l0.08,0.01l0.29-0.01h2.99c0.43,0,0.69-0.02,0.8-0.07s0.19-0.14,0.26-0.27s0.11-0.36,0.11-0.68h0.25v3.17
			h-0.25c0-0.35-0.04-0.58-0.12-0.71s-0.21-0.22-0.37-0.27c-0.08-0.02-0.3-0.03-0.68-0.03h-2.69c-0.51,0-0.88,0.08-1.1,0.23
			c-0.29,0.2-0.44,0.48-0.44,0.84c0,0.25,0.07,0.49,0.2,0.73c0.2,0.38,0.43,0.67,0.68,0.88h3.36c0.41,0,0.68-0.03,0.8-0.09
			s0.22-0.14,0.28-0.25s0.09-0.34,0.09-0.68h0.25v3.1h-0.25c0-0.29-0.03-0.49-0.09-0.6s-0.16-0.2-0.29-0.26s-0.4-0.09-0.78-0.09
			h-2.39c-0.69,0-1.13,0.02-1.33,0.06c-0.15,0.03-0.25,0.08-0.31,0.15s-0.09,0.16-0.09,0.28c0,0.13,0.03,0.28,0.1,0.46l-0.25,0.1
			l-0.77-1.89v-0.29H32.21z"/>
		<path fill="#1E1E1E" d="M30.87,77.53c0-0.95,0.36-1.71,1.08-2.28c0.62-0.49,1.32-0.73,2.12-0.73c0.56,0,1.13,0.13,1.7,0.4
			s1.01,0.64,1.3,1.11s0.44,1,0.44,1.58c0,0.94-0.38,1.69-1.13,2.25c-0.63,0.47-1.34,0.7-2.13,0.7c-0.57,0-1.15-0.14-1.71-0.43
			s-0.99-0.66-1.26-1.12S30.87,78.05,30.87,77.53z M31.32,77.74c0,0.24,0.07,0.48,0.22,0.73s0.4,0.44,0.76,0.59s0.82,0.23,1.39,0.23
			c0.91,0,1.7-0.18,2.36-0.54s0.99-0.84,0.99-1.43c0-0.44-0.18-0.81-0.55-1.09s-0.99-0.43-1.88-0.43c-1.11,0-1.99,0.24-2.62,0.72
			C31.54,76.83,31.32,77.24,31.32,77.74z"/>
		<path fill="#1E1E1E" d="M27.6,71.09h8.31c0.39,0,0.65-0.03,0.78-0.09s0.22-0.14,0.29-0.26s0.1-0.34,0.1-0.66h0.25v3.07h-0.25
			c0-0.29-0.03-0.48-0.09-0.59s-0.16-0.19-0.29-0.25s-0.4-0.09-0.79-0.09h-5.69c-0.71,0-1.14,0.02-1.3,0.05s-0.27,0.08-0.33,0.15
			s-0.09,0.16-0.09,0.27c0,0.12,0.04,0.27,0.11,0.45l-0.24,0.12L27.6,71.4V71.09z"/>
		<path fill="#1E1E1E" d="M27.6,65.51l9.91,3.36v0.55l-9.91-3.36V65.51z"/>
		<path fill="#1E1E1E" d="M32.18,61.02l3.4-3.42c0.56-0.56,0.94-1.04,1.15-1.44s0.32-0.79,0.35-1.19h0.25v4.41h-0.25
			c0-0.26-0.04-0.45-0.13-0.57s-0.19-0.17-0.3-0.17s-0.21,0.02-0.29,0.06s-0.25,0.19-0.49,0.43l-3.17,3.2h2.99
			c0.47,0,0.78-0.03,0.93-0.09c0.11-0.05,0.21-0.14,0.29-0.29c0.11-0.2,0.16-0.4,0.16-0.62v-0.31h0.25v3.95h-0.25v-0.33
			c0-0.38-0.11-0.66-0.33-0.83c-0.15-0.11-0.5-0.16-1.05-0.16h-5.99c-0.47,0-0.78,0.03-0.94,0.09c-0.11,0.05-0.21,0.14-0.29,0.28
			c-0.11,0.2-0.16,0.41-0.16,0.63v0.33h-0.25v-3.95h0.25v0.31c0,0.21,0.05,0.42,0.16,0.62c0.07,0.14,0.18,0.24,0.33,0.29
			s0.45,0.08,0.9,0.08h2.84c-0.09-0.09-0.38-0.4-0.87-0.94c-1.24-1.35-2.07-2.17-2.48-2.45c-0.18-0.12-0.34-0.18-0.48-0.18
			c-0.1,0-0.2,0.05-0.28,0.14s-0.12,0.26-0.12,0.49v0.21h-0.25v-3.4h0.25c0,0.2,0.03,0.38,0.08,0.55s0.15,0.36,0.29,0.6
			s0.38,0.53,0.69,0.88c0.09,0.1,0.56,0.56,1.4,1.39L32.18,61.02z"/>
		<path fill="#1E1E1E" d="M27.89,54.42H27.6c0.34-0.69,0.75-1.27,1.21-1.73c0.67-0.65,1.45-1.16,2.34-1.51s1.83-0.53,2.8-0.53
			c1.41,0,2.7,0.35,3.87,1.04s2,1.61,2.5,2.73h-0.25c-0.31-0.56-0.74-1.02-1.27-1.38s-1.22-0.63-2.04-0.81s-1.69-0.26-2.59-0.26
			c-0.97,0-1.86,0.08-2.66,0.23c-0.63,0.11-1.13,0.26-1.51,0.43s-0.74,0.4-1.09,0.68S28.21,53.96,27.89,54.42z"/>
	</g>
	<g>
		<g>
			<path fill="#1E1E1E" d="M213.81,128.33v3.12h1.45c0.33,0,0.58-0.07,0.73-0.22s0.26-0.44,0.31-0.87h0.22v2.69h-0.22
				c0-0.31-0.04-0.54-0.12-0.68s-0.18-0.25-0.32-0.33s-0.33-0.11-0.6-0.11h-1.45v2.5c0,0.4,0.03,0.67,0.08,0.8
				c0.04,0.1,0.12,0.18,0.25,0.25c0.17,0.09,0.35,0.14,0.54,0.14h0.29v0.22h-3.41v-0.22h0.28c0.33,0,0.57-0.1,0.71-0.29
				c0.09-0.12,0.14-0.43,0.14-0.9v-5.13c0-0.4-0.03-0.67-0.08-0.8c-0.04-0.1-0.12-0.18-0.24-0.25c-0.17-0.09-0.35-0.14-0.54-0.14
				h-0.28v-0.22h5.91l0.08,1.75h-0.21c-0.1-0.37-0.22-0.64-0.35-0.82s-0.3-0.3-0.5-0.38s-0.5-0.12-0.92-0.12H213.81z"/>
			<path fill="#1E1E1E" d="M219.31,132.5c0,0.8,0.19,1.42,0.58,1.88s0.85,0.68,1.38,0.68c0.35,0,0.66-0.1,0.92-0.29
				s0.48-0.52,0.65-0.99l0.18,0.12c-0.08,0.54-0.32,1.02-0.71,1.46s-0.89,0.66-1.48,0.66c-0.64,0-1.2-0.25-1.66-0.75
				s-0.69-1.18-0.69-2.02c0-0.92,0.24-1.63,0.71-2.15s1.06-0.77,1.77-0.77c0.6,0,1.1,0.2,1.48,0.59s0.58,0.93,0.58,1.59H219.31z
				 M219.31,132.16h2.48c-0.02-0.34-0.06-0.59-0.12-0.73c-0.1-0.22-0.24-0.39-0.44-0.52s-0.4-0.19-0.61-0.19
				c-0.32,0-0.61,0.13-0.87,0.38S219.35,131.71,219.31,132.16z"/>
		</g>
	</g>
	<g>
		<path fill="#1E1E1E" d="M228.09,129.99h1.65v0.06c-0.25,0.47-0.5,0.95-0.73,1.43l-1.47,3.02c0.09,0.67,0.13,1.18,0.13,1.55
			c0,0.48-0.08,0.82-0.23,1.02c-0.15,0.21-0.33,0.31-0.53,0.31c-0.19,0-0.34-0.08-0.47-0.25s-0.19-0.37-0.19-0.61
			c0-0.33,0.17-0.87,0.52-1.63l0.3-0.67l-0.33-1.33c-0.21-0.81-0.38-1.35-0.52-1.6c-0.14-0.25-0.32-0.38-0.56-0.38
			c-0.45,0-0.71,0.34-0.78,1.03h-0.2c0-0.78,0.09-1.33,0.27-1.64c0.18-0.31,0.44-0.47,0.78-0.47c0.32,0,0.57,0.15,0.75,0.46
			c0.18,0.31,0.37,0.95,0.56,1.91c0.01,0.07,0.04,0.17,0.06,0.29l0.23,0.98L228.09,129.99z"/>
	</g>
	<g>
		<path fill="#1E1E1E" d="M111.91,108.93h1.16l-0.7,3.17c-0.14,0.6-0.23,0.97-0.28,1.11c0.18,0.84,0.45,1.26,0.79,1.26
			c0.41,0,0.62-0.28,0.64-0.85h0.25c-0.01,0.53-0.11,0.96-0.29,1.28c-0.18,0.33-0.42,0.49-0.71,0.49c-0.24,0-0.42-0.1-0.54-0.29
			c-0.12-0.2-0.25-0.6-0.38-1.2c-0.47,1-1.25,1.5-2.32,1.5c-0.73,0-1.32-0.29-1.75-0.86c-0.43-0.57-0.65-1.39-0.65-2.46
			c0-1.05,0.24-1.86,0.71-2.45c0.47-0.58,1.04-0.88,1.71-0.88c0.47,0,0.85,0.17,1.16,0.5s0.57,0.88,0.8,1.63L111.91,108.93z
			 M111.3,111.61c-0.21-0.73-0.45-1.31-0.72-1.72c-0.26-0.41-0.58-0.62-0.95-0.62c-0.83,0-1.25,0.98-1.25,2.93
			c0,1.85,0.4,2.78,1.2,2.78c0.69,0,1.21-0.82,1.54-2.45L111.3,111.61z"/>
	</g>
</g>
<g id="writer_source">
	<g>
	</g>
	<g>
	</g>
	<g>
	</g>
	<g>
	</g>
	<g>
	</g>
	<g>
	</g>
	<g>
	</g>
	<g>
	</g>
	<g>
	</g>
	<g>
	</g>
	<g>
	</g>
	<g>
	</g>
	<g>
	</g>
	<g>
	</g>
	<g>
	</g>
	<g>
	</g>
	<g>
	</g>
	<g>
	</g>
	<g>
	</g>
	<g>
	</g>
</g>
</svg>
