<?xml version="1.0" encoding="utf-8"?>
<!-- Generator: Adobe Illustrator 23.0.3, SVG Export Plug-In . SVG Version: 6.00 Build 0)  -->
<svg version="1.1" xmlns="http://www.w3.org/2000/svg" xmlns:xlink="http://www.w3.org/1999/xlink" x="0px" y="0px" width="275px"
	 height="165px" viewBox="0 0 275 165" enable-background="new 0 0 275 165" xml:space="preserve">
<g id="Shapes">
	<g>
		<rect x="0.5" y="0.5" fill="#FFFFFF" width="274" height="164"/>
		<rect x="0.5" y="0.5" opacity="0.2" fill="#E5E5E5" width="274" height="164"/>
		<rect x="0.5" y="0.5" opacity="0.1" fill="none" stroke="#231F20" stroke-miterlimit="10" width="274" height="164"/>
	</g>
	<g>
		<g>
			<g>
				<polyline fill="none" stroke="#000000" stroke-linecap="round" stroke-linejoin="round" points="40.5,129.13 22.69,136.27 
					38.3,145.34 				"/>
				<g>
					<polygon points="37.58,127.17 48.72,125.84 39.74,132.57 					"/>
				</g>
				<g>
					<polygon points="35.12,146.86 45.96,149.79 38.04,141.83 					"/>
				</g>
			</g>
		</g>
		<g>
			<g>
				
					<line fill="none" stroke="#000000" stroke-linecap="round" stroke-linejoin="round" x1="22.69" y1="136.27" x2="22.69" y2="119.73"/>
				<g>
					<polygon points="25.6,121.71 22.69,110.87 19.79,121.71 					"/>
				</g>
			</g>
		</g>
	</g>
	
		<line fill="none" stroke="#666666" stroke-width="1.25" stroke-miterlimit="10" stroke-dasharray="8,2" x1="35.39" y1="73.91" x2="134.48" y2="104.96"/>
	
		<line fill="none" stroke="#666666" stroke-width="1.25" stroke-miterlimit="10" stroke-dasharray="8,2" x1="35.39" y1="73.91" x2="207.39" y2="55.12"/>
	<g id="Wrench_tool_x28_s_x29_">
	</g>
	<g id="user2">
	</g>
	<g id="user2_1_">
	</g>
	<g id="user2_4_">
	</g>
	<g id="user2_3_">
	</g>
	<g id="user2_2_">
	</g>
	<g id="Internet_2">
	</g>
	<g id="Enterprise">
	</g>
	<g id="Tunnel__x28_stackable_x29_">
	</g>
	<g id="New_Symbol">
	</g>
	<g id="New_Symbol_1">
	</g>
	<g id="Files">
	</g>
	<g id="BlobBlock">
	</g>
	<g id="E_x5F_Enterprise">
	</g>
	<g id="E_x5F_AD_FS">
	</g>
	<g id="C_x5F_Azure_Active_Directory">
	</g>
	<g id="Layer_22">
	</g>
	<g>
		<g>
			
				<line fill="none" stroke="#000000" stroke-linecap="round" stroke-linejoin="round" x1="35.39" y1="73.91" x2="224.75" y2="73.91"/>
			<g>
				<polygon points="222.77,76.81 233.61,73.91 222.77,71 				"/>
			</g>
		</g>
	</g>
	<circle fill="#01A7DF" stroke="#1B75BB" stroke-miterlimit="10" cx="35.39" cy="73.91" r="5"/>
	<path fill="none" stroke="#2E5291" stroke-width="2" stroke-miterlimit="10" d="M207.39,55.12c17.28,5.29,28.13,12.93,28.13,21.44
		c0,15.95-38.19,28.89-85.31,28.89c-5.38,0-10.64-0.17-15.74-0.49"/>
	<circle fill="#01A7DF" stroke="#1B75BB" stroke-miterlimit="10" cx="207.39" cy="55.12" r="5"/>
	<circle fill="#01A7DF" stroke="#1B75BB" stroke-miterlimit="10" cx="134.45" cy="104.95" r="5"/>
	<g>
		<g>
			<path fill="none" stroke="#D83B01" stroke-linecap="round" stroke-miterlimit="10" d="M95.8,92.08
				c6.91-5.5,7.84-11.89,6.32-20.13"/>
			<g>
				<polygon fill="#D83B01" points="105.95,72.25 100.93,66.7 98.63,73.82 				"/>
			</g>
		</g>
	</g>
</g>
<g id="Text">
	<g>
		<path fill="#1E1E1E" d="M52.02,121.34h2.29v0.2H54.2c-0.16,0-0.28,0.03-0.36,0.1c-0.08,0.07-0.12,0.16-0.12,0.26
			c0,0.14,0.06,0.33,0.18,0.58l1.2,2.48l1.1-2.72c0.06-0.15,0.09-0.29,0.09-0.44c0-0.06-0.01-0.11-0.04-0.15
			c-0.03-0.04-0.07-0.07-0.13-0.09c-0.06-0.02-0.17-0.03-0.32-0.03v-0.2h1.6v0.2c-0.13,0.01-0.23,0.04-0.31,0.09
			s-0.15,0.12-0.24,0.24c-0.03,0.05-0.09,0.19-0.18,0.41l-2,4.91c-0.19,0.48-0.45,0.84-0.76,1.08c-0.31,0.24-0.62,0.37-0.91,0.37
			c-0.21,0-0.38-0.06-0.52-0.18s-0.2-0.26-0.2-0.42c0-0.15,0.05-0.27,0.15-0.36c0.1-0.09,0.23-0.14,0.41-0.14
			c0.12,0,0.28,0.04,0.48,0.12c0.14,0.05,0.23,0.08,0.27,0.08c0.11,0,0.22-0.06,0.35-0.17c0.13-0.11,0.26-0.33,0.38-0.64l0.35-0.85
			l-1.77-3.71c-0.05-0.11-0.14-0.25-0.26-0.41c-0.09-0.13-0.16-0.21-0.22-0.25c-0.08-0.06-0.21-0.11-0.4-0.15V121.34z"/>
	</g>
	<g>
		<path fill="#1E1E1E" d="M48.86,149.87h2.31v0.2c-0.15,0-0.25,0.02-0.31,0.08c-0.06,0.05-0.09,0.12-0.09,0.2
			c0,0.09,0.06,0.22,0.19,0.4c0.04,0.06,0.1,0.15,0.18,0.27l0.35,0.56l0.4-0.56c0.26-0.35,0.39-0.58,0.39-0.67
			c0-0.08-0.03-0.14-0.09-0.19c-0.06-0.05-0.16-0.08-0.3-0.08v-0.2h1.67v0.2c-0.18,0.01-0.33,0.06-0.46,0.15
			c-0.18,0.12-0.42,0.39-0.72,0.79l-0.67,0.9l1.22,1.76c0.3,0.43,0.52,0.69,0.64,0.78c0.13,0.09,0.3,0.14,0.5,0.15v0.19h-2.32v-0.19
			c0.16,0,0.29-0.04,0.38-0.11c0.07-0.05,0.1-0.12,0.1-0.2s-0.11-0.29-0.34-0.62l-0.72-1.05l-0.79,1.05
			c-0.24,0.33-0.37,0.52-0.37,0.58c0,0.09,0.04,0.16,0.12,0.23c0.08,0.07,0.2,0.11,0.36,0.12v0.19H48.9v-0.19
			c0.13-0.02,0.24-0.06,0.34-0.13c0.14-0.1,0.37-0.37,0.69-0.79l1.03-1.37l-0.93-1.35c-0.27-0.39-0.47-0.63-0.61-0.73
			c-0.15-0.1-0.33-0.15-0.55-0.15V149.87z"/>
	</g>
	<g>
		<path fill="#1E1E1E" d="M24.54,105.14l-0.06,1.51h-4.34v-0.19l3.27-4.35H21.8c-0.35,0-0.57,0.02-0.68,0.07
			c-0.11,0.04-0.2,0.13-0.26,0.25c-0.1,0.18-0.15,0.4-0.17,0.67h-0.21l0.03-1.36h4.13v0.2l-3.3,4.36h1.79
			c0.38,0,0.63-0.03,0.77-0.09c0.13-0.06,0.24-0.17,0.32-0.33c0.06-0.11,0.11-0.36,0.15-0.73H24.54z"/>
	</g>
	<g id="Windows_Server_New">
	</g>
	<g>
		<rect x="31.07" y="36.46" fill="none" width="42.67" height="26.86"/>
		<path fill="#1E1E1E" d="M37.89,44.99c-0.62,0.33-1.39,0.49-2.32,0.49c-1.2,0-2.15-0.38-2.87-1.15s-1.08-1.78-1.08-3.03
			c0-1.34,0.4-2.43,1.21-3.26s1.83-1.24,3.08-1.24c0.8,0,1.46,0.12,1.98,0.35v1.05c-0.6-0.34-1.27-0.5-1.99-0.5
			c-0.96,0-1.75,0.32-2.35,0.97s-0.9,1.51-0.9,2.58c0,1.02,0.28,1.84,0.84,2.45s1.3,0.91,2.21,0.91c0.84,0,1.57-0.19,2.19-0.56
			V44.99z"/>
		<path fill="#1E1E1E" d="M44.3,42.58h-4.24c0.02,0.67,0.2,1.18,0.54,1.55s0.82,0.54,1.42,0.54c0.68,0,1.3-0.22,1.86-0.67v0.9
			c-0.53,0.38-1.22,0.57-2.09,0.57c-0.85,0-1.51-0.27-2-0.82s-0.73-1.31-0.73-2.3c0-0.93,0.26-1.69,0.79-2.28s1.19-0.88,1.97-0.88
			s1.39,0.25,1.82,0.76s0.64,1.21,0.64,2.12V42.58z M43.31,41.77c0-0.55-0.14-0.99-0.4-1.29s-0.63-0.46-1.1-0.46
			c-0.45,0-0.84,0.16-1.15,0.49s-0.51,0.75-0.59,1.27H43.31z"/>
		<path fill="#1E1E1E" d="M50.73,45.34h-0.96v-3.42c0-1.27-0.46-1.91-1.39-1.91c-0.48,0-0.88,0.18-1.19,0.54s-0.47,0.82-0.47,1.37
			v3.42h-0.96v-6h0.96v1h0.02c0.45-0.76,1.11-1.14,1.97-1.14c0.66,0,1.16,0.21,1.51,0.64s0.52,1.04,0.52,1.84V45.34z"/>
		<path fill="#1E1E1E" d="M55.32,45.28c-0.23,0.13-0.53,0.19-0.9,0.19c-1.05,0-1.58-0.59-1.58-1.76v-3.55h-1.03v-0.82h1.03v-1.46
			l0.96-0.31v1.78h1.51v0.82h-1.51v3.38c0,0.4,0.07,0.69,0.21,0.86s0.36,0.26,0.68,0.26c0.24,0,0.45-0.07,0.63-0.2V45.28z"/>
		<path fill="#1E1E1E" d="M61.43,42.58h-4.24c0.02,0.67,0.2,1.18,0.54,1.55s0.82,0.54,1.42,0.54c0.68,0,1.3-0.22,1.86-0.67v0.9
			c-0.53,0.38-1.22,0.57-2.09,0.57c-0.85,0-1.51-0.27-2-0.82s-0.73-1.31-0.73-2.3c0-0.93,0.26-1.69,0.79-2.28s1.19-0.88,1.97-0.88
			s1.39,0.25,1.82,0.76s0.64,1.21,0.64,2.12V42.58z M60.45,41.77c0-0.55-0.14-0.99-0.4-1.29s-0.63-0.46-1.1-0.46
			c-0.45,0-0.84,0.16-1.15,0.49s-0.51,0.75-0.59,1.27H60.45z"/>
		<path fill="#1E1E1E" d="M66.01,40.31c-0.17-0.13-0.41-0.19-0.73-0.19c-0.41,0-0.75,0.19-1.03,0.58s-0.41,0.91-0.41,1.58v3.06
			h-0.96v-6h0.96v1.24h0.02c0.14-0.42,0.35-0.75,0.63-0.99s0.6-0.35,0.94-0.35c0.25,0,0.44,0.03,0.57,0.08V40.31z"/>
		<path fill="#1E1E1E" d="M33.03,57.67h-0.02v3.63h-0.96v-8.76h0.96v1.05h0.02c0.47-0.8,1.16-1.2,2.07-1.2
			c0.77,0,1.38,0.27,1.81,0.81s0.65,1.26,0.65,2.16c0,1-0.24,1.81-0.73,2.41s-1.16,0.91-2,0.91C34.05,58.68,33.45,58.34,33.03,57.67
			z M33.01,55.25v0.84c0,0.5,0.16,0.92,0.48,1.26s0.73,0.52,1.23,0.52c0.58,0,1.04-0.22,1.37-0.67s0.5-1.06,0.5-1.86
			c0-0.67-0.15-1.19-0.46-1.57s-0.73-0.57-1.25-0.57c-0.56,0-1.01,0.19-1.35,0.58S33.01,54.67,33.01,55.25z"/>
		<path fill="#1E1E1E" d="M41.61,58.68c-0.89,0-1.59-0.28-2.12-0.84s-0.79-1.3-0.79-2.23c0-1.01,0.28-1.79,0.83-2.36
			s1.29-0.85,2.23-0.85c0.89,0,1.59,0.28,2.09,0.83s0.75,1.31,0.75,2.29c0,0.96-0.27,1.72-0.81,2.3S42.52,58.68,41.61,58.68z
			 M41.68,53.21c-0.62,0-1.11,0.21-1.46,0.63s-0.54,1-0.54,1.74c0,0.71,0.18,1.27,0.54,1.68s0.85,0.62,1.46,0.62
			c0.62,0,1.1-0.2,1.43-0.6s0.5-0.97,0.5-1.72c0-0.75-0.17-1.33-0.5-1.73S42.3,53.21,41.68,53.21z"/>
		<path fill="#1E1E1E" d="M46.62,51.02c-0.17,0-0.32-0.06-0.44-0.18S46,50.57,46,50.4s0.06-0.33,0.18-0.45s0.27-0.18,0.44-0.18
			c0.18,0,0.33,0.06,0.45,0.18s0.18,0.27,0.18,0.45c0,0.17-0.06,0.32-0.18,0.44S46.8,51.02,46.62,51.02z M47.09,58.54h-0.96v-6h0.96
			V58.54z"/>
		<path fill="#1E1E1E" d="M54.02,58.54h-0.96v-3.42c0-1.27-0.46-1.91-1.39-1.91c-0.48,0-0.88,0.18-1.19,0.54S50,54.57,50,55.12v3.42
			h-0.96v-6H50v1h0.02c0.45-0.76,1.11-1.14,1.97-1.14c0.66,0,1.16,0.21,1.51,0.64s0.52,1.04,0.52,1.84V58.54z"/>
		<path fill="#1E1E1E" d="M58.61,58.48c-0.23,0.13-0.53,0.19-0.9,0.19c-1.05,0-1.58-0.59-1.58-1.76v-3.55h-1.03v-0.82h1.03v-1.46
			l0.96-0.31v1.78h1.51v0.82H57.1v3.38c0,0.4,0.07,0.69,0.21,0.86s0.36,0.26,0.68,0.26c0.24,0,0.45-0.07,0.63-0.2V58.48z"/>
	</g>
	<g>
		<rect x="204.19" y="18.46" fill="none" width="42.67" height="26.86"/>
		<path fill="#1E1E1E" d="M209.74,27.34h-4.45v-8.4h4.27v0.89h-3.28v2.79h3.04v0.88h-3.04v2.94h3.47V27.34z"/>
		<path fill="#1E1E1E" d="M216.21,27.34h-0.96v-3.42c0-1.27-0.46-1.91-1.39-1.91c-0.48,0-0.88,0.18-1.19,0.54s-0.47,0.82-0.47,1.37
			v3.42h-0.96v-6h0.96v1h0.02c0.45-0.76,1.11-1.14,1.97-1.14c0.66,0,1.16,0.21,1.51,0.64s0.52,1.04,0.52,1.84V27.34z"/>
		<path fill="#1E1E1E" d="M223.14,27.34h-0.96v-1.02h-0.02c-0.45,0.77-1.13,1.16-2.06,1.16c-0.75,0-1.36-0.27-1.81-0.81
			s-0.68-1.27-0.68-2.19c0-0.99,0.25-1.79,0.75-2.38s1.17-0.9,2-0.9c0.82,0,1.42,0.32,1.8,0.97h0.02v-3.71h0.96V27.34z
			 M222.18,24.63v-0.88c0-0.48-0.16-0.89-0.48-1.23s-0.73-0.5-1.22-0.5c-0.59,0-1.05,0.21-1.38,0.64s-0.5,1.02-0.5,1.78
			c0,0.69,0.16,1.24,0.48,1.64s0.75,0.6,1.3,0.6c0.54,0,0.97-0.19,1.3-0.58S222.18,25.22,222.18,24.63z"/>
		<path fill="#1E1E1E" d="M225.58,19.82c-0.17,0-0.32-0.06-0.44-0.18s-0.18-0.27-0.18-0.45s0.06-0.33,0.18-0.45s0.27-0.18,0.44-0.18
			c0.18,0,0.33,0.06,0.45,0.18s0.18,0.27,0.18,0.45c0,0.17-0.06,0.32-0.18,0.44S225.75,19.82,225.58,19.82z M226.05,27.34h-0.96v-6
			h0.96V27.34z"/>
		<path fill="#1E1E1E" d="M232.97,27.34h-0.96v-3.42c0-1.27-0.46-1.91-1.39-1.91c-0.48,0-0.88,0.18-1.19,0.54s-0.47,0.82-0.47,1.37
			v3.42h-0.96v-6h0.96v1h0.02c0.45-0.76,1.11-1.14,1.97-1.14c0.66,0,1.16,0.21,1.51,0.64s0.52,1.04,0.52,1.84V27.34z"/>
		<path fill="#1E1E1E" d="M239.91,26.86c0,2.2-1.05,3.3-3.16,3.3c-0.74,0-1.39-0.14-1.95-0.42v-0.96c0.68,0.38,1.32,0.56,1.93,0.56
			c1.48,0,2.21-0.79,2.21-2.36v-0.66h-0.02c-0.46,0.77-1.14,1.15-2.06,1.15c-0.75,0-1.35-0.27-1.8-0.8s-0.68-1.25-0.68-2.15
			c0-1.02,0.25-1.83,0.74-2.43s1.16-0.9,2.01-0.9c0.81,0,1.41,0.32,1.8,0.97h0.02v-0.83h0.96V26.86z M238.94,24.63v-0.88
			c0-0.48-0.16-0.88-0.48-1.22s-0.72-0.51-1.2-0.51c-0.59,0-1.06,0.22-1.39,0.65s-0.5,1.04-0.5,1.81c0,0.67,0.16,1.2,0.48,1.6
			s0.75,0.6,1.28,0.6c0.54,0,0.98-0.19,1.32-0.57S238.94,25.22,238.94,24.63z"/>
		<path fill="#1E1E1E" d="M206.14,39.67h-0.02v3.63h-0.96v-8.76h0.96v1.05h0.02c0.47-0.8,1.16-1.2,2.07-1.2
			c0.77,0,1.38,0.27,1.81,0.81s0.65,1.26,0.65,2.16c0,1-0.24,1.81-0.73,2.41s-1.16,0.91-2,0.91
			C207.17,40.68,206.57,40.34,206.14,39.67z M206.12,37.25v0.84c0,0.5,0.16,0.92,0.48,1.26s0.73,0.52,1.23,0.52
			c0.58,0,1.04-0.22,1.37-0.67s0.5-1.06,0.5-1.86c0-0.67-0.15-1.19-0.46-1.57s-0.73-0.57-1.25-0.57c-0.56,0-1.01,0.19-1.35,0.58
			S206.12,36.67,206.12,37.25z"/>
		<path fill="#1E1E1E" d="M214.72,40.68c-0.89,0-1.59-0.28-2.12-0.84s-0.79-1.3-0.79-2.23c0-1.01,0.28-1.79,0.83-2.36
			s1.29-0.85,2.23-0.85c0.89,0,1.59,0.28,2.09,0.83s0.75,1.31,0.75,2.29c0,0.96-0.27,1.72-0.81,2.3S215.63,40.68,214.72,40.68z
			 M214.79,35.21c-0.62,0-1.11,0.21-1.46,0.63s-0.54,1-0.54,1.74c0,0.71,0.18,1.27,0.54,1.68s0.85,0.62,1.46,0.62
			c0.62,0,1.1-0.2,1.43-0.6s0.5-0.97,0.5-1.72c0-0.75-0.17-1.33-0.5-1.73S215.41,35.21,214.79,35.21z"/>
		<path fill="#1E1E1E" d="M219.74,33.02c-0.17,0-0.32-0.06-0.44-0.18s-0.18-0.27-0.18-0.45s0.06-0.33,0.18-0.45s0.27-0.18,0.44-0.18
			c0.18,0,0.33,0.06,0.45,0.18s0.18,0.27,0.18,0.45c0,0.17-0.06,0.32-0.18,0.44S219.91,33.02,219.74,33.02z M220.21,40.54h-0.96v-6
			h0.96V40.54z"/>
		<path fill="#1E1E1E" d="M227.13,40.54h-0.96v-3.42c0-1.27-0.46-1.91-1.39-1.91c-0.48,0-0.88,0.18-1.19,0.54s-0.47,0.82-0.47,1.37
			v3.42h-0.96v-6h0.96v1h0.02c0.45-0.76,1.11-1.14,1.97-1.14c0.66,0,1.16,0.21,1.51,0.64s0.52,1.04,0.52,1.84V40.54z"/>
		<path fill="#1E1E1E" d="M231.73,40.48c-0.23,0.13-0.53,0.19-0.9,0.19c-1.05,0-1.58-0.59-1.58-1.76v-3.55h-1.03v-0.82h1.03v-1.46
			l0.96-0.31v1.78h1.51v0.82h-1.51v3.38c0,0.4,0.07,0.69,0.21,0.86s0.36,0.26,0.68,0.26c0.24,0,0.45-0.07,0.63-0.2V40.48z"/>
	</g>
	<g>
		<rect x="128.88" y="115.25" fill="none" width="42.67" height="26.86"/>
		<path fill="#1E1E1E" d="M129.59,123.8v-1.16c0.13,0.12,0.29,0.22,0.48,0.32s0.38,0.17,0.59,0.24s0.41,0.11,0.62,0.15
			s0.4,0.05,0.57,0.05c0.61,0,1.06-0.11,1.36-0.34s0.45-0.55,0.45-0.97c0-0.23-0.05-0.42-0.15-0.59s-0.24-0.32-0.41-0.46
			s-0.38-0.27-0.62-0.4s-0.5-0.26-0.78-0.4c-0.29-0.15-0.57-0.3-0.82-0.45s-0.47-0.32-0.66-0.5s-0.33-0.39-0.44-0.62
			s-0.16-0.5-0.16-0.82c0-0.38,0.08-0.72,0.25-1s0.39-0.52,0.66-0.7s0.58-0.32,0.93-0.41s0.71-0.13,1.07-0.13
			c0.83,0,1.43,0.1,1.81,0.3V117c-0.5-0.34-1.13-0.52-1.91-0.52c-0.21,0-0.43,0.02-0.64,0.07s-0.41,0.12-0.57,0.22
			s-0.3,0.23-0.41,0.39s-0.16,0.36-0.16,0.59c0,0.21,0.04,0.4,0.12,0.56s0.2,0.3,0.35,0.43s0.35,0.25,0.57,0.38s0.48,0.25,0.78,0.4
			c0.3,0.15,0.59,0.3,0.86,0.47s0.51,0.35,0.71,0.54s0.36,0.42,0.48,0.66s0.18,0.52,0.18,0.83c0,0.41-0.08,0.76-0.24,1.05
			s-0.38,0.52-0.66,0.7s-0.59,0.31-0.95,0.39s-0.74,0.12-1.14,0.12c-0.13,0-0.3-0.01-0.49-0.03s-0.39-0.05-0.6-0.09
			s-0.4-0.09-0.58-0.15S129.7,123.87,129.59,123.8z"/>
		<path fill="#1E1E1E" d="M138.62,124.08c-0.23,0.13-0.53,0.19-0.9,0.19c-1.05,0-1.58-0.59-1.58-1.76v-3.55h-1.03v-0.82h1.03v-1.46
			l0.96-0.31v1.78h1.51v0.82h-1.51v3.38c0,0.4,0.07,0.69,0.21,0.86s0.36,0.26,0.68,0.26c0.24,0,0.45-0.07,0.63-0.2V124.08z"/>
		<path fill="#1E1E1E" d="M144.2,124.14h-0.96v-0.94h-0.02c-0.42,0.72-1.03,1.08-1.85,1.08c-0.6,0-1.07-0.16-1.4-0.47
			s-0.51-0.74-0.51-1.26c0-1.12,0.66-1.77,1.98-1.96l1.8-0.25c0-1.02-0.41-1.53-1.24-1.53c-0.72,0-1.38,0.25-1.96,0.74v-0.98
			c0.59-0.38,1.27-0.56,2.04-0.56c1.41,0,2.12,0.75,2.12,2.24V124.14z M143.24,121.1l-1.45,0.2c-0.45,0.06-0.78,0.17-1.01,0.33
			s-0.34,0.44-0.34,0.84c0,0.29,0.1,0.53,0.31,0.72s0.49,0.28,0.83,0.28c0.48,0,0.87-0.17,1.18-0.5s0.47-0.76,0.47-1.27V121.1z"/>
		<path fill="#1E1E1E" d="M149.14,119.11c-0.17-0.13-0.41-0.19-0.73-0.19c-0.41,0-0.75,0.19-1.03,0.58s-0.41,0.91-0.41,1.58v3.06
			h-0.96v-6h0.96v1.24H147c0.14-0.42,0.35-0.75,0.63-0.99s0.6-0.35,0.94-0.35c0.25,0,0.44,0.03,0.57,0.08V119.11z"/>
		<path fill="#1E1E1E" d="M152.97,124.08c-0.23,0.13-0.53,0.19-0.9,0.19c-1.05,0-1.58-0.59-1.58-1.76v-3.55h-1.03v-0.82h1.03v-1.46
			l0.96-0.31v1.78h1.51v0.82h-1.51v3.38c0,0.4,0.07,0.69,0.21,0.86s0.36,0.26,0.68,0.26c0.24,0,0.45-0.07,0.63-0.2V124.08z"/>
		<path fill="#1E1E1E" d="M154.74,116.61c-0.17,0-0.32-0.06-0.44-0.18s-0.18-0.27-0.18-0.45s0.06-0.33,0.18-0.45
			s0.27-0.18,0.44-0.18c0.18,0,0.33,0.06,0.45,0.18s0.18,0.27,0.18,0.45c0,0.17-0.06,0.32-0.18,0.44S154.92,116.61,154.74,116.61z
			 M155.21,124.14h-0.96v-6h0.96V124.14z"/>
		<path fill="#1E1E1E" d="M162.14,124.14h-0.96v-3.42c0-1.27-0.46-1.91-1.39-1.91c-0.48,0-0.88,0.18-1.19,0.54s-0.47,0.82-0.47,1.37
			v3.42h-0.96v-6h0.96v1h0.02c0.45-0.76,1.11-1.14,1.97-1.14c0.66,0,1.16,0.21,1.51,0.64s0.52,1.04,0.52,1.84V124.14z"/>
		<path fill="#1E1E1E" d="M169.07,123.65c0,2.2-1.05,3.3-3.16,3.3c-0.74,0-1.39-0.14-1.95-0.42v-0.96c0.68,0.38,1.32,0.56,1.93,0.56
			c1.48,0,2.21-0.79,2.21-2.36v-0.66h-0.02c-0.46,0.77-1.14,1.15-2.06,1.15c-0.75,0-1.35-0.27-1.8-0.8s-0.68-1.25-0.68-2.15
			c0-1.02,0.25-1.83,0.74-2.43s1.16-0.9,2.01-0.9c0.81,0,1.41,0.32,1.8,0.97h0.02v-0.83h0.96V123.65z M168.11,121.42v-0.88
			c0-0.48-0.16-0.88-0.48-1.22s-0.72-0.51-1.2-0.51c-0.59,0-1.06,0.22-1.39,0.65s-0.5,1.04-0.5,1.81c0,0.67,0.16,1.2,0.48,1.6
			s0.75,0.6,1.28,0.6c0.54,0,0.98-0.19,1.32-0.57S168.11,122.02,168.11,121.42z"/>
		<path fill="#1E1E1E" d="M130.84,136.47h-0.02v3.63h-0.96v-8.76h0.96v1.05h0.02c0.47-0.8,1.16-1.2,2.07-1.2
			c0.77,0,1.38,0.27,1.81,0.81s0.65,1.26,0.65,2.16c0,1-0.24,1.81-0.73,2.41s-1.16,0.91-2,0.91
			C131.86,137.48,131.26,137.14,130.84,136.47z M130.81,134.05v0.84c0,0.5,0.16,0.92,0.48,1.26s0.73,0.52,1.23,0.52
			c0.58,0,1.04-0.22,1.37-0.67s0.5-1.06,0.5-1.86c0-0.67-0.15-1.19-0.46-1.57s-0.73-0.57-1.25-0.57c-0.56,0-1.01,0.19-1.35,0.58
			S130.81,133.46,130.81,134.05z"/>
		<path fill="#1E1E1E" d="M139.41,137.48c-0.89,0-1.59-0.28-2.12-0.84s-0.79-1.3-0.79-2.23c0-1.01,0.28-1.79,0.83-2.36
			s1.29-0.85,2.23-0.85c0.89,0,1.59,0.28,2.09,0.83s0.75,1.31,0.75,2.29c0,0.96-0.27,1.72-0.81,2.3S140.32,137.48,139.41,137.48z
			 M139.48,132c-0.62,0-1.11,0.21-1.46,0.63s-0.54,1-0.54,1.74c0,0.71,0.18,1.27,0.54,1.68s0.85,0.62,1.46,0.62
			c0.62,0,1.1-0.2,1.43-0.6s0.5-0.97,0.5-1.72c0-0.75-0.17-1.33-0.5-1.73S140.1,132,139.48,132z"/>
		<path fill="#1E1E1E" d="M144.43,129.81c-0.17,0-0.32-0.06-0.44-0.18s-0.18-0.27-0.18-0.45s0.06-0.33,0.18-0.45
			s0.27-0.18,0.44-0.18c0.18,0,0.33,0.06,0.45,0.18s0.18,0.27,0.18,0.45c0,0.17-0.06,0.32-0.18,0.44S144.6,129.81,144.43,129.81z
			 M144.9,137.34h-0.96v-6h0.96V137.34z"/>
		<path fill="#1E1E1E" d="M151.82,137.34h-0.96v-3.42c0-1.27-0.46-1.91-1.39-1.91c-0.48,0-0.88,0.18-1.19,0.54s-0.47,0.82-0.47,1.37
			v3.42h-0.96v-6h0.96v1h0.02c0.45-0.76,1.11-1.14,1.97-1.14c0.66,0,1.16,0.21,1.51,0.64s0.52,1.04,0.52,1.84V137.34z"/>
		<path fill="#1E1E1E" d="M156.42,137.28c-0.23,0.13-0.53,0.19-0.9,0.19c-1.05,0-1.58-0.59-1.58-1.76v-3.55h-1.03v-0.82h1.03v-1.46
			l0.96-0.31v1.78h1.51v0.82h-1.51v3.38c0,0.4,0.07,0.69,0.21,0.86s0.36,0.26,0.68,0.26c0.24,0,0.45-0.07,0.63-0.2V137.28z"/>
	</g>
	<g>
		<path fill="#1E1E1E" d="M113.35,89.43h-1.09l-0.89-2.36h-3.56l-0.84,2.36h-1.1l3.22-8.4h1.02L113.35,89.43z M111.05,86.19
			l-1.32-3.58c-0.04-0.12-0.09-0.3-0.13-0.56h-0.02c-0.04,0.24-0.08,0.43-0.13,0.56l-1.31,3.58H111.05z"/>
		<path fill="#1E1E1E" d="M119.44,89.43h-0.96v-3.42c0-1.27-0.46-1.91-1.39-1.91c-0.48,0-0.88,0.18-1.19,0.54s-0.47,0.82-0.47,1.37
			v3.42h-0.96v-6h0.96v1h0.02c0.45-0.76,1.11-1.14,1.97-1.14c0.66,0,1.16,0.21,1.51,0.64s0.52,1.04,0.52,1.84V89.43z"/>
		<path fill="#1E1E1E" d="M126.37,88.95c0,2.2-1.05,3.3-3.16,3.3c-0.74,0-1.39-0.14-1.95-0.42v-0.96c0.68,0.38,1.32,0.56,1.93,0.56
			c1.48,0,2.21-0.79,2.21-2.36v-0.66h-0.02c-0.46,0.77-1.14,1.15-2.06,1.15c-0.75,0-1.35-0.27-1.8-0.8s-0.68-1.25-0.68-2.15
			c0-1.02,0.25-1.83,0.74-2.43s1.16-0.9,2.01-0.9c0.81,0,1.41,0.32,1.8,0.97h0.02v-0.83h0.96V88.95z M125.41,86.72v-0.88
			c0-0.48-0.16-0.88-0.48-1.22s-0.72-0.51-1.2-0.51c-0.59,0-1.06,0.22-1.39,0.65s-0.5,1.04-0.5,1.81c0,0.67,0.16,1.2,0.48,1.6
			s0.75,0.6,1.28,0.6c0.54,0,0.98-0.19,1.32-0.57S125.41,87.32,125.41,86.72z"/>
		<path fill="#1E1E1E" d="M129.28,89.43h-0.96v-8.88h0.96V89.43z"/>
		<path fill="#1E1E1E" d="M136.04,86.67h-4.24c0.02,0.67,0.2,1.18,0.54,1.55s0.82,0.54,1.42,0.54c0.68,0,1.3-0.22,1.86-0.67V89
			c-0.53,0.38-1.22,0.57-2.09,0.57c-0.85,0-1.51-0.27-2-0.82s-0.73-1.31-0.73-2.3c0-0.93,0.26-1.69,0.79-2.28s1.19-0.88,1.97-0.88
			s1.39,0.25,1.82,0.76s0.64,1.21,0.64,2.12V86.67z M135.06,85.86c0-0.55-0.14-0.99-0.4-1.29s-0.63-0.46-1.1-0.46
			c-0.45,0-0.84,0.16-1.15,0.49s-0.51,0.75-0.59,1.27H135.06z"/>
	</g>
	<g>
		<path fill="#1E1E1E" d="M184.88,86.62h-1.17l-1.41-2.36c-0.13-0.22-0.25-0.41-0.38-0.56s-0.25-0.28-0.37-0.38
			s-0.26-0.17-0.41-0.21s-0.31-0.07-0.5-0.07h-0.81v3.57h-0.98v-8.4h2.51c0.37,0,0.71,0.05,1.02,0.14s0.58,0.23,0.81,0.42
			s0.41,0.42,0.54,0.7s0.19,0.61,0.19,0.98c0,0.29-0.04,0.56-0.13,0.81s-0.21,0.46-0.38,0.65s-0.36,0.35-0.59,0.49
			s-0.49,0.24-0.77,0.31v0.02c0.14,0.06,0.26,0.13,0.37,0.21s0.2,0.17,0.3,0.28s0.19,0.23,0.28,0.37s0.19,0.3,0.31,0.48
			L184.88,86.62z M179.84,79.11v3.05h1.34c0.25,0,0.47-0.04,0.68-0.11s0.39-0.18,0.54-0.32s0.27-0.31,0.36-0.51s0.13-0.43,0.13-0.68
			c0-0.45-0.15-0.8-0.44-1.05s-0.71-0.38-1.26-0.38H179.84z"/>
		<path fill="#1E1E1E" d="M190.2,86.62h-0.96v-0.94h-0.02c-0.42,0.72-1.03,1.08-1.85,1.08c-0.6,0-1.07-0.16-1.4-0.47
			s-0.51-0.74-0.51-1.26c0-1.12,0.66-1.77,1.98-1.96l1.8-0.25c0-1.02-0.41-1.53-1.24-1.53c-0.72,0-1.38,0.25-1.96,0.74v-0.98
			c0.59-0.38,1.27-0.56,2.04-0.56c1.41,0,2.12,0.75,2.12,2.24V86.62z M189.24,83.58l-1.45,0.2c-0.45,0.06-0.78,0.17-1.01,0.33
			s-0.34,0.44-0.34,0.84c0,0.29,0.1,0.53,0.31,0.72s0.49,0.28,0.83,0.28c0.48,0,0.87-0.17,1.18-0.5s0.47-0.76,0.47-1.27V83.58z"/>
		<path fill="#1E1E1E" d="M197.14,86.62h-0.96V85.6h-0.02c-0.45,0.77-1.13,1.16-2.06,1.16c-0.75,0-1.36-0.27-1.81-0.81
			s-0.68-1.27-0.68-2.19c0-0.99,0.25-1.79,0.75-2.38s1.17-0.9,2-0.9c0.82,0,1.42,0.32,1.8,0.97h0.02v-3.71h0.96V86.62z
			 M196.17,83.91v-0.88c0-0.48-0.16-0.89-0.48-1.23s-0.73-0.5-1.22-0.5c-0.59,0-1.05,0.21-1.38,0.64s-0.5,1.02-0.5,1.78
			c0,0.69,0.16,1.24,0.48,1.64s0.75,0.6,1.3,0.6c0.54,0,0.97-0.19,1.3-0.58S196.17,84.5,196.17,83.91z"/>
		<path fill="#1E1E1E" d="M199.57,79.1c-0.17,0-0.32-0.06-0.44-0.18s-0.18-0.27-0.18-0.45s0.06-0.33,0.18-0.45s0.27-0.18,0.44-0.18
			c0.18,0,0.33,0.06,0.45,0.18s0.18,0.27,0.18,0.45c0,0.17-0.06,0.32-0.18,0.44S199.75,79.1,199.57,79.1z M200.04,86.62h-0.96v-6
			h0.96V86.62z"/>
		<path fill="#1E1E1E" d="M206.84,86.62h-0.96v-0.95h-0.02c-0.4,0.73-1.02,1.09-1.85,1.09c-1.43,0-2.14-0.85-2.14-2.55v-3.59h0.96
			v3.43c0,1.27,0.48,1.9,1.45,1.9c0.47,0,0.85-0.17,1.16-0.52s0.45-0.8,0.45-1.36v-3.46h0.96V86.62z"/>
		<path fill="#1E1E1E" d="M208.41,86.4v-1.03c0.52,0.39,1.1,0.58,1.73,0.58c0.84,0,1.27-0.28,1.27-0.84c0-0.16-0.04-0.3-0.11-0.41
			s-0.17-0.21-0.29-0.3s-0.27-0.16-0.43-0.23s-0.34-0.14-0.54-0.21c-0.27-0.11-0.5-0.21-0.7-0.32s-0.37-0.23-0.5-0.36
			s-0.24-0.29-0.3-0.46s-0.1-0.37-0.1-0.6c0-0.28,0.06-0.53,0.19-0.75s0.3-0.4,0.52-0.54s0.46-0.26,0.74-0.33s0.56-0.11,0.85-0.11
			c0.52,0,0.98,0.09,1.39,0.27v0.97c-0.44-0.29-0.95-0.43-1.52-0.43c-0.18,0-0.34,0.02-0.49,0.06s-0.27,0.1-0.37,0.17
			s-0.18,0.16-0.24,0.27s-0.08,0.22-0.08,0.34c0,0.16,0.03,0.29,0.08,0.39s0.14,0.2,0.25,0.28s0.24,0.16,0.4,0.22
			s0.33,0.14,0.53,0.22c0.27,0.1,0.5,0.21,0.71,0.31s0.39,0.23,0.54,0.36s0.26,0.29,0.34,0.47s0.12,0.38,0.12,0.63
			c0,0.3-0.07,0.55-0.2,0.77s-0.31,0.4-0.52,0.54s-0.47,0.25-0.76,0.32s-0.58,0.11-0.9,0.11C209.4,86.76,208.87,86.64,208.41,86.4z"
			/>
	</g>
</g>
<g id="writer_source" display="none">
	
		<image display="inline" overflow="visible" width="241" height="179" xlink:href="../../trt/package_Images_Geo_P1/To Do/image859402754_SRC.jpg"  transform="matrix(0.7466 0 0 0.7466 350.177 -54.739)">
	</image>
</g>
</svg>
