<?xml version="1.0" encoding="utf-8"?>
<!-- Generator: Adobe Illustrator 23.0.3, SVG Export Plug-In . SVG Version: 6.00 Build 0)  -->
<svg version="1.1" xmlns="http://www.w3.org/2000/svg" xmlns:xlink="http://www.w3.org/1999/xlink" x="0px" y="0px"
	 width="144.15px" height="107.54px" viewBox="0 0 144.15 107.54" enable-background="new 0 0 144.15 107.54" xml:space="preserve">
<g id="Shapes">
	<g id="Wrench_tool_x28_s_x29_">
	</g>
	<g id="user2">
	</g>
	<g id="user2_1_">
	</g>
	<g id="user2_4_">
	</g>
	<g id="user2_3_">
	</g>
	<g id="user2_2_">
	</g>
	<g id="Internet_2">
	</g>
	<g id="Enterprise">
	</g>
	<g id="Tunnel__x28_stackable_x29_">
	</g>
	<g id="New_Symbol">
	</g>
	<g id="New_Symbol_1">
	</g>
	<g id="Files">
	</g>
	<g id="BlobBlock">
	</g>
	<g id="E_x5F_Enterprise">
	</g>
	<g id="E_x5F_AD_FS">
	</g>
	<g id="C_x5F_Azure_Active_Directory">
	</g>
	<g id="Layer_22">
	</g>
	<polygon fill="#D5DCE9" points="64.98,103.56 140.15,60.18 94.45,33.19 19.27,76.55 	"/>
	<polyline fill="none" stroke="#191919" stroke-linecap="round" stroke-linejoin="round" points="64.98,74.38 140.15,30.99 94.45,4 
		19.28,47.1 	"/>
	<polyline fill="none" stroke="#191919" stroke-linecap="round" stroke-linejoin="round" points="64.98,103.56 140.15,60.18 
		140.15,30.99 	"/>
	<g>
		<polyline fill="none" stroke="#000000" points="139.49,59.89 94.38,33.25 94.38,4.85 		"/>
		<line fill="none" stroke="#000000" x1="94.46" y1="33.25" x2="19.93" y2="76.23"/>
	</g>
	<polygon fill="none" stroke="#191919" stroke-linecap="round" stroke-linejoin="round" stroke-miterlimit="10" points="
		64.98,103.56 19.28,76.57 19.28,47.07 64.98,74.37 	"/>
	<circle fill="#BBBDBF" stroke="#808184" stroke-miterlimit="10" cx="94.45" cy="4" r="3.5"/>
	<circle fill="#BBBDBF" stroke="#808184" stroke-miterlimit="10" cx="140.15" cy="30.99" r="3.5"/>
	<circle fill="#BBBDBF" stroke="#808184" stroke-miterlimit="10" cx="140.15" cy="60.15" r="3.5"/>
	<g>
		<circle fill="#BBBDBF" stroke="#808184" stroke-miterlimit="10" cx="19.28" cy="47.07" r="3.5"/>
		<circle fill="#BBBDBF" stroke="#808184" stroke-miterlimit="10" cx="19.28" cy="76.57" r="3.5"/>
	</g>
	<g>
		<circle fill="#BBBDBF" stroke="#808184" stroke-miterlimit="10" cx="64.98" cy="74.49" r="3.5"/>
		<circle fill="#BBBDBF" stroke="#808184" stroke-miterlimit="10" cx="64.98" cy="103.54" r="3.5"/>
	</g>
	<g>
		<g>
			<line fill="none" stroke="#000000" stroke-linecap="round" stroke-linejoin="round" x1="2.91" y1="80.07" x2="2.91" y2="55.93"/>
			<g>
				<polygon points="5.81,57.91 2.91,47.07 0,57.91 				"/>
			</g>
		</g>
	</g>
</g>
<g id="writer_source" display="none">
	
		<image display="inline" overflow="visible" width="90" height="56" xlink:href="../../trt/package_Images_Geo_P1/To Do/image2058169784_SRC.jpg"  transform="matrix(1.5206 0 0 1.5206 176.2682 7.9938)">
	</image>
</g>
</svg>
