<?xml version="1.0" encoding="utf-8"?>
<!-- Generator: Adobe Illustrator 23.0.3, SVG Export Plug-In . SVG Version: 6.00 Build 0)  -->
<svg version="1.1" xmlns="http://www.w3.org/2000/svg" xmlns:xlink="http://www.w3.org/1999/xlink" x="0px" y="0px" width="271px"
	 height="192.16px" viewBox="0 0 271 192.16" enable-background="new 0 0 271 192.16" xml:space="preserve">
<g id="Shapes">
	<g>
		<rect x="0.5" y="0.5" fill="#FFFFFF" width="270" height="191.16"/>
		<rect x="0.5" y="0.5" opacity="0.2" fill="#E5E5E5" width="270" height="191.16"/>
		<rect x="0.5" y="0.5" opacity="0.1" fill="none" stroke="#231F20" stroke-miterlimit="10" width="270" height="191.16"/>
	</g>
	<g id="Wrench_tool_x28_s_x29_">
	</g>
	<g id="user2">
	</g>
	<g id="user2_1_">
	</g>
	<g id="user2_4_">
	</g>
	<g id="user2_3_">
	</g>
	<g id="user2_2_">
	</g>
	<g id="Internet_2">
	</g>
	<g id="Enterprise">
	</g>
	<g id="Tunnel__x28_stackable_x29_">
	</g>
	<g id="New_Symbol">
	</g>
	<g id="New_Symbol_1">
	</g>
	<g id="Files">
	</g>
	<g id="BlobBlock">
	</g>
	<g id="E_x5F_Enterprise">
	</g>
	<g id="E_x5F_AD_FS">
	</g>
	<g id="C_x5F_Azure_Active_Directory">
	</g>
	<g id="Layer_22">
	</g>
	<polygon fill="none" stroke="#2E5291" points="77.07,95 170.89,149.52 214,40.12 	"/>
	<circle fill="#01A7DF" stroke="#1B75BB" stroke-miterlimit="10" cx="170.89" cy="149.52" r="5"/>
	<circle fill="#01A7DF" stroke="#1B75BB" stroke-miterlimit="10" cx="214.14" cy="39.76" r="5"/>
	<circle fill="#01A7DF" stroke="#1B75BB" stroke-miterlimit="10" cx="77.07" cy="95" r="5"/>
	<g>
		<g>
			<line fill="none" stroke="#1E1E1E" stroke-miterlimit="10" x1="193.8" y1="91.38" x2="193.98" y2="90.94"/>
			<g>
				<path fill="#1E1E1E" d="M195.94,99.05c-0.27,0.05-0.53-0.12-0.59-0.4l-1.46-7.51l-6.19,4.5c-0.22,0.16-0.54,0.11-0.7-0.11
					c-0.16-0.22-0.11-0.54,0.11-0.7l6.82-4.96c0.14-0.1,0.32-0.12,0.48-0.06c0.16,0.06,0.28,0.2,0.31,0.37l1.61,8.28
					c0.02,0.1,0.01,0.19-0.03,0.28C196.25,98.9,196.11,99.02,195.94,99.05z"/>
			</g>
		</g>
	</g>
	<g>
		<g>
			<line fill="none" stroke="#1E1E1E" stroke-miterlimit="10" x1="123.13" y1="121.76" x2="123.54" y2="122"/>
			<g>
				<path fill="#1E1E1E" d="M115.21,122.69c-0.01-0.28,0.2-0.51,0.48-0.52l7.64-0.29l-3.49-6.81c-0.13-0.25-0.03-0.55,0.22-0.67
					c0.25-0.13,0.55-0.03,0.67,0.22l3.85,7.5c0.08,0.15,0.07,0.33-0.01,0.48c-0.09,0.15-0.24,0.24-0.41,0.25l-8.43,0.32
					c-0.1,0-0.19-0.02-0.27-0.07C115.32,123.02,115.22,122.87,115.21,122.69z"/>
			</g>
		</g>
	</g>
	<g>
		<g>
			<line fill="none" stroke="#1E1E1E" stroke-miterlimit="10" x1="146.27" y1="67.27" x2="145.83" y2="67.44"/>
			<g>
				<path fill="#1E1E1E" d="M150.39,60.44c0.22,0.16,0.28,0.47,0.11,0.7l-4.46,6.21l7.52,1.41c0.27,0.05,0.45,0.31,0.4,0.58
					s-0.32,0.45-0.58,0.4l-8.29-1.56c-0.17-0.03-0.31-0.15-0.37-0.31c-0.06-0.16-0.04-0.34,0.06-0.48l4.92-6.85
					c0.06-0.08,0.13-0.14,0.22-0.17C150.07,60.33,150.25,60.34,150.39,60.44z"/>
			</g>
		</g>
	</g>
	<g>
		<g>
			<g>
				<polyline fill="none" stroke="#000000" stroke-linecap="round" stroke-linejoin="round" points="42.73,149.67 24.93,156.81 
					40.53,165.88 				"/>
				<g>
					<polygon points="39.81,147.71 50.96,146.38 41.97,153.11 					"/>
				</g>
				<g>
					<polygon points="37.36,167.39 48.19,170.33 40.28,162.37 					"/>
				</g>
			</g>
		</g>
		<g>
			<g>
				
					<line fill="none" stroke="#000000" stroke-linecap="round" stroke-linejoin="round" x1="24.93" y1="156.81" x2="24.93" y2="140.27"/>
				<g>
					<polygon points="27.83,142.25 24.93,131.41 22.02,142.25 					"/>
				</g>
			</g>
		</g>
	</g>
</g>
<g id="Text">
	<g id="Windows_Server_New">
	</g>
	<g>
		<path fill="#1E1E1E" d="M19.04,72.22v2.7c0,0.58,0.06,0.95,0.19,1.09c0.17,0.2,0.44,0.3,0.79,0.3h0.36v0.25H16.4v-0.25h0.35
			c0.39,0,0.67-0.13,0.84-0.38c0.09-0.14,0.14-0.48,0.14-1v-5.99c0-0.58-0.06-0.95-0.18-1.09c-0.18-0.2-0.44-0.3-0.79-0.3H16.4
			v-0.25h3.4c0.83,0,1.48,0.09,1.96,0.26s0.88,0.46,1.21,0.86s0.49,0.89,0.49,1.44c0,0.76-0.25,1.37-0.75,1.85s-1.2,0.71-2.12,0.71
			c-0.22,0-0.46-0.02-0.72-0.05S19.33,72.28,19.04,72.22z M19.04,71.83c0.24,0.05,0.46,0.08,0.64,0.1s0.35,0.03,0.48,0.03
			c0.47,0,0.88-0.18,1.23-0.55s0.52-0.84,0.52-1.43c0-0.4-0.08-0.77-0.25-1.12s-0.4-0.6-0.7-0.77s-0.64-0.26-1.03-0.26
			c-0.23,0-0.53,0.04-0.9,0.13V71.83z"/>
		<path fill="#1E1E1E" d="M25.59,73.99l1.77-0.86h0.18v6.15c0,0.41,0.02,0.66,0.05,0.76c0.03,0.1,0.1,0.18,0.21,0.23
			s0.33,0.08,0.66,0.09v0.2h-2.74v-0.2c0.34-0.01,0.57-0.04,0.67-0.09c0.1-0.05,0.17-0.12,0.21-0.21c0.04-0.09,0.06-0.35,0.06-0.79
			v-3.93c0-0.53-0.02-0.87-0.05-1.02c-0.02-0.11-0.07-0.2-0.14-0.25c-0.07-0.05-0.15-0.08-0.24-0.08c-0.13,0-0.32,0.06-0.55,0.17
			L25.59,73.99z"/>
		<path fill="#1E1E1E" d="M36.68,79.3v0.25c-0.69-0.35-1.26-0.75-1.72-1.22C34.3,77.68,33.8,76.9,33.44,76s-0.53-1.83-0.53-2.8
			c0-1.41,0.35-2.7,1.05-3.87s1.61-2,2.73-2.5v0.29c-0.56,0.31-1.02,0.73-1.38,1.27s-0.63,1.22-0.81,2.04s-0.27,1.69-0.27,2.58
			c0,0.98,0.08,1.86,0.23,2.66c0.12,0.63,0.26,1.13,0.43,1.51s0.4,0.75,0.68,1.1S36.22,78.98,36.68,79.3z"/>
		<path fill="#1E1E1E" d="M37.53,70.3h2.95v0.25c-0.19,0-0.32,0.03-0.39,0.1s-0.11,0.15-0.11,0.25c0,0.11,0.08,0.28,0.24,0.51
			c0.05,0.07,0.13,0.19,0.23,0.34l0.44,0.71l0.51-0.71c0.33-0.45,0.49-0.74,0.49-0.85c0-0.1-0.04-0.18-0.12-0.24s-0.2-0.1-0.38-0.1
			V70.3h2.12v0.25c-0.22,0.01-0.42,0.08-0.58,0.18c-0.22,0.15-0.53,0.49-0.92,1.01l-0.85,1.14l1.56,2.24
			c0.38,0.55,0.66,0.88,0.82,0.99s0.38,0.17,0.64,0.19v0.25h-2.95v-0.25c0.21,0,0.36-0.05,0.48-0.14c0.09-0.06,0.13-0.15,0.13-0.25
			s-0.15-0.37-0.44-0.79l-0.92-1.34l-1,1.34c-0.31,0.41-0.46,0.66-0.46,0.74c0,0.11,0.05,0.21,0.15,0.3s0.26,0.14,0.46,0.15v0.25
			h-2.04v-0.25c0.16-0.02,0.31-0.08,0.43-0.17c0.17-0.13,0.46-0.47,0.88-1.01l1.31-1.74l-1.19-1.72c-0.34-0.49-0.6-0.8-0.78-0.93
			s-0.42-0.19-0.69-0.19V70.3z"/>
		<path fill="#1E1E1E" d="M45.98,73.99l1.77-0.86h0.18v6.15c0,0.41,0.02,0.66,0.05,0.76c0.03,0.1,0.1,0.18,0.21,0.23
			s0.33,0.08,0.66,0.09v0.2h-2.74v-0.2c0.34-0.01,0.57-0.04,0.67-0.09c0.1-0.05,0.17-0.12,0.21-0.21c0.04-0.09,0.06-0.35,0.06-0.79
			v-3.93c0-0.53-0.02-0.87-0.05-1.02c-0.02-0.11-0.07-0.2-0.14-0.25c-0.07-0.05-0.15-0.08-0.24-0.08c-0.13,0-0.32,0.06-0.55,0.17
			L45.98,73.99z"/>
		<path fill="#1E1E1E" d="M51.22,78.89v-0.3c0.47-0.15,0.83-0.4,1.09-0.72s0.39-0.67,0.39-1.04c0-0.09-0.02-0.16-0.06-0.22
			c-0.03-0.04-0.06-0.06-0.1-0.06c-0.05,0-0.16,0.05-0.33,0.14c-0.08,0.04-0.17,0.06-0.26,0.06c-0.22,0-0.4-0.07-0.53-0.2
			s-0.2-0.31-0.2-0.55c0-0.22,0.09-0.41,0.26-0.57s0.38-0.24,0.63-0.24c0.3,0,0.57,0.13,0.8,0.39s0.35,0.61,0.35,1.04
			c0,0.47-0.16,0.91-0.49,1.31S51.93,78.66,51.22,78.89z"/>
		<path fill="#1E1E1E" d="M58.25,70.3h2.92v0.25h-0.14c-0.21,0-0.36,0.04-0.46,0.13s-0.15,0.2-0.15,0.33c0,0.18,0.08,0.42,0.23,0.74
			l1.52,3.16l1.4-3.46c0.08-0.19,0.12-0.37,0.12-0.55c0-0.08-0.02-0.14-0.05-0.18c-0.04-0.05-0.09-0.09-0.17-0.12
			s-0.21-0.04-0.41-0.04V70.3h2.04v0.25c-0.17,0.02-0.3,0.05-0.39,0.11s-0.19,0.16-0.3,0.31c-0.04,0.06-0.12,0.24-0.23,0.53
			l-2.55,6.25c-0.25,0.61-0.57,1.06-0.97,1.37s-0.78,0.46-1.15,0.46c-0.27,0-0.49-0.08-0.66-0.23s-0.26-0.33-0.26-0.53
			c0-0.19,0.06-0.35,0.19-0.46s0.3-0.17,0.52-0.17c0.15,0,0.36,0.05,0.62,0.15c0.18,0.07,0.3,0.1,0.34,0.1
			c0.14,0,0.29-0.07,0.45-0.21s0.32-0.41,0.49-0.82l0.44-1.09l-2.25-4.72c-0.07-0.14-0.18-0.32-0.33-0.53
			c-0.11-0.16-0.21-0.27-0.28-0.32c-0.1-0.07-0.27-0.14-0.51-0.19V70.3z"/>
		<path fill="#1E1E1E" d="M66.81,73.99l1.77-0.86h0.18v6.15c0,0.41,0.02,0.66,0.05,0.76c0.03,0.1,0.1,0.18,0.21,0.23
			s0.33,0.08,0.66,0.09v0.2h-2.74v-0.2c0.34-0.01,0.57-0.04,0.67-0.09c0.1-0.05,0.17-0.12,0.21-0.21c0.04-0.09,0.06-0.35,0.06-0.79
			v-3.93c0-0.53-0.02-0.87-0.05-1.02c-0.02-0.11-0.07-0.2-0.14-0.25c-0.07-0.05-0.15-0.08-0.24-0.08c-0.13,0-0.32,0.06-0.55,0.17
			L66.81,73.99z"/>
		<path fill="#1E1E1E" d="M72.05,78.89v-0.3c0.47-0.15,0.83-0.4,1.09-0.72s0.39-0.67,0.39-1.04c0-0.09-0.02-0.16-0.06-0.22
			c-0.03-0.04-0.06-0.06-0.1-0.06c-0.05,0-0.16,0.05-0.33,0.14c-0.08,0.04-0.17,0.06-0.26,0.06c-0.22,0-0.4-0.07-0.53-0.2
			s-0.2-0.31-0.2-0.55c0-0.22,0.09-0.41,0.26-0.57s0.38-0.24,0.63-0.24c0.3,0,0.57,0.13,0.8,0.39s0.35,0.61,0.35,1.04
			c0,0.47-0.16,0.91-0.49,1.31S72.75,78.66,72.05,78.89z"/>
		<path fill="#1E1E1E" d="M84.87,74.64l-0.08,1.92h-5.52v-0.25l4.16-5.54h-2.05c-0.44,0-0.73,0.03-0.87,0.09s-0.25,0.17-0.33,0.32
			c-0.12,0.23-0.19,0.51-0.21,0.85h-0.27l0.04-1.74h5.25v0.25l-4.2,5.55h2.28c0.48,0,0.8-0.04,0.97-0.12s0.31-0.22,0.41-0.42
			c0.07-0.15,0.13-0.45,0.18-0.92H84.87z"/>
		<path fill="#1E1E1E" d="M86.85,73.99l1.77-0.86h0.18v6.15c0,0.41,0.02,0.66,0.05,0.76c0.03,0.1,0.1,0.18,0.21,0.23
			s0.33,0.08,0.66,0.09v0.2h-2.74v-0.2c0.34-0.01,0.57-0.04,0.67-0.09c0.1-0.05,0.17-0.12,0.21-0.21c0.04-0.09,0.06-0.35,0.06-0.79
			v-3.93c0-0.53-0.02-0.87-0.05-1.02c-0.02-0.11-0.07-0.2-0.14-0.25c-0.07-0.05-0.15-0.08-0.24-0.08c-0.13,0-0.32,0.06-0.55,0.17
			L86.85,73.99z"/>
		<path fill="#1E1E1E" d="M91.65,67.13v-0.29c0.69,0.34,1.27,0.75,1.73,1.21c0.65,0.67,1.16,1.45,1.51,2.34s0.53,1.83,0.53,2.8
			c0,1.41-0.35,2.7-1.04,3.87s-1.61,2-2.73,2.5V79.3c0.56-0.31,1.02-0.74,1.38-1.27s0.63-1.22,0.81-2.04s0.26-1.69,0.26-2.59
			c0-0.97-0.08-1.86-0.23-2.66c-0.11-0.63-0.26-1.13-0.43-1.51s-0.4-0.74-0.68-1.09S92.11,67.44,91.65,67.13z"/>
	</g>
	<g>
		<path fill="#1E1E1E" d="M133.96,166.37v2.7c0,0.58,0.06,0.95,0.19,1.09c0.17,0.2,0.44,0.3,0.79,0.3h0.36v0.25h-3.97v-0.25h0.35
			c0.39,0,0.67-0.13,0.84-0.38c0.09-0.14,0.14-0.48,0.14-1v-5.99c0-0.58-0.06-0.95-0.18-1.09c-0.18-0.2-0.44-0.3-0.79-0.3h-0.35
			v-0.25h3.4c0.83,0,1.48,0.09,1.96,0.26s0.88,0.46,1.21,0.86s0.49,0.89,0.49,1.44c0,0.76-0.25,1.37-0.75,1.85s-1.2,0.71-2.12,0.71
			c-0.22,0-0.46-0.02-0.72-0.05S134.26,166.43,133.96,166.37z M133.96,165.98c0.24,0.05,0.46,0.08,0.64,0.1s0.35,0.03,0.48,0.03
			c0.47,0,0.88-0.18,1.23-0.55s0.52-0.84,0.52-1.43c0-0.4-0.08-0.77-0.25-1.12s-0.4-0.6-0.7-0.77s-0.64-0.26-1.03-0.26
			c-0.23,0-0.53,0.04-0.9,0.13V165.98z"/>
		<path fill="#1E1E1E" d="M144.27,173.31l-0.51,1.4h-4.3v-0.2c1.26-1.15,2.15-2.09,2.67-2.83s0.77-1.4,0.77-2
			c0-0.46-0.14-0.84-0.42-1.14s-0.62-0.45-1.02-0.45c-0.36,0-0.68,0.1-0.96,0.31c-0.28,0.21-0.49,0.52-0.63,0.92h-0.2
			c0.09-0.66,0.32-1.17,0.69-1.53c0.37-0.35,0.83-0.53,1.39-0.53c0.59,0,1.08,0.19,1.48,0.57c0.4,0.38,0.59,0.83,0.59,1.34
			c0,0.37-0.09,0.74-0.26,1.11c-0.27,0.58-0.69,1.19-1.29,1.84c-0.89,0.97-1.45,1.56-1.67,1.76h1.9c0.39,0,0.66-0.01,0.81-0.04
			c0.16-0.03,0.3-0.09,0.42-0.17c0.13-0.09,0.23-0.21,0.33-0.37H144.27z"/>
		<path fill="#1E1E1E" d="M151.6,173.45v0.25c-0.69-0.35-1.26-0.75-1.72-1.22c-0.66-0.66-1.16-1.44-1.52-2.34s-0.53-1.83-0.53-2.8
			c0-1.41,0.35-2.7,1.05-3.87s1.61-2,2.73-2.5v0.29c-0.56,0.31-1.02,0.73-1.38,1.27s-0.63,1.22-0.81,2.04s-0.27,1.69-0.27,2.58
			c0,0.98,0.08,1.86,0.23,2.66c0.12,0.63,0.26,1.13,0.43,1.51s0.4,0.75,0.68,1.1S151.14,173.13,151.6,173.45z"/>
		<path fill="#1E1E1E" d="M152.45,164.45h2.95v0.25c-0.19,0-0.32,0.03-0.39,0.1s-0.11,0.15-0.11,0.25c0,0.11,0.08,0.28,0.24,0.51
			c0.05,0.07,0.13,0.19,0.23,0.34l0.44,0.71l0.51-0.71c0.33-0.45,0.49-0.74,0.49-0.85c0-0.1-0.04-0.18-0.12-0.24s-0.2-0.1-0.38-0.1
			v-0.25h2.12v0.25c-0.22,0.01-0.42,0.08-0.58,0.18c-0.22,0.15-0.53,0.49-0.92,1.01l-0.85,1.14l1.56,2.24
			c0.38,0.55,0.66,0.88,0.82,0.99s0.38,0.17,0.64,0.19v0.25h-2.95v-0.25c0.21,0,0.36-0.05,0.48-0.14c0.09-0.06,0.13-0.15,0.13-0.25
			s-0.15-0.37-0.44-0.79l-0.92-1.34l-1,1.34c-0.31,0.41-0.46,0.66-0.46,0.74c0,0.11,0.05,0.21,0.15,0.3s0.26,0.14,0.46,0.15v0.25
			h-2.04v-0.25c0.16-0.02,0.31-0.08,0.43-0.17c0.17-0.13,0.46-0.47,0.88-1.01l1.31-1.74l-1.19-1.72c-0.34-0.49-0.6-0.8-0.78-0.93
			s-0.42-0.19-0.69-0.19V164.45z"/>
		<path fill="#1E1E1E" d="M164.66,173.31l-0.51,1.4h-4.3v-0.2c1.26-1.15,2.15-2.09,2.67-2.83s0.77-1.4,0.77-2
			c0-0.46-0.14-0.84-0.42-1.14s-0.62-0.45-1.02-0.45c-0.36,0-0.68,0.1-0.96,0.31c-0.28,0.21-0.49,0.52-0.63,0.92h-0.2
			c0.09-0.66,0.32-1.17,0.69-1.53c0.37-0.35,0.83-0.53,1.39-0.53c0.59,0,1.08,0.19,1.48,0.57c0.4,0.38,0.59,0.83,0.59,1.34
			c0,0.37-0.09,0.74-0.26,1.11c-0.27,0.58-0.69,1.19-1.29,1.84c-0.89,0.97-1.45,1.56-1.67,1.76h1.9c0.39,0,0.66-0.01,0.81-0.04
			c0.16-0.03,0.3-0.09,0.42-0.17c0.13-0.09,0.23-0.21,0.33-0.37H164.66z"/>
		<path fill="#1E1E1E" d="M166.14,173.04v-0.3c0.47-0.15,0.83-0.4,1.09-0.72s0.39-0.67,0.39-1.04c0-0.09-0.02-0.16-0.06-0.22
			c-0.03-0.04-0.06-0.06-0.1-0.06c-0.05,0-0.16,0.05-0.33,0.14c-0.08,0.04-0.17,0.06-0.26,0.06c-0.22,0-0.4-0.07-0.53-0.2
			s-0.2-0.31-0.2-0.55c0-0.22,0.09-0.41,0.26-0.57s0.38-0.24,0.63-0.24c0.3,0,0.57,0.13,0.8,0.39s0.35,0.61,0.35,1.04
			c0,0.47-0.16,0.91-0.49,1.31S166.85,172.81,166.14,173.04z"/>
		<path fill="#1E1E1E" d="M173.17,164.45h2.92v0.25h-0.14c-0.21,0-0.36,0.04-0.46,0.13s-0.15,0.2-0.15,0.33
			c0,0.18,0.08,0.42,0.23,0.74l1.52,3.16l1.4-3.46c0.08-0.19,0.12-0.37,0.12-0.55c0-0.08-0.02-0.14-0.05-0.18
			c-0.04-0.05-0.09-0.09-0.17-0.12s-0.21-0.04-0.41-0.04v-0.25h2.04v0.25c-0.17,0.02-0.3,0.05-0.39,0.11s-0.19,0.16-0.3,0.31
			c-0.04,0.06-0.12,0.24-0.23,0.53l-2.55,6.25c-0.25,0.61-0.57,1.06-0.97,1.37s-0.78,0.46-1.15,0.46c-0.27,0-0.49-0.08-0.66-0.23
			s-0.26-0.33-0.26-0.53c0-0.19,0.06-0.35,0.19-0.46s0.3-0.17,0.52-0.17c0.15,0,0.36,0.05,0.62,0.15c0.18,0.07,0.3,0.1,0.34,0.1
			c0.14,0,0.29-0.07,0.45-0.21s0.32-0.41,0.49-0.82l0.44-1.09l-2.25-4.72c-0.07-0.14-0.18-0.32-0.33-0.53
			c-0.11-0.16-0.21-0.27-0.28-0.32c-0.1-0.07-0.27-0.14-0.51-0.19V164.45z"/>
		<path fill="#1E1E1E" d="M185.49,173.31l-0.51,1.4h-4.3v-0.2c1.26-1.15,2.15-2.09,2.67-2.83s0.77-1.4,0.77-2
			c0-0.46-0.14-0.84-0.42-1.14s-0.62-0.45-1.02-0.45c-0.36,0-0.68,0.1-0.96,0.31c-0.28,0.21-0.49,0.52-0.63,0.92h-0.2
			c0.09-0.66,0.32-1.17,0.69-1.53c0.37-0.35,0.83-0.53,1.39-0.53c0.59,0,1.08,0.19,1.48,0.57c0.4,0.38,0.59,0.83,0.59,1.34
			c0,0.37-0.09,0.74-0.26,1.11c-0.27,0.58-0.69,1.19-1.29,1.84c-0.89,0.97-1.45,1.56-1.67,1.76h1.9c0.39,0,0.66-0.01,0.81-0.04
			c0.16-0.03,0.3-0.09,0.42-0.17c0.13-0.09,0.23-0.21,0.33-0.37H185.49z"/>
		<path fill="#1E1E1E" d="M186.97,173.04v-0.3c0.47-0.15,0.83-0.4,1.09-0.72s0.39-0.67,0.39-1.04c0-0.09-0.02-0.16-0.06-0.22
			c-0.03-0.04-0.06-0.06-0.1-0.06c-0.05,0-0.16,0.05-0.33,0.14c-0.08,0.04-0.17,0.06-0.26,0.06c-0.22,0-0.4-0.07-0.53-0.2
			s-0.2-0.31-0.2-0.55c0-0.22,0.09-0.41,0.26-0.57s0.38-0.24,0.63-0.24c0.3,0,0.57,0.13,0.8,0.39s0.35,0.61,0.35,1.04
			c0,0.47-0.16,0.91-0.49,1.31S187.68,172.81,186.97,173.04z"/>
		<path fill="#1E1E1E" d="M199.8,168.79l-0.08,1.92h-5.52v-0.25l4.16-5.54h-2.05c-0.44,0-0.73,0.03-0.87,0.09s-0.25,0.17-0.33,0.32
			c-0.12,0.23-0.19,0.51-0.21,0.85h-0.27l0.04-1.74h5.25v0.25l-4.2,5.55h2.28c0.48,0,0.8-0.04,0.97-0.12s0.31-0.22,0.41-0.42
			c0.07-0.15,0.13-0.45,0.18-0.92H199.8z"/>
		<path fill="#1E1E1E" d="M205.52,173.31l-0.51,1.4h-4.3v-0.2c1.26-1.15,2.15-2.09,2.67-2.83s0.77-1.4,0.77-2
			c0-0.46-0.14-0.84-0.42-1.14s-0.62-0.45-1.02-0.45c-0.36,0-0.68,0.1-0.96,0.31c-0.28,0.21-0.49,0.52-0.63,0.92h-0.2
			c0.09-0.66,0.32-1.17,0.69-1.53c0.37-0.35,0.83-0.53,1.39-0.53c0.59,0,1.08,0.19,1.48,0.57c0.4,0.38,0.59,0.83,0.59,1.34
			c0,0.37-0.09,0.74-0.26,1.11c-0.27,0.58-0.69,1.19-1.29,1.84c-0.89,0.97-1.45,1.56-1.67,1.76h1.9c0.39,0,0.66-0.01,0.81-0.04
			c0.16-0.03,0.3-0.09,0.42-0.17c0.13-0.09,0.23-0.21,0.33-0.37H205.52z"/>
		<path fill="#1E1E1E" d="M206.57,161.28v-0.29c0.69,0.34,1.27,0.75,1.73,1.21c0.65,0.67,1.16,1.45,1.51,2.34s0.53,1.83,0.53,2.8
			c0,1.41-0.35,2.7-1.04,3.87s-1.61,2-2.73,2.5v-0.25c0.56-0.31,1.02-0.74,1.38-1.27s0.63-1.22,0.81-2.04s0.26-1.69,0.26-2.59
			c0-0.97-0.08-1.86-0.23-2.66c-0.11-0.63-0.26-1.13-0.43-1.51s-0.4-0.74-0.68-1.09S207.04,161.59,206.57,161.28z"/>
	</g>
	<g>
		<path fill="#1E1E1E" d="M176.38,20.2v2.7c0,0.58,0.06,0.95,0.19,1.09c0.17,0.2,0.43,0.3,0.79,0.3h0.36v0.25h-3.97v-0.25h0.35
			c0.39,0,0.67-0.13,0.84-0.38c0.09-0.14,0.14-0.48,0.14-1v-5.99c0-0.58-0.06-0.95-0.18-1.09c-0.18-0.2-0.44-0.3-0.79-0.3h-0.35
			v-0.25h3.4c0.83,0,1.48,0.09,1.96,0.26s0.88,0.46,1.21,0.86s0.49,0.89,0.49,1.44c0,0.76-0.25,1.37-0.75,1.85s-1.2,0.71-2.12,0.71
			c-0.22,0-0.46-0.02-0.72-0.05S176.68,20.27,176.38,20.2z M176.38,19.81c0.24,0.05,0.46,0.08,0.64,0.1
			c0.19,0.02,0.35,0.03,0.48,0.03c0.47,0,0.88-0.18,1.23-0.55c0.34-0.37,0.52-0.84,0.52-1.43c0-0.4-0.08-0.77-0.25-1.12
			s-0.4-0.6-0.7-0.77s-0.64-0.26-1.03-0.26c-0.23,0-0.53,0.04-0.9,0.13V19.81z"/>
		<path fill="#1E1E1E" d="M182.21,22.65c0.21-0.49,0.47-0.87,0.79-1.14c0.32-0.27,0.71-0.4,1.18-0.4c0.58,0,1.03,0.19,1.34,0.57
			c0.24,0.28,0.35,0.59,0.35,0.91c0,0.53-0.33,1.08-1,1.64c0.45,0.18,0.79,0.43,1.01,0.75c0.23,0.33,0.34,0.71,0.34,1.15
			c0,0.63-0.2,1.18-0.6,1.64c-0.52,0.6-1.28,0.9-2.27,0.9c-0.49,0-0.83-0.06-1-0.18c-0.18-0.12-0.27-0.25-0.27-0.39
			c0-0.1,0.04-0.2,0.13-0.27s0.19-0.12,0.3-0.12c0.09,0,0.18,0.01,0.27,0.04c0.06,0.02,0.2,0.08,0.41,0.2
			c0.21,0.11,0.36,0.18,0.45,0.2c0.13,0.04,0.27,0.06,0.42,0.06c0.37,0,0.68-0.14,0.95-0.42s0.41-0.62,0.41-1
			c0-0.28-0.06-0.56-0.19-0.83c-0.09-0.2-0.2-0.35-0.31-0.46c-0.15-0.14-0.37-0.27-0.63-0.39c-0.27-0.12-0.54-0.17-0.82-0.17h-0.17
			v-0.16c0.28-0.04,0.57-0.14,0.85-0.31c0.29-0.17,0.49-0.37,0.62-0.61s0.19-0.5,0.19-0.78c0-0.37-0.12-0.67-0.35-0.89
			c-0.23-0.23-0.52-0.34-0.86-0.34c-0.55,0-1.02,0.3-1.39,0.89L182.21,22.65z"/>
		<path fill="#1E1E1E" d="M194.03,27.29v0.25c-0.69-0.35-1.26-0.75-1.72-1.22c-0.66-0.66-1.16-1.44-1.52-2.34s-0.53-1.83-0.53-2.8
			c0-1.41,0.35-2.7,1.05-3.87s1.61-2,2.73-2.5v0.29c-0.56,0.31-1.02,0.73-1.38,1.27c-0.36,0.54-0.63,1.22-0.81,2.04
			s-0.27,1.69-0.27,2.58c0,0.98,0.08,1.86,0.23,2.66c0.12,0.63,0.26,1.13,0.43,1.51c0.17,0.38,0.4,0.75,0.68,1.1
			C193.19,26.63,193.57,26.97,194.03,27.29z"/>
		<path fill="#1E1E1E" d="M194.88,18.28h2.95v0.25c-0.19,0-0.32,0.03-0.39,0.1s-0.11,0.15-0.11,0.25c0,0.11,0.08,0.28,0.24,0.51
			c0.05,0.07,0.13,0.19,0.23,0.34l0.44,0.71l0.51-0.71c0.33-0.45,0.49-0.74,0.49-0.85c0-0.1-0.04-0.18-0.12-0.24
			c-0.08-0.07-0.2-0.1-0.38-0.1v-0.25h2.12v0.25c-0.22,0.01-0.42,0.08-0.58,0.18c-0.22,0.15-0.53,0.49-0.92,1.01l-0.85,1.14
			l1.56,2.24c0.38,0.55,0.66,0.88,0.82,0.99s0.38,0.17,0.64,0.19v0.25h-2.95V24.3c0.21,0,0.37-0.05,0.48-0.14
			c0.09-0.06,0.13-0.15,0.13-0.25s-0.15-0.37-0.44-0.79l-0.92-1.34l-1,1.34c-0.31,0.41-0.46,0.66-0.46,0.74
			c0,0.11,0.05,0.21,0.15,0.3s0.26,0.14,0.46,0.15v0.25h-2.04V24.3c0.16-0.02,0.31-0.08,0.43-0.17c0.17-0.13,0.46-0.47,0.88-1.01
			l1.31-1.74l-1.19-1.72c-0.34-0.49-0.6-0.8-0.78-0.93s-0.42-0.19-0.69-0.19V18.28z"/>
		<path fill="#1E1E1E" d="M202.6,22.65c0.21-0.49,0.47-0.87,0.79-1.14c0.32-0.27,0.71-0.4,1.18-0.4c0.58,0,1.03,0.19,1.34,0.57
			c0.24,0.28,0.35,0.59,0.35,0.91c0,0.53-0.33,1.08-1,1.64c0.45,0.18,0.79,0.43,1.02,0.75c0.23,0.33,0.34,0.71,0.34,1.15
			c0,0.63-0.2,1.18-0.6,1.64c-0.52,0.6-1.28,0.9-2.27,0.9c-0.49,0-0.82-0.06-1-0.18c-0.18-0.12-0.27-0.25-0.27-0.39
			c0-0.1,0.04-0.2,0.13-0.27c0.08-0.08,0.18-0.12,0.3-0.12c0.09,0,0.18,0.01,0.27,0.04c0.06,0.02,0.2,0.08,0.41,0.2
			c0.21,0.11,0.36,0.18,0.45,0.2c0.13,0.04,0.27,0.06,0.42,0.06c0.37,0,0.68-0.14,0.95-0.42c0.27-0.28,0.41-0.62,0.41-1
			c0-0.28-0.06-0.56-0.19-0.83c-0.09-0.2-0.2-0.35-0.31-0.46c-0.15-0.14-0.37-0.27-0.63-0.39c-0.27-0.12-0.54-0.17-0.82-0.17h-0.17
			v-0.16c0.28-0.04,0.57-0.14,0.85-0.31c0.29-0.17,0.49-0.37,0.62-0.61s0.19-0.5,0.19-0.78c0-0.37-0.12-0.67-0.35-0.89
			c-0.23-0.23-0.52-0.34-0.86-0.34c-0.56,0-1.02,0.3-1.39,0.89L202.6,22.65z"/>
		<path fill="#1E1E1E" d="M208.57,26.88v-0.3c0.47-0.15,0.83-0.4,1.09-0.72c0.26-0.33,0.39-0.67,0.39-1.04
			c0-0.09-0.02-0.16-0.06-0.22c-0.03-0.04-0.06-0.06-0.1-0.06c-0.05,0-0.16,0.05-0.33,0.14c-0.08,0.04-0.17,0.06-0.26,0.06
			c-0.22,0-0.4-0.07-0.53-0.2c-0.13-0.13-0.2-0.31-0.2-0.55c0-0.22,0.09-0.41,0.26-0.57s0.38-0.24,0.63-0.24
			c0.3,0,0.57,0.13,0.8,0.39c0.23,0.26,0.35,0.61,0.35,1.04c0,0.47-0.16,0.91-0.49,1.31C209.79,26.33,209.27,26.64,208.57,26.88z"/>
		<path fill="#1E1E1E" d="M215.6,18.28h2.92v0.25h-0.14c-0.21,0-0.36,0.04-0.46,0.13s-0.15,0.2-0.15,0.33
			c0,0.18,0.08,0.42,0.23,0.74l1.52,3.16l1.4-3.46c0.08-0.19,0.12-0.37,0.12-0.55c0-0.08-0.02-0.14-0.05-0.18
			c-0.04-0.05-0.09-0.09-0.17-0.12c-0.08-0.03-0.21-0.04-0.41-0.04v-0.25h2.04v0.25c-0.17,0.02-0.3,0.05-0.39,0.11
			c-0.09,0.05-0.19,0.16-0.3,0.31c-0.04,0.06-0.12,0.24-0.23,0.53l-2.55,6.25c-0.25,0.61-0.57,1.06-0.97,1.37
			c-0.4,0.31-0.78,0.46-1.15,0.46c-0.27,0-0.49-0.08-0.66-0.23c-0.17-0.15-0.26-0.33-0.26-0.53c0-0.19,0.06-0.35,0.19-0.46
			c0.13-0.12,0.3-0.17,0.52-0.17c0.15,0,0.36,0.05,0.62,0.15c0.18,0.07,0.3,0.1,0.34,0.1c0.14,0,0.29-0.07,0.45-0.21
			c0.16-0.14,0.32-0.41,0.49-0.82l0.44-1.09l-2.25-4.72c-0.07-0.14-0.18-0.32-0.33-0.53c-0.11-0.16-0.21-0.27-0.28-0.32
			c-0.1-0.07-0.27-0.14-0.51-0.19V18.28z"/>
		<path fill="#1E1E1E" d="M223.42,22.65c0.21-0.49,0.47-0.87,0.79-1.14c0.32-0.27,0.71-0.4,1.18-0.4c0.58,0,1.03,0.19,1.34,0.57
			c0.24,0.28,0.35,0.59,0.35,0.91c0,0.53-0.33,1.08-1,1.64c0.45,0.18,0.79,0.43,1.01,0.75c0.23,0.33,0.34,0.71,0.34,1.15
			c0,0.63-0.2,1.18-0.6,1.64c-0.52,0.6-1.28,0.9-2.27,0.9c-0.49,0-0.83-0.06-1-0.18c-0.18-0.12-0.27-0.25-0.27-0.39
			c0-0.1,0.04-0.2,0.13-0.27s0.19-0.12,0.3-0.12c0.09,0,0.18,0.01,0.27,0.04c0.06,0.02,0.2,0.08,0.41,0.2
			c0.21,0.11,0.36,0.18,0.45,0.2c0.13,0.04,0.27,0.06,0.42,0.06c0.37,0,0.68-0.14,0.95-0.42s0.41-0.62,0.41-1
			c0-0.28-0.06-0.56-0.19-0.83c-0.09-0.2-0.2-0.35-0.31-0.46c-0.15-0.14-0.37-0.27-0.63-0.39c-0.27-0.12-0.54-0.17-0.82-0.17h-0.17
			v-0.16c0.28-0.04,0.57-0.14,0.85-0.31c0.29-0.17,0.49-0.37,0.62-0.61s0.19-0.5,0.19-0.78c0-0.37-0.12-0.67-0.35-0.89
			c-0.23-0.23-0.52-0.34-0.86-0.34c-0.55,0-1.02,0.3-1.39,0.89L223.42,22.65z"/>
		<path fill="#1E1E1E" d="M229.39,26.88v-0.3c0.47-0.15,0.83-0.4,1.09-0.72c0.26-0.33,0.39-0.67,0.39-1.04
			c0-0.09-0.02-0.16-0.06-0.22c-0.03-0.04-0.06-0.06-0.1-0.06c-0.05,0-0.16,0.05-0.33,0.14c-0.08,0.04-0.17,0.06-0.26,0.06
			c-0.22,0-0.4-0.07-0.53-0.2c-0.13-0.13-0.2-0.31-0.2-0.55c0-0.22,0.09-0.41,0.26-0.57s0.38-0.24,0.63-0.24
			c0.3,0,0.57,0.13,0.8,0.39c0.23,0.26,0.35,0.61,0.35,1.04c0,0.47-0.16,0.91-0.49,1.31C230.62,26.33,230.1,26.64,229.39,26.88z"/>
		<path fill="#1E1E1E" d="M242.22,22.62l-0.08,1.92h-5.52V24.3l4.16-5.54h-2.05c-0.44,0-0.73,0.03-0.87,0.09s-0.25,0.17-0.33,0.32
			c-0.12,0.23-0.19,0.51-0.21,0.85h-0.27l0.04-1.74h5.25v0.25l-4.2,5.55h2.28c0.48,0,0.8-0.04,0.97-0.12s0.31-0.22,0.41-0.42
			c0.07-0.15,0.13-0.45,0.18-0.92H242.22z"/>
		<path fill="#1E1E1E" d="M243.46,22.65c0.21-0.49,0.47-0.87,0.79-1.14c0.32-0.27,0.71-0.4,1.18-0.4c0.58,0,1.03,0.19,1.34,0.57
			c0.24,0.28,0.35,0.59,0.35,0.91c0,0.53-0.33,1.08-1,1.64c0.45,0.18,0.79,0.43,1.01,0.75c0.23,0.33,0.34,0.71,0.34,1.15
			c0,0.63-0.2,1.18-0.6,1.64c-0.52,0.6-1.28,0.9-2.27,0.9c-0.49,0-0.83-0.06-1-0.18c-0.18-0.12-0.27-0.25-0.27-0.39
			c0-0.1,0.04-0.2,0.13-0.27s0.19-0.12,0.3-0.12c0.09,0,0.18,0.01,0.27,0.04c0.06,0.02,0.2,0.08,0.41,0.2
			c0.21,0.11,0.36,0.18,0.45,0.2c0.13,0.04,0.27,0.06,0.42,0.06c0.37,0,0.68-0.14,0.95-0.42s0.41-0.62,0.41-1
			c0-0.28-0.06-0.56-0.19-0.83c-0.09-0.2-0.2-0.35-0.31-0.46c-0.15-0.14-0.37-0.27-0.63-0.39c-0.27-0.12-0.54-0.17-0.82-0.17h-0.17
			v-0.16c0.28-0.04,0.57-0.14,0.85-0.31c0.29-0.17,0.49-0.37,0.62-0.61s0.19-0.5,0.19-0.78c0-0.37-0.12-0.67-0.35-0.89
			c-0.23-0.23-0.52-0.34-0.86-0.34c-0.55,0-1.02,0.3-1.39,0.89L243.46,22.65z"/>
		<path fill="#1E1E1E" d="M248.99,15.11v-0.29c0.69,0.34,1.27,0.75,1.73,1.21c0.65,0.67,1.16,1.45,1.51,2.34s0.53,1.83,0.53,2.8
			c0,1.41-0.35,2.7-1.04,3.87c-0.69,1.16-1.61,2-2.73,2.5v-0.25c0.56-0.31,1.02-0.74,1.38-1.27s0.63-1.22,0.81-2.04
			c0.18-0.83,0.26-1.69,0.26-2.59c0-0.97-0.08-1.86-0.23-2.66c-0.11-0.63-0.26-1.13-0.43-1.51s-0.4-0.74-0.68-1.09
			C249.83,15.77,249.46,15.43,248.99,15.11z"/>
	</g>
	<g>
		<path fill="#1E1E1E" d="M54.26,141.88h2.29v0.2h-0.11c-0.16,0-0.28,0.03-0.36,0.1c-0.08,0.07-0.12,0.16-0.12,0.26
			c0,0.14,0.06,0.33,0.18,0.58l1.2,2.48l1.1-2.72c0.06-0.15,0.09-0.29,0.09-0.44c0-0.06-0.01-0.11-0.04-0.15
			c-0.03-0.04-0.07-0.07-0.13-0.09c-0.06-0.02-0.17-0.03-0.32-0.03v-0.2h1.6v0.2c-0.13,0.01-0.23,0.04-0.31,0.09
			s-0.15,0.12-0.24,0.24c-0.03,0.05-0.09,0.19-0.18,0.41l-2,4.91c-0.19,0.48-0.45,0.84-0.76,1.08c-0.31,0.24-0.62,0.37-0.91,0.37
			c-0.21,0-0.38-0.06-0.52-0.18s-0.2-0.26-0.2-0.42c0-0.15,0.05-0.27,0.15-0.36c0.1-0.09,0.23-0.14,0.41-0.14
			c0.12,0,0.28,0.04,0.48,0.12c0.14,0.05,0.23,0.08,0.27,0.08c0.11,0,0.22-0.06,0.35-0.17c0.13-0.11,0.26-0.33,0.38-0.64l0.35-0.85
			l-1.77-3.71c-0.05-0.11-0.14-0.25-0.26-0.41c-0.09-0.13-0.16-0.21-0.22-0.25c-0.08-0.06-0.21-0.11-0.4-0.15V141.88z"/>
	</g>
	<g>
		<path fill="#1E1E1E" d="M51.1,170.41h2.31v0.2c-0.15,0-0.25,0.02-0.31,0.08c-0.06,0.05-0.09,0.12-0.09,0.2
			c0,0.09,0.06,0.22,0.19,0.4c0.04,0.06,0.1,0.15,0.18,0.27l0.35,0.56l0.4-0.56c0.26-0.35,0.39-0.58,0.39-0.67
			c0-0.08-0.03-0.14-0.09-0.19c-0.06-0.05-0.16-0.08-0.3-0.08v-0.2h1.67v0.2c-0.18,0.01-0.33,0.06-0.46,0.15
			c-0.18,0.12-0.42,0.39-0.72,0.79l-0.67,0.9l1.22,1.76c0.3,0.43,0.52,0.69,0.64,0.78c0.13,0.09,0.3,0.14,0.5,0.15v0.19H54v-0.19
			c0.16,0,0.29-0.04,0.38-0.11c0.07-0.05,0.1-0.12,0.1-0.2s-0.11-0.29-0.34-0.62l-0.72-1.05l-0.79,1.05
			c-0.24,0.33-0.37,0.52-0.37,0.58c0,0.09,0.04,0.16,0.12,0.23c0.08,0.07,0.2,0.11,0.36,0.12v0.19h-1.61v-0.19
			c0.13-0.02,0.24-0.06,0.34-0.13c0.14-0.1,0.37-0.37,0.69-0.79l1.03-1.37l-0.93-1.35c-0.27-0.39-0.47-0.63-0.61-0.73
			c-0.15-0.1-0.33-0.15-0.55-0.15V170.41z"/>
	</g>
	<g>
		<path fill="#1E1E1E" d="M26.78,125.67l-0.06,1.51h-4.34v-0.19l3.27-4.35h-1.61c-0.35,0-0.57,0.02-0.68,0.07
			c-0.11,0.04-0.2,0.13-0.26,0.25c-0.1,0.18-0.15,0.4-0.17,0.67h-0.21l0.03-1.36h4.13v0.2l-3.3,4.36h1.79
			c0.38,0,0.63-0.03,0.77-0.09c0.13-0.06,0.24-0.17,0.32-0.33c0.06-0.11,0.11-0.36,0.15-0.73H26.78z"/>
	</g>
</g>
<g id="writer_source" display="none">
	
		<image display="inline" overflow="visible" width="241" height="179" xlink:href="../../trt/package_Images_Geo_P1/To Do/image1213082919_SRC.jpg"  transform="matrix(1 0 0 1 347.223 2.9768)">
	</image>
</g>
</svg>
