<?xml version="1.0" encoding="utf-8"?>
<!-- Generator: Adobe Illustrator 23.0.3, SVG Export Plug-In . SVG Version: 6.00 Build 0)  -->
<svg version="1.1" xmlns="http://www.w3.org/2000/svg" xmlns:xlink="http://www.w3.org/1999/xlink" x="0px" y="0px" width="219px"
	 height="164px" viewBox="0 0 219 164" enable-background="new 0 0 219 164" xml:space="preserve">
<g id="Shapes">
	<g>
		<rect x="0.5" y="0.5" fill="#FFFFFF" width="218" height="163"/>
		<rect x="0.5" y="0.5" opacity="0.2" fill="#E5E5E5" width="218" height="163"/>
		<rect x="0.5" y="0.5" opacity="0.1" fill="none" stroke="#231F20" stroke-miterlimit="10" width="218" height="163"/>
	</g>
	<g id="Wrench_tool_x28_s_x29_">
	</g>
	<g id="user2">
	</g>
	<g id="user2_1_">
	</g>
	<g id="user2_4_">
	</g>
	<g id="user2_3_">
	</g>
	<g id="user2_2_">
	</g>
	<g id="Internet_2">
	</g>
	<g id="Enterprise">
	</g>
	<g id="Tunnel__x28_stackable_x29_">
	</g>
	<g id="New_Symbol">
	</g>
	<g id="New_Symbol_1">
	</g>
	<g id="Files">
	</g>
	<g id="BlobBlock">
	</g>
	<g id="E_x5F_Enterprise">
	</g>
	<g id="E_x5F_AD_FS">
	</g>
	<g id="C_x5F_Azure_Active_Directory">
	</g>
	<g id="Layer_22">
	</g>
</g>
<g id="arrows">
	<g>
		<path fill="#272525" d="M110.55,85.01l-0.04-1.25c0.66-0.02,1.31-0.07,1.94-0.14l0.14,1.24
			C111.93,84.94,111.24,84.99,110.55,85.01z M114.63,84.53l-0.26-1.22c0.64-0.14,1.27-0.31,1.86-0.5l0.39,1.19
			C115.98,84.2,115.31,84.39,114.63,84.53z M118.54,83.23l-0.53-1.13c0.58-0.27,1.15-0.58,1.69-0.92l0.66,1.06
			C119.79,82.61,119.17,82.94,118.54,83.23z M122.06,81.03l-0.79-0.97c0.49-0.4,0.97-0.84,1.41-1.3l0.9,0.87
			C123.1,80.12,122.59,80.6,122.06,81.03z M124.92,78.06l-0.99-0.77c0.4-0.52,0.79-1.05,1.16-1.59l1.03,0.71
			C125.74,76.97,125.34,77.52,124.92,78.06z M127.23,74.7l-1.07-0.65c0.34-0.56,0.67-1.13,0.99-1.71l1.09,0.61
			C127.92,73.54,127.58,74.13,127.23,74.7z M129.19,71.16l-1.12-0.56c0.3-0.59,0.59-1.18,0.87-1.78l1.13,0.53
			C129.79,69.96,129.49,70.56,129.19,71.16z M130.91,67.52l-1.14-0.51c0.27-0.61,0.53-1.22,0.79-1.83l1.15,0.49
			C131.45,66.29,131.18,66.9,130.91,67.52z M132.49,63.83l-1.15-0.49c0.27-0.62,0.54-1.24,0.82-1.84l1.13,0.53
			C133.02,62.62,132.75,63.22,132.49,63.83z M134.15,60.24l-1.12-0.56c0.31-0.61,0.62-1.2,0.94-1.79l1.1,0.6
			C134.76,59.07,134.45,59.65,134.15,60.24z M136.05,56.77l-1.08-0.64c0.35-0.58,0.7-1.16,1.06-1.72l1.05,0.67
			C136.74,55.64,136.39,56.2,136.05,56.77z M138.18,53.44l-1.03-0.71c0.38-0.56,0.78-1.11,1.18-1.64l1,0.75
			C138.94,52.36,138.56,52.9,138.18,53.44z M140.54,50.27l-0.98-0.78c0.42-0.53,0.85-1.05,1.29-1.55l0.95,0.82
			C141.38,49.25,140.96,49.76,140.54,50.27z M143.13,47.28l-0.92-0.85c0.46-0.5,0.93-0.98,1.4-1.46l0.88,0.88
			C144.03,46.32,143.58,46.8,143.13,47.28z M145.92,44.48l-0.85-0.91c0.49-0.46,1-0.91,1.5-1.35l0.82,0.94
			C146.89,43.59,146.4,44.03,145.92,44.48z M148.91,41.89l-0.79-0.97c0.52-0.42,1.05-0.84,1.59-1.24l0.75,1
			C149.94,41.07,149.42,41.47,148.91,41.89z M152.06,39.51l-0.72-1.02c0.55-0.39,1.11-0.76,1.67-1.13l0.69,1.04
			C153.15,38.76,152.6,39.13,152.06,39.51z M155.37,37.33l-0.65-1.07c0.57-0.35,1.15-0.69,1.73-1.03l0.62,1.08
			C156.49,36.65,155.93,36.99,155.37,37.33z M158.8,35.37l-0.59-1.1c0.59-0.32,1.19-0.63,1.79-0.93l0.56,1.12
			C159.96,34.76,159.38,35.06,158.8,35.37z M162.34,33.6l-0.53-1.13c0.61-0.28,1.22-0.56,1.84-0.83l0.5,1.15
			C163.54,33.05,162.94,33.32,162.34,33.6z M165.98,32.01l-0.47-1.16c0.62-0.25,1.25-0.5,1.88-0.74l0.44,1.17
			C167.21,31.52,166.59,31.76,165.98,32.01z M169.69,30.6l-0.42-1.18c0.63-0.22,1.27-0.44,1.9-0.65l0.39,1.19
			C170.94,30.17,170.31,30.38,169.69,30.6z M173.46,29.35l-0.37-1.19c0.64-0.2,1.28-0.39,1.93-0.57l0.34,1.2
			C174.73,28.97,174.1,29.16,173.46,29.35z M177.29,28.25l-0.32-1.21c0.65-0.17,1.29-0.34,1.95-0.5l0.3,1.21
			C178.57,27.92,177.92,28.08,177.29,28.25z M181.15,27.29l-0.28-1.22c0.65-0.15,1.3-0.3,1.96-0.44l0.26,1.22
			C182.44,26.99,181.79,27.14,181.15,27.29z M185.04,26.45l-0.25-1.23c0.65-0.13,1.31-0.26,1.97-0.38l0.23,1.23
			C186.34,26.19,185.69,26.32,185.04,26.45z M188.95,25.72l-0.21-1.23c0.66-0.11,1.32-0.22,1.98-0.33l0.2,1.23
			C190.26,25.5,189.6,25.6,188.95,25.72z"/>
		<path fill-rule="evenodd" clip-rule="evenodd" fill="none" d="M110.53,84.39c5.74-0.18,10.39-2.29,13.68-6.43
			c3.29-4.14,5.48-9.05,7.52-13.93c10.73-25.64,34.06-35.52,60.82-39.52"/>
	</g>
	<g>
		<g>
			
				<line fill="none" stroke="#000000" stroke-linecap="round" stroke-linejoin="round" x1="110.02" y1="154.66" x2="110.02" y2="19.52"/>
			<g>
				<polygon points="112.93,21.5 110.02,10.66 107.12,21.5 				"/>
			</g>
		</g>
	</g>
	<g>
		<g>
			
				<line fill="none" stroke="#000000" stroke-linecap="round" stroke-linejoin="round" x1="13.02" y1="84.66" x2="199.16" y2="84.66"/>
			<g>
				<polygon points="197.18,87.56 208.02,84.66 197.18,81.75 				"/>
			</g>
		</g>
	</g>
	<path fill="none" stroke="#2E5291" stroke-width="2" stroke-linecap="round" stroke-linejoin="round" stroke-miterlimit="10" d="
		M6.58,144.89c11.38-0.27,27.37-3,35.14-12.97c7-8.98,8.08-21.54,9.74-32.81c1.52-10.3,3.08-20.76,6.16-30.7
		c3.08-9.94,6.66-20.62,15.12-26.69c9.68-6.95,23.09-7.38,34.93-8.69c34.28-3.81,68.57-7.62,102.85-11.43"/>
	<path fill="none" stroke="#2E5291" stroke-width="2" stroke-linecap="round" stroke-linejoin="round" stroke-miterlimit="10" d="
		M212.52,21.63c-11.38,0.27-27.37,3-35.14,12.97c-7,8.98-8.08,21.54-9.74,32.81c-1.52,10.3-3.08,20.76-6.16,30.7
		c-3.08,9.94-6.66,20.62-15.12,26.69c-9.68,6.95-23.09,7.38-34.93,8.69c-34.28,3.81-68.57,7.62-102.85,11.43"/>
	
		<line fill="none" stroke="#D83B01" stroke-width="2" stroke-linecap="round" stroke-miterlimit="10" x1="49.83" y1="39.5" x2="127.2" y2="30.86"/>
</g>
<g id="Text">
	<g id="Windows_Server_New">
	</g>
	<g>
		<path fill="#1E1E1E" d="M99.19,16.36c0.64,0.14,1.12,0.36,1.44,0.66c0.44,0.42,0.66,0.93,0.66,1.54c0,0.46-0.15,0.9-0.44,1.32
			c-0.29,0.42-0.69,0.73-1.2,0.92c-0.51,0.19-1.28,0.29-2.33,0.29h-4.38v-0.25h0.35c0.39,0,0.67-0.12,0.83-0.37
			c0.1-0.16,0.16-0.5,0.16-1.02v-5.99c0-0.57-0.07-0.94-0.2-1.09c-0.18-0.2-0.44-0.3-0.79-0.3h-0.35v-0.25h4.01
			c0.75,0,1.35,0.05,1.8,0.16c0.68,0.16,1.21,0.45,1.57,0.87c0.36,0.42,0.54,0.9,0.54,1.44c0,0.46-0.14,0.88-0.42,1.25
			C100.15,15.91,99.74,16.18,99.19,16.36z M95.6,15.99c0.17,0.03,0.36,0.06,0.58,0.07c0.22,0.02,0.46,0.02,0.71,0.02
			c0.67,0,1.17-0.07,1.5-0.22s0.59-0.36,0.77-0.66s0.27-0.62,0.27-0.97c0-0.54-0.22-1-0.66-1.39c-0.44-0.38-1.09-0.57-1.93-0.57
			c-0.46,0-0.87,0.05-1.23,0.15V15.99z M95.6,20.42c0.53,0.12,1.05,0.18,1.57,0.18c0.82,0,1.45-0.19,1.89-0.56
			c0.43-0.37,0.65-0.83,0.65-1.38c0-0.36-0.1-0.71-0.29-1.04c-0.2-0.33-0.52-0.59-0.96-0.79c-0.44-0.19-0.99-0.29-1.64-0.29
			c-0.28,0-0.52,0-0.72,0.01c-0.2,0.01-0.36,0.02-0.49,0.05V20.42z"/>
	</g>
	<g>
		<path fill="#1E1E1E" d="M199.89,98.18h4.31v-2.65c0-0.47-0.03-0.79-0.09-0.94c-0.04-0.11-0.14-0.21-0.29-0.29
			c-0.2-0.11-0.4-0.16-0.62-0.16h-0.33v-0.25h3.96v0.25h-0.33c-0.22,0-0.43,0.05-0.62,0.16c-0.15,0.07-0.25,0.18-0.3,0.33
			c-0.05,0.15-0.08,0.45-0.08,0.91v5.98c0,0.47,0.03,0.78,0.09,0.93c0.05,0.11,0.14,0.21,0.28,0.29c0.2,0.11,0.41,0.16,0.63,0.16
			h0.33v0.25h-3.96v-0.25h0.33c0.38,0,0.65-0.11,0.83-0.33c0.11-0.15,0.17-0.5,0.17-1.05v-2.82h-4.31v2.82
			c0,0.47,0.03,0.78,0.09,0.93c0.05,0.11,0.14,0.21,0.29,0.29c0.2,0.11,0.4,0.16,0.62,0.16h0.33v0.25h-3.97v-0.25h0.33
			c0.38,0,0.66-0.11,0.83-0.33c0.11-0.15,0.16-0.5,0.16-1.05v-5.98c0-0.47-0.03-0.79-0.09-0.94c-0.04-0.11-0.14-0.21-0.28-0.29
			c-0.2-0.11-0.41-0.16-0.63-0.16h-0.33v-0.25h3.97v0.25h-0.33c-0.22,0-0.43,0.05-0.62,0.16c-0.14,0.07-0.24,0.18-0.29,0.33
			s-0.08,0.45-0.08,0.91V98.18z"/>
	</g>
</g>
<g id="writer_source" display="none">
	
		<image display="inline" overflow="visible" width="216" height="150" xlink:href="../../ImagesDocFluxEN/Images/FINISHED_SRC/image1059424759_SRC.jpg"  transform="matrix(1 0 0 1 273.5671 11.7898)">
	</image>
</g>
</svg>
