<?xml version="1.0" encoding="utf-8"?>
<!-- Generator: Adobe Illustrator 23.0.3, SVG Export Plug-In . SVG Version: 6.00 Build 0)  -->
<svg version="1.1" xmlns="http://www.w3.org/2000/svg" xmlns:xlink="http://www.w3.org/1999/xlink" x="0px" y="0px"
	 width="182.36px" height="182.79px" viewBox="0 0 182.36 182.79" enable-background="new 0 0 182.36 182.79" xml:space="preserve">
<g id="Shapes">
	<g>
		<rect x="48.29" y="5.5" opacity="0.5" fill="#D5DCE9" width="86.73" height="171.79"/>
		
			<rect x="48.29" y="5.5" fill="none" stroke="#5875A7" stroke-linecap="round" stroke-linejoin="round" width="86.73" height="171.79"/>
	</g>
	<g id="Wrench_tool_x28_s_x29_">
	</g>
	<g id="user2">
	</g>
	<g id="user2_1_">
	</g>
	<g id="user2_4_">
	</g>
	<g id="user2_3_">
	</g>
	<g id="user2_2_">
	</g>
	<g id="Internet_2">
	</g>
	<g id="Enterprise">
	</g>
	<g id="Tunnel__x28_stackable_x29_">
	</g>
	<g id="New_Symbol">
	</g>
	<g id="New_Symbol_1">
	</g>
	<g id="Files">
	</g>
	<g id="BlobBlock">
	</g>
	<g id="E_x5F_Enterprise">
	</g>
	<g id="E_x5F_AD_FS">
	</g>
	<g id="C_x5F_Azure_Active_Directory">
	</g>
	<g id="Layer_22">
	</g>
	<g>
		<polygon opacity="0.5" fill="#D5DCE9" points="92.14,136.85 5.5,136.85 90.22,46.85 176.86,46.85 		"/>
		<polygon fill="none" stroke="#5875A7" stroke-linecap="round" stroke-linejoin="round" points="92.14,136.85 5.5,136.85 
			90.22,46.85 176.86,46.85 		"/>
	</g>
	<circle fill="#01A7DF" stroke="#1B75BB" stroke-miterlimit="10" cx="90.2" cy="46.85" r="5"/>
	<circle fill="#01A7DF" stroke="#1B75BB" stroke-miterlimit="10" cx="176.86" cy="45.94" r="5"/>
	<circle fill="#01A7DF" stroke="#1B75BB" stroke-miterlimit="10" cx="48.29" cy="91.39" r="5"/>
	<circle fill="#01A7DF" stroke="#1B75BB" stroke-miterlimit="10" cx="48.29" cy="5.5" r="5"/>
	<circle fill="#01A7DF" stroke="#1B75BB" stroke-miterlimit="10" cx="135.03" cy="91.85" r="5"/>
	<circle fill="#01A7DF" stroke="#1B75BB" stroke-miterlimit="10" cx="135.03" cy="5.5" r="5"/>
	<circle fill="#01A7DF" stroke="#1B75BB" stroke-miterlimit="10" cx="48.29" cy="177.29" r="5"/>
	<circle fill="#01A7DF" stroke="#1B75BB" stroke-miterlimit="10" cx="135.03" cy="177.29" r="5"/>
	<circle fill="#01A7DF" stroke="#1B75BB" stroke-miterlimit="10" cx="5.5" cy="136.85" r="5"/>
	<circle fill="#01A7DF" stroke="#1B75BB" stroke-miterlimit="10" cx="92.15" cy="136.85" r="5"/>
</g>
<g id="Text">
	<g id="Windows_Server_New">
	</g>
	<g>
		<path fill="#1E1E1E" d="M31.01,85.7v3.18h-0.98v-8.4h2.31c0.9,0,1.59,0.22,2.09,0.66s0.74,1.05,0.74,1.85s-0.27,1.45-0.82,1.96
			s-1.29,0.76-2.22,0.76H31.01z M31.01,81.37v3.45h1.03c0.68,0,1.2-0.16,1.56-0.47s0.54-0.75,0.54-1.32c0-1.11-0.66-1.66-1.97-1.66
			H31.01z"/>
		<path fill="#1E1E1E" d="M39.88,88.88h-0.96v-7.26c-0.07,0.07-0.18,0.16-0.33,0.25s-0.3,0.19-0.48,0.28s-0.37,0.18-0.56,0.26
			s-0.39,0.15-0.58,0.19v-0.97c0.21-0.06,0.43-0.14,0.67-0.24s0.47-0.21,0.7-0.33s0.44-0.25,0.65-0.39s0.38-0.27,0.53-0.4h0.36
			V88.88z"/>
	</g>
	<g>
		<path fill="#1E1E1E" d="M145.81,97.85v3.18h-0.98v-8.4h2.31c0.9,0,1.59,0.22,2.09,0.66s0.74,1.05,0.74,1.85s-0.27,1.45-0.82,1.96
			s-1.29,0.76-2.22,0.76H145.81z M145.81,93.52v3.45h1.03c0.68,0,1.2-0.16,1.56-0.47s0.54-0.75,0.54-1.32
			c0-1.11-0.66-1.66-1.97-1.66H145.81z"/>
		<path fill="#1E1E1E" d="M154.97,94.83c0-0.26-0.04-0.48-0.12-0.67s-0.19-0.35-0.33-0.48s-0.3-0.22-0.49-0.28s-0.39-0.09-0.61-0.09
			c-0.19,0-0.37,0.03-0.55,0.08s-0.35,0.12-0.52,0.21s-0.33,0.2-0.49,0.32s-0.31,0.26-0.44,0.42V93.3c0.27-0.26,0.57-0.46,0.91-0.6
			s0.74-0.21,1.22-0.21c0.34,0,0.66,0.05,0.96,0.15s0.55,0.25,0.76,0.44s0.38,0.43,0.51,0.71s0.18,0.6,0.18,0.97
			c0,0.33-0.04,0.63-0.11,0.9s-0.19,0.52-0.35,0.76s-0.35,0.47-0.58,0.69s-0.51,0.44-0.83,0.67c-0.39,0.28-0.72,0.52-0.98,0.72
			s-0.46,0.39-0.61,0.56s-0.26,0.35-0.32,0.52s-0.09,0.37-0.09,0.6h4.18v0.86h-5.19v-0.42c0-0.36,0.04-0.68,0.12-0.95
			s0.21-0.53,0.39-0.78s0.42-0.49,0.71-0.74s0.65-0.52,1.07-0.83c0.3-0.22,0.56-0.43,0.76-0.63s0.37-0.4,0.5-0.6s0.21-0.4,0.27-0.61
			S154.97,95.06,154.97,94.83z"/>
	</g>
</g>
<g id="writer_source" display="none">
	
		<image display="inline" overflow="visible" width="101" height="126" xlink:href="../../trt/package_Images_Geo_P1/To Do/image1707765684_SRC.jpg"  transform="matrix(1 0 0 1 272.1341 33.1585)">
	</image>
</g>
</svg>
