<?xml version="1.0" encoding="utf-8"?>
<!-- Generator: Adobe Illustrator 23.0.3, SVG Export Plug-In . SVG Version: 6.00 Build 0)  -->
<svg version="1.1" xmlns="http://www.w3.org/2000/svg" xmlns:xlink="http://www.w3.org/1999/xlink" x="0px" y="0px" width="310px"
	 height="251px" viewBox="0 0 310 251" enable-background="new 0 0 310 251" xml:space="preserve">
<g id="Shapes">
	<g>
		<rect x="0.5" y="0.5" fill="#FFFFFF" width="309" height="250"/>
		<rect x="0.5" y="0.5" opacity="0.2" fill="#E5E5E5" width="309" height="250"/>
		<rect x="0.5" y="0.5" opacity="0.1" fill="none" stroke="#231F20" stroke-miterlimit="10" width="309" height="250"/>
	</g>
	<g>
		<rect x="25.5" y="41.5" fill="#FFFFFF" stroke="#CCCCCC" stroke-miterlimit="10" width="233" height="175"/>
		<line fill="#FFFFFF" stroke="#CCCCCC" stroke-miterlimit="10" x1="26" y1="187.5" x2="259" y2="187.5"/>
		<line fill="#FFFFFF" stroke="#CCCCCC" stroke-miterlimit="10" x1="26" y1="158.5" x2="259" y2="158.5"/>
		<line fill="#FFFFFF" stroke="#CCCCCC" stroke-miterlimit="10" x1="26" y1="129.5" x2="259" y2="129.5"/>
		<line fill="#FFFFFF" stroke="#CCCCCC" stroke-miterlimit="10" x1="26" y1="100.5" x2="259" y2="100.5"/>
		<line fill="#FFFFFF" stroke="#CCCCCC" stroke-miterlimit="10" x1="26" y1="71.5" x2="259" y2="71.5"/>
		<line fill="#FFFFFF" stroke="#CCCCCC" stroke-miterlimit="10" x1="225.5" y1="42" x2="225.5" y2="217"/>
		<line fill="#FFFFFF" stroke="#CCCCCC" stroke-miterlimit="10" x1="192.5" y1="42" x2="192.5" y2="217"/>
		<line fill="#FFFFFF" stroke="#CCCCCC" stroke-miterlimit="10" x1="158.5" y1="42" x2="158.5" y2="217"/>
		<line fill="#FFFFFF" stroke="#CCCCCC" stroke-miterlimit="10" x1="125.5" y1="42" x2="125.5" y2="217"/>
		<line fill="#FFFFFF" stroke="#CCCCCC" stroke-miterlimit="10" x1="92.5" y1="42" x2="92.5" y2="217"/>
		<line fill="#FFFFFF" stroke="#CCCCCC" stroke-miterlimit="10" x1="59.5" y1="42" x2="59.5" y2="217"/>
	</g>
	<g id="Wrench_tool_x28_s_x29_">
	</g>
	<g id="user2">
	</g>
	<g id="user2_1_">
	</g>
	<g id="user2_4_">
	</g>
	<g id="user2_3_">
	</g>
	<g id="user2_2_">
	</g>
	<g id="Internet_2">
	</g>
	<g id="Enterprise">
	</g>
	<g id="Tunnel__x28_stackable_x29_">
	</g>
	<g id="New_Symbol">
	</g>
	<g id="New_Symbol_1">
	</g>
	<g id="Files">
	</g>
	<g id="BlobBlock">
	</g>
	<g id="E_x5F_Enterprise">
	</g>
	<g id="E_x5F_AD_FS">
	</g>
	<g id="C_x5F_Azure_Active_Directory">
	</g>
	<g id="Layer_22">
	</g>
	<g>
		<path fill="none" d="M199.66,219.42"/>
	</g>
	<g>
		<g>
			
				<line fill="none" stroke="#000000" stroke-linecap="round" stroke-linejoin="round" x1="25.51" y1="216.52" x2="263.81" y2="216.52"/>
			<g>
				<polygon points="261.83,219.43 272.67,216.52 261.83,213.62 				"/>
			</g>
		</g>
	</g>
	<g>
		<g>
			
				<line fill="none" stroke="#000000" stroke-linecap="round" stroke-linejoin="round" x1="25.46" y1="216.54" x2="25.46" y2="38.39"/>
			<g>
				<polygon points="28.37,40.37 25.46,29.53 22.55,40.37 				"/>
			</g>
		</g>
	</g>
	<path fill="none" stroke="#D83B01" stroke-width="2" stroke-linecap="round" stroke-linejoin="round" stroke-miterlimit="10" d="
		M26.04,216.45c0,0,77.65-1.53,143.46-80.84l79.91-93.89"/>
	<line fill="none" stroke="#000000" stroke-linecap="round" x1="169.22" y1="218.06" x2="169.22" y2="134.81"/>
	<rect x="79.69" y="119.22" fill="#EAEEF4" width="54.08" height="32.3"/>
	<rect x="143.17" y="171.23" fill="#EAEEF4" width="22.66" height="17.47"/>
	<rect x="143.17" y="193.4" fill="#EAEEF4" width="22.66" height="17.47"/>
</g>
<g id="arrows">
	<circle fill="#FFFFFF" stroke="#808184" stroke-miterlimit="10" cx="169.3" cy="216.17" r="3.5"/>
	<line fill="none" stroke="#000000" stroke-linecap="round" x1="26.04" y1="216.45" x2="125.38" y2="207.94"/>
	<line fill="none" stroke="#000000" stroke-linecap="round" x1="117.32" y1="197.5" x2="249.41" y2="41.72"/>
	<circle fill="#01A7DF" stroke="#1B75BB" stroke-miterlimit="10" cx="169.3" cy="135.84" r="3.5"/>
	<path fill="#7D7C7C" d="M164.02,136.76h-2v-1.25h2V136.76z M160.02,136.76h-2v-1.25h2V136.76z M156.02,136.76h-2v-1.25h2V136.76z
		 M152.02,136.76h-2v-1.25h2V136.76z M148.02,136.76h-2v-1.25h2V136.76z M144.02,136.76h-2v-1.25h2V136.76z M140.02,136.76h-2v-1.25
		h2V136.76z M136.02,136.76h-2v-1.25h2V136.76z"/>
	<path fill="#7D7C7C" d="M143.15,180.38h-1.95v-1.25h1.95V180.38z M139.2,180.38h-2v-1.25h2V180.38z M135.2,180.38h-2v-1.25h2
		V180.38z"/>
	<path fill="#7D7C7C" d="M114.93,207.53h-1.25v-2h1.25V207.53z M113.68,203.53c0-0.9,0.45-1.72,1.2-2.21l0.68,1.05
		c-0.39,0.26-0.63,0.69-0.63,1.15L113.68,203.53z M143.15,202.14h-2v-1.25h2V202.14z M139.15,202.14h-2v-1.25h2V202.14z
		 M135.15,202.14h-2v-1.25h2V202.14z M131.15,202.14h-2v-1.25h2V202.14z M127.15,202.14h-2v-1.25h2V202.14z M123.15,202.14h-2v-1.25
		h2V202.14z M119.15,202.14h-2v-1.25h2V202.14z"/>
</g>
<g id="Text">
	<g id="Windows_Server_New">
	</g>
	<g>
		<path fill="#1E1E1E" d="M23.03,229.54c0-1.06,0.16-1.97,0.48-2.73c0.32-0.76,0.74-1.33,1.27-1.71c0.41-0.3,0.83-0.44,1.27-0.44
			c0.71,0,1.35,0.36,1.91,1.09c0.71,0.9,1.06,2.11,1.06,3.65c0,1.08-0.15,1.99-0.46,2.74c-0.31,0.75-0.71,1.3-1.19,1.64
			c-0.48,0.34-0.94,0.51-1.39,0.51c-0.88,0-1.62-0.52-2.21-1.57C23.28,231.84,23.03,230.78,23.03,229.54z M24.37,229.71
			c0,1.28,0.16,2.32,0.47,3.12c0.26,0.68,0.65,1.02,1.16,1.02c0.25,0,0.5-0.11,0.77-0.33c0.26-0.22,0.46-0.59,0.6-1.11
			c0.21-0.78,0.31-1.89,0.31-3.32c0-1.06-0.11-1.94-0.33-2.65c-0.16-0.52-0.38-0.9-0.64-1.11c-0.19-0.15-0.41-0.23-0.68-0.23
			c-0.31,0-0.58,0.14-0.83,0.42c-0.33,0.38-0.55,0.97-0.67,1.78C24.43,228.13,24.37,228.93,24.37,229.71z"/>
	</g>
	<g>
		<path fill="#1E1E1E" d="M247.16,229.15h4.31v-2.65c0-0.47-0.03-0.79-0.09-0.94c-0.05-0.11-0.14-0.21-0.29-0.29
			c-0.2-0.11-0.4-0.16-0.62-0.16h-0.33v-0.25h3.96v0.25h-0.33c-0.22,0-0.43,0.05-0.62,0.16c-0.15,0.07-0.25,0.18-0.3,0.33
			s-0.08,0.45-0.08,0.91v5.98c0,0.47,0.03,0.78,0.09,0.93c0.05,0.11,0.14,0.21,0.28,0.29c0.2,0.11,0.41,0.16,0.63,0.16h0.33v0.25
			h-3.96v-0.25h0.33c0.38,0,0.65-0.11,0.83-0.33c0.11-0.15,0.17-0.5,0.17-1.05v-2.82h-4.31v2.82c0,0.47,0.03,0.78,0.09,0.93
			c0.05,0.11,0.14,0.21,0.29,0.29c0.2,0.11,0.4,0.16,0.62,0.16h0.33v0.25h-3.97v-0.25h0.33c0.38,0,0.66-0.11,0.83-0.33
			c0.11-0.15,0.16-0.5,0.16-1.05v-5.98c0-0.47-0.03-0.79-0.09-0.94c-0.05-0.11-0.14-0.21-0.28-0.29c-0.2-0.11-0.41-0.16-0.63-0.16
			h-0.33v-0.25h3.97v0.25h-0.33c-0.22,0-0.43,0.05-0.62,0.16c-0.14,0.07-0.24,0.18-0.29,0.33s-0.08,0.45-0.08,0.91V229.15z"/>
		<path fill="#1E1E1E" d="M262.75,236.9h-3.01v-12.26h3.01v0.54h-1.98v11.18h1.98V236.9z"/>
		<path fill="#1E1E1E" d="M270.01,231.02h-3.59l-0.63,1.46c-0.15,0.36-0.23,0.63-0.23,0.81c0,0.14,0.07,0.27,0.2,0.37
			s0.42,0.18,0.87,0.21v0.25h-2.92v-0.25c0.39-0.07,0.64-0.16,0.75-0.27c0.23-0.22,0.49-0.66,0.77-1.33l3.26-7.63h0.24l3.23,7.71
			c0.26,0.62,0.5,1.02,0.71,1.21s0.51,0.29,0.89,0.31v0.25h-3.66v-0.25c0.37-0.02,0.62-0.08,0.75-0.18s0.19-0.23,0.19-0.38
			c0-0.2-0.09-0.52-0.27-0.95L270.01,231.02z M269.82,230.51l-1.57-3.75l-1.61,3.75H269.82z"/>
		<path fill="#1E1E1E" d="M277.99,224.4l-3.36,9.91h-0.55l3.36-9.91H277.99z"/>
		<path fill="#1E1E1E" d="M280.6,229.01c0.46-0.46,0.72-0.72,0.81-0.79c0.21-0.17,0.43-0.31,0.66-0.4s0.47-0.14,0.7-0.14
			c0.39,0,0.73,0.11,1.01,0.34s0.47,0.56,0.57,0.99c0.47-0.55,0.87-0.91,1.19-1.08s0.66-0.26,1-0.26c0.33,0,0.63,0.09,0.89,0.26
			s0.46,0.45,0.61,0.84c0.1,0.26,0.15,0.68,0.15,1.24v2.69c0,0.39,0.03,0.66,0.09,0.81c0.05,0.1,0.13,0.19,0.25,0.26
			s0.32,0.11,0.6,0.11v0.25h-3.09v-0.25h0.13c0.27,0,0.48-0.05,0.63-0.16c0.1-0.07,0.18-0.19,0.23-0.35
			c0.02-0.08,0.03-0.3,0.03-0.66v-2.69c0-0.51-0.06-0.87-0.18-1.08c-0.18-0.29-0.46-0.44-0.85-0.44c-0.24,0-0.48,0.06-0.73,0.18
			s-0.54,0.35-0.89,0.67l-0.01,0.08l0.01,0.29v2.99c0,0.43,0.02,0.69,0.07,0.8s0.14,0.19,0.27,0.26s0.36,0.11,0.68,0.11v0.25h-3.17
			v-0.25c0.35,0,0.58-0.04,0.71-0.12s0.22-0.21,0.27-0.37c0.02-0.08,0.03-0.3,0.03-0.68v-2.69c0-0.51-0.08-0.88-0.23-1.1
			c-0.2-0.29-0.48-0.44-0.84-0.44c-0.25,0-0.49,0.07-0.73,0.2c-0.38,0.2-0.67,0.43-0.88,0.68v3.36c0,0.41,0.03,0.68,0.09,0.8
			s0.14,0.22,0.25,0.28s0.34,0.09,0.68,0.09v0.25h-3.1v-0.25c0.29,0,0.49-0.03,0.6-0.09s0.2-0.16,0.26-0.29s0.09-0.4,0.09-0.78
			v-2.39c0-0.69-0.02-1.13-0.06-1.33c-0.03-0.15-0.08-0.25-0.15-0.31s-0.16-0.09-0.28-0.09c-0.13,0-0.28,0.03-0.46,0.1l-0.1-0.25
			l1.89-0.77h0.29V229.01z"/>
		<path fill="#1E1E1E" d="M290.05,224.64h3.01v12.26h-3.01v-0.54h1.98v-11.18h-1.98V224.64z"/>
	</g>
	<g>
		<path fill="#1E1E1E" d="M27.98,17.68c0.64,0.14,1.12,0.36,1.44,0.66c0.44,0.42,0.66,0.93,0.66,1.54c0,0.46-0.15,0.9-0.44,1.32
			s-0.69,0.73-1.2,0.92s-1.28,0.29-2.33,0.29h-4.38v-0.25h0.35c0.39,0,0.67-0.12,0.83-0.37c0.1-0.16,0.16-0.5,0.16-1.02v-5.99
			c0-0.57-0.07-0.94-0.2-1.09c-0.18-0.2-0.44-0.3-0.79-0.3h-0.35v-0.25h4.01c0.75,0,1.35,0.05,1.8,0.16
			c0.68,0.16,1.21,0.45,1.57,0.87s0.54,0.9,0.54,1.44c0,0.46-0.14,0.88-0.42,1.25S28.53,17.5,27.98,17.68z M24.39,17.31
			c0.17,0.03,0.36,0.06,0.58,0.07s0.45,0.02,0.71,0.02c0.67,0,1.17-0.07,1.5-0.22s0.59-0.36,0.77-0.66s0.27-0.62,0.27-0.97
			c0-0.54-0.22-1-0.66-1.39s-1.09-0.57-1.93-0.57c-0.46,0-0.87,0.05-1.23,0.15V17.31z M24.39,21.74c0.53,0.12,1.05,0.18,1.57,0.18
			c0.82,0,1.45-0.19,1.89-0.56s0.65-0.83,0.65-1.38c0-0.36-0.1-0.71-0.29-1.04s-0.52-0.59-0.96-0.79s-0.99-0.29-1.64-0.29
			c-0.28,0-0.52,0-0.72,0.01s-0.36,0.02-0.49,0.05V21.74z"/>
		<path fill="#1E1E1E" d="M39.2,25.18H36.2V12.93h3.01v0.54h-1.98v11.18h1.98V25.18z"/>
		<path fill="#1E1E1E" d="M48.16,13.14l0.1,2.17H48c-0.05-0.38-0.12-0.66-0.21-0.82c-0.14-0.26-0.33-0.46-0.56-0.58
			s-0.54-0.19-0.93-0.19H45v7.08c0,0.57,0.06,0.93,0.18,1.07c0.17,0.19,0.44,0.29,0.8,0.29h0.32v0.25h-3.93v-0.25h0.33
			c0.39,0,0.67-0.12,0.83-0.36c0.1-0.15,0.15-0.48,0.15-1v-7.08h-1.11c-0.43,0-0.74,0.03-0.92,0.1c-0.24,0.09-0.44,0.25-0.61,0.5
			s-0.27,0.58-0.3,1h-0.26l0.11-2.17H48.16z"/>
		<path fill="#1E1E1E" d="M49.47,12.93h3.01v12.26h-3.01v-0.54h1.98V13.47h-1.98V12.93z"/>
	</g>
	<g>
		<path fill="#1E1E1E" d="M168.46,229.15h4.31v-2.65c0-0.47-0.03-0.79-0.09-0.94c-0.04-0.11-0.14-0.21-0.29-0.29
			c-0.2-0.11-0.4-0.16-0.62-0.16h-0.33v-0.25h3.96v0.25h-0.33c-0.22,0-0.43,0.05-0.62,0.16c-0.15,0.07-0.25,0.18-0.3,0.33
			c-0.05,0.15-0.08,0.45-0.08,0.91v5.98c0,0.47,0.03,0.78,0.09,0.93c0.05,0.11,0.14,0.21,0.28,0.29c0.2,0.11,0.41,0.16,0.63,0.16
			h0.33v0.25h-3.96v-0.25h0.33c0.38,0,0.65-0.11,0.83-0.33c0.11-0.15,0.17-0.5,0.17-1.05v-2.82h-4.31v2.82
			c0,0.47,0.03,0.78,0.09,0.93c0.05,0.11,0.14,0.21,0.29,0.29c0.2,0.11,0.4,0.16,0.62,0.16h0.33v0.25h-3.97v-0.25h0.33
			c0.38,0,0.66-0.11,0.83-0.33c0.11-0.15,0.16-0.5,0.16-1.05v-5.98c0-0.47-0.03-0.79-0.09-0.94c-0.04-0.11-0.14-0.21-0.28-0.29
			c-0.2-0.11-0.41-0.16-0.63-0.16h-0.33v-0.25h3.97v0.25h-0.33c-0.22,0-0.43,0.05-0.62,0.16c-0.14,0.07-0.24,0.18-0.29,0.33
			s-0.08,0.45-0.08,0.91V229.15z"/>
		<path fill="#1E1E1E" d="M178.65,230.68v6.3c0,1.07-0.23,1.87-0.68,2.39c-0.46,0.52-1.05,0.78-1.78,0.78
			c-0.42,0-0.72-0.08-0.92-0.23c-0.2-0.15-0.3-0.31-0.3-0.46s0.06-0.3,0.17-0.41c0.11-0.11,0.24-0.17,0.39-0.17
			c0.12,0,0.24,0.03,0.36,0.09c0.08,0.03,0.23,0.15,0.45,0.35c0.22,0.2,0.41,0.3,0.56,0.3c0.11,0,0.22-0.04,0.32-0.13
			c0.1-0.08,0.18-0.23,0.23-0.42c0.05-0.2,0.08-0.63,0.08-1.29v-4.46c0-0.69-0.02-1.13-0.06-1.33c-0.03-0.15-0.08-0.25-0.15-0.31
			s-0.16-0.09-0.28-0.09c-0.13,0-0.28,0.03-0.46,0.1l-0.1-0.25l1.89-0.77H178.65z M178.06,227.4c0.2,0,0.36,0.07,0.5,0.21
			s0.21,0.3,0.21,0.5c0,0.19-0.07,0.36-0.21,0.49s-0.3,0.21-0.5,0.21c-0.19,0-0.36-0.07-0.49-0.21s-0.21-0.3-0.21-0.49
			c0-0.2,0.07-0.36,0.21-0.5S177.87,227.4,178.06,227.4z"/>
	</g>
	<g>
		<g>
			<path fill="#1E1E1E" d="M150.17,180.4c-0.82,0.88-1.54,1.33-2.15,1.33c-0.39,0-0.76-0.15-1.09-0.45v0.36
				c0,0.42,0.06,0.84,0.19,1.26c0.15,0.47,0.22,0.78,0.22,0.93c0,0.21-0.07,0.38-0.2,0.52s-0.3,0.21-0.49,0.21
				c-0.2,0-0.36-0.08-0.48-0.24s-0.18-0.35-0.18-0.57c0-0.16,0.06-0.46,0.18-0.89c0.14-0.47,0.21-0.93,0.21-1.38v-6.2h1.13v4.05
				c0,0.41,0.04,0.71,0.11,0.9s0.2,0.35,0.38,0.47s0.38,0.18,0.61,0.18c0.41,0,0.93-0.28,1.58-0.83v-4.77h1.13v4.75
				c0,0.4,0.04,0.68,0.12,0.83s0.22,0.23,0.42,0.23c0.31,0,0.51-0.3,0.6-0.91h0.25c-0.09,1.03-0.52,1.55-1.31,1.55
				c-0.34,0-0.63-0.12-0.85-0.35S150.18,180.82,150.17,180.4z"/>
			<path fill="#1E1E1E" d="M154.83,179.47v1.11c0.41-0.74,0.83-1.11,1.27-1.11c0.2,0,0.36,0.06,0.49,0.18
				c0.13,0.12,0.19,0.26,0.19,0.42c0,0.14-0.05,0.26-0.14,0.35s-0.2,0.15-0.33,0.15c-0.13,0-0.27-0.06-0.42-0.19
				c-0.16-0.12-0.27-0.19-0.35-0.19c-0.06,0-0.13,0.04-0.21,0.11c-0.16,0.15-0.33,0.39-0.5,0.73v2.36c0,0.27,0.03,0.48,0.1,0.62
				c0.05,0.1,0.13,0.18,0.25,0.24s0.29,0.1,0.51,0.1v0.19h-2.52v-0.19c0.25,0,0.44-0.04,0.56-0.12c0.09-0.06,0.15-0.15,0.19-0.27
				c0.02-0.06,0.03-0.23,0.03-0.52v-1.91c0-0.57-0.01-0.91-0.03-1.02c-0.02-0.11-0.07-0.19-0.13-0.24
				c-0.06-0.05-0.14-0.08-0.23-0.08c-0.11,0-0.24,0.03-0.38,0.08l-0.05-0.19l1.49-0.6H154.83z"/>
			<path fill="#1E1E1E" d="M159.25,180v3.23c0,0.46,0.05,0.75,0.15,0.87c0.13,0.16,0.31,0.24,0.53,0.24h0.45v0.19h-2.94v-0.19h0.22
				c0.14,0,0.27-0.04,0.39-0.11s0.2-0.17,0.24-0.29c0.04-0.12,0.07-0.36,0.07-0.71V180h-0.96v-0.39h0.96v-0.32
				c0-0.49,0.08-0.91,0.24-1.25s0.4-0.62,0.72-0.82c0.32-0.21,0.69-0.31,1.09-0.31c0.38,0,0.72,0.12,1.04,0.37
				c0.21,0.16,0.31,0.34,0.31,0.54c0,0.11-0.05,0.21-0.14,0.3c-0.09,0.1-0.19,0.14-0.3,0.14c-0.08,0-0.17-0.03-0.26-0.09
				c-0.09-0.06-0.2-0.19-0.34-0.38c-0.13-0.2-0.25-0.33-0.37-0.4s-0.23-0.1-0.37-0.1c-0.16,0-0.3,0.04-0.42,0.13
				c-0.11,0.09-0.2,0.22-0.25,0.41c-0.05,0.18-0.08,0.66-0.08,1.43v0.35h1.27V180H159.25z"/>
		</g>
	</g>
	<g>
		<g>
			<path fill="#1E1E1E" d="M150.17,202.83c-0.82,0.88-1.54,1.33-2.15,1.33c-0.39,0-0.76-0.15-1.09-0.45v0.36
				c0,0.42,0.06,0.84,0.19,1.26c0.15,0.47,0.22,0.78,0.22,0.93c0,0.21-0.07,0.38-0.2,0.52s-0.3,0.21-0.49,0.21
				c-0.2,0-0.36-0.08-0.48-0.24s-0.18-0.35-0.18-0.57c0-0.16,0.06-0.46,0.18-0.89c0.14-0.47,0.21-0.93,0.21-1.38v-6.2h1.13v4.05
				c0,0.41,0.04,0.71,0.11,0.9s0.2,0.35,0.38,0.47s0.38,0.18,0.61,0.18c0.41,0,0.93-0.28,1.58-0.83v-4.77h1.13v4.75
				c0,0.4,0.04,0.68,0.12,0.83s0.22,0.23,0.42,0.23c0.31,0,0.51-0.3,0.6-0.91h0.25c-0.09,1.03-0.52,1.55-1.31,1.55
				c-0.34,0-0.63-0.12-0.85-0.35S150.18,203.26,150.17,202.83z"/>
			<path fill="#1E1E1E" d="M154.83,201.9v1.11c0.41-0.74,0.83-1.11,1.27-1.11c0.2,0,0.36,0.06,0.49,0.18
				c0.13,0.12,0.19,0.26,0.19,0.42c0,0.14-0.05,0.26-0.14,0.35s-0.2,0.15-0.33,0.15c-0.13,0-0.27-0.06-0.42-0.19
				c-0.16-0.12-0.27-0.19-0.35-0.19c-0.06,0-0.13,0.04-0.21,0.11c-0.16,0.15-0.33,0.39-0.5,0.73v2.36c0,0.27,0.03,0.48,0.1,0.62
				c0.05,0.1,0.13,0.18,0.25,0.24s0.29,0.1,0.51,0.1v0.19h-2.52v-0.19c0.25,0,0.44-0.04,0.56-0.12c0.09-0.06,0.15-0.15,0.19-0.27
				c0.02-0.06,0.03-0.23,0.03-0.52v-1.91c0-0.57-0.01-0.91-0.03-1.02c-0.02-0.11-0.07-0.19-0.13-0.24
				c-0.06-0.05-0.14-0.08-0.23-0.08c-0.11,0-0.24,0.03-0.38,0.08l-0.05-0.19l1.49-0.6H154.83z"/>
			<path fill="#1E1E1E" d="M159.03,201.9v3.95c0,0.31,0.02,0.51,0.07,0.61c0.04,0.1,0.11,0.18,0.2,0.23
				c0.09,0.05,0.25,0.08,0.48,0.08v0.19h-2.39v-0.19c0.24,0,0.4-0.02,0.48-0.07s0.15-0.12,0.2-0.23c0.05-0.11,0.07-0.31,0.07-0.62
				v-1.9c0-0.53-0.02-0.88-0.05-1.04c-0.02-0.11-0.06-0.19-0.12-0.24c-0.05-0.04-0.13-0.07-0.22-0.07c-0.1,0-0.22,0.03-0.37,0.08
				l-0.08-0.19l1.48-0.6H159.03z M158.58,199.33c0.15,0,0.28,0.05,0.38,0.16c0.11,0.11,0.16,0.23,0.16,0.38s-0.05,0.28-0.16,0.39
				c-0.11,0.11-0.23,0.16-0.38,0.16s-0.28-0.05-0.39-0.16s-0.16-0.24-0.16-0.39s0.05-0.28,0.16-0.38
				C158.3,199.38,158.43,199.33,158.58,199.33z"/>
		</g>
	</g>
	<g>
		<rect x="84.05" y="123.38" fill="none" width="47.81" height="27"/>
		<path fill="#1E1E1E" d="M87.3,129.26c0,1-0.21,1.77-0.63,2.32s-0.99,0.83-1.69,0.83c-0.33,0-0.6-0.05-0.81-0.14v-0.97
			c0.21,0.15,0.48,0.23,0.82,0.23c0.89,0,1.33-0.75,1.33-2.26v-5.4h0.98V129.26z"/>
		<path fill="#1E1E1E" d="M94.16,132.27H93.2v-0.95h-0.02c-0.4,0.73-1.02,1.09-1.85,1.09c-1.43,0-2.14-0.85-2.14-2.55v-3.59h0.96
			v3.43c0,1.27,0.48,1.9,1.45,1.9c0.47,0,0.85-0.17,1.16-0.52s0.45-0.8,0.45-1.36v-3.46h0.96V132.27z"/>
		<path fill="#1E1E1E" d="M101.08,132.27h-0.96v-3.42c0-1.27-0.46-1.91-1.39-1.91c-0.48,0-0.88,0.18-1.19,0.54s-0.47,0.82-0.47,1.37
			v3.42H96.1v-6h0.96v1h0.02c0.45-0.76,1.11-1.14,1.97-1.14c0.66,0,1.16,0.21,1.51,0.64s0.52,1.04,0.52,1.84V132.27z"/>
		<path fill="#1E1E1E" d="M106.98,131.99c-0.46,0.28-1.01,0.42-1.64,0.42c-0.86,0-1.55-0.28-2.07-0.83s-0.79-1.28-0.79-2.17
			c0-0.99,0.28-1.78,0.85-2.38s1.32-0.9,2.27-0.9c0.53,0,0.99,0.1,1.39,0.29v0.98c-0.45-0.31-0.92-0.47-1.43-0.47
			c-0.61,0-1.12,0.22-1.51,0.66s-0.59,1.02-0.59,1.73c0,0.7,0.18,1.26,0.55,1.66s0.86,0.61,1.49,0.61c0.52,0,1.02-0.17,1.48-0.52
			V131.99z"/>
		<path fill="#1E1E1E" d="M111.21,132.21c-0.23,0.13-0.53,0.19-0.9,0.19c-1.05,0-1.58-0.59-1.58-1.76v-3.55h-1.03v-0.82h1.03v-1.46
			l0.96-0.31v1.78h1.51v0.82h-1.51v3.38c0,0.4,0.07,0.69,0.21,0.86s0.36,0.26,0.68,0.26c0.24,0,0.45-0.07,0.63-0.2V132.21z"/>
		<path fill="#1E1E1E" d="M112.99,124.74c-0.17,0-0.32-0.06-0.44-0.18s-0.18-0.27-0.18-0.45s0.06-0.33,0.18-0.45
			s0.27-0.18,0.44-0.18c0.18,0,0.33,0.06,0.45,0.18s0.18,0.27,0.18,0.45c0,0.17-0.06,0.32-0.18,0.44S113.17,124.74,112.99,124.74z
			 M113.46,132.27h-0.96v-6h0.96V132.27z"/>
		<path fill="#1E1E1E" d="M117.91,132.41c-0.89,0-1.59-0.28-2.12-0.84s-0.79-1.3-0.79-2.23c0-1.01,0.28-1.79,0.83-2.36
			s1.29-0.85,2.23-0.85c0.89,0,1.59,0.28,2.09,0.83s0.75,1.31,0.75,2.29c0,0.96-0.27,1.72-0.81,2.3S118.82,132.41,117.91,132.41z
			 M117.98,126.94c-0.62,0-1.11,0.21-1.46,0.63s-0.54,1-0.54,1.74c0,0.71,0.18,1.27,0.54,1.68s0.85,0.62,1.46,0.62
			c0.62,0,1.1-0.2,1.43-0.6s0.5-0.97,0.5-1.72c0-0.75-0.17-1.33-0.5-1.73S118.6,126.94,117.98,126.94z"/>
		<path fill="#1E1E1E" d="M127.42,132.27h-0.96v-3.42c0-1.27-0.46-1.91-1.39-1.91c-0.48,0-0.88,0.18-1.19,0.54s-0.47,0.82-0.47,1.37
			v3.42h-0.96v-6h0.96v1h0.02c0.45-0.76,1.11-1.14,1.97-1.14c0.66,0,1.16,0.21,1.51,0.64s0.52,1.04,0.52,1.84V132.27z"/>
		<path fill="#1E1E1E" d="M86.01,144.6h-0.02v3.63h-0.96v-8.76h0.96v1.05h0.02c0.47-0.8,1.16-1.2,2.07-1.2
			c0.77,0,1.38,0.27,1.81,0.81s0.65,1.26,0.65,2.16c0,1-0.24,1.81-0.73,2.41s-1.16,0.91-2,0.91
			C87.03,145.61,86.43,145.27,86.01,144.6z M85.98,142.18v0.84c0,0.5,0.16,0.92,0.48,1.26s0.73,0.52,1.23,0.52
			c0.58,0,1.04-0.22,1.37-0.67s0.5-1.06,0.5-1.86c0-0.67-0.15-1.19-0.46-1.57s-0.73-0.57-1.25-0.57c-0.56,0-1.01,0.19-1.35,0.58
			S85.98,141.59,85.98,142.18z"/>
		<path fill="#1E1E1E" d="M94.59,145.61c-0.89,0-1.59-0.28-2.12-0.84s-0.79-1.3-0.79-2.23c0-1.01,0.28-1.79,0.83-2.36
			s1.29-0.85,2.23-0.85c0.89,0,1.59,0.28,2.09,0.83s0.75,1.31,0.75,2.29c0,0.96-0.27,1.72-0.81,2.3S95.5,145.61,94.59,145.61z
			 M94.66,140.14c-0.62,0-1.11,0.21-1.46,0.63s-0.54,1-0.54,1.74c0,0.71,0.18,1.27,0.54,1.68s0.85,0.62,1.46,0.62
			c0.62,0,1.1-0.2,1.43-0.6s0.5-0.97,0.5-1.72c0-0.75-0.17-1.33-0.5-1.73S95.28,140.14,94.66,140.14z"/>
		<path fill="#1E1E1E" d="M99.6,137.94c-0.17,0-0.32-0.06-0.44-0.18s-0.18-0.27-0.18-0.45s0.06-0.33,0.18-0.45s0.27-0.18,0.44-0.18
			c0.18,0,0.33,0.06,0.45,0.18s0.18,0.27,0.18,0.45c0,0.17-0.06,0.32-0.18,0.44S99.78,137.94,99.6,137.94z M100.07,145.47h-0.96v-6
			h0.96V145.47z"/>
		<path fill="#1E1E1E" d="M107,145.47h-0.96v-3.42c0-1.27-0.46-1.91-1.39-1.91c-0.48,0-0.88,0.18-1.19,0.54s-0.47,0.82-0.47,1.37
			v3.42h-0.96v-6h0.96v1H103c0.45-0.76,1.11-1.14,1.97-1.14c0.66,0,1.16,0.21,1.51,0.64S107,141,107,141.8V145.47z"/>
		<path fill="#1E1E1E" d="M111.59,145.41c-0.23,0.13-0.53,0.19-0.9,0.19c-1.05,0-1.58-0.59-1.58-1.76v-3.55h-1.03v-0.82h1.03V138
			l0.96-0.31v1.78h1.51v0.82h-1.51v3.38c0,0.4,0.07,0.69,0.21,0.86s0.36,0.26,0.68,0.26c0.24,0,0.45-0.07,0.63-0.2V145.41z"/>
	</g>
</g>
<g id="writer_source" display="none">
	
		<image display="inline" overflow="visible" width="261" height="235" xlink:href="../../trt/package_Images_MaterialCurve_P1/TO DO/image2103165367_SRC.jpg"  transform="matrix(0.7582 0 0 0.7582 415.1692 16.4101)">
	</image>
</g>
</svg>
