<?xml version="1.0" encoding="utf-8"?>
<!-- Generator: Adobe Illustrator 23.0.3, SVG Export Plug-In . SVG Version: 6.00 Build 0)  -->
<svg version="1.1" xmlns="http://www.w3.org/2000/svg" xmlns:xlink="http://www.w3.org/1999/xlink" x="0px" y="0px"
	 width="144.15px" height="107.54px" viewBox="0 0 144.15 107.54" enable-background="new 0 0 144.15 107.54" xml:space="preserve">
<g id="Shapes">
	<g id="Wrench_tool_x28_s_x29_">
	</g>
	<g id="user2">
	</g>
	<g id="user2_1_">
	</g>
	<g id="user2_4_">
	</g>
	<g id="user2_3_">
	</g>
	<g id="user2_2_">
	</g>
	<g id="Internet_2">
	</g>
	<g id="Enterprise">
	</g>
	<g id="Tunnel__x28_stackable_x29_">
	</g>
	<g id="New_Symbol">
	</g>
	<g id="New_Symbol_1">
	</g>
	<g id="Files">
	</g>
	<g id="BlobBlock">
	</g>
	<g id="E_x5F_Enterprise">
	</g>
	<g id="E_x5F_AD_FS">
	</g>
	<g id="C_x5F_Azure_Active_Directory">
	</g>
	<g id="Layer_22">
	</g>
	<g>
		<polygon fill="#43639C" points="140.15,60.18 94.45,33.19 94.45,4 140.15,30.99 		"/>
		<polygon fill="#43639C" points="94.45,33.19 19.28,76.55 19.28,47.07 94.45,4 		"/>
		<polygon fill="#43639C" points="64.98,103.56 140.15,60.18 94.45,33.19 19.27,76.55 		"/>
		<polygon opacity="0.7" fill="#D5DCE9" points="64.98,74.37 140.15,30.99 94.44,4 19.27,47.07 		"/>
		<polygon fill="#C0CBDE" points="64.98,103.56 19.28,76.57 19.28,47.07 64.98,74.37 		"/>
		<polygon fill="#96A8C8" points="140.12,60.18 64.98,103.56 64.98,74.36 140.15,30.99 		"/>
		<polyline fill="none" stroke="#191919" stroke-linecap="round" stroke-linejoin="round" points="64.98,74.38 140.15,30.99 
			94.45,4 19.28,47.1 		"/>
		<polyline fill="none" stroke="#191919" stroke-linecap="round" stroke-linejoin="round" points="64.98,103.56 140.15,60.18 
			140.15,30.99 		"/>
		<g>
			<path fill="#999999" d="M139.49,60.14c-0.04,0-0.09-0.01-0.13-0.03l-0.86-0.51c-0.12-0.07-0.16-0.22-0.09-0.34
				c0.07-0.12,0.23-0.16,0.34-0.09l0.86,0.51c0.12,0.07,0.16,0.22,0.09,0.34C139.66,60.1,139.57,60.14,139.49,60.14z M136.9,58.62
				c-0.04,0-0.09-0.01-0.13-0.03l-0.86-0.51c-0.12-0.07-0.16-0.22-0.09-0.34c0.07-0.12,0.23-0.16,0.34-0.09l0.86,0.51
				c0.12,0.07,0.16,0.22,0.09,0.34C137.07,58.57,136.99,58.62,136.9,58.62z M134.32,57.09c-0.04,0-0.09-0.01-0.13-0.03l-0.86-0.51
				c-0.12-0.07-0.16-0.22-0.09-0.34c0.07-0.12,0.23-0.16,0.34-0.09l0.86,0.51c0.12,0.07,0.16,0.22,0.09,0.34
				C134.49,57.05,134.41,57.09,134.32,57.09z M131.74,55.57c-0.04,0-0.09-0.01-0.13-0.03l-0.86-0.51c-0.12-0.07-0.16-0.22-0.09-0.34
				c0.07-0.12,0.22-0.16,0.34-0.09l0.86,0.51c0.12,0.07,0.16,0.22,0.09,0.34C131.91,55.52,131.82,55.57,131.74,55.57z M129.15,54.04
				c-0.04,0-0.09-0.01-0.13-0.03l-0.86-0.51c-0.12-0.07-0.16-0.22-0.09-0.34c0.07-0.12,0.23-0.16,0.34-0.09l0.86,0.51
				c0.12,0.07,0.16,0.22,0.09,0.34C129.32,54,129.24,54.04,129.15,54.04z M126.57,52.52c-0.04,0-0.09-0.01-0.13-0.03l-0.86-0.51
				c-0.12-0.07-0.16-0.22-0.09-0.34c0.07-0.12,0.22-0.16,0.34-0.09l0.86,0.51c0.12,0.07,0.16,0.22,0.09,0.34
				C126.74,52.47,126.66,52.52,126.57,52.52z M123.99,50.99c-0.04,0-0.09-0.01-0.13-0.03L123,50.45c-0.12-0.07-0.16-0.22-0.09-0.34
				c0.07-0.12,0.23-0.16,0.34-0.09l0.86,0.51c0.12,0.07,0.16,0.22,0.09,0.34C124.16,50.95,124.07,50.99,123.99,50.99z M121.41,49.46
				c-0.04,0-0.09-0.01-0.13-0.03l-0.86-0.51c-0.12-0.07-0.16-0.22-0.09-0.34c0.07-0.12,0.22-0.16,0.34-0.09l0.86,0.51
				c0.12,0.07,0.16,0.22,0.09,0.34C121.57,49.42,121.49,49.46,121.41,49.46z M118.82,47.94c-0.04,0-0.09-0.01-0.13-0.03l-0.86-0.51
				c-0.12-0.07-0.16-0.22-0.09-0.34c0.07-0.12,0.23-0.16,0.34-0.09l0.86,0.51c0.12,0.07,0.16,0.22,0.09,0.34
				C118.99,47.89,118.91,47.94,118.82,47.94z M116.24,46.41c-0.04,0-0.09-0.01-0.13-0.03l-0.86-0.51c-0.12-0.07-0.16-0.22-0.09-0.34
				c0.07-0.12,0.22-0.16,0.34-0.09l0.86,0.51c0.12,0.07,0.16,0.22,0.09,0.34C116.41,46.37,116.32,46.41,116.24,46.41z M113.66,44.89
				c-0.04,0-0.09-0.01-0.13-0.03l-0.86-0.51c-0.12-0.07-0.16-0.22-0.09-0.34c0.07-0.12,0.23-0.16,0.34-0.09l0.86,0.51
				c0.12,0.07,0.16,0.22,0.09,0.34C113.82,44.84,113.74,44.89,113.66,44.89z M111.07,43.36c-0.04,0-0.09-0.01-0.13-0.03l-0.86-0.51
				c-0.12-0.07-0.16-0.22-0.09-0.34c0.07-0.12,0.23-0.16,0.34-0.09l0.86,0.51c0.12,0.07,0.16,0.22,0.09,0.34
				C111.24,43.32,111.16,43.36,111.07,43.36z M108.49,41.84c-0.04,0-0.09-0.01-0.13-0.03l-0.86-0.51c-0.12-0.07-0.16-0.22-0.09-0.34
				c0.07-0.12,0.22-0.16,0.34-0.09l0.86,0.51c0.12,0.07,0.16,0.22,0.09,0.34C108.66,41.79,108.57,41.84,108.49,41.84z M105.91,40.31
				c-0.04,0-0.09-0.01-0.13-0.03l-0.86-0.51c-0.12-0.07-0.16-0.22-0.09-0.34c0.07-0.12,0.23-0.16,0.34-0.09l0.86,0.51
				c0.12,0.07,0.16,0.22,0.09,0.34C106.07,40.27,105.99,40.31,105.91,40.31z M103.32,38.78c-0.04,0-0.09-0.01-0.13-0.03l-0.86-0.51
				c-0.12-0.07-0.16-0.22-0.09-0.34c0.07-0.12,0.22-0.16,0.34-0.09l0.86,0.51c0.12,0.07,0.16,0.22,0.09,0.34
				C103.49,38.74,103.41,38.78,103.32,38.78z M100.74,37.26c-0.04,0-0.09-0.01-0.13-0.03l-0.86-0.51c-0.12-0.07-0.16-0.22-0.09-0.34
				c0.07-0.12,0.23-0.16,0.34-0.09l0.86,0.51c0.12,0.07,0.16,0.22,0.09,0.34C100.91,37.21,100.83,37.26,100.74,37.26z M98.16,35.73
				c-0.04,0-0.09-0.01-0.13-0.03l-0.86-0.51c-0.12-0.07-0.16-0.22-0.09-0.34c0.07-0.12,0.22-0.16,0.34-0.09l0.86,0.51
				c0.12,0.07,0.16,0.22,0.09,0.34C98.33,35.69,98.24,35.73,98.16,35.73z M95.57,34.21c-0.04,0-0.09-0.01-0.13-0.03l-0.86-0.51
				c-0.12-0.07-0.16-0.22-0.09-0.34c0.07-0.12,0.23-0.16,0.34-0.09l0.86,0.51c0.12,0.07,0.16,0.22,0.09,0.34
				C95.74,34.16,95.66,34.21,95.57,34.21z M94.38,31.89c-0.14,0-0.25-0.11-0.25-0.25v-1c0-0.14,0.11-0.25,0.25-0.25
				s0.25,0.11,0.25,0.25v1C94.63,31.78,94.52,31.89,94.38,31.89z M94.38,28.89c-0.14,0-0.25-0.11-0.25-0.25v-1
				c0-0.14,0.11-0.25,0.25-0.25s0.25,0.11,0.25,0.25v1C94.63,28.78,94.52,28.89,94.38,28.89z M94.38,25.89
				c-0.14,0-0.25-0.11-0.25-0.25v-1c0-0.14,0.11-0.25,0.25-0.25s0.25,0.11,0.25,0.25v1C94.63,25.78,94.52,25.89,94.38,25.89z
				 M94.38,22.89c-0.14,0-0.25-0.11-0.25-0.25v-1c0-0.14,0.11-0.25,0.25-0.25s0.25,0.11,0.25,0.25v1
				C94.63,22.78,94.52,22.89,94.38,22.89z M94.38,19.89c-0.14,0-0.25-0.11-0.25-0.25v-1c0-0.14,0.11-0.25,0.25-0.25
				s0.25,0.11,0.25,0.25v1C94.63,19.78,94.52,19.89,94.38,19.89z M94.38,16.89c-0.14,0-0.25-0.11-0.25-0.25v-1
				c0-0.14,0.11-0.25,0.25-0.25s0.25,0.11,0.25,0.25v1C94.63,16.78,94.52,16.89,94.38,16.89z M94.38,13.89
				c-0.14,0-0.25-0.11-0.25-0.25v-1c0-0.14,0.11-0.25,0.25-0.25s0.25,0.11,0.25,0.25v1C94.63,13.78,94.52,13.89,94.38,13.89z
				 M94.38,10.89c-0.14,0-0.25-0.11-0.25-0.25v-1c0-0.14,0.11-0.25,0.25-0.25s0.25,0.11,0.25,0.25v1
				C94.63,10.78,94.52,10.89,94.38,10.89z M94.38,7.89c-0.14,0-0.25-0.11-0.25-0.25v-1c0-0.14,0.11-0.25,0.25-0.25
				s0.25,0.11,0.25,0.25v1C94.63,7.78,94.52,7.89,94.38,7.89z"/>
			<path fill="#999999" d="M20.82,75.97c-0.09,0-0.17-0.04-0.22-0.13c-0.07-0.12-0.03-0.27,0.09-0.34l0.87-0.5
				c0.12-0.07,0.27-0.03,0.34,0.09c0.07,0.12,0.03,0.27-0.09,0.34l-0.87,0.5C20.91,75.96,20.87,75.97,20.82,75.97z M23.42,74.47
				c-0.09,0-0.17-0.04-0.22-0.13c-0.07-0.12-0.03-0.27,0.09-0.34l0.87-0.5c0.12-0.07,0.27-0.03,0.34,0.09
				c0.07,0.12,0.03,0.27-0.09,0.34l-0.87,0.5C23.51,74.46,23.47,74.47,23.42,74.47z M26.02,72.97c-0.09,0-0.17-0.04-0.22-0.13
				c-0.07-0.12-0.03-0.27,0.09-0.34l0.87-0.5c0.12-0.07,0.27-0.03,0.34,0.09c0.07,0.12,0.03,0.27-0.09,0.34l-0.87,0.5
				C26.11,72.96,26.06,72.97,26.02,72.97z M28.62,71.47c-0.09,0-0.17-0.04-0.22-0.13c-0.07-0.12-0.03-0.27,0.09-0.34l0.87-0.5
				c0.12-0.07,0.27-0.03,0.34,0.09c0.07,0.12,0.03,0.27-0.09,0.34l-0.87,0.5C28.71,71.46,28.66,71.47,28.62,71.47z M31.22,69.97
				c-0.09,0-0.17-0.04-0.22-0.13c-0.07-0.12-0.03-0.27,0.09-0.34l0.87-0.5c0.12-0.07,0.27-0.03,0.34,0.09
				c0.07,0.12,0.03,0.27-0.09,0.34l-0.87,0.5C31.3,69.96,31.26,69.97,31.22,69.97z M33.82,68.47c-0.09,0-0.17-0.04-0.22-0.13
				c-0.07-0.12-0.03-0.27,0.09-0.34l0.87-0.5c0.12-0.07,0.27-0.03,0.34,0.09c0.07,0.12,0.03,0.27-0.09,0.34l-0.87,0.5
				C33.9,68.46,33.86,68.47,33.82,68.47z M36.42,66.97c-0.09,0-0.17-0.04-0.22-0.13c-0.07-0.12-0.03-0.27,0.09-0.34l0.87-0.5
				c0.12-0.07,0.27-0.03,0.34,0.09c0.07,0.12,0.03,0.27-0.09,0.34l-0.87,0.5C36.5,66.96,36.46,66.97,36.42,66.97z M39.02,65.47
				c-0.09,0-0.17-0.04-0.22-0.13c-0.07-0.12-0.03-0.27,0.09-0.34l0.87-0.5c0.12-0.07,0.27-0.03,0.34,0.09
				c0.07,0.12,0.03,0.27-0.09,0.34l-0.87,0.5C39.1,65.46,39.06,65.47,39.02,65.47z M41.61,63.98c-0.09,0-0.17-0.04-0.22-0.13
				c-0.07-0.12-0.03-0.27,0.09-0.34l0.87-0.5c0.12-0.07,0.27-0.03,0.34,0.09c0.07,0.12,0.03,0.27-0.09,0.34l-0.87,0.5
				C41.7,63.97,41.66,63.98,41.61,63.98z M44.21,62.48c-0.09,0-0.17-0.04-0.22-0.13c-0.07-0.12-0.03-0.27,0.09-0.34l0.87-0.5
				c0.12-0.07,0.27-0.03,0.34,0.09c0.07,0.12,0.03,0.27-0.09,0.34l-0.87,0.5C44.3,62.47,44.26,62.48,44.21,62.48z M46.81,60.98
				c-0.09,0-0.17-0.04-0.22-0.13c-0.07-0.12-0.03-0.27,0.09-0.34l0.87-0.5c0.12-0.07,0.27-0.03,0.34,0.09
				c0.07,0.12,0.03,0.27-0.09,0.34l-0.87,0.5C46.9,60.97,46.85,60.98,46.81,60.98z M49.41,59.48c-0.09,0-0.17-0.04-0.22-0.13
				c-0.07-0.12-0.03-0.27,0.09-0.34l0.87-0.5c0.12-0.07,0.27-0.03,0.34,0.09c0.07,0.12,0.03,0.27-0.09,0.34l-0.87,0.5
				C49.5,59.47,49.45,59.48,49.41,59.48z M52.01,57.98c-0.09,0-0.17-0.04-0.22-0.13c-0.07-0.12-0.03-0.27,0.09-0.34l0.87-0.5
				c0.12-0.07,0.27-0.03,0.34,0.09c0.07,0.12,0.03,0.27-0.09,0.34l-0.87,0.5C52.09,57.97,52.05,57.98,52.01,57.98z M54.61,56.48
				c-0.09,0-0.17-0.04-0.22-0.13c-0.07-0.12-0.03-0.27,0.09-0.34l0.87-0.5c0.12-0.07,0.27-0.03,0.34,0.09
				c0.07,0.12,0.03,0.27-0.09,0.34l-0.87,0.5C54.69,56.47,54.65,56.48,54.61,56.48z M57.21,54.98c-0.09,0-0.17-0.04-0.22-0.13
				c-0.07-0.12-0.03-0.27,0.09-0.34l0.87-0.5c0.12-0.07,0.27-0.03,0.34,0.09c0.07,0.12,0.03,0.27-0.09,0.34l-0.87,0.5
				C57.29,54.97,57.25,54.98,57.21,54.98z M59.81,53.48c-0.09,0-0.17-0.04-0.22-0.13c-0.07-0.12-0.03-0.27,0.09-0.34l0.87-0.5
				c0.12-0.07,0.27-0.03,0.34,0.09c0.07,0.12,0.03,0.27-0.09,0.34l-0.87,0.5C59.89,53.47,59.85,53.48,59.81,53.48z M62.4,51.99
				c-0.09,0-0.17-0.04-0.22-0.13c-0.07-0.12-0.03-0.27,0.09-0.34l0.87-0.5c0.12-0.07,0.27-0.03,0.34,0.09s0.03,0.27-0.09,0.34
				l-0.87,0.5C62.49,51.98,62.45,51.99,62.4,51.99z M65,50.49c-0.09,0-0.17-0.04-0.22-0.13c-0.07-0.12-0.03-0.27,0.09-0.34l0.87-0.5
				c0.12-0.07,0.27-0.03,0.34,0.09c0.07,0.12,0.03,0.27-0.09,0.34l-0.87,0.5C65.09,50.48,65.05,50.49,65,50.49z M67.6,48.99
				c-0.09,0-0.17-0.04-0.22-0.13c-0.07-0.12-0.03-0.27,0.09-0.34l0.87-0.5c0.12-0.07,0.27-0.03,0.34,0.09
				c0.07,0.12,0.03,0.27-0.09,0.34l-0.87,0.5C67.69,48.98,67.64,48.99,67.6,48.99z M70.2,47.49c-0.09,0-0.17-0.04-0.22-0.13
				c-0.07-0.12-0.03-0.27,0.09-0.34l0.87-0.5c0.12-0.07,0.27-0.03,0.34,0.09c0.07,0.12,0.03,0.27-0.09,0.34l-0.87,0.5
				C70.29,47.48,70.24,47.49,70.2,47.49z M72.8,45.99c-0.09,0-0.17-0.04-0.22-0.13c-0.07-0.12-0.03-0.27,0.09-0.34l0.87-0.5
				c0.12-0.07,0.27-0.03,0.34,0.09c0.07,0.12,0.03,0.27-0.09,0.34l-0.87,0.5C72.89,45.98,72.84,45.99,72.8,45.99z M75.4,44.49
				c-0.09,0-0.17-0.04-0.22-0.13c-0.07-0.12-0.03-0.27,0.09-0.34l0.87-0.5c0.12-0.07,0.27-0.03,0.34,0.09
				c0.07,0.12,0.03,0.27-0.09,0.34l-0.87,0.5C75.48,44.48,75.44,44.49,75.4,44.49z M78,42.99c-0.09,0-0.17-0.04-0.22-0.13
				c-0.07-0.12-0.03-0.27,0.09-0.34l0.87-0.5c0.12-0.07,0.27-0.03,0.34,0.09c0.07,0.12,0.03,0.27-0.09,0.34l-0.87,0.5
				C78.08,42.98,78.04,42.99,78,42.99z M80.6,41.49c-0.09,0-0.17-0.04-0.22-0.13c-0.07-0.12-0.03-0.27,0.09-0.34l0.87-0.5
				c0.12-0.07,0.27-0.03,0.34,0.09c0.07,0.12,0.03,0.27-0.09,0.34l-0.87,0.5C80.68,41.48,80.64,41.49,80.6,41.49z M83.2,40
				c-0.09,0-0.17-0.04-0.22-0.13c-0.07-0.12-0.03-0.27,0.09-0.34l0.87-0.5c0.12-0.07,0.27-0.03,0.34,0.09
				c0.07,0.12,0.03,0.27-0.09,0.34l-0.87,0.5C83.28,39.99,83.24,40,83.2,40z M85.79,38.5c-0.09,0-0.17-0.04-0.22-0.13
				c-0.07-0.12-0.03-0.27,0.09-0.34l0.87-0.5c0.12-0.07,0.27-0.03,0.34,0.09c0.07,0.12,0.03,0.27-0.09,0.34l-0.87,0.5
				C85.88,38.49,85.84,38.5,85.79,38.5z M88.39,37c-0.09,0-0.17-0.04-0.22-0.13c-0.07-0.12-0.03-0.27,0.09-0.34l0.87-0.5
				c0.12-0.07,0.27-0.03,0.34,0.09c0.07,0.12,0.03,0.27-0.09,0.34l-0.87,0.5C88.48,36.99,88.43,37,88.39,37z M90.99,35.5
				c-0.09,0-0.17-0.04-0.22-0.13c-0.07-0.12-0.03-0.27,0.09-0.34l0.87-0.5c0.12-0.07,0.27-0.03,0.34,0.09
				c0.07,0.12,0.03,0.27-0.09,0.34l-0.87,0.5C91.08,35.49,91.03,35.5,90.99,35.5z M93.59,34c-0.09,0-0.17-0.04-0.22-0.13
				c-0.07-0.12-0.03-0.27,0.09-0.34l0.87-0.5c0.12-0.07,0.27-0.03,0.34,0.09c0.07,0.12,0.03,0.27-0.09,0.34l-0.87,0.5
				C93.68,33.99,93.63,34,93.59,34z"/>
		</g>
		<polygon fill="none" stroke="#191919" stroke-linecap="round" stroke-linejoin="round" stroke-miterlimit="10" points="
			64.98,103.56 19.28,76.57 19.28,47.07 64.98,74.37 		"/>
	</g>
	<circle fill="#BBBDBF" stroke="#808184" stroke-miterlimit="10" cx="94.45" cy="4" r="3.5"/>
	<circle fill="#BBBDBF" stroke="#808184" stroke-miterlimit="10" cx="140.15" cy="30.99" r="3.5"/>
	<circle fill="#BBBDBF" stroke="#808184" stroke-miterlimit="10" cx="140.15" cy="60.15" r="3.5"/>
	<g>
		<circle fill="#BBBDBF" stroke="#808184" stroke-miterlimit="10" cx="19.28" cy="47.07" r="3.5"/>
		<circle fill="#BBBDBF" stroke="#808184" stroke-miterlimit="10" cx="19.28" cy="76.57" r="3.5"/>
	</g>
	<g>
		<circle fill="#BBBDBF" stroke="#808184" stroke-miterlimit="10" cx="64.98" cy="74.49" r="3.5"/>
		<circle fill="#BBBDBF" stroke="#808184" stroke-miterlimit="10" cx="64.98" cy="103.54" r="3.5"/>
	</g>
	<g>
		<g>
			<line fill="none" stroke="#000000" stroke-linecap="round" stroke-linejoin="round" x1="2.91" y1="80.07" x2="2.91" y2="55.35"/>
			<g>
				<polygon points="5.81,57.33 2.91,46.49 0,57.33 				"/>
			</g>
		</g>
	</g>
</g>
<g id="writer_source" display="none">
	
		<image display="inline" overflow="visible" width="99" height="63" xlink:href="../../trt/package_Images_Geo_P1/To Do/image872183140_SRC.jpg"  transform="matrix(1.2729 0 0 1.2729 172.7942 11.8898)">
	</image>
</g>
</svg>
