<?xml version="1.0" encoding="utf-8"?>
<!-- Generator: Adobe Illustrator 25.0.0, SVG Export Plug-In . SVG Version: 6.00 Build 0)  -->
<svg version="1.1" xmlns="http://www.w3.org/2000/svg" xmlns:xlink="http://www.w3.org/1999/xlink" x="0px" y="0px" width="273px"
	 height="231px" viewBox="0 0 273 231" enable-background="new 0 0 273 231" xml:space="preserve">
<g id="Shapes">
	<g>
		<rect x="0.5" y="0.5" fill="#FFFFFF" width="272" height="230"/>
		<rect x="0.5" y="0.5" opacity="0.2" fill="#E5E5E5" width="272" height="230"/>
		<rect x="0.5" y="0.5" opacity="0.1" fill="none" stroke="#231F20" stroke-miterlimit="10" width="272" height="230"/>
	</g>
	<polygon fill="#D5DCE9" points="53.64,17.73 53.64,122.33 113.55,122.33 113.55,44.77 159.11,44.77 159.11,122.33 219.71,122.33 
		219.71,17.73 	"/>
	<g>
		<g>
			<polyline fill="none" stroke="#8297BD" points="53.64,122.33 113.55,122.33 113.55,44.77 159.11,44.77 159.11,122.33 
				219.71,122.33 			"/>
			<line fill="none" stroke="#8297BD" x1="219.71" y1="17.73" x2="53.64" y2="17.73"/>
		</g>
		<g>
			<rect x="53.64" y="138.7" fill="#D5DCE9" width="166.07" height="16.21"/>
			<g>
				<line fill="none" stroke="#8297BD" x1="53.64" y1="138.7" x2="219.71" y2="138.7"/>
				<line fill="none" stroke="#8297BD" x1="219.71" y1="154.91" x2="53.64" y2="154.91"/>
			</g>
		</g>
	</g>
	<g id="Wrench_tool_x28_s_x29_">
	</g>
	<g id="user2">
	</g>
	<g id="user2_1_">
	</g>
	<g id="user2_4_">
	</g>
	<g id="user2_3_">
	</g>
	<g id="user2_2_">
	</g>
	<g id="Internet_2">
	</g>
	<g id="Enterprise">
	</g>
	<g id="Tunnel__x28_stackable_x29_">
	</g>
	<g id="New_Symbol">
	</g>
	<g id="New_Symbol_1">
	</g>
	<g id="Files">
	</g>
	<g id="BlobBlock">
	</g>
	<g id="E_x5F_Enterprise">
	</g>
	<g id="E_x5F_AD_FS">
	</g>
	<g id="C_x5F_Azure_Active_Directory">
	</g>
	<g id="Layer_22">
	</g>
	<rect x="65.67" y="200.82" fill="#CCCCCC" width="141.29" height="21"/>
	<g>
		<g>
			<g>
				<rect x="87.66" y="44.67" fill="#FFFFFF" width="38.16" height="57.3"/>
				<rect x="87.66" y="44.67" opacity="0.25" fill="#F5EF45" width="38.16" height="57.3"/>
				<rect x="87.66" y="44.67" fill="none" stroke="#000000" width="38.16" height="57.3"/>
			</g>
			<line fill="none" stroke="#000000" x1="87.66" y1="44.67" x2="125.83" y2="101.97"/>
			<line fill="none" stroke="#000000" x1="125.83" y1="44.67" x2="87.66" y2="101.97"/>
		</g>
		<g>
			<path fill="#1E1E1E" d="M107.24,85.67c1.29,0,2.47,0.3,3.55,0.89s1.92,1.42,2.54,2.5c0.61,1.08,0.92,2.29,0.92,3.64
				c0,1.32-0.3,2.52-0.89,3.59c-0.6,1.07-1.43,1.91-2.52,2.52s-2.28,0.91-3.6,0.91c-1.3,0-2.49-0.3-3.57-0.9
				c-1.08-0.6-1.92-1.44-2.52-2.52c-0.6-1.08-0.9-2.28-0.9-3.6c0-1.33,0.31-2.54,0.92-3.62s1.46-1.92,2.53-2.51
				C104.77,85.97,105.95,85.67,107.24,85.67z M107.22,86.71c-1.05,0-2.03,0.25-2.92,0.75c-0.9,0.5-1.6,1.21-2.11,2.13
				s-0.76,1.95-0.76,3.1c0,1.12,0.25,2.14,0.75,3.06c0.5,0.92,1.2,1.63,2.11,2.15c0.91,0.51,1.89,0.77,2.94,0.77
				c1.12,0,2.12-0.26,3.02-0.77c0.9-0.51,1.59-1.23,2.09-2.16c0.5-0.92,0.74-1.94,0.74-3.05c0-1.16-0.25-2.2-0.76-3.12
				c-0.51-0.92-1.21-1.62-2.1-2.12S108.32,86.71,107.22,86.71z M107.74,93.18v4.23h-1.05v-4.23h-4v-0.98h4v-4.23h1.05v4.23h4.01
				v0.98H107.74z"/>
		</g>
	</g>
	<g>
		<g>
			<g>
				<rect x="146.3" y="44.67" fill="#FFFFFF" width="38.16" height="57.3"/>
				<rect x="146.3" y="44.67" opacity="0.25" fill="#F5EF45" width="38.16" height="57.3"/>
				<rect x="146.3" y="44.67" fill="none" stroke="#000000" width="38.16" height="57.3"/>
			</g>
			<line fill="none" stroke="#000000" x1="146.3" y1="44.67" x2="184.46" y2="101.97"/>
			<line fill="none" stroke="#000000" x1="184.46" y1="44.67" x2="146.3" y2="101.97"/>
		</g>
		<g>
			<path fill="#1E1E1E" d="M165.87,85.67c1.29,0,2.47,0.3,3.55,0.89c1.08,0.59,1.92,1.42,2.54,2.5c0.61,1.08,0.92,2.29,0.92,3.64
				c0,1.32-0.3,2.52-0.89,3.59c-0.6,1.07-1.43,1.91-2.52,2.52s-2.28,0.91-3.6,0.91c-1.3,0-2.49-0.3-3.57-0.9
				c-1.08-0.6-1.92-1.44-2.52-2.52c-0.6-1.08-0.9-2.28-0.9-3.6c0-1.33,0.31-2.54,0.92-3.62c0.61-1.08,1.46-1.92,2.53-2.51
				C163.4,85.97,164.58,85.67,165.87,85.67z M165.86,86.71c-1.05,0-2.03,0.25-2.92,0.75c-0.9,0.5-1.6,1.21-2.11,2.13
				s-0.76,1.95-0.76,3.1c0,1.12,0.25,2.14,0.75,3.06c0.5,0.92,1.2,1.63,2.11,2.15c0.91,0.51,1.89,0.77,2.94,0.77
				c1.12,0,2.12-0.26,3.02-0.77c0.9-0.51,1.59-1.23,2.09-2.16c0.5-0.92,0.74-1.94,0.74-3.05c0-1.16-0.25-2.2-0.76-3.12
				c-0.51-0.92-1.21-1.62-2.1-2.12C167.95,86.96,166.95,86.71,165.86,86.71z M166.37,93.18v4.23h-1.05v-4.23h-4v-0.98h4v-4.23h1.05
				v4.23h4.01v0.98H166.37z"/>
		</g>
	</g>
</g>
<g id="arrows">
	<polygon points="203.85,61.75 199.41,73.32 208.41,73.27 203.85,61.75 199.41,73.32 208.41,73.27 	"/>
	<polygon points="69.15,73.4 73.44,61.75 64.42,61.93 69.15,73.4 73.44,61.75 64.42,61.93 	"/>
	<g>
		<path fill="none" stroke="#000000" stroke-width="1.5" stroke-linecap="round" stroke-linejoin="round" d="M171.38,151.61H98.05
			c-8.05,0-15.23-5.07-17.82-12.65C67.36,101.4,69,55.67,69,55.67c0.6-16.77,14.82-30.5,31.6-30.5h70.97
			c16.78,0,31.25,13.71,32.15,30.47c0,0,2.48,46.33-10.21,80.58C190.09,145.45,181.28,151.61,171.38,151.61z"/>
	</g>
	<g>
		<path fill="none" stroke="#000000" stroke-width="1.5" stroke-linecap="round" stroke-linejoin="round" d="M163.85,144.16h-56.43
			c-9.38-0.07-15.26-4.34-17.57-9.54c-12.22-27.49-14.66-54.34-11.23-81.67c1.28-10.18,8.76-18.26,18.69-18.26h78.05
			c9.74,0,17.35,7.78,18.66,17.77c3.74,28.66-0.01,56.47-10.57,80.2C180.59,139.07,172.61,144.16,163.85,144.16z"/>
	</g>
	<path fill="none" stroke="#4C4C4C" d="M212.36,9.37v161.5c0,9.46-5.24,17.13-11.71,17.13H72.56c-6.47,0-11.71-7.67-11.71-17.13
		V9.37"/>
	<line fill="none" stroke="#4C4C4C" x1="136.31" y1="188.92" x2="136.31" y2="200.84"/>
</g>
<g id="Text">
	<g id="Windows_Server_New">
	</g>
	<g>
		<path fill="#1E1E1E" d="M92.56,215.16v-1.88c0.34,0.29,0.71,0.5,1.11,0.64s0.8,0.21,1.21,0.21c0.24,0,0.45-0.02,0.62-0.06
			s0.33-0.1,0.45-0.18s0.21-0.17,0.27-0.27s0.09-0.22,0.09-0.34c0-0.16-0.05-0.31-0.14-0.44s-0.22-0.25-0.38-0.36
			s-0.35-0.21-0.58-0.32s-0.46-0.21-0.72-0.31c-0.66-0.27-1.15-0.61-1.47-1s-0.48-0.87-0.48-1.43c0-0.44,0.09-0.81,0.26-1.13
			s0.42-0.57,0.72-0.78s0.65-0.35,1.05-0.45s0.82-0.14,1.27-0.14c0.44,0,0.83,0.03,1.16,0.08s0.65,0.13,0.93,0.24v1.75
			c-0.14-0.1-0.29-0.18-0.46-0.26s-0.34-0.14-0.51-0.18s-0.35-0.08-0.52-0.11s-0.34-0.04-0.5-0.04c-0.21,0-0.41,0.02-0.59,0.06
			s-0.32,0.1-0.45,0.17s-0.21,0.16-0.28,0.27s-0.1,0.22-0.1,0.35c0,0.14,0.04,0.27,0.11,0.38s0.18,0.22,0.32,0.32s0.3,0.2,0.5,0.29
			s0.42,0.19,0.66,0.3c0.34,0.14,0.64,0.29,0.91,0.45s0.5,0.34,0.69,0.54s0.34,0.43,0.44,0.68s0.15,0.55,0.15,0.89
			c0,0.47-0.09,0.86-0.27,1.18s-0.42,0.58-0.72,0.77s-0.66,0.34-1.06,0.42s-0.83,0.13-1.28,0.13c-0.46,0-0.9-0.04-1.32-0.12
			S92.86,215.31,92.56,215.16z"/>
		<path fill="#1E1E1E" d="M102.82,215.41c-0.27,0.14-0.69,0.22-1.24,0.22c-1.3,0-1.96-0.68-1.96-2.03v-2.75h-0.97v-1.37h0.97v-1.29
			l1.85-0.53v1.82h1.35v1.37h-1.35v2.43c0,0.62,0.25,0.94,0.74,0.94c0.2,0,0.4-0.06,0.6-0.17V215.41z"/>
		<path fill="#1E1E1E" d="M109.56,215.48h-1.85v-0.91h-0.03c-0.46,0.71-1.07,1.06-1.83,1.06c-1.39,0-2.09-0.84-2.09-2.53v-3.62h1.85
			v3.46c0,0.85,0.34,1.27,1.01,1.27c0.33,0,0.6-0.12,0.8-0.35s0.3-0.55,0.3-0.95v-3.43h1.85V215.48z"/>
		<path fill="#1E1E1E" d="M116.99,215.48h-1.85v-0.83h-0.02c-0.42,0.65-1.04,0.97-1.86,0.97c-0.75,0-1.35-0.26-1.81-0.79
			s-0.69-1.27-0.69-2.22c0-0.99,0.25-1.79,0.76-2.38s1.16-0.9,1.98-0.9c0.77,0,1.31,0.28,1.62,0.83h0.02v-3.57h1.85V215.48z
			 M115.18,212.56v-0.45c0-0.39-0.11-0.71-0.34-0.97s-0.52-0.39-0.88-0.39c-0.41,0-0.73,0.16-0.96,0.48s-0.35,0.76-0.35,1.33
			c0,0.53,0.11,0.93,0.33,1.22s0.53,0.43,0.93,0.43c0.38,0,0.68-0.15,0.92-0.45S115.18,213.06,115.18,212.56z"/>
		<path fill="#1E1E1E" d="M124.27,209.48l-2.44,6.48c-0.59,1.56-1.47,2.34-2.65,2.34c-0.45,0-0.82-0.05-1.11-0.15v-1.48
			c0.25,0.14,0.51,0.22,0.8,0.22c0.48,0,0.81-0.22,1-0.67l0.32-0.74l-2.44-5.99h2.05l1.12,3.65c0.07,0.23,0.12,0.49,0.16,0.8h0.02
			c0.04-0.23,0.1-0.49,0.19-0.79l1.13-3.66H124.27z"/>
		<path fill="#1E1E1E" d="M134.19,215.48h-1.85v-0.83h-0.02c-0.42,0.65-1.04,0.97-1.86,0.97c-0.75,0-1.35-0.26-1.81-0.79
			s-0.69-1.27-0.69-2.22c0-0.99,0.25-1.79,0.76-2.38s1.16-0.9,1.98-0.9c0.77,0,1.31,0.28,1.62,0.83h0.02v-3.57h1.85V215.48z
			 M132.37,212.56v-0.45c0-0.39-0.11-0.71-0.34-0.97s-0.52-0.39-0.88-0.39c-0.41,0-0.73,0.16-0.96,0.48s-0.35,0.76-0.35,1.33
			c0,0.53,0.11,0.93,0.33,1.22s0.53,0.43,0.93,0.43c0.38,0,0.68-0.15,0.92-0.45S132.37,213.06,132.37,212.56z"/>
		<path fill="#1E1E1E" d="M138.61,215.63c-1,0-1.79-0.28-2.36-0.84s-0.86-1.32-0.86-2.28c0-0.99,0.3-1.77,0.89-2.33
			s1.4-0.84,2.41-0.84c1,0,1.78,0.28,2.34,0.84s0.85,1.3,0.85,2.22c0,1-0.29,1.78-0.88,2.36S139.62,215.63,138.61,215.63z
			 M138.66,210.75c-0.44,0-0.78,0.15-1.02,0.45s-0.36,0.73-0.36,1.28c0,1.15,0.46,1.73,1.39,1.73c0.89,0,1.33-0.59,1.33-1.78
			C140,211.31,139.55,210.75,138.66,210.75z"/>
		<path fill="#1E1E1E" d="M152.61,215.48h-1.85v-3.42c0-0.87-0.32-1.31-0.96-1.31c-0.3,0-0.55,0.13-0.74,0.39s-0.29,0.59-0.29,0.98
			v3.36h-1.85v-3.46c0-0.85-0.31-1.27-0.94-1.27c-0.32,0-0.57,0.12-0.76,0.38s-0.28,0.59-0.28,1.02v3.33h-1.85v-6h1.85v0.94h0.02
			c0.19-0.32,0.46-0.58,0.81-0.78s0.72-0.3,1.13-0.3c0.85,0,1.43,0.37,1.74,1.12c0.46-0.75,1.13-1.12,2.02-1.12
			c1.3,0,1.96,0.8,1.96,2.41V215.48z"/>
		<path fill="#1E1E1E" d="M159.07,215.48h-1.75v-0.86h-0.02c-0.4,0.67-1,1.01-1.79,1.01c-0.58,0-1.04-0.17-1.37-0.5
			s-0.5-0.77-0.5-1.32c0-1.16,0.69-1.84,2.07-2.02l1.63-0.22c0-0.66-0.36-0.98-1.07-0.98c-0.71,0-1.39,0.21-2.04,0.64v-1.39
			c0.26-0.13,0.61-0.25,1.06-0.35s0.85-0.15,1.22-0.15c1.71,0,2.57,0.85,2.57,2.56V215.48z M157.33,213.04v-0.4l-1.09,0.14
			c-0.6,0.08-0.9,0.35-0.9,0.81c0,0.21,0.07,0.38,0.22,0.52s0.34,0.2,0.59,0.2c0.35,0,0.63-0.12,0.85-0.36
			S157.33,213.41,157.33,213.04z"/>
		<path fill="#1E1E1E" d="M161.47,208.53c-0.31,0-0.57-0.09-0.77-0.28s-0.3-0.41-0.3-0.68c0-0.28,0.1-0.5,0.3-0.68
			s0.46-0.26,0.77-0.26c0.32,0,0.57,0.09,0.77,0.26s0.3,0.4,0.3,0.68c0,0.28-0.1,0.51-0.3,0.69S161.79,208.53,161.47,208.53z
			 M162.39,215.48h-1.85v-6h1.85V215.48z"/>
		<path fill="#1E1E1E" d="M169.74,215.48h-1.85v-3.33c0-0.93-0.33-1.39-1-1.39c-0.32,0-0.58,0.12-0.79,0.37s-0.31,0.56-0.31,0.94
			v3.42h-1.85v-6h1.85v0.95h0.02c0.44-0.73,1.08-1.1,1.93-1.1c1.33,0,1.99,0.82,1.99,2.47V215.48z"/>
		<path fill="#1E1E1E" d="M176.25,213.95h3.56v1.54h-5.59v-0.63c0-0.43,0.07-0.82,0.22-1.16s0.33-0.65,0.54-0.92
			s0.46-0.51,0.72-0.72s0.51-0.4,0.74-0.57c0.25-0.18,0.46-0.34,0.65-0.5s0.34-0.32,0.47-0.48s0.22-0.32,0.28-0.48
			s0.09-0.33,0.09-0.52c0-0.36-0.1-0.63-0.3-0.81s-0.51-0.28-0.93-0.28c-0.72,0-1.41,0.29-2.07,0.86v-1.63
			c0.73-0.47,1.55-0.71,2.47-0.71c0.43,0,0.81,0.06,1.15,0.17s0.62,0.27,0.86,0.48s0.41,0.46,0.54,0.75s0.18,0.62,0.18,0.99
			c0,0.39-0.06,0.73-0.18,1.03s-0.28,0.57-0.47,0.82s-0.42,0.47-0.68,0.68s-0.53,0.4-0.8,0.59c-0.19,0.13-0.37,0.26-0.54,0.4
			s-0.33,0.26-0.46,0.39s-0.24,0.25-0.32,0.37S176.25,213.84,176.25,213.95z"/>
	</g>
	<g>
		<path fill="#1E1E1E" d="M9.87,172.79v-8.4h2.39c0.73,0,1.3,0.18,1.73,0.53s0.64,0.82,0.64,1.39c0,0.48-0.13,0.89-0.39,1.24
			s-0.61,0.6-1.07,0.75v0.02c0.57,0.07,1.02,0.28,1.36,0.64s0.51,0.83,0.51,1.41c0,0.72-0.26,1.3-0.77,1.75s-1.17,0.67-1.95,0.67
			H9.87z M10.85,165.28v2.71h1.01c0.54,0,0.96-0.13,1.27-0.39s0.46-0.63,0.46-1.1c0-0.82-0.54-1.22-1.61-1.22H10.85z M10.85,168.88
			v3.02h1.34c0.58,0,1.03-0.14,1.34-0.41s0.48-0.65,0.48-1.12c0-0.99-0.68-1.49-2.03-1.49H10.85z"/>
		<path fill="#1E1E1E" d="M19.12,172.93c-0.89,0-1.59-0.28-2.12-0.84s-0.79-1.3-0.79-2.23c0-1.01,0.28-1.79,0.83-2.36
			s1.29-0.85,2.23-0.85c0.89,0,1.59,0.28,2.09,0.83s0.75,1.31,0.75,2.29c0,0.96-0.27,1.72-0.81,2.3S20.03,172.93,19.12,172.93z
			 M19.19,167.46c-0.62,0-1.11,0.21-1.46,0.63s-0.54,1-0.54,1.74c0,0.71,0.18,1.27,0.54,1.68s0.85,0.62,1.46,0.62
			c0.62,0,1.1-0.2,1.43-0.6s0.5-0.97,0.5-1.72c0-0.75-0.17-1.33-0.5-1.73S19.82,167.46,19.19,167.46z"/>
		<path fill="#1E1E1E" d="M26.78,167.76c-0.17-0.13-0.41-0.19-0.73-0.19c-0.41,0-0.75,0.19-1.03,0.58s-0.41,0.91-0.41,1.58v3.06
			h-0.96v-6h0.96v1.24h0.02c0.14-0.42,0.35-0.75,0.63-0.99s0.6-0.35,0.94-0.35c0.25,0,0.44,0.03,0.57,0.08V167.76z"/>
		<path fill="#1E1E1E" d="M32.94,172.79h-0.96v-1.02h-0.02c-0.45,0.77-1.13,1.16-2.06,1.16c-0.75,0-1.36-0.27-1.81-0.81
			s-0.68-1.27-0.68-2.19c0-0.99,0.25-1.79,0.75-2.38s1.17-0.9,2-0.9c0.82,0,1.42,0.32,1.8,0.97h0.02v-3.71h0.96V172.79z
			 M31.98,170.08v-0.88c0-0.48-0.16-0.89-0.48-1.23s-0.73-0.5-1.22-0.5c-0.59,0-1.05,0.21-1.38,0.64s-0.5,1.02-0.5,1.78
			c0,0.69,0.16,1.24,0.48,1.64s0.75,0.6,1.3,0.6c0.54,0,0.97-0.19,1.3-0.58S31.98,170.67,31.98,170.08z"/>
		<path fill="#1E1E1E" d="M39.71,170.03h-4.24c0.02,0.67,0.2,1.18,0.54,1.55s0.82,0.54,1.42,0.54c0.68,0,1.3-0.22,1.86-0.67v0.9
			c-0.53,0.38-1.22,0.57-2.09,0.57c-0.85,0-1.51-0.27-2-0.82s-0.73-1.31-0.73-2.3c0-0.93,0.26-1.69,0.79-2.28s1.19-0.88,1.97-0.88
			s1.39,0.25,1.82,0.76s0.64,1.21,0.64,2.12V170.03z M38.72,169.22c0-0.55-0.14-0.99-0.4-1.29s-0.63-0.46-1.1-0.46
			c-0.45,0-0.84,0.16-1.15,0.49s-0.51,0.75-0.59,1.27H38.72z"/>
		<path fill="#1E1E1E" d="M44.29,167.76c-0.17-0.13-0.41-0.19-0.73-0.19c-0.41,0-0.75,0.19-1.03,0.58s-0.41,0.91-0.41,1.58v3.06
			h-0.96v-6h0.96v1.24h0.02c0.14-0.42,0.35-0.75,0.63-0.99s0.6-0.35,0.94-0.35c0.25,0,0.44,0.03,0.57,0.08V167.76z"/>
		<path fill="#1E1E1E" d="M51.89,172.79h-0.96v-7.26c-0.07,0.07-0.18,0.16-0.33,0.25s-0.3,0.19-0.48,0.28s-0.37,0.18-0.56,0.26
			s-0.39,0.15-0.58,0.19v-0.97c0.21-0.06,0.43-0.14,0.67-0.24s0.47-0.21,0.7-0.33s0.44-0.25,0.65-0.39s0.38-0.27,0.53-0.4h0.36
			V172.79z"/>
	</g>
	<g>
		<path fill="#1E1E1E" d="M220.3,172.79v-8.4h2.39c0.73,0,1.3,0.18,1.73,0.53s0.64,0.82,0.64,1.39c0,0.48-0.13,0.89-0.39,1.24
			s-0.61,0.6-1.07,0.75v0.02c0.57,0.07,1.02,0.28,1.36,0.64s0.51,0.83,0.51,1.41c0,0.72-0.26,1.3-0.77,1.75s-1.17,0.67-1.95,0.67
			H220.3z M221.29,165.28v2.71h1.01c0.54,0,0.96-0.13,1.27-0.39s0.46-0.63,0.46-1.1c0-0.82-0.54-1.22-1.61-1.22H221.29z
			 M221.29,168.88v3.02h1.34c0.58,0,1.03-0.14,1.34-0.41s0.48-0.65,0.48-1.12c0-0.99-0.68-1.49-2.03-1.49H221.29z"/>
		<path fill="#1E1E1E" d="M229.56,172.93c-0.89,0-1.59-0.28-2.12-0.84s-0.79-1.3-0.79-2.23c0-1.01,0.28-1.79,0.83-2.36
			s1.29-0.85,2.23-0.85c0.89,0,1.59,0.28,2.09,0.83s0.75,1.31,0.75,2.29c0,0.96-0.27,1.72-0.81,2.3S230.47,172.93,229.56,172.93z
			 M229.63,167.46c-0.62,0-1.11,0.21-1.46,0.63s-0.54,1-0.54,1.74c0,0.71,0.18,1.27,0.54,1.68s0.85,0.62,1.46,0.62
			c0.62,0,1.1-0.2,1.43-0.6s0.5-0.97,0.5-1.72c0-0.75-0.17-1.33-0.5-1.73S230.25,167.46,229.63,167.46z"/>
		<path fill="#1E1E1E" d="M237.21,167.76c-0.17-0.13-0.41-0.19-0.73-0.19c-0.41,0-0.75,0.19-1.03,0.58s-0.41,0.91-0.41,1.58v3.06
			h-0.96v-6h0.96v1.24h0.02c0.14-0.42,0.35-0.75,0.63-0.99s0.6-0.35,0.94-0.35c0.25,0,0.44,0.03,0.57,0.08V167.76z"/>
		<path fill="#1E1E1E" d="M243.38,172.79h-0.96v-1.02h-0.02c-0.45,0.77-1.13,1.16-2.06,1.16c-0.75,0-1.36-0.27-1.81-0.81
			s-0.68-1.27-0.68-2.19c0-0.99,0.25-1.79,0.75-2.38s1.17-0.9,2-0.9c0.82,0,1.42,0.32,1.8,0.97h0.02v-3.71h0.96V172.79z
			 M242.42,170.08v-0.88c0-0.48-0.16-0.89-0.48-1.23s-0.73-0.5-1.22-0.5c-0.59,0-1.05,0.21-1.38,0.64s-0.5,1.02-0.5,1.78
			c0,0.69,0.16,1.24,0.48,1.64s0.75,0.6,1.3,0.6c0.54,0,0.97-0.19,1.3-0.58S242.42,170.67,242.42,170.08z"/>
		<path fill="#1E1E1E" d="M250.15,170.03h-4.24c0.02,0.67,0.2,1.18,0.54,1.55s0.82,0.54,1.42,0.54c0.68,0,1.3-0.22,1.86-0.67v0.9
			c-0.53,0.38-1.22,0.57-2.09,0.57c-0.85,0-1.51-0.27-2-0.82s-0.73-1.31-0.73-2.3c0-0.93,0.26-1.69,0.79-2.28s1.19-0.88,1.97-0.88
			s1.39,0.25,1.82,0.76s0.64,1.21,0.64,2.12V170.03z M249.16,169.22c0-0.55-0.14-0.99-0.4-1.29s-0.63-0.46-1.1-0.46
			c-0.45,0-0.84,0.16-1.15,0.49s-0.51,0.75-0.59,1.27H249.16z"/>
		<path fill="#1E1E1E" d="M254.73,167.76c-0.17-0.13-0.41-0.19-0.73-0.19c-0.41,0-0.75,0.19-1.03,0.58s-0.41,0.91-0.41,1.58v3.06
			h-0.96v-6h0.96v1.24h0.02c0.14-0.42,0.35-0.75,0.63-0.99s0.6-0.35,0.94-0.35c0.25,0,0.44,0.03,0.57,0.08V167.76z"/>
		<path fill="#1E1E1E" d="M262.61,166.59c0-0.26-0.04-0.48-0.12-0.67s-0.19-0.35-0.33-0.48s-0.3-0.22-0.49-0.28
			s-0.39-0.09-0.61-0.09c-0.19,0-0.37,0.03-0.55,0.08s-0.35,0.12-0.52,0.21s-0.33,0.2-0.49,0.32s-0.31,0.26-0.44,0.42v-1.03
			c0.27-0.26,0.57-0.46,0.91-0.6s0.74-0.21,1.22-0.21c0.34,0,0.66,0.05,0.96,0.15s0.55,0.25,0.76,0.44s0.38,0.43,0.51,0.71
			s0.18,0.6,0.18,0.97c0,0.33-0.04,0.63-0.11,0.9s-0.19,0.52-0.35,0.76s-0.35,0.47-0.58,0.69s-0.51,0.44-0.83,0.67
			c-0.39,0.28-0.72,0.52-0.98,0.72s-0.46,0.39-0.61,0.56s-0.26,0.35-0.32,0.52s-0.09,0.37-0.09,0.6h4.18v0.86h-5.19v-0.42
			c0-0.36,0.04-0.68,0.12-0.95s0.21-0.53,0.39-0.78s0.42-0.49,0.71-0.74s0.65-0.52,1.07-0.83c0.3-0.22,0.56-0.43,0.76-0.63
			s0.37-0.4,0.5-0.6s0.21-0.4,0.27-0.61S262.61,166.82,262.61,166.59z"/>
	</g>
</g>
<g id="writer_source">
</g>
<g id="Layer_1">
	<g>
	</g>
	<g>
	</g>
	<g>
	</g>
	<g>
	</g>
	<g>
	</g>
	<g>
	</g>
	<g>
	</g>
	<g>
	</g>
	<g>
	</g>
	<g>
	</g>
	<g>
	</g>
	<g>
	</g>
	<g>
	</g>
	<g>
	</g>
	<g>
	</g>
	<g>
	</g>
	<g>
	</g>
	<g>
	</g>
</g>
</svg>
