<?xml version="1.0" encoding="utf-8"?>
<!-- Generator: Adobe Illustrator 23.0.3, SVG Export Plug-In . SVG Version: 6.00 Build 0)  -->
<svg version="1.1" xmlns="http://www.w3.org/2000/svg" xmlns:xlink="http://www.w3.org/1999/xlink" x="0px" y="0px"
	 width="134.19px" height="99.29px" viewBox="0 0 134.19 99.29" enable-background="new 0 0 134.19 99.29" xml:space="preserve">
<g id="Shapes">
	<line fill="none" stroke="#000000" x1="61.43" y1="99.29" x2="61.43" y2="77.5"/>
	<g>
		<rect x="60.93" y="75.79" width="1" height="0.5"/>
		<path d="M61.93,73.71h-1v-1.04h1V73.71z M61.93,70.59h-1v-1.04h1V70.59z M61.93,67.48h-1v-1.04h1V67.48z M61.93,64.36h-1v-1.04h1
			V64.36z M61.93,61.24h-1V60.2h1V61.24z M61.93,58.12h-1v-1.04h1V58.12z"/>
		<rect x="60.93" y="54.5" width="1" height="0.5"/>
	</g>
	<g id="Wrench_tool_x28_s_x29_">
	</g>
	<g id="user2">
	</g>
	<g id="user2_1_">
	</g>
	<g id="user2_4_">
	</g>
	<g id="user2_3_">
	</g>
	<g id="user2_2_">
	</g>
	<g id="Internet_2">
	</g>
	<g id="Enterprise">
	</g>
	<g id="Tunnel__x28_stackable_x29_">
	</g>
	<g id="New_Symbol">
	</g>
	<g id="New_Symbol_1">
	</g>
	<g id="Files">
	</g>
	<g id="BlobBlock">
	</g>
	<g id="E_x5F_Enterprise">
	</g>
	<g id="E_x5F_AD_FS">
	</g>
	<g id="C_x5F_Azure_Active_Directory">
	</g>
	<g id="Layer_22">
	</g>
	<polygon fill="#96A8C8" fill-opacity="0.5" stroke="#8297BD" points="46.7,85.47 121.87,42.09 76.16,15.11 0.99,58.47 	"/>
	<line fill="none" stroke="#000000" x1="61.43" y1="50.29" x2="61.43" y2="0.5"/>
	<line fill="none" stroke="#000000" x1="61.43" y1="55.29" x2="61.43" y2="5.5"/>
</g>
<g id="Text">
	<g id="Windows_Server_New">
	</g>
	<g>
		<path fill="#1E1E1E" d="M127.23,47.78h-3.28v2.91h3.04v0.88h-3.04v3.72h-0.98v-8.4h4.27V47.78z"/>
		<path fill="#1E1E1E" d="M131.97,55.29h-0.96v-7.26c-0.07,0.07-0.18,0.16-0.33,0.25s-0.3,0.19-0.48,0.28s-0.37,0.18-0.56,0.26
			s-0.39,0.15-0.58,0.19v-0.97c0.21-0.06,0.43-0.14,0.67-0.24s0.47-0.21,0.7-0.33s0.44-0.25,0.65-0.39s0.38-0.27,0.53-0.4h0.36
			V55.29z"/>
	</g>
	<g>
		<path fill="#1E1E1E" d="M48.16,10.2H43.8V1.8h0.98v7.51h3.38V10.2z"/>
		<path fill="#1E1E1E" d="M52.59,10.2h-0.96V2.94c-0.07,0.07-0.18,0.16-0.33,0.25S51,3.39,50.82,3.48s-0.37,0.18-0.56,0.26
			s-0.39,0.15-0.58,0.19V2.96c0.21-0.06,0.43-0.14,0.67-0.24s0.47-0.21,0.7-0.33s0.44-0.25,0.65-0.39s0.38-0.27,0.53-0.4h0.36V10.2z
			"/>
	</g>
</g>
<g id="writer_source" display="none">
	
		<image display="inline" overflow="visible" width="195" height="132" xlink:href="../../trt/package_Images_Geo_P1/To Do/image50777630_SRC.jpg"  transform="matrix(0.6677 0 0 0.6677 160.1489 2.3658)">
	</image>
</g>
</svg>
