<?xml version="1.0" encoding="utf-8"?>
<!-- Generator: Adobe Illustrator 23.0.3, SVG Export Plug-In . SVG Version: 6.00 Build 0)  -->
<svg version="1.1" xmlns="http://www.w3.org/2000/svg" xmlns:xlink="http://www.w3.org/1999/xlink" x="0px" y="0px" width="304px"
	 height="221px" viewBox="0 0 304 221" enable-background="new 0 0 304 221" xml:space="preserve">
<g id="Shapes">
	<g id="Wrench_tool_x28_s_x29_">
	</g>
	<g id="user2">
	</g>
	<g id="user2_1_">
	</g>
	<g id="user2_4_">
	</g>
	<g id="user2_3_">
	</g>
	<g id="user2_2_">
	</g>
	<g id="Internet_2">
	</g>
	<g id="Enterprise">
	</g>
	<g id="Tunnel__x28_stackable_x29_">
	</g>
	<g id="New_Symbol">
	</g>
	<g id="New_Symbol_1">
	</g>
	<g id="Files">
	</g>
	<g id="BlobBlock">
	</g>
	<g id="E_x5F_Enterprise">
	</g>
	<g id="E_x5F_AD_FS">
	</g>
	<g id="C_x5F_Azure_Active_Directory">
	</g>
	<g id="Layer_22">
	</g>
	<g>
		<rect x="0.5" y="0.5" fill="#FFFFFF" width="303" height="220"/>
		<rect x="0.5" y="0.5" opacity="0.2" fill="#E5E5E5" width="303" height="220"/>
		<rect x="0.5" y="0.5" opacity="0.1" fill="none" stroke="#231F20" stroke-miterlimit="10" width="303" height="220"/>
	</g>
	<g>
		<rect x="20.6" y="37.74" fill="#FFFFFF" stroke="#E5E5E5" stroke-miterlimit="10" width="251.72" height="156.49"/>
		<line fill="#FFFFFF" stroke="#E5E5E5" stroke-miterlimit="10" x1="20.97" y1="162.49" x2="271.95" y2="162.49"/>
		<line fill="#FFFFFF" stroke="#E5E5E5" stroke-miterlimit="10" x1="20.97" y1="131.48" x2="271.95" y2="131.48"/>
		<line fill="#FFFFFF" stroke="#E5E5E5" stroke-miterlimit="10" x1="20.97" y1="99.74" x2="271.95" y2="99.74"/>
		<line fill="#FFFFFF" stroke="#E5E5E5" stroke-miterlimit="10" x1="20.97" y1="68.74" x2="271.95" y2="68.74"/>
		<line fill="#FFFFFF" stroke="#E5E5E5" stroke-miterlimit="10" x1="240.58" y1="37.37" x2="240.58" y2="193.86"/>
		<line fill="#FFFFFF" stroke="#E5E5E5" stroke-miterlimit="10" x1="208.84" y1="37.37" x2="208.84" y2="193.86"/>
		<line fill="#FFFFFF" stroke="#E5E5E5" stroke-miterlimit="10" x1="177.83" y1="37.37" x2="177.83" y2="193.86"/>
		<line fill="#FFFFFF" stroke="#E5E5E5" stroke-miterlimit="10" x1="146.09" y1="37.37" x2="146.09" y2="193.86"/>
		<line fill="#FFFFFF" stroke="#E5E5E5" stroke-miterlimit="10" x1="115.09" y1="37.37" x2="115.09" y2="193.86"/>
		<line fill="#FFFFFF" stroke="#E5E5E5" stroke-miterlimit="10" x1="83.35" y1="37.37" x2="83.35" y2="193.86"/>
		<line fill="#FFFFFF" stroke="#E5E5E5" stroke-miterlimit="10" x1="52.34" y1="37.37" x2="52.34" y2="193.86"/>
	</g>
	<path fill="none" stroke="#2E5291" stroke-width="2" stroke-linecap="round" stroke-linejoin="round" stroke-miterlimit="10" d="
		M20.97,193.13c2.08-28.2,4.4-45.03,12.78-64.57c8.21-19.15,23.29-36.28,40.38-48.31c14.49-10.21,23.37-11.06,40.95-13.35
		c48.33-6.28,106.94-8.07,155.68-8.47"/>
</g>
<g id="arrows">
	<circle fill="#FFFFFF" stroke="#808184" stroke-miterlimit="10" cx="24.47" cy="162.49" r="3.5"/>
	<circle fill="#FFFFFF" stroke="#808184" stroke-miterlimit="10" cx="32.58" cy="131.49" r="3.5"/>
	<circle fill="#FFFFFF" stroke="#808184" stroke-miterlimit="10" cx="52.58" cy="99.49" r="3.5"/>
	<circle fill="#FFFFFF" stroke="#808184" stroke-miterlimit="10" cx="77.31" cy="78.18" r="3.5"/>
	<circle fill="#FFFFFF" stroke="#808184" stroke-miterlimit="10" cx="126.58" cy="65.49" r="3.5"/>
	<circle fill="#FFFFFF" stroke="#808184" stroke-miterlimit="10" cx="196.58" cy="60.49" r="3.5"/>
	<g>
		<g>
			<polyline fill="none" stroke="#000000" stroke-linecap="round" stroke-linejoin="round" points="278.22,194.23 20.6,194.23 
				20.6,32.57 			"/>
			<g>
				<polygon points="276.24,191.32 287.08,194.23 276.24,197.13 				"/>
			</g>
			<g>
				<polygon points="23.51,34.55 20.6,23.71 17.7,34.55 				"/>
			</g>
		</g>
	</g>
	<circle fill="#FFFFFF" stroke="#808184" stroke-miterlimit="10" cx="20.6" cy="193.86" r="3.5"/>
</g>
<g id="Text">
	<g id="Windows_Server_New">
	</g>
	<g>
		<g>
			<path fill="#1E1E1E" d="M17.59,19.39v-0.25h0.35c0.39,0,0.67-0.13,0.83-0.38c0.1-0.15,0.15-0.49,0.15-1.01v-5.99
				c0-0.58-0.06-0.94-0.19-1.09c-0.18-0.2-0.44-0.3-0.79-0.3h-0.35v-0.25h3.77c1.39,0,2.44,0.16,3.16,0.47
				c0.72,0.31,1.3,0.84,1.74,1.57c0.44,0.73,0.66,1.58,0.66,2.54c0,1.29-0.39,2.37-1.18,3.23c-0.88,0.97-2.22,1.45-4.02,1.45H17.59z
				 M20.24,18.72c0.58,0.13,1.06,0.19,1.46,0.19c1.06,0,1.93-0.37,2.63-1.11s1.05-1.75,1.05-3.02c0-1.28-0.35-2.29-1.05-3.03
				s-1.59-1.11-2.69-1.11c-0.41,0-0.88,0.07-1.4,0.2V18.72z"/>
			<path fill="#1E1E1E" d="M35.82,22.17h-3.01V9.91h3.01v0.54h-1.98v11.18h1.98V22.17z"/>
			<path fill="#1E1E1E" d="M46.62,10.12v0.25c-0.33,0.06-0.58,0.16-0.75,0.31c-0.24,0.22-0.46,0.56-0.64,1.03l-3.23,7.89h-0.25
				l-3.47-7.99c-0.18-0.41-0.3-0.66-0.38-0.75c-0.11-0.14-0.25-0.25-0.42-0.33c-0.17-0.08-0.39-0.13-0.67-0.15v-0.25h3.79v0.25
				c-0.43,0.04-0.71,0.11-0.83,0.22c-0.13,0.1-0.19,0.24-0.19,0.4c0,0.23,0.11,0.58,0.31,1.07l2.36,5.43l2.19-5.37
				c0.21-0.53,0.32-0.9,0.32-1.1c0-0.13-0.07-0.26-0.2-0.38c-0.13-0.12-0.36-0.21-0.67-0.26c-0.02,0-0.06-0.01-0.12-0.02v-0.25
				H46.62z"/>
			<path fill="#1E1E1E" d="M51.06,9.67l-3.36,9.91h-0.55l3.36-9.91H51.06z"/>
			<path fill="#1E1E1E" d="M53.67,14.28c0.46-0.46,0.72-0.72,0.81-0.79c0.21-0.17,0.43-0.31,0.66-0.4c0.24-0.1,0.47-0.14,0.7-0.14
				c0.39,0,0.73,0.11,1.01,0.34c0.28,0.23,0.47,0.56,0.57,0.99c0.47-0.55,0.87-0.91,1.19-1.08c0.32-0.17,0.66-0.26,1-0.26
				c0.33,0,0.63,0.09,0.89,0.26c0.26,0.17,0.46,0.45,0.61,0.84c0.1,0.26,0.15,0.68,0.15,1.24v2.69c0,0.39,0.03,0.66,0.09,0.81
				c0.05,0.1,0.13,0.19,0.25,0.26s0.32,0.11,0.6,0.11v0.25h-3.09v-0.25h0.13c0.27,0,0.48-0.05,0.63-0.16
				c0.11-0.07,0.18-0.19,0.23-0.35c0.02-0.08,0.03-0.3,0.03-0.66v-2.69c0-0.51-0.06-0.87-0.18-1.08c-0.18-0.29-0.46-0.44-0.85-0.44
				c-0.24,0-0.48,0.06-0.73,0.18c-0.24,0.12-0.54,0.35-0.89,0.67l-0.01,0.08l0.01,0.29v2.99c0,0.43,0.02,0.69,0.07,0.8
				s0.14,0.19,0.27,0.26c0.13,0.07,0.36,0.11,0.68,0.11v0.25h-3.17v-0.25c0.35,0,0.58-0.04,0.71-0.12s0.22-0.21,0.27-0.37
				c0.02-0.08,0.03-0.3,0.03-0.68v-2.69c0-0.51-0.08-0.88-0.23-1.1c-0.2-0.29-0.48-0.44-0.84-0.44c-0.25,0-0.49,0.07-0.73,0.2
				c-0.38,0.2-0.67,0.43-0.88,0.68v3.36c0,0.41,0.03,0.68,0.09,0.8c0.06,0.12,0.14,0.22,0.25,0.28c0.11,0.06,0.34,0.09,0.68,0.09
				v0.25h-3.1v-0.25c0.29,0,0.49-0.03,0.6-0.09c0.11-0.06,0.2-0.16,0.26-0.29c0.06-0.13,0.09-0.4,0.09-0.78v-2.39
				c0-0.69-0.02-1.13-0.06-1.33c-0.03-0.15-0.08-0.25-0.15-0.31s-0.16-0.09-0.28-0.09c-0.13,0-0.28,0.03-0.46,0.1l-0.1-0.25
				l1.89-0.77h0.29V14.28z"/>
			<path fill="#1E1E1E" d="M63.13,9.91h3.01v12.26h-3.01v-0.54h1.98V10.45h-1.98V9.91z"/>
		</g>
	</g>
	<g>
		<path fill="#1E1E1E" d="M248.78,202.36v3.66h2.04c0.53,0,0.88-0.08,1.06-0.24c0.24-0.21,0.37-0.58,0.4-1.11h0.25v3.23h-0.25
			c-0.06-0.45-0.13-0.74-0.19-0.87c-0.08-0.16-0.22-0.28-0.4-0.38s-0.47-0.14-0.86-0.14h-2.04v3.06c0,0.41,0.02,0.66,0.05,0.75
			s0.1,0.16,0.19,0.21s0.26,0.08,0.52,0.08h1.57c0.52,0,0.9-0.04,1.14-0.11s0.46-0.22,0.68-0.43c0.28-0.28,0.57-0.71,0.87-1.28h0.27
			l-0.8,2.32h-7.14v-0.25h0.33c0.22,0,0.43-0.05,0.62-0.16c0.15-0.07,0.25-0.18,0.3-0.33s0.08-0.44,0.08-0.9v-6.02
			c0-0.59-0.06-0.95-0.18-1.09c-0.16-0.18-0.44-0.27-0.82-0.27h-0.33v-0.25h7.14l0.1,2.03h-0.27c-0.1-0.49-0.2-0.82-0.32-1
			s-0.29-0.32-0.52-0.42c-0.18-0.07-0.5-0.1-0.96-0.1H248.78z"/>
	</g>
	<g>
		<path fill="#1E1E1E" d="M17.86,206.54c0-1.06,0.16-1.97,0.48-2.73c0.32-0.76,0.74-1.33,1.27-1.71c0.41-0.3,0.83-0.44,1.27-0.44
			c0.71,0,1.35,0.36,1.91,1.09c0.71,0.9,1.06,2.11,1.06,3.65c0,1.08-0.16,1.99-0.46,2.74c-0.31,0.75-0.71,1.3-1.19,1.64
			c-0.48,0.34-0.94,0.51-1.39,0.51c-0.88,0-1.62-0.52-2.21-1.57C18.11,208.84,17.86,207.78,17.86,206.54z M19.2,206.72
			c0,1.28,0.16,2.32,0.47,3.12c0.26,0.68,0.65,1.02,1.16,1.02c0.25,0,0.5-0.11,0.77-0.33c0.26-0.22,0.46-0.59,0.6-1.11
			c0.21-0.78,0.31-1.89,0.31-3.32c0-1.06-0.11-1.94-0.33-2.65c-0.16-0.52-0.38-0.9-0.64-1.11c-0.19-0.15-0.41-0.23-0.68-0.23
			c-0.31,0-0.59,0.14-0.83,0.42c-0.33,0.38-0.55,0.97-0.67,1.78C19.26,205.13,19.2,205.93,19.2,206.72z"/>
	</g>
	<g>
		<path fill="#1E1E1E" d="M261.78,213.9h-3.01v-12.26h3.01v0.54h-1.98v11.18h1.98V213.9z"/>
		<path fill="#1E1E1E" d="M271.07,201.64l0.21,3.15h-0.21c-0.28-0.94-0.69-1.62-1.21-2.04s-1.15-0.62-1.89-0.62
			c-0.62,0-1.17,0.16-1.67,0.47s-0.89,0.81-1.17,1.49s-0.43,1.53-0.43,2.55c0,0.84,0.13,1.57,0.4,2.18s0.67,1.09,1.21,1.42
			s1.16,0.49,1.85,0.49c0.6,0,1.13-0.13,1.59-0.39s0.97-0.77,1.52-1.53l0.21,0.14c-0.46,0.82-1.01,1.43-1.63,1.81
			s-1.36,0.57-2.21,0.57c-1.54,0-2.73-0.57-3.57-1.71c-0.63-0.85-0.94-1.85-0.94-2.99c0-0.93,0.21-1.77,0.62-2.55
			s0.99-1.38,1.71-1.8s1.52-0.64,2.38-0.64c0.67,0,1.33,0.16,1.98,0.49c0.19,0.1,0.33,0.15,0.41,0.15c0.12,0,0.23-0.04,0.32-0.13
			c0.12-0.12,0.2-0.29,0.25-0.51H271.07z"/>
		<path fill="#1E1E1E" d="M276.25,201.4l-3.36,9.91h-0.55l3.36-9.91H276.25z"/>
		<path fill="#1E1E1E" d="M278.86,206.01c0.46-0.46,0.72-0.72,0.81-0.79c0.21-0.17,0.43-0.31,0.66-0.4s0.47-0.14,0.7-0.14
			c0.39,0,0.73,0.11,1.01,0.34s0.47,0.56,0.57,0.99c0.47-0.55,0.87-0.91,1.19-1.08s0.66-0.26,1-0.26c0.33,0,0.63,0.09,0.89,0.26
			s0.46,0.45,0.61,0.84c0.1,0.26,0.15,0.68,0.15,1.24v2.69c0,0.39,0.03,0.66,0.09,0.81c0.05,0.1,0.13,0.19,0.25,0.26
			s0.32,0.11,0.6,0.11v0.25h-3.09v-0.25h0.13c0.27,0,0.48-0.05,0.63-0.16c0.1-0.07,0.18-0.19,0.23-0.35
			c0.02-0.08,0.03-0.3,0.03-0.66v-2.69c0-0.51-0.06-0.87-0.18-1.08c-0.18-0.29-0.46-0.44-0.85-0.44c-0.24,0-0.48,0.06-0.73,0.18
			s-0.54,0.35-0.89,0.67l-0.01,0.08l0.01,0.29v2.99c0,0.43,0.02,0.69,0.07,0.8s0.14,0.19,0.27,0.26s0.36,0.11,0.68,0.11v0.25h-3.17
			v-0.25c0.35,0,0.58-0.04,0.71-0.12s0.22-0.21,0.27-0.37c0.02-0.08,0.03-0.3,0.03-0.68v-2.69c0-0.51-0.08-0.88-0.23-1.1
			c-0.2-0.29-0.48-0.44-0.84-0.44c-0.25,0-0.49,0.07-0.73,0.2c-0.38,0.2-0.67,0.43-0.88,0.68v3.36c0,0.41,0.03,0.68,0.09,0.8
			s0.14,0.22,0.25,0.28s0.34,0.09,0.68,0.09v0.25h-3.1v-0.25c0.29,0,0.49-0.03,0.6-0.09s0.2-0.16,0.26-0.29s0.09-0.4,0.09-0.78
			v-2.39c0-0.69-0.02-1.13-0.06-1.33c-0.03-0.15-0.08-0.25-0.15-0.31s-0.16-0.09-0.28-0.09c-0.13,0-0.28,0.03-0.46,0.1l-0.1-0.25
			l1.89-0.77h0.29V206.01z"/>
		<path fill="#1E1E1E" d="M292.85,206.72l-0.51,1.4h-4.3v-0.2c1.26-1.15,2.15-2.09,2.67-2.83s0.77-1.4,0.77-2
			c0-0.46-0.14-0.84-0.42-1.14s-0.62-0.45-1.02-0.45c-0.36,0-0.68,0.1-0.96,0.31c-0.28,0.21-0.49,0.52-0.63,0.92h-0.2
			c0.09-0.66,0.32-1.17,0.69-1.53c0.37-0.35,0.83-0.53,1.39-0.53c0.59,0,1.08,0.19,1.48,0.57c0.4,0.38,0.59,0.83,0.59,1.34
			c0,0.37-0.09,0.74-0.26,1.11c-0.27,0.58-0.69,1.19-1.29,1.84c-0.89,0.97-1.45,1.56-1.67,1.76h1.9c0.39,0,0.66-0.01,0.81-0.04
			c0.16-0.03,0.3-0.09,0.42-0.17c0.13-0.09,0.23-0.21,0.33-0.37H292.85z"/>
		<path fill="#1E1E1E" d="M294.1,201.64h3.01v12.26h-3.01v-0.54h1.98v-11.18h-1.98V201.64z"/>
	</g>
</g>
<g id="writer_source" display="none">
	
		<image display="inline" overflow="visible" width="214" height="179" xlink:href="66A3BCF7.jpg"  transform="matrix(1.093 0 0 1.093 433.7038 46.0842)">
	</image>
</g>
</svg>
