<?xml version="1.0" encoding="utf-8"?>
<!-- Generator: Adobe Illustrator 23.0.3, SVG Export Plug-In . SVG Version: 6.00 Build 0)  -->
<svg version="1.1" xmlns="http://www.w3.org/2000/svg" xmlns:xlink="http://www.w3.org/1999/xlink" x="0px" y="0px" width="304px"
	 height="221px" viewBox="0 0 304 221" enable-background="new 0 0 304 221" xml:space="preserve">
<g id="Shapes">
	<g id="Wrench_tool_x28_s_x29_">
	</g>
	<g id="user2">
	</g>
	<g id="user2_1_">
	</g>
	<g id="user2_4_">
	</g>
	<g id="user2_3_">
	</g>
	<g id="user2_2_">
	</g>
	<g id="Internet_2">
	</g>
	<g id="Enterprise">
	</g>
	<g id="Tunnel__x28_stackable_x29_">
	</g>
	<g id="New_Symbol">
	</g>
	<g id="New_Symbol_1">
	</g>
	<g id="Files">
	</g>
	<g id="BlobBlock">
	</g>
	<g id="E_x5F_Enterprise">
	</g>
	<g id="E_x5F_AD_FS">
	</g>
	<g id="C_x5F_Azure_Active_Directory">
	</g>
	<g id="Layer_22">
	</g>
	<g>
		<rect x="0.5" y="0.5" fill="#FFFFFF" width="303" height="220"/>
		<rect x="0.5" y="0.5" opacity="0.2" fill="#E5E5E5" width="303" height="220"/>
		<rect x="0.5" y="0.5" opacity="0.1" fill="none" stroke="#231F20" stroke-miterlimit="10" width="303" height="220"/>
	</g>
	<g>
		<rect x="20.23" y="37.56" fill="#FFFFFF" stroke="#E5E5E5" stroke-miterlimit="10" width="251.72" height="156.49"/>
		<line fill="#FFFFFF" stroke="#E5E5E5" stroke-miterlimit="10" x1="20.6" y1="162.31" x2="271.58" y2="162.31"/>
		<line fill="#FFFFFF" stroke="#E5E5E5" stroke-miterlimit="10" x1="20.6" y1="131.31" x2="271.58" y2="131.31"/>
		<line fill="#FFFFFF" stroke="#E5E5E5" stroke-miterlimit="10" x1="20.6" y1="99.57" x2="271.58" y2="99.57"/>
		<line fill="#FFFFFF" stroke="#E5E5E5" stroke-miterlimit="10" x1="20.6" y1="68.56" x2="271.58" y2="68.56"/>
		<line fill="#FFFFFF" stroke="#E5E5E5" stroke-miterlimit="10" x1="240.21" y1="37.19" x2="240.21" y2="193.68"/>
		<line fill="#FFFFFF" stroke="#E5E5E5" stroke-miterlimit="10" x1="208.47" y1="37.19" x2="208.47" y2="193.68"/>
		<line fill="#FFFFFF" stroke="#E5E5E5" stroke-miterlimit="10" x1="177.46" y1="37.19" x2="177.46" y2="193.68"/>
		<line fill="#FFFFFF" stroke="#E5E5E5" stroke-miterlimit="10" x1="145.72" y1="37.19" x2="145.72" y2="193.68"/>
		<line fill="#FFFFFF" stroke="#E5E5E5" stroke-miterlimit="10" x1="114.72" y1="37.19" x2="114.72" y2="193.68"/>
		<line fill="#FFFFFF" stroke="#E5E5E5" stroke-miterlimit="10" x1="82.98" y1="37.19" x2="82.98" y2="193.68"/>
		<line fill="#FFFFFF" stroke="#E5E5E5" stroke-miterlimit="10" x1="51.97" y1="37.19" x2="51.97" y2="193.68"/>
	</g>
	<path fill="none" stroke="#2E5291" stroke-width="2" stroke-linecap="round" stroke-linejoin="round" stroke-miterlimit="10" d="
		M20.6,192.96c2.08-28.2,4.4-45.03,12.78-64.57c8.21-19.15,23.29-36.28,40.38-48.31c14.49-10.21,23.37-11.06,40.95-13.35
		c48.33-6.28,106.94-8.07,155.68-8.47"/>
</g>
<g id="arrows">
	<circle fill="#FFFFFF" stroke="#808184" stroke-miterlimit="10" cx="24.1" cy="162.31" r="3.5"/>
	<circle fill="#FFFFFF" stroke="#808184" stroke-miterlimit="10" cx="32.21" cy="131.31" r="3.5"/>
	<circle fill="#FFFFFF" stroke="#808184" stroke-miterlimit="10" cx="52.21" cy="99.31" r="3.5"/>
	<circle fill="#FFFFFF" stroke="#808184" stroke-miterlimit="10" cx="76.94" cy="78" r="3.5"/>
	<circle fill="#FFFFFF" stroke="#808184" stroke-miterlimit="10" cx="126.21" cy="65.31" r="3.5"/>
	<circle fill="#FFFFFF" stroke="#808184" stroke-miterlimit="10" cx="196.21" cy="60.31" r="3.5"/>
	<g>
		<g>
			<polyline fill="none" stroke="#000000" stroke-linecap="round" stroke-linejoin="round" points="277.85,194.05 20.23,194.05 
				20.23,32.4 			"/>
			<g>
				<polygon points="275.87,191.15 286.71,194.05 275.87,196.96 				"/>
			</g>
			<g>
				<polygon points="23.14,34.38 20.23,23.54 17.33,34.38 				"/>
			</g>
		</g>
	</g>
	<circle fill="#FFFFFF" stroke="#808184" stroke-miterlimit="10" cx="20.23" cy="193.68" r="3.5"/>
</g>
<g id="Text">
	<g id="Windows_Server_New">
	</g>
	<g>
		<g>
			<path fill="#1E1E1E" d="M18.38,10.2V9.95h3.97v0.25h-0.33c-0.38,0-0.65,0.11-0.83,0.33c-0.11,0.15-0.16,0.5-0.16,1.05v4.53
				c0,0.7-0.08,1.26-0.23,1.7s-0.42,0.81-0.79,1.13s-0.82,0.48-1.35,0.48c-0.43,0-0.77-0.11-1.01-0.32s-0.37-0.45-0.37-0.73
				c0-0.22,0.06-0.39,0.17-0.51c0.15-0.14,0.33-0.21,0.53-0.21c0.15,0,0.28,0.05,0.39,0.14s0.26,0.35,0.44,0.77
				c0.1,0.25,0.24,0.37,0.4,0.37c0.12,0,0.24-0.08,0.35-0.23s0.16-0.42,0.16-0.8v-6.33c0-0.47-0.03-0.78-0.09-0.93
				c-0.05-0.11-0.14-0.21-0.29-0.29c-0.2-0.11-0.4-0.16-0.62-0.16H18.38z"/>
			<path fill="#1E1E1E" d="M30.79,21.99h-3.01V9.74h3.01v0.54h-1.98v11.18h1.98V21.99z"/>
			<path fill="#1E1E1E" d="M38.05,16.11h-3.59l-0.63,1.46c-0.15,0.36-0.23,0.63-0.23,0.81c0,0.14,0.07,0.27,0.2,0.37
				s0.42,0.18,0.87,0.21v0.25h-2.92v-0.25c0.39-0.07,0.64-0.16,0.75-0.27c0.23-0.22,0.49-0.66,0.77-1.33l3.26-7.63h0.24L40,17.45
				c0.26,0.62,0.5,1.02,0.71,1.21s0.51,0.29,0.89,0.31v0.25h-3.66v-0.25c0.37-0.02,0.62-0.08,0.75-0.18s0.19-0.23,0.19-0.38
				c0-0.2-0.09-0.52-0.27-0.95L38.05,16.11z M37.86,15.61l-1.57-3.75l-1.61,3.75H37.86z"/>
			<path fill="#1E1E1E" d="M46.03,9.5l-3.36,9.91h-0.55l3.36-9.91H46.03z"/>
			<path fill="#1E1E1E" d="M48.64,14.1c0.46-0.46,0.72-0.72,0.81-0.79c0.21-0.17,0.43-0.31,0.66-0.4s0.47-0.14,0.7-0.14
				c0.39,0,0.73,0.11,1.01,0.34s0.47,0.56,0.57,0.99c0.47-0.55,0.87-0.91,1.19-1.08s0.66-0.26,1-0.26c0.33,0,0.63,0.09,0.89,0.26
				s0.46,0.45,0.61,0.84c0.1,0.26,0.15,0.68,0.15,1.24v2.69c0,0.39,0.03,0.66,0.09,0.81c0.05,0.1,0.13,0.19,0.25,0.26
				s0.32,0.11,0.6,0.11v0.25h-3.09v-0.25h0.13c0.27,0,0.48-0.05,0.63-0.16c0.1-0.07,0.18-0.19,0.23-0.35
				c0.02-0.08,0.03-0.3,0.03-0.66v-2.69c0-0.51-0.06-0.87-0.18-1.08c-0.18-0.29-0.46-0.44-0.85-0.44c-0.24,0-0.48,0.06-0.73,0.18
				s-0.54,0.35-0.89,0.67l-0.01,0.08l0.01,0.29v2.99c0,0.43,0.02,0.69,0.07,0.8s0.14,0.19,0.27,0.26s0.36,0.11,0.68,0.11v0.25H50.3
				v-0.25c0.35,0,0.58-0.04,0.71-0.12s0.22-0.21,0.27-0.37c0.02-0.08,0.03-0.3,0.03-0.68v-2.69c0-0.51-0.08-0.88-0.23-1.1
				c-0.2-0.29-0.48-0.44-0.84-0.44c-0.25,0-0.49,0.07-0.73,0.2c-0.38,0.2-0.67,0.43-0.88,0.68v3.36c0,0.41,0.03,0.68,0.09,0.8
				s0.14,0.22,0.25,0.28s0.34,0.09,0.68,0.09v0.25h-3.1v-0.25c0.29,0,0.49-0.03,0.6-0.09s0.2-0.16,0.26-0.29s0.09-0.4,0.09-0.78
				v-2.39c0-0.69-0.02-1.13-0.06-1.33c-0.03-0.15-0.08-0.25-0.15-0.31s-0.16-0.09-0.28-0.09c-0.13,0-0.28,0.03-0.46,0.1l-0.1-0.25
				l1.89-0.77h0.29V14.1z"/>
			<path fill="#1E1E1E" d="M62.63,14.82l-0.51,1.4h-4.3v-0.2c1.26-1.15,2.15-2.09,2.67-2.83s0.77-1.4,0.77-2
				c0-0.46-0.14-0.84-0.42-1.14s-0.62-0.45-1.02-0.45c-0.36,0-0.68,0.1-0.96,0.31c-0.28,0.21-0.49,0.52-0.63,0.92h-0.2
				c0.09-0.66,0.32-1.17,0.69-1.53c0.37-0.35,0.83-0.53,1.39-0.53c0.59,0,1.08,0.19,1.48,0.57c0.4,0.38,0.59,0.83,0.59,1.34
				c0,0.37-0.09,0.74-0.26,1.11c-0.27,0.58-0.69,1.19-1.29,1.84c-0.89,0.97-1.45,1.56-1.67,1.76h1.9c0.39,0,0.66-0.01,0.81-0.04
				c0.16-0.03,0.3-0.09,0.42-0.17c0.13-0.09,0.23-0.21,0.33-0.37H62.63z"/>
			<path fill="#1E1E1E" d="M63.87,9.74h3.01V22h-3.01v-0.54h1.98V10.28h-1.98V9.74z"/>
		</g>
	</g>
	<g>
		<path fill="#1E1E1E" d="M248.41,202.18v3.66h2.04c0.53,0,0.88-0.08,1.06-0.24c0.24-0.21,0.37-0.58,0.4-1.11h0.25v3.23h-0.25
			c-0.06-0.45-0.13-0.74-0.19-0.87c-0.08-0.16-0.22-0.28-0.4-0.38s-0.47-0.14-0.86-0.14h-2.04v3.06c0,0.41,0.02,0.66,0.05,0.75
			s0.1,0.16,0.19,0.21s0.26,0.08,0.52,0.08h1.57c0.52,0,0.9-0.04,1.14-0.11s0.46-0.22,0.68-0.43c0.28-0.28,0.57-0.71,0.87-1.28h0.27
			l-0.8,2.32h-7.14v-0.25h0.33c0.22,0,0.43-0.05,0.62-0.16c0.15-0.07,0.25-0.18,0.3-0.33s0.08-0.44,0.08-0.9v-6.02
			c0-0.59-0.06-0.95-0.18-1.09c-0.16-0.18-0.44-0.27-0.82-0.27h-0.33v-0.25h7.14l0.1,2.03h-0.27c-0.1-0.49-0.2-0.82-0.32-1
			s-0.29-0.32-0.52-0.42c-0.18-0.07-0.5-0.1-0.96-0.1H248.41z"/>
	</g>
	<g>
		<path fill="#1E1E1E" d="M17.49,206.37c0-1.06,0.16-1.97,0.48-2.73s0.74-1.33,1.27-1.71c0.41-0.3,0.83-0.44,1.27-0.44
			c0.71,0,1.35,0.36,1.91,1.09c0.71,0.9,1.06,2.11,1.06,3.65c0,1.08-0.15,1.99-0.46,2.74s-0.71,1.3-1.19,1.64s-0.94,0.51-1.39,0.51
			c-0.88,0-1.62-0.52-2.21-1.57C17.74,208.67,17.49,207.61,17.49,206.37z M18.83,206.54c0,1.28,0.16,2.32,0.47,3.12
			c0.26,0.68,0.65,1.02,1.16,1.02c0.25,0,0.5-0.11,0.77-0.33s0.46-0.59,0.6-1.11c0.21-0.78,0.31-1.89,0.31-3.32
			c0-1.06-0.11-1.94-0.33-2.65c-0.16-0.52-0.38-0.9-0.64-1.11c-0.19-0.15-0.41-0.23-0.68-0.23c-0.31,0-0.59,0.14-0.83,0.42
			c-0.33,0.38-0.55,0.97-0.67,1.78S18.83,205.75,18.83,206.54z"/>
	</g>
	<g>
		<path fill="#1E1E1E" d="M261.42,213.72h-3.01v-12.26h3.01v0.54h-1.98v11.18h1.98V213.72z"/>
		<path fill="#1E1E1E" d="M270.7,201.47l0.21,3.15h-0.21c-0.28-0.94-0.69-1.62-1.21-2.04s-1.15-0.62-1.89-0.62
			c-0.62,0-1.17,0.16-1.67,0.47s-0.89,0.81-1.17,1.49s-0.43,1.53-0.43,2.55c0,0.84,0.13,1.57,0.4,2.18s0.67,1.09,1.21,1.42
			s1.16,0.49,1.85,0.49c0.6,0,1.13-0.13,1.59-0.39s0.97-0.77,1.52-1.53l0.21,0.14c-0.46,0.82-1.01,1.43-1.63,1.81
			s-1.36,0.57-2.21,0.57c-1.54,0-2.73-0.57-3.57-1.71c-0.63-0.85-0.94-1.85-0.94-2.99c0-0.93,0.21-1.77,0.62-2.55
			s0.99-1.38,1.71-1.8s1.52-0.64,2.38-0.64c0.67,0,1.33,0.16,1.98,0.49c0.19,0.1,0.33,0.15,0.41,0.15c0.12,0,0.23-0.04,0.32-0.13
			c0.12-0.12,0.2-0.29,0.25-0.51H270.7z"/>
		<path fill="#1E1E1E" d="M275.88,201.23l-3.36,9.91h-0.55l3.36-9.91H275.88z"/>
		<path fill="#1E1E1E" d="M278.5,205.83c0.46-0.46,0.72-0.72,0.81-0.79c0.21-0.17,0.43-0.31,0.66-0.4s0.47-0.14,0.7-0.14
			c0.39,0,0.73,0.11,1.01,0.34s0.47,0.56,0.57,0.99c0.47-0.55,0.87-0.91,1.19-1.08s0.66-0.26,1-0.26c0.33,0,0.63,0.09,0.89,0.26
			s0.46,0.45,0.61,0.84c0.1,0.26,0.15,0.68,0.15,1.24v2.69c0,0.39,0.03,0.66,0.09,0.81c0.05,0.1,0.13,0.19,0.25,0.26
			s0.32,0.11,0.6,0.11v0.25h-3.09v-0.25h0.13c0.27,0,0.48-0.05,0.63-0.16c0.1-0.07,0.18-0.19,0.23-0.35
			c0.02-0.08,0.03-0.3,0.03-0.66v-2.69c0-0.51-0.06-0.87-0.18-1.08c-0.18-0.29-0.46-0.44-0.85-0.44c-0.24,0-0.48,0.06-0.73,0.18
			s-0.54,0.35-0.89,0.67l-0.01,0.08l0.01,0.29v2.99c0,0.43,0.02,0.69,0.07,0.8s0.14,0.19,0.27,0.26s0.36,0.11,0.68,0.11v0.25h-3.17
			v-0.25c0.35,0,0.58-0.04,0.71-0.12s0.22-0.21,0.27-0.37c0.02-0.08,0.03-0.3,0.03-0.68v-2.69c0-0.51-0.08-0.88-0.23-1.1
			c-0.2-0.29-0.48-0.44-0.84-0.44c-0.25,0-0.49,0.07-0.73,0.2c-0.38,0.2-0.67,0.43-0.88,0.68v3.36c0,0.41,0.03,0.68,0.09,0.8
			s0.14,0.22,0.25,0.28s0.34,0.09,0.68,0.09v0.25h-3.1v-0.25c0.29,0,0.49-0.03,0.6-0.09s0.2-0.16,0.26-0.29s0.09-0.4,0.09-0.78
			v-2.39c0-0.69-0.02-1.13-0.06-1.33c-0.03-0.15-0.08-0.25-0.15-0.31s-0.16-0.09-0.28-0.09c-0.13,0-0.28,0.03-0.46,0.1l-0.1-0.25
			l1.89-0.77h0.29V205.83z"/>
		<path fill="#1E1E1E" d="M292.48,206.55l-0.51,1.4h-4.3v-0.2c1.26-1.15,2.15-2.09,2.67-2.83s0.77-1.4,0.77-2
			c0-0.46-0.14-0.84-0.42-1.14s-0.62-0.45-1.02-0.45c-0.36,0-0.68,0.1-0.96,0.31c-0.28,0.21-0.49,0.52-0.63,0.92h-0.2
			c0.09-0.66,0.32-1.17,0.69-1.53c0.37-0.35,0.83-0.53,1.39-0.53c0.59,0,1.08,0.19,1.48,0.57c0.4,0.38,0.59,0.83,0.59,1.34
			c0,0.37-0.09,0.74-0.26,1.11c-0.27,0.58-0.69,1.19-1.29,1.84c-0.89,0.97-1.45,1.56-1.67,1.76h1.9c0.39,0,0.66-0.01,0.81-0.04
			c0.16-0.03,0.3-0.09,0.42-0.17c0.13-0.09,0.23-0.21,0.33-0.37H292.48z"/>
		<path fill="#1E1E1E" d="M293.73,201.47h3.01v12.26h-3.01v-0.54h1.98v-11.18h-1.98V201.47z"/>
	</g>
</g>
<g id="writer_source" display="none">
	
		<image display="inline" overflow="visible" width="219" height="182" xlink:href="8BB753E1.jpg"  transform="matrix(1.2747 0 0 1.2747 356.9441 -36.5055)">
	</image>
</g>
</svg>
